<mxfile host="app.diagrams.net" modified="2021-12-28T07:46:04.836Z" agent="5.0 (Macintosh; Intel Mac OS X 10_15_7) AppleWebKit/537.36 (KHTML, like Gecko) Chrome/96.0.4664.110 Safari/537.36" etag="WnCKHyoXWqdq-iTY01ul" version="15.5.9" type="github" pages="2">
  <diagram id="jLE878lX7hyQnDKdHxgb" name="第 1 页">
    <mxGraphModel dx="5666" dy="2813" grid="1" gridSize="1" guides="1" tooltips="1" connect="1" arrows="1" fold="1" page="1" pageScale="1" pageWidth="291" pageHeight="413" background="none" math="0" shadow="0">
      <root>
        <mxCell id="0" />
        <mxCell id="1" parent="0" />
        <mxCell id="eE12ItCGI0aCU4_02zit-2" value="" style="shape=image;verticalLabelPosition=bottom;labelBackgroundColor=#ffffff;verticalAlign=top;aspect=fixed;imageAspect=0;image=data:image/png,iVBORw0KGgoAAAANSUhEUgAAAu4AAAU2CAMAAAD9CcM0AAABd1BMVEVedvUvf6YvmbMweKJdmfZef/Vei/ZehfVebvVdkfZdn/YviKpeZ/UvkK4vcp0voLdgfPUwbJoxWJFcpfZeYfUwY5YxNn6AANExR4cvrb4wZ5kvprlcqvYwS4kwXpRvCb9kgvVkiPUxQYSjMuFfW/Vkj/YxUY1csPaJA92XHd9/LsCwTtD+//+7WOTShtdjlPaBKuAuyu6+d8akPdSYN8zjtOfGds6LPMd1AcnDaOMLtOfQdeBlJK++Y9LyyePSk+dyKrmZTcoBndpKFZoCpd//0ruqZ8fuweGwRd9lC7T609bf5/5fVfSRD9oAk9QDrONZGaayTOXlrtj/x6NYB6nsfCHfmtHUjcD0l3oewOvYougAis2VYcTHe+r0kVacSuX/uXYNTLQHvumMJM7voZ/nnra1cMiBGcv0w87+18v+vI3wiDu6z/rxub2WLdSqc72DW8PeawOpvPqxXM2GofjytKhFXrwO47OaosGZrslOrOVykrTFm4Ly6UYXAAIEjElEQVR42sScTW7juhKFs4oM7hLomR4QThRAggGNMtACBDQy0VQEDHj9T2T9FynZ6e50JJmSnaDvHXw5OHWq6JfPHzzu5dpf5SxHah5LfUzbxMc2reXYymvr5HFfO/Wj/AbewzHJNcnFL3loH0u+8v/MSCde48jv5Ej8iuW1n2l/xX2lpX2EfOEZyovWrxxDvvh8dPRy8ZmvctBdHg6PGV95UXf4eD/n8mofV7yuf+94+TnU78g7kX7Iuj4B9QzZDvk2lWWnfUO4y5WZ7gDsHX1415XPC/DM/7ZOzDyefMligV/kNcK55LUCfhnxRmfKnCPxO+z5OcOeHzPrKeKahPyEjOdLE4/Lk4TzBZjTFc5Qb2A+8IofmT+ABuRCdQGb7vJMbxH7Q+Cv1/mqbr/N/+uP4H4X1vNCx8cB7My5l/hCXaXuO9TIdLd1BfaMOjC+obQX7EXht4mJtwpPyFeSDrKOx876VKn7YtU9jQA8EF+WrO5F3JHvpEWemE8haY2PpPAo8+WzIV8F7jiUhzSEssJdse8RD+fqbpAfCHhEnBf+8SH47qphx4vVXGRdeP9dvl/pgg9efgB2XpSyC97RwZ4E9GRg3/h06l40feuIdKB/Q3nfiHWNPPFermnS6J85GtB3AH6q7AwpPL/Yz8RCPGh8MTXoagT2gnYqyp4Cka4UPgLn+4vOTHvMwBfqyzXQKkdsfFZRDrce1xbyWu7PjYyDPS/ezqCj6Y/EnZX9sbC/2qX+2cu/9i+s7ML6h9AdWtIOVzLKviybVnf0JSDiIOddftgVHgQeJZ7wN6xvlnmUdDE0HnYyNKN4mh10Il58jNF6WBoGPsWEPr4S+ZDY1CDuiS180fghkry3zvojAT4+9u5H8i7Plb1xqCs3o6yNtjgCfAU6w66dTDnowdH/+ujv4EfU/W5r0yPHTsqekkMdisO8FNAzjDvsE+o76vnaoZNZSeSLwoODV6WrI16R7qtWD/wI8j6BvBf3vmjER1uoLq5aJeCTlKwj67oR+cx5CqZyDexuiq5/gJ/Zb0NZGO4PWPb1AxlvUR5OrIzS90rerbo3WO/b6u6tPNPei5HB1+H5BT/zKrD/K3UXxD+VXdeGPZwb98W4dwSesxlNbsG8SDu+XzsoVhF/9Dv+mIh2Qt4Uqxr5m/MzxPuo5d3KuhStlcJHBB6gV64dzbpAn/QfQEBRR9+eOS43sPBoZ8obqE/3J6Xr+nrkanTdatS9x9uBvBuFn9uFq/PvDY0/YH3+sp15/WfJzF1HjmhjjK5HhD3UqJ8UqgvaGBRgVPdtJdjJvW+dkvmt43K18u/oh8TFKHVfLfLE/EWQR9Yn5WNqlSfYIwOPpiYy80besVSlcIYcO34CtCPunFGyj7EpzYG4x9N8pnbvQ12xDkbeW2Xr3BR5H870tZ8x/n1WLua3itfX78X9bvJG69dPPExL202dWnLIjaL3TZKZYmJWtO4Kc3hEU9OR6LckfjIKLypfpe0Z+Az7rwz7hfMZJeXjIsjLEimKzPdY3kdcEii9yuKj0XeRd1etBhJ5dvSAtkslQd1jpe3xYf7u6lWl83VI2QK9FdCIp5H43cQzNno3rH8lmqF85rvV/W6VvQ17yJIeRODrUAbL1FrgC3QbOw0S96zn6NxLFAlKT9hLvdr5lpPT99UI+0E0c8GFrQzdas6dtyHiMZqMmE220kh5HMpt0C2oIutkaQhrZH1I+wVnOC1RD1N4zbnyLgZ29fFB8+kR8PN5wdq07XOT/J9KZly4rjg/SdjTUSxTJ+5Uqk7camLN7jbyLeXYOsxnMIvHopVg7xoCn2+qRl2F+LUy8BdlZvBGFh4xX3zVCiJPso6Kz14Gl+S1PURXrWa+I5t303/SWk/9ptNuVHb3xx6+ZWeGwai7TeFrPzO3gZfatYL9KqtOIf+gzfR9yYwyMNatGxMT0nGhukAoQ7wnV6dy8D5JuQo9Ji5KC+lbR9xvHZsZcvIun5l8Cm86rUT6ysDfspUpwP9SCl+Ad1MEi7HyCT6KI3WbIlStEMRTBi9OPqlW1A60LlnBtKvWE/kW0vZ8laZTeYA3+AOU9HDcceqdlakjeBb30xR+7o/kXcJINVJwZcptveq1/Skr42T+5RuCRg373eQwXtfDk8495ZjPenfqq5YosowRbODcgWuAfBMvv5J/Z+fOJWtXmXfQeBvOlPutkvdf0m/K52VULVZl4021uoCig3Xn0lWpO9ma5A180u0mbeS5z6pieRweoP4qMq6HC/QMTTgP4DXsvfXwQyuYrCNJX7bONnw/mCIwhkbNEzxopXriX78hiLx7aTeyfn/WxNgJGZe6K3WfRHDXaVIx5Iawq96SQr76dF1Xb2ukZJ2k53TzKXxR+F3ZL7heSv6+u5nLchnNuNio/gbQvQDzSWpVMTVjtN4m+UrVkc74B3IzerwGnEyBPaRqrIBYDw/GCnrKJlHtvZ8fzHMb8trF0yc1+tcqjvQV6/yjI2J3j7qz7F8RdpfKjBZ29O7TxGORaES2dTOeHRur3dYZ1jul+WT4D1J4Ufcbgn5DyOVGxIOh2Tm/aC8zSUhjOk6RspmEViZG0vzoL53SsK/R6s6K7tSdhydpjgaXAXUeUEdtD+1wsrcd1rp09YXr+WiBIn1uNFf7WXv2xjSBQn1+6GS+Afe76SQ1Vf15Xa/E3fZUJ6PuC88QlJWSyK3jilSTrfR8MzMFXS3uNBecl/eM+TvDjitccAPUy1XUvaQzBXvEfGIzL0n8/rzDvURx72kUsY/4BxBJ4RPMiwVnbYKYGzcyqU1OgpxmaJatgxqWPBwO5op10LWqtu4mjzwg3g2IVVOTZHHq9L0S+Pnr02J/S93Fr2PY+Ces8+BA5WKMuhPsC6p7id5ZxgXnreucfeHBgvonVQ6vO02ZeNZz0XewMwX6coJ9v0wC+TSOnE62UppE/dUi8OjpI8t8tOqOrSc1WxP09JiUrFbjU8kms42PMio5VKwf55J9q8Vq1b3uOZ20WI2FsRLv3IyajDSS/qjZ9Oqc/J9697tWdxU4fv4F2CmBHJWZmSzwyr5vaGc6CGdgNoynf9HhrBzUsI3Rnqay79Nq5wimdzDwpli9kb25oZth4MeRkF8oedcVbCzqPkbUd5yTROS1feeIZtS9pyCwyxhNiMg7PimFH6JLJYeg69VBF66nBSsz7yOaSuwPOk51Y5W0vi5bTTgzz3pg7JT21+/x7mbgi29fY31Uq58aaIwOiKUxDZ8yRbBq76IMi0lnYISmtu8a9p30d2Rejb5ndb8x4eYiM3Mp9n25QB6ZTfxtEY2vjqRy+EQrpTYMfZTpAk4l8zKY7CbwtAE6GmPi4xDScL4HRIt9OPIzamrMtpcG69+Ho/1OLoHnP4J5bm/3uMpw5FOm/dzPvPyJf1GN03ul6sA65OcW7vHp5tJ4aGTIuy9cq06Mu5SliupN5zP6V5S8d75c5S5r/i+8T8bKKPMO54Xs+wVCyaLvF2Z9MRGl7jdBTxXlPcaRM8qoiK+NDTHOkU2IrOuyx4/TGvgs5ZkDSGkwkh+cpzmMZ3o1KKlieO/f+0cCX43P9FX0PrtwRuYkzUjw9ela9Q+8+539C6n5Iew4w7ucK7vsSM1XIsyTMjLezhjnvlGbSWz5Wk3/dnUqucrOPkzkO1D1d7n2c8ovcDTvSuGFdK3weO5HCeEvVKk6w75Iu2mUniraGh1MGj8zyiYQu82P/bsyNbQebG5Ng6laydsY8I+QpyiS0dezM0P/tR0fzsvbAUkTR171Dr7jSYJD8/47uN+Nut8/q8KUWF94ovELgUxKRf6Mjxl9cwlo18k75+6IOMXuVdruU3cb0DQCyUk2bq/g3yWa0fb9IrSPHEmWdAZjSdrV6rpOBHbijX2UxnvWeZEKNpguazDjY+zjQ1A1bPkhjQbXO1oH22w967XavtNQjQKfgn/YWNWo97bZdHXjBA8mgf/Uu5tIHRumTLoz7MsiIaKI+3io6/Q7Mv44eifDvSWt63IH3q1tp8M6HGvcSdjz+VYQhxWlnQQ+e5l826WeAne1UruJ4pnxAhHNcim038DEu2kxfl7G0cBNKXxU7t00nhq2JtmdHxHmaYLa+8TDwYEG40sHajBDNRLSHG376I2NryeCK79etVlbAq+MjWa+b80SuCp1/lIU+fIbIzA+gfmsdF1YR3VfHuj6yKSndoVKrSWYDPPbo1cYJGDgAfU3DGHeVua+qmO5eAXn/ibAr4R9kXlI31fTT71JKDPduN2EAp+Bh5rVaPyip2fKZ9BpoqQmidqPxsWrCQPl46XPyts//Hd0ROvgI4NfTZAN8vUcxH44zuDF2AyD3tdnhf6oXG3uXzUFayt+N7v45if3rn5F3e/H3dJPz3r6ENZ5gymxvqQHm/TKb5Nd95XqpL9xY7FGRpsZI9yZ9jel8WYjn7/tkHdK29+0vud/+734mHfUd91e9eWqnOMF/DucWd+n/+3sL82voRGBx1lgO1AQ65TGzUzG5nd0yFwBI45+ZkADP7hvoSHfHo5UnptM2rsbdX+iveomI8m1cxKpgb+6PpOW9/m5ryN4uL3jP12RHvdLmXVtYpS4PwO7HfRNyzI2UCfzbmRdT82sZGcK0jvnb2Jl8vXGtNdlqxoi0+KekZ9WRJ7DmXeyL0bhkfYbgj5lIwMG/iKjBTvyFeMg61Sn0pik8/YteU+H38IUXXvVqnvZ4GrHZ0yPlSYM2jlNrzf3mQBea/rhfOT8aMu2zt77xvcSzEre/4J3/68RN96lX9oMYhKZGNlYKvsyuHOkt+Q19ueNeI1LY1IGZ2S4Rl3+z9nZ67iO5FD4PsECG+wGDvYBrMwtlBILkGBAgDMHEyqZRKkFCOjELz+uIlk8ZJXk7vWPrOt7J/t85vAUi1W4mQn6X4TqJO70p8DYB5fFx3+RfhdhCbzXKSRtZ30njRfnnsQ9azw86RWJbxj6mTx8Zj5y3TDfzTzWH1necwuNaZOEarWr+3dUd7A1QLuGNOJtBuBcO+Bd7Vrf21c0SdqEZrgezaBR2m9uPsHDiHzp4IH1x2+6gRH3k7IOsfrftXav7yrrYL9rrM9A+araP5tfSK1rAEYPQNTu9X2hHU1qWhK9IXHMdiZccM6S0B/MryAk7kHfe1b3FEYy7ZunnWFP1eqmcWRS+Ux7s7ODVThnG18sN2FMCbCPVUej1SqsOEGjJN6eNaIZAPqyxaCYO3a1Jr7SCF82FQxHgaTd22TV/VZ0ipVbtB8/9+4nlPTI9b8z/9+nI9DfpK/fMsQRO7oc8FCzrpZ/Bj6H61nbVzTs2cVk2ufJc89rQtmtBIFeHEzQqCaLe88aH+g/kKEFIvC9RjRTLwaenol4KVJZ3cnOiMBT/L41Wd0bTmeSeZ9TA1lF3ce8xWnNDQW2f2a0/n2tGPlz0TWGwyW7M44ig6TScY7aft6ZzVGo/ICIZ4fzGD74d9NNcK01wd98/wzUq4/fe/dTvuaK1Gy7c5XpyrijsFt19iKvNzN2PdY2cEDkPpnRA3ORQJoRSLaHQMtUVXgCP7DBJ8Un0Y//JECzWAomYcEpUb5M4Gckg9w2G9JE5psEO0OfIhqO4Rn5upPJwLdi4N0aayebP7oD314ZpGoNfKf1qkg8vDP1CP3OnifXJVnrk9zbxPqoLK8WQ8WurhcYw/f/p5ngT9bx90dS9e9E/Mk49L93pH2FqUerF3Rl3ot8/H41zkfd+lhpkZlgbanuZph2biRYcp0KZiaInwn5x5B9TbhgbBM5j+i71dXYDLxMYuGTuk9bj9Z9SwrfJFfDbiYl73QdFfl6KmMerRV7t+Nj3HXwlV/A2W37cBHlQKmNKVaFfL//4+MIVbfKtD+j4HpgZ3YGpZqNq+jgf9IR/F80M+/3SRdNT3tRIzt1IR1mUafP5+zkPbfx5nyStD2XtSP0PI5W1qH1EeP2qQZ83lCaQ3fGPIczTHgwWWT+ZbC4L2zbL9RNEKmXepVs/JQSmlqpap+84tSwryHQs4HnFL7WDIxxjNngBNbdYD7+kHdgHe3MUOziNk0FgyX+YObY1exystMJhoPp2CaMLPoI0NLc6sP0brrn40fqDnHjKar654fAruO9nnN8Oilfra3BeWDW94yVu3yrKfs8ucWlabKTj5Zs3sGmB85eFkY9XzmtXCSaof8JLFKqBkjfp76nvpl+Sh/iZ6bJRzMs7mRmyMWnQJJpbzLwFdY7L/PZ14y1fmDV9/FX+g7Kjv00nekLhitgXgMem4Jd90CxZfuzgX/sDhaDDds3491vHxqB3ZyZUxTzWJGifznx5VQUplbX15lA54eT91rmorAnZV81Zx/RsJvux8q6ko/cJZqRLDIQ6CGb+CAWh40OW5gs7imrJNYDq3vW9n5ZsF2sh3o1ZTQb1KvpkxOa6GnoTcA3m+h8dPD7Jj7DrqhbB+97Ceq9BedS4uu7WU08aVGv5TRHIzpqA8eG3ZFLlYLV7/e4yrAlPy7111tXaXtHBPxUMemn0sKYdq7IqaBeVXedmGG34a3YA1ZzMbV9S3Op7GbK15LVHZSdE5oAhataelhfDbIuRdVqCAn6kCFforrzzYRPq+8b+/c331sKZahgZeA39e4Nm5lD4Fu+tiMVrrZcVV0ff+TfO+veIYIn405/NTjrfq41B5drT3ZMtukFdnLvAsnHvW5n9sYT3JyV+fUMvYg7S/lJRb2w6gn2b2RdxPzN+XPOzDt9X8tbs9t6VeDHuRyt4bva9+J2iGaoa/0i2q6LSLlwBeRDQp3VPbDac3QT/Uz86o34pUdxl0t8yrLqtmH6zutNG+t78jOk7tnEg33/ENN0YwZ+r1q1IeXRMqtucYolalf2F/j1VTN56ag72BxuUz//AI38fWe3tr3aJdbbwTDsn5r3Pwnq/+xqutuS9MqOneFWK7O6InU1zQR82xHXK59n5NLHUUN2M29gmmraPpnjNnQsUlGc5kvIWST+Yck/ixCF/ULqTrZGDDw9WeCTnyHit/QUbZd0JmFOpCeZJ3VX0GXdaRvHj9iL0rdjtQH+F1Uron6uGPqu6mdyMHPcBj/YXkm70mpk/b63velRi2iKZoLbw2zS1kbgx4+2ZmfE39d/OVXPIcwrvQTcJ7+eT+E9I/+c6+q+2mB9LFZQx6q2m7OQ6rYdzQz0vBtxD1ibcrouDj4Xq+RjKJ0JjnUlvoelpj7HkP22GZnnVxJ3UvctppEbAS9CX7L+dWBrynJ1LNecug+pvO5i9Q7+XEo8NgcPyPv+RPgyib/anaz2cSf6Hzh/qZwtdi0H6RHxv8tmknf//t93fBWgs6i/cLPRS1j3z7mm8dAwhnuSxgJvF8K4RGYH9Kk4P0mnAC9AebB3Ym3CJReq+nsI/E8Idnq+rcwFOt9J2alinaKbSZZGVH2C8D3F7yTrifTI+gaZpPiZuTkyNDl1b7l2ba2bwVK1PXAz5w62a5tEkp1N9Xgzlnhh/cMGv6sbW+AGjMXLHZm/e3l/+C5giWewfaaQ98cvZiz9qZiX980rwv5tKtOn1qRP0nUQ96dNaGrEr+Xm02I0WDlZY57qC0sL2HUhXcV9AcYveAfeRgtWAp++DhJKhj5R/74JqWGs71HhyczE95vtaGi0WoX1JklnIurp9X4y8rLghOVqsyPtnRmk2towUkn/4bpTOYomcz+AnzHz9fCoSvPynNdndLhOsXuW9XSh98Pv/9Dl1WulWJXtfL8YxOFwJ9hf6/erMuNIRT2/Zr2fc0Lzu8eIh3HA6Ee0MnuWfdLRGNbJ5DaCAO79gkp/CRf/e6D7wBfuKIhZJDmZN/z9+5UiGvYzBPz7FS1NnwwNN85s7GS2LZer/EoaP24awovEN0fEq9LjbLFxhAJ1ZObH7ni5tdjNB/APOrSgq04rOJ+PN7LuHtrnMpph5/RVaHjX+Ur0vtbSGV1kBdQfP8J9JUV/qaS/5jWal5ekLvwCDwMCr67m18hPbvuGj9nLjRzFqNJp8fJeKVLDxdmbBaT/clGJZ3lfJI/s06rT+5p45zqVKlX276mlAGDnRzNJ9L4R6STyydRsbnn1s3/ncjXetF1yN6jzCfWWVL49gL22ztq5LL4rzh22G1oP56heQe3TfWWyHtsaUvaHsTbFoR7X6hRskne/zPT4OHwm4v5KqH9Hn/7NVWnyHi926y+gO5sYY2eA9Sdak+lHyj550jVkr7fHmMBdUplpWew0gqB+PDiZt55GvwrySiov3p1YX+Klh0BS7ExP+UwEHsxMLFapI5L8OxHfRDdjbDw7msYr+5evVGWNVSEfhesWWmha9TaO+7PkM1Cvmsbgzs6VLFoKoLfgaHyqFKxXKFnVut9tpYpfQQxptjWVZ2vn8z1uhbofK/wf4jti/pIIJmn6E6L04lmTeGvecW5AhXxdMBXnMuq0U0f5vNMekx3MZIazw74Nte6Y0jjal5ziLJn2iHqfDXzi/n3H/r1P70lWV9+oJ+BzPmM1PnFOV5F4sjSavjdiZBqhvGCdhZ20PRHPGp/hbqVipRspW1sD/blslsQpBdXzuIdyXZU3O308bN7HMzBryYGfzTv0//o0sjaK4/EwB0/uN4vJ9g6NGQV0DmBerObWsIOuP6ensTdQtM41kSecRzs0hndtjBKxmw7fubaopJ5dR2IA6tF4XLJ1r+SR8DOAjFK+4Mw9qXuf1D2hDg6eo3dRd6pUk30nyHsAnf3Mpuoe3/kGNn6Ar6kQ30H83gnxXQIe/Ho7iqfJv4C2vr7adSDjJowfunPtAHq70wnt+3k3kbxecTS22vd7EUTmy8MeRJkfxfrqX2bK0u3HK02k7hHx13NNjFd0vChS8TlJTvMsYZ902WgyA3yx09GL+l6TL3a241D3yQ0y1UI1BFhAyhbdlrD4owj6wfUqEh80l8G1plSr8npTxN6sN21Ie8PuPes7+JmyWdKqe9Z1MjOR7ER763c3tVyxsuzXkNcRTCaL1Dp2wNGqg2F+sGtPx3lkUaiCtvv1psfVhDOlul+LQdi34hibj/1if8S5vF+vBOzLSHiJd/6ej2gnlU/YZ4mfZ71xrsXPR5K1UwP4vNsMljNIlHX5TMlh3n9dGhnlGgRfF1iJ8j5c+mhsko15S/z7T4n6eEP5TM9+5n3ZFPaJdL1Xec/AO4Vnbac3Wvgc03yRun855Il4UvAWV5hGcS4SS7ajcg/An+2wgvO52jXGb3N63+CF/uO4MQwkhyGr+WCBv6cneZl8pAeeH3+tqnvUd9L4mz/b41jd58x4RPiFfO/dzxHwTDqp+yT0SyMNHQWpdn4q3vqcp/02sKI3BitUU6MGl0OqYPvo3QWSkNgEiCOJe+Gdn/2iBn7L6i7lKr0mB7vSXqo716x5jbXZW1Jlbdd0Jvsao+6tUL8XR9pZY34STXW+nondK9tYTXuwH1NQOaWSob+79aa7Ds8z+7MF+NocPQwjQd13of9TKT0RbnYprOfpsdDHLOrOmNNHOlEj8fxkEX9a5zL545VwcrVpj5ntGuoCgXs+4HopjUzuDoDVVG6FyXbdSb6NZt6ALyTtSeqpYE01a09ZZFB1J9Dp5fIZgF3dTMMLTezdN3QzQvpXwwr/VXRHMt7Jp5NTF7+eAR85mpG/AzfTVidzdBjNwBlPlvrBTeUAZbdd8FfXM+Z6fwdrZNS8F0usV3ueR6U58i3wt78S63/d5HL7qO7Pl3fmQLt9zPohbkawV+j5SDzVbT8JDPaczof2xTXE6KTfCuwXMjIBdqsG8e9oZrgHLFxcSEOKHgtUurCBSd4G9F0NzRZp31jk+b1tvTczjfgZEndaVc0KL+reNMbFf+Wq9UuMjZSskfnW6DsH7q02EZDNwTQS7s9Z4Du3tGo6xbp/OLt2HceRJNh/Mr4ItFEkKKcJiGhAAD0ZBOic19t1Jg06Y/THH6vyFVlVnFmcnpR61gvFRkZGZd5skGRj7cfDNlTeHnXR+tE66bTABKYFvRm13JcPH458+RXDBvXV3kjRrJ+fn/8i+F6w+99v8G+ymiF6Z2pn5CfEmzphYDv94gbGtBi90UG1HUzPmtdH2aLn5lqP6KaPGhIYK0sSKlRW8DlIEKZ8RdAnIzLdQmL289MRszMjViSTvLRYfbGqkqYzk6aU7rOddepJwYtJM0gicijwPmixOg8iZYTQZ61Vh9ZpPm9F3m/VgdYqIfmQqNit3O/0+OPwVDmxLSXrUrnuEibw6zwuqZ3Fe6Vl/uq9v+3/x+2pYFcVL6LGoK/YT3re0Lw/Gyr9mts9wcMxDgT6qBsJOLAeLf47MtSZvIneKy1jVmT6A1sxqTbl0jWDPSrFJ35Xdp/owkMeoA6gV0FDBat2WI/u8Ki3mtVQr4BXLzJjnd4F44NUqIPWqnPVcbKKtX3UqST51j7iR8Xuf967rUdZF9dick8IApcntD+aUP+stpT9pbPq4P47vQT9GPhDcFiPhvh9B7A7grcNvzthebcPHtvNWUmxqlB1v96zth5Hng8TbcqpK0AF7WMwqxHBPhZyhkCv5J4bTGMW7YngDfKE9SPmiyhWJMO75Pea3WcpXouUZMf0bv57byXrAP57wv6J70EFPFgzLjvmmqwDSxqQ7dVu1nZz9QEnPW7FLJrWsb4PHweGLIFKGXm+PkzeVNv4LgC/kpoR9Z6e698aq28ZzkGwzhAP/J3/pqR4A/bOeC6+JNDbH58l0P+e7nVZ9ro05UGmsiPYUi8WI1BqN9Eyojvj/BrTM8rtEpwh+T4y1POfD9Iz7EdORvCVoCkK1k7jM/QC/owZkgdDfpgV8cPsfJm7UvzA7iPBeR7uJucHkzgia27lGad7fc6jye6PW3VyuxjQccnwxRKnguEXZfelGEjQGMKxknQXkv8kxGvR+if5/kY4/230/tvofPMAlx9BeDLJP3fz3UtWL9H9Hwfyy4ZSdAY72I8Fr48R9onJBLzIx/aCazUxvdvNBI21nEYrWTOk038XuWQl1AvUR3VnyJE82JQ0JVNb777hRIGCuZPWatcfcKbPssHOg8eomPSbkglP9kt249MFujDabJprdneGZJ0ouF8ZkpKAv2F0rBw51jzHqlFg0OwLmDILg/11tXMSDHeFfOL39fP1qiKRF2mCt2AMblomQf63Qn5zyBe2Fz3zdFB3VL6bUmd4N2n+D24MdpYKch91i5jbxaEHTo3BR2B0o/sqEu//A+k3TYHtdyN3smZGsSBj7i3Jp0mEzFToGUA8+TKM8Qz6/sBjTsb0/awXvctEqi8zM5kT8NGk4atZL82UHFi4f9XC3U8muLcI/nG7WvzxaE7maI1d8p77i033suEkEbGPWsqoonllPZPFzEvUDAJ99ewetu0Ec6DdjMbgGeK/keM3R/Qi42Opa0jII8/bj+BPWI/F1Bhc0F4KGSJ2WKEnY2TkjklHo3S9DCpwRihpR8kdMOAnKVozu7P9PjnAy1GPmFWNOJIK9anRahJ2F/O9P7E+27G+2Y1Qxe5q55LADPlM8EW5qrgeXKxguOO3uMupDIu1s2JFu8kUvNfvTZI3vC9wvmNBZwbcSA6+X9A724+rKnim8lXRvX5e9VjfthPeJ94T5Lew8ebRjXeR7vYD2ADzIYriNy0DTafn03mT/47NXWnq0F5gPYARQ5NOx8jDYmzKNU3QEK52OA+g5VHFO2kPeYIxi3j13tWZUXo/UpkaBeaiZaYuPUiyg/tu2Ug6q805mh7wPltmrJeQJGsazUXOknhnUzKxO6NfuV07TbNJd5U6QwL6cPP+e7Gor7lyvjGtwA9gasxe4mr110fVdXJg559AtVe4Bv0KsE+AX6Hf5Om8EjPbTwg/e3okyP8klG/8pHW8WKxuQuyBiJ3+FPdn+/60alUhfVWVxvqodWy560612xTraNNNizEbCbpbfqB2tx+AWPIByX2SEMHEcoYp3oh9zP67nOU7hOi1UsVqlYHuyF0aT10G+wEKHoxIovZ+RmuGqZ1j75nes64ZKh2jRA/5Avw/wG0oBTyy+/1KzNxcDhjPfDyudiCgnFnKx1L1mur57i2oZ4pfuVolY+ZlCqY5X+xk90C8voUT6vQJ7ukPwvYZ8pvQveqZaEb8s5Txe2XagLSJkOrdfW0aG3jnlTK6I6/YnyrIDzYR1aQM3zZ6gpZxLo2mgPXYKjeZJqZ44XcyZxzBc4c1Tt10Po70PBTkVViM1Iy8JfHepafcdNiYhgt67bLOXs0wvWdJQ7UqP4TFZwsVGMULz38VLs3dVlR6G/72+IOyuZVRGrstHvLLw02deVhfVdUN63cfmkmoXwob0hT8SmjPZesK9F4r+ZPdE84TzM/HthVoZ8yzttl0/7qRPhB8rO3JsoLNb1E+Wjm604ddQmBNrPO6sODap6Me5og2C8+56ttoD+H4SskbyoXw2ZSZ8mylMCnDm3wP4s5EjRQI+rvDOTRFY1X5nUpVPc6Hg8Y0By8oP1+GrGcGyM8o1hnx5EKCCWn8DqWq/BRuBvybs+Gv17GW88UuzPfbVQ4evJlFLfjlAxk+gX3x3L60OH41ek/M/lpXAPirTe9vW8J4IHpPjx++3kXQO9hvWNAizQfi9wBmjYQMotH5bvMcTabv4MGUrP4si1Ody447Z8bgJ7oXJ1O9C/l+3o3U5VsNj+GfAhM8kzvz+6jtpol1DEdnBPKJ4M+LBOFE8l0zHGk9JyL5uc/sPnedbziJL9lXY5bAi7TXmaldnRhfoILEsa7qV3JobuUChHu156NB8Q+w4t2ggtbtlyUIHhqKrJLAyu5euS+K+dU/BPQZ8Z/ca1ovFntkuNMt8fyJd4I98nwpbuhfRWN6Qn1QRb/HrHHoLkS+x2jaxR9OekYLflVAR6j7iY5u1xiG152rniFN3P7OWA+m4LELFdxHzg5Qaob1OwFd7cjAkNc0QQJ7R1kxZfcOJI0DupzWTqTeH3kuAUE+eTVUu7rjHqpk+vLAh5D7kPE9O7zzhbMiB5PyX1Uq2J/0uC5SnXgvZ0kivy+NpWUq3FNyzGKShPcFIjP1HLHVCXjSMZnaX4J15vhWmADgThg33BOwG6DPqE/AD1rOIuAD030kYX8idcejGbxDKX/9dJupYyPPG6PfOjC6CBgfMMXx1o7cgcLfidpHqFmD7zyZlhHbnc/waZdpDKJkIDsj7M5xAlXuVKl2rlo9PK+LH9lRpEC53YaM2d0f6eu9F6mhsYFTBfQ6VAea3IUJeBi8xNP17jhQ8krXPLDF6sfqXQyRXPxoYChWPbsvYke+YM3qcqVmCO6rc2ZwEeUL4f6z+RuhvQn5Evjq3+xcy+6ibxLaA1N8QnZMmia/PDP86XJXFr/21kO1zx1OH4UyAOBlewjgRL6/E+ZH4XsDvEUmA7qUlP7N6chJUu/G8ZO1ViOlCciTzGLGfJlOlbv6kR3RPZxeTYXqQUbkyeyzM+CdBU8cb/Kd2Z3JXY340ppBKT/ckeKzgP/CWWMoav5yw55qmYBvAJ7UzC9spiYmfziTZlGPBme8L+02E9w/idzBimz0nN4I7D+E+h8FvKLe7o0adsteTty4SYVlLPN9xuceauKmn0F+e+74BRD76LefatIxjsjvOMM6+u6osfvm3Blfo46uVPWePFuS5kuyFzlO5r5bMDIHZzp5HELzRuv+6Cpb78TwYMtYnsDr+B69yR7aq6Tc71q13ksF74PvxvcJ7F/WYa26TvfLhhOqGW45YXO1uatPj22LQWOBGb3bC5xpUmdmKaCuDP+5roJ2Bvza0jMnu3+X9O6YXmvYLZTFa8wEL9ImZpsm3/hNdX0C725w5ouwF+h2JgwsP8WUY+A1YrB/aWwcwvOZ9qxlmNvfTciDlinaTiMe0h6n0cA+iRE50hGPMGnBekx2kI8Af965YEUXEppNVKqyG9nNbiC2+ZGdGzbWa8epL2pVFTaMdSL1QcQ7uJHqUtLVFxmSGfBfMnvpXm7oa84oOCH9X7dc3sYuPRqzOX6pgF8Y84j4F+A+GfCq3ZfSgccUwQrFKgNd3gXzBvfv78Tq38LvSPLE8iXJVzwftwx4YnoVNkGfrO5hHxJRPvRG1WAMfnFSQe22DNWJdX8mqfGVETurGRXym5fxwbO8sLm+cpZgkuaq+O+K8qhgZ/mezRmrUN2bMDxlInO5mn8AuVw1pDtTstMYcC8ZAsN8evalornXhju2mk6QnxQ/3M77CfCvW2t72e16f1M1cMztYW1YNMsDo+8m2h3SVbwvQu6LwL5031fAut0rRWNw/ych/nvLL3L7UfjvWwvzoS3jM/jPO6F2i+rYq9Yh5t9ltTXsaC/3thf7wlTIhNaAgeqENeh4wfL7KGgXTZNtmncn3E232wltc2em8ZAcAZE7HWzSk6uHOO9cr3aAdXxYloCJPQdo+jmHxXqaKdZVekaCBSlakCDe+0J1EIoXrA9G7o7Z8YCTDSkYCOz8vNmxbdi8elGtKsH7TpNrsZ7KHchdHJmHsyFfpmQy1tPby2TM0kzOCNpLejdmxzbT9893epyQ58e2/QOo/wdljcN9YnMme7LpSfGcF1nLZ0zj3l5CeiwXV/tr+2Tbr6NuAY6OskM5AxJ3c7g5qGy4i5qRRMHmNH1B86NVpfwMGIqEGRzTNJlwJ9iLlMloP7rp8Jjv7PjqYeI9ZySPWeR8YviuOPqBswoG8GfUi3RNJ+48ucLVeTPDnZmd4gSDJcdcp/W6ZH2g5e6O812m3z+E4PPZ1SRplkq/Q3qmnEgAWRmnY9SdATFDzO4Q//adbwnXP9t3ftKrKJofdG72TZW8inrqSWWmD5sK+S1hfsM9SZEAH3cFPqP7f4Rdu67iShA8f+IcSw5sa9DVggQ6kTMCpNncwJFusgG6GR9/Pf2sHhsWGz/gaKOitrq6po1JgBrqvT65PVSlNchx+qnlfX1KmGC4ODPmznR16dqHME2PgJf1TEftOR1hEV89d+bBkuYprabjMZozVXKG7XdtNnH0HYz3qN3boN5Zuqtw8XQkXQ5m1HjRWgVqHNKju5GzbKtHbs8fu6wLxptdmJz6trPayOAZsduLeLe1TbDGievUaeXNxFZT5c2AloEoQfBnvu63V/6db3d7iaqhcw6+TW1V9j2CXyUN0/0f1Sr5T3gymEmSP/2WfAmmukKditP0wPFflUAP00+rKQO9gJo8d0N8Byy/WvohdJ54gp5WqlXmPTnYH8dj4PmWDZqWWD50l+phHCppZEaqT6ApjmTbVoZki4P1CqgZ5CDe5VPaBzHfg/0e4pJ6O2vFuoMBND5k722dGsalFkXjLI8GjVSptIcsMIEd1Uxk94vu288lC847tZouqmJWasbZ/VbE+2s5LJKmcLxKmoj4vPbnc2B4lPRJuq9lf6BX4/pb9j99dGD8wUrswCSfCIYDv5TI45KM3teb9n1gaTXeFeqpM4LXTmtoO/VK59pfAsc95N2V2R8wdKY96hs2wfYRW0xPtR+1RmWTRvidj2fIjJ3VjhwkGgw5gsDvgnJTMZVXE65iA3YeIUCjRqTPHCss/24Ba5iqhywfrZlFvzeqaaaDvVde5EVuTLTT1YFvr8GLZCWzHOh9jUVrJPmv142wTvR+ewnDL3c3Rj1vImleK8z3waA3aUOwf0gioZf/BSLBpzXl2xpTi3vBU8NwXkbICSQcZ5rCkiX7IJsXSYjvzJnMQuddzfGa+BWwS6Hq61W9qYqvp1+2fuFo34rNmB8pip2T7wXvZ1Tvoe00gPc+nIM3Y7DfQ4s1mjQxX4B9VpIwc3FpdrbSKT57eE3tc0wCVw8xqzpOPnKmkTQwxeAd6dF5r9h9ArBvaBmOEqAFH83I5fB1u/PGgC+XLy5a73pSmn/H8nULVgvXP+zG575+JX/i6SM8SkAf//iwnpEomXogu0+MsVaoD7vrwXpBE9Iaq8bx4sLnjfWsjvojHFHKhCkcxu/sSD5BzRwLlo8hPKBNJsV64Hjhc02MrZqsRu0saEyph3zkaJjHSLDJmhHXbu9xRciOxU3Buw6C9xDB/D5J0JTLxp9b9ukhHw2EgZnZT6HPWkBv5H6YgNyDeA+l6lWsyEsQ8Nfaj/xSsL8U9oz6Rc0rvzPY1Zl/vWlHKdGvyd44vt+GfgrTAIKnUi0hRZ8xprqwSI3gBYXi9C7srkUryfq4iLvvhcgTHo+2gi9AvWL4h7E7Ib6NznvtQ3p39ay4Z2ondq9ikuC/S7NpeJMk2IOkkX2sY+/Rs+EeK9mRs8QkZ9U0+/2HQMEPCPYqQKOjghsU8AT14kk2FChgVSP7NLmI0ePloi1WOgm/M71f1ZVhHSP+TKVmrpYY+7oRyh3qwvML3jNfqqhxjn+t9IwBvq/s+QLH3Pdw77gPad2tZmhfP3ejmvu1AW4jdGTsrJYj65jov6fKqKlfCnMLR6J2d8Anna70iHqGkK5vNR+R4ZHan+7OUEhSFc3gbqRw/GCShgA/VDmx5T24/R5cSHcmR8T7qD0nFzFgQ6qQn2lbl6o/kIp0f+YNu08F9MzujURomu0gwYVY3nqqrOKnkIa8XBzvyuw10EHCfxHUVdEo6m+laC1b0fXZXPkcRM272IFrerJskhs4FcGHLON65vqGaA/03vchwVvZ6MTYbr5kZffM4j1uG/8XgDsjKuaRqvXZKR23GN5aTZWYIabH/K/vqGnMlME4cAtPIG7PIVCgDs050Dshfu+KvgK2n8bA9kXEcCx4ETQz5sb+smaVpUwcAY+ipkElU5z3SfC+Ua6ylOEuU8E3kzyaktc4gYPqVSf67wr24EUu7P4iwDvF30TDE9RV1XjZejeCf21j3QNmC62KvGGJXWCf8PnVut5orWbWTw/DARphd5RmBThHYgz75Lx0mdl9AXzv5nulbDbIHSU7yJljTexrR7JgvkU9s0Z4/AxezPBWsxbOj+odFjmd3XwUY5LAfh5H6DON6NBQMBLxH9Jk4sfMqmI0SkDNVmJ3Y/jTTxwO7M4MrPTYOdAbiRE0innuMzXG6pMfDpNGxS6eIFCnBnqqrNxFzrCWiRQP1eoCd35VLC/uzI0QXzP8J5rvvQHr/ddUPkhM7JtDXlK/Sq3Xj0CNXSAkY8kDdFvt0WyWexLLXRQNUHu3JWj6tabpoc0qAv7o7SZ3IsGi4fZq2ZnaV5rdVUzbhsA7YZ7fA20epLEZBQvyreF0xobqmcAeGL+qWaN0d+OGvqZe0w6Hc2xa7z9+9pgYPmxbFXxTWZLFipwkGCloL2eW8hOFZqYF1+WadLv4kZAUmyprxuSMOJEr/S4cb3BHDa86nmz4Be8vQb7Qu3H8B9xb5qBcJgJ8ryZITtFliXEA/jL7A5TiXJi6G5rVPJcb9tFpy+a+GJOLkgmA/yjdBeq/Ys3qsj1hDjgwvKTGBO1HFe7qvrdr2Y7kzjCX/iq57xoaG85C9DoPWxLwoy5lNUNy4IMvXvV85H5fm5T6J54DnlnQxP6qJQrmUKgKz//sTlUG3gvWBnbOzyxbUfFI741TfCHySYpU5fTl7nqYruvEjALdS1bXMyjeCe4vRPyrFvIvEvKUMxDjJruq+aDfs0coiduT0j3BnqZhsLpxkyUOnu7rVmfvctwYnQ6q0wNX12kB43NVNcju3UfMH+3iF/oy0FgFTeMDI53bzaPxXlO5gIVNK8QroQ/sz3DRepZjEfBDq2jXEWOelRkM7JacMZLfxyCNKXjU9jPHxGZf4YQLPubA76f5tJ5KIGoG45HM8Az2Q2N5goMyfCMCnkBOlE5KxhapuoqhT+ISDyf3bzdnvmv1juzuiEdP0m0akjVuTWqabFPb9EDv7lAywMuxqHnFvtk2YWXFekVGn6tkYxdkCJoursW7LvrtXcpK8AD1rjOSfwf6f1DEpLXxHhI0oGee4EYq4H3STOuhGfhggPkbnBUbnoPJGv6UUS6IHzQsNowYC9a7wcpVn4ntVjwo+LCQe/bJ2Lt61Ni8GZwJfiRMC16QvfMUgbM7MzxrGfVjvNt0EYLXg2P+gEpGyV2lu6iZK+gaRz5qd5QzDnyuW7M4k2hNcg/qr2tDAPEEdKlgDf3lTxKLHLon4u9zWocW+1WO1wCKn3bRdOngL6RYTUrwInHkx5A+VKzhjOTuwfeVBW/ezNO8d6tZRc5DCfvcIvdiypxZyTw9A9+ybG8Z86poVMG4kjmPVZggKvj9BserjOf4u3g0+7C4SbE+O+x/TNY0yOgKdWb3BrMzXKxOXq3qhXnvDnnn98kXNmFkBiF/kVoV3RkrWDfYPap4c2tehnkR9haTt/cHbQOAT2baJJHzetlX6+tyrdSdkNFC7NxRt00QDDSvmcjM1J4hLtZ9Jnb0aGAWsLO7r/RIoWS1VpOzexwiRoCvVLyD/eyV6llUjXjwhdUHofZWAT86n6uQGaDNGryZ/QbO44SxWSNjs6z6qMl9rtY0eVZs4yms4tE02GuaeBQHF6iNcjrS/GRlqmH+cKWrK8TErupC0sU3sDvgXRT81+8NsDO7rypXRnzR8ippPD6Z36Fe1XvPGJdXEuDLlvosDiJfmDzvzFlUzR10i6O7c9/FClKAvlqOnYj3UtNm0TT6xyaGur9qeF6+B/Qe+02R3Vt0I+1E21Ntm+eGdjdnRsrWsxwHmybJ2obexPJUrY7DQPpFzPgBFHzdYRUBo9fWiJ2Z3SVPIIv6nOMd7LP4MhsTgSt+J4zTSetVDos1DV8uqC7qvWD8hMEZcWisx7TKAIfI+xWqVvMjFf3C7r+3Cd4BH91JO+Z7xLyC/f62ei2o7wT0DPiF05djJ5C2SV/aBUWVYVDuvN5EnMt3Cm+4qs/0ZTYx33Veq24j/VflzzjaqyTwynjXjKQXrU9JRjKvHyEOuYX2oZXqVMwa0TUtQ52OinUyZobRtYy8zzQJW8VMWOQUGX6B+TjDClZZvTqbioeUGOuYpUbVMpWL1uJHnn6sZm12UdE4u2uniTBPIqbgvciYE5I8Ubub7aLcr9BaReEeXJlL8CNVvZOY+b0F9nt1vEPxyvmCDIrGjJo3FA9+jWv4nGTvjOs7GJDRKa1zeDH2QnXPEcb4E9j4tHB6Vu2eO//ZWMupe+9EBjGDKzy2pfsTggRHkeqB1TciBM9tyGu/ibWMMvyZC1d6ftPIiCcBw5gfTL4PK1vGOD5EhaVYDWtBhNxhELzlCAjyp9kN+B9LiVnZ2mB0hiV74wK+0XqVT1PDYG/MjLQwgfaYDk7wV+utXsMCDw8BI7t/K7uvyF2Y3bCuHSjHvLg13nq6G8wj0W8sCWGCF4xnAl/uYGOpkclCyYJPukxsqmQ6gpXYraBd9r6TU4qtJb2jfyYqne6zkPlV2TOR3h3raVWtmqR5mgcP+1EV/DbQB3Mj/TCIXVMAP7iS4eaSIH4YPTtja7VDGj44Mw7+GVJjJS0GZA/RdyhXFemnegwHfdJYr2n5WOVMkDRlI6w3kzO76HfwZSZY0lQZM8jwakWanPnGsrVo998F8v/WYLfzf9GHv8G6J8e7MbwHhrd7UB0ck2I9d4p2PnVyZPx3Jj+Ut+m7lAXq/NvwH4P8aOSXYTt/bz8ey8/4P1tZm1HM9MdfeumJ92DOpI30zIZ+P2qfSc0ZFzfPbdirZj87uRviVbuP7VhQr1pd6lS/qxkenZr96GM69jFtICn4eQejl1S9A80X871sUKU2EBtrCuqV1/2kBH8wU7LQ+2kKkfeyF9ybdJ8c6huB90voMV1A0VxBuzPg/1178HL+zyleCP7mKh4DNfdYt97XaO/EmUlB2xDWCeRK9F28TfIbyOyqZFYymWCcOzvJ8X/Crp5HcSUI3j9xDtoJzhYrBJYObfLICND4kietZNBKSBc98f+fpz+rZ8wetsHAblYuqqtr2gx4/olYfk/o/3+CtpnST4N/nRlLL9Q7hsN2TuuiZPbBoqlyka9qVUX+q+4q8DzWq/3JMK/W+5Yp/dQrvPvBhnCcMP0e3UhMxMeLQWPBszWbdMAYrvSYoVBVdu8I4AXxBPRNZ85k54LGnkjJUJ3adVKmarFKSAd2P3txGgdvhMVMxvJVnKC8NXaXx0Mgj9zOBF8DXkUNkzxivdI1jZpPoHAIjRXxA66N5gn8UqbCF7wzUcsVIYJcHXZXMlPyC2KydzvsOqEdmZo+0yF4ksGINGrf1auaQneVXHfBeThePEzQqHDvLUBTviqFKh3iRG4H0vDG7kLvNb/H+QTRiI8Xgt/wYIalq8rvkAaG+Eych60rtwXqcVdVw+KdK1aSNEcw3s8B8h4Ri7bM9Qo91ShgUNQs2v1x+80U/1gX8c+7+ZNPqVtB0ZismRoR7+ug7hHrRvEi38WjpII1KZZVs08ucVT8JJP1Cd6xmS66xn4S2PiZJPxrCkff6ZXx050dN+JXSP6wCzyPfL5bbTQZ3mteZ6SP2+1r7d5IGlDvsvUSohmoTmWsI8HjnCXsQ7mGfw96XgA/D5oj03Xb1F+KE5dm8CLl0KkEuriJiZ4sGmZ3q1PhqWOKJ4I/nqMBrxr+KDpeUX6ulQzYkB/X+mE+/A+i9gXywvAPh/39qVh/Li+8VVL+Xut4VDTlKb9sQCVFfvJrwPSMS3qEtOt5/MzoPdK99JTcgZxM4JQIMJ1Z/Wslq/lCGLg5iDFzWPdmwhiOF91VVzKWm7ESVaVOEwJ2grc8pHWceJfuU+F4tiFpY+u9hwgNAV053vPvISuJU5ioYB18IPZsI/Xcj5zbftMvX9rkoOcCdUO2e1cLGfXfjyxnWMh0R+T3Y2g0nS/nK5ru2FH1AtXp/RLY/VrYnfj9NwIe+L1AHd4/gxUP8j1A3jUMYV7xn+415JObM8LuVr1CUWvIBgvHnyaBuFavsdrlPxIbcxK/Rw5m+J0VuiEivFuV8PsF2IddNGj4cWhxX69rqqX7S1cGYpEQFXMpUxG8NJq4VO2B3HuoWuXRD0NdjIIZL5yOekYXe4TxMyZlZrdnvuLsa6lXO4jAdxYfqPBeVDvvrGaO6M4cL6ZnrhacqSbmWSDSTUjTMZCh+fjxKEj//ZBC1bC+oFyeiOJt4zdM+o2eqdI0hPHMRG80v5ykezKpnvwk4typH76vXUuk9AbjsWU6wUKm8ic/RbBbHbyzn4JvJXzsroY7k41UrlaPtzEOFatPtn+HfbQl+20D+V77qwXtJyF4QLr1VSVS0PucguC+y6dziM9sfB1rDM+o9f6F6t3dmU5N+I7lTOf0zhD/paWqUnzZO0iLHUOj6Qyob12ZyyVkxBzzdsbsXsid6f1h1aqi/BbPWNMwx7e2ZFTwqNrvhHlFPTN8tqcI+AbOfo4/A07r8a9Q4Ezsrru0V0Gjla18IT3aCcz5hCn45NYM+e6kbUZc1+RLV3cv1cwYCH3cvn2n202696BcQMCcAt57dd+lWAVjph+0s9rb8iYn+ei4k2SfubtqHg6t6CNvZuBMsK/jw7kEX7a2iRUMPXcMdWk3MeBbx/1XR6tXi5hhdi8LPYzZjwpxUe5E7C27oyljPswlnpF2J7Q/iN7pKWgZhbnC3lFvrda6aq10/ALvLCpekR/AXpWwCUHvMAbEVyfo1SeV/cnJPalFOZlUN+lD3iSXsgnDNdZ6qrj94M2mKimmciasbqqtmXEcI71zfxVZ/jXye2R2K1K16SSAZ/Fu/VXtOKlyryya92GlaH3HO/fBfT/stja+js+iBNhVxZtRGvI7MWc2QcHEje1I7qlCVxXNd6Z3BXuY797akA2707OwO203kTSPG6AcX1XcaNW6hviwrhX7TnfXNaTjCfBZYJ9i0Zqm+FkKV0PCa8FpforFr4h+p3qxcqTfCoIf2R0TY5CBh8Ws0ZtxJUPHngTN7iW514Kmwvj4NxEfdndrtGAtqmboh8qe6X3B9oABScf8LIcmZ8qbDTRcJUgw18F3d9/nuKjPzZkOnyHvbqrdnZlzAXx3pv4q9FjdkrwS2JeXazUO1bK/tSHjUP9Q7c5qpqD9t6LdIG8KPmD+eTMx35qS96m1aLIZ8VkVvRauRcsr0eegZIKqCepmiuLdfg9Q5NjuQBeCnzSeYAY8sLu/rNWrB2L23SEO0guAb7G+HWMWuFnhNI4vDPgeDUmwYk4107M5o7Qe9Exv2qV/BXbQMm6+z+GuxIJ2GZgKWPfe6ld540rGXjtxI1nIdBgi6JpqlcDOSD8HFX89Y/i9hfoFVfsqvV9MuwvgFeUPkfCOdgH5chjZ3wnzt2djSfpk1RVrkg+vW1XQFNBn0DWZUZxjpibzXkN9Rd1D3TpZr2onWYTk/qbZOTtvU4WFfcjntqwJpnFEtB9aA/4tWDP/AbW/gT+z/b7l1Ddq5rSibmhR05bSBH0APoC97ji9N8+zwn72aIGFgOu7873HVR44NLILFM/iPaoZ2flYwC6c3p3PRu9H36+F3Qu/kxUJiztCXqZuqkZ6N3Y3kr89APjPIGOehvuy3emgdqs/nhHvodFqNM/AT6zjE8j5Im4K6jPgmD6Rk1bNp6kqaqf2I3XwoUer4l0VTRw/g5niXUIjXjqre7oERhxHAOXq4ZU7MzbNJk8C/6W3aoomlqm9Nle3xu4GdC1TsWTtV5g9Svh58D3e/GPW2WIqYd5xSdNXZdEowZuQ2bAv06kb2bXs3sk4AlI0quN9vpiS+5WbTde2VI0hsRVvxrV72W9O8oJ4BPjT8S6AZ6vGbcly/KG9ljXWc8os2HMsV7PJGmtA5VCyEuJrrZNFwYh0x4wNMr67lJY1S/iBhhR25sNHUaMhGuR6J/wXK1XHVwv5BOdvRvEhQfZ3L9J9yIXHt27N0Pom8Wf4GPo6HVmdxMes6p32DYh3YXcb/b7xWORcdZq+NhusUP1M3/yKMPf9yMK9YB1YXgF/EcBfvZ16buJhl+tKOxUL1ZKZeXwuQFd+D2hf0PwI7A5QJ/CTEb+8uI6v7BkAPIn2DMPjndUN+OmuLM9vc41tes1y0STV/XIlTPYSomVO6C5jUmB3jUgmnBGMOXlc9JoM7IewTFu1zGG91/SGYYKo3lHEjK0bs+K6u3iXalVs95MmaAbTMuLRDNZmXQF6cGUM+bNmgc2M9Hp1A6OW7JirsBiCvpPUzKbVMrqfO05EqnzvwqKmqzearLGKUubSSJkPXKmtocgfBe2fTO4PsyR9e94eQPECeD67iyl5E6TfkN7/3I3ls+r4POnhJK9M7yaN4z1n4XmGdc55qv6qfKS/GYL8nEL/CXqyYMlzrBiBb7XtbqrXhYThBgL4PYydQW9mvdn01tSpzXiCbzpNfZ2aoW2oVLv676ZnSMb02FsNnntfRwgGcGWo1YQj9fAOfZs4Arsi+C8n9C9V75158NGRcfleJs4IufOLWe+2k3bXSvXaBmYujTPzAeSu7P75W8CuikbVOwP98YxoR11jURo3akC7/2larcTueQ3tQb3TlqdqY+Wi3wm+k3+b7DrJOfsPQUpQwq5od3+7ssQvGDZ1i/VQ5d53Y52OXNUz/zXcDmAfv1cy/Tao+GYr0Rkldwd87/57DxmaWsrwYWv4Zlm1qgtZVcrM1m0y7/3LA/BftXo3mJMPyWbkCruDwjmbllFBgwKeylXmepLwEP29tKVqFDTE7oXcPx/Lzo+b70DxQcPTcacd0mMAc9Xv+mFmis93xvWdkY4i3gBeYZyhrW/8Y8Z89SpPheEZ8Oz3pJQCt0POrEL+hItAkONhndOB7ciD5SP3OG3mEBpOa9UqBgreoiX5TYtpC9XpCdpMW2R0J/begwQ99lfXgF6v2Z4HTYgN7XBg8WZmikeijsHlTULozO5mvHe1GVlceMQ8V6nuultQTOORZMyoPXOpjchVqF9jpmDR7p8L0AvetWR1fn88ZVPEm5J5yquQO2RqIsN72Top4Bn0EdK5FjU16hXrORxG9Mn/hNg9CckvZwuaGfwJwR51jD92aX2Ba/Jy1ah+vzqBA62ZPcr2ypGstAzaM+P3aeC+DhFIqYrCxgwaoXiUMf1pJf9euTOzULwDfsH5oNp99lWr73LwPjcTOTqvWAXsIT2wot8D4juf+S6BGQK7CprzqvN+iTC/YLW6iBli9k/aHqLhH4j6UrEu2/MBgFfIC8tXQH+iQ/OHIE4cD4gXuJqeUbIPEA+YBv4ugC4viSHtV0AiqPtFIG8E8mVPEDjAinbnF0Kz2NvWsr5at10r9xd3OngDdm8J/i/R9x7zkBIG7ivffQhQd0ty6H30+4vHrI67IJ6N980gg1I1F2n3K4NJ7zN673Ol3w3oQO8A9KBnzpoVE+sdJbwdFwU9bYXoI8DXCf5ivvvnQu9crmrBCuxO1L683BzsoVoVTWNoV9A/a3ZnxEvdmidBPOiSqSpdkdblN8CeU1bEJwR79m/kmPQCYJznypaZXhN9VPJwuz4G/V5C8IfYbfKbHOwF7PtozbyNVfh3rMrV+vFPPXAmzATuGwlvgXdTNEP0ZsJjLUAzk5yZzXvXocDDrMM4bNTSBuZfq3rnuTMdQL5bETNdV/WbCrPrAdzeeRD4COa7gV04Xqi9nJ2bdR0f18DuBe2fnyv8TpAXwCvFO63DwxjeIC84/3NHns8s4lnJZ6b5KQdo66loEUf5BJCfhMNTBk4n5Cu7y98n+DwT2EXdWE81gzGTbHVgnFVTZwuU1v+FsFicnHeIEzkc8G8xGxkofo3d/1mZsOSRdwe8pgiigFe8+1il0zcixkpVbTO9F3bHue90y6ZBlLvNI4CxYl2QMi3UecfatFYznAIm5WJhgv8ZO5vVxpEoCvebeG8TbxQcjDsoYTbWrkcKSmNoCChGEFA2Td5/VPf33CrJGUmWy+lZHn1z7qlbJWgak14xg/svVn02ybS0kknpPsP9Nymd/LuI/V2kzqR3xbPg33Ol8wdcDV/TAt57kT0Lvy/g7Tp/fe0DuMOBoLfLwb4XtwOPhzwge1W8gf0Vlf8a6H7Yx1bJ5Td+ZNtw2FbYx6Vs5u5xt9gsdqMpUlR93mEzcFWIf1cKHuebMI2sFlg/ZBHNg9Fd7PsgO+nNCCcDP4jsfbbJVntssr6ZoHe07yGZeWosm9lssvg9HNJO8CLNYib25nadqnRnrTvf34HuX2Jp5CTBL9Hd4J7OKUmdoC63vqB737uFp3GoRl+XJG6HORYHvLv2vf37Hrlv/4VKXQXfx+wdmoMXSlZIJE8Hv6A98hHhfignmvLO9xi+777rJIgWviqSdz2eg+hhbvVWiWqafxhkkmlg/85x5KAvOph1zju/w1KmQSLJja9cRa5Hvm+ifZcqlQQv8QxWqrhglaluNSv5mQYF36yr/h/x7knrEkb+VkdjdP/4yAT/sSj5KV3TF9+v00S6V8XTfbJIUsvVa++DPhp0egJofF0VvNxJx689mBfJagL53c+rw+GRfvXB2MStyuh2Wnmf0+KEE5j3vFjdPYbG97uwB01oJTgvtM3EvjAf+oVaN1dTQVPkrYLVBX+vHZLaMSYrta0vctAw5sHoPua7YG+gIVjVvjjP9GTu/ae2EECXmDRI/oyEf1Gt09Hgvqi54G2r1JnuCe8keHfv70534nsUe672K8kcI5pZ8qxv+dYonkCfLtS7fVT49ncQ/oqbCU+APQNC99fgc/ZIfCB8H+N3aIw/eFNB3GkMFn6o2B+PB9wi9VBMr97BJ+8CvsMtI7GZ4FxMMlVhiVOlzQW+BccOnXulUjeNZ4Sv1jQ/yFwTWXjJ4LVUTWwftjbBioAftdl9VMiPRHzWulgZy2TGZmy2ueZZ8hsmfWPSF7y/2LbvRnKxNSzqFbjb6r2Uu/PBJeuHGZpI948g+JLvkwF+Yqwn9z6hziecgmoj5I3wTvVXewTWEJ+bfTc3F9f5a9B5LGuN7T2LHglvi7dh10nE/IkEf8K+YFH88fHoaeQhih3fURZ3wn7MeyPPQezg3KtF927Zexa8l73A1S2yD+bhFevyR7Pulr0nD09zTWbfMYvcbl38IXbfhho1sr3RFdr03poYwG+awsGrh/cA8rtpJqb77+jdP+T+7nz/AsB3X2uHCV7OxPlZ3RN9FPIz2wnwk+jZBK9Qp3+4tlHm1zXN53b+Movd/7jvL6b4vsb/E5iZCV4eBgfvkzyRyE+4rfxepP7HGuDt3ZOPsqwJJlhDNnOXrW3Kd9VL0j4vz6uWrTNoaNC/3+NUE3j3e+gEvsl27psh6y59BDytOtgtzC85ze0at5mB1x6CJcFDLNmE5plS6PLaJvfpTVasNnbL3+RByQzgXTNJKFjdu3cfs9SJ77l/V9NuAy5Wk5dxocupeY24mhbxfRWxTwp8+tXeEnpw87PWX43vLPvXugex1+h6FOt9vEL6HrbU3hPawbyfzL/PVv0oSTvvnyfb6C23zoStCdy2n5dTd0P7LvJ9t7SoaQdix7mmb0vVGMEPSnduKOCtsGlmVdX+MOQ97wHsI/TO0K+N+pm8zz19tg3w/QnFnpWsJdsb9e5saJq1LmDaGpi9O/v3twzv7xZIdumCeGYN8UB2vV0nM/BkZ+gJmGVOyGe9TyLsSSjeMuLld/v/tH6JPxPj2dT0InMXuoxqSG9Q6f0hAF70TXhXFw/vwAl+Bt/WZGI/LtB9F1dpW9f749kN/DnvIKgWFmired/t8nAmdNB4F819udCjnF3V9rBBZb+VR0DVnpzMsB28cWDUDuBRua60z7MZUfg4j9PnKfl3gvoWKlZdvAozTlkU6fF70vivEEUWAU3j00wsduE7CT7GkUnrQniS/Az4TipW0XwH7j0YGrlI4oJ2G7aJ66T2lhE/9X2PTp7E3mIl60e76Gwu/LnwLVgaA3xSdt2ji+evmt1NneE9hPCz5AnvJ0viT9b9fmS+Z/59tTES28XCzOpfNO2xUaaKbqZEuzma5wqXetwv5JHfRDMSQ/KWM/qlnTSDvoLSXivswcxQ9MpsvBl4FvFodoYx34zuZti5u4+P7TOldbfpVfYyzPkbQSRtvPFGUHe8C+HfrDmSOd+J4MnUpKsjlfPdMki6IuLJwLPqr3LNNqZV3rdEd8pqyM63dLrAr+Jn5M/XXmjf9v133CcXb5cfJPr5VmseT5jf171KvS+7CXSbDmN96AY+At1R4cey+z3z7lkj8Bk2AXbZV8sLmirvmbHOyEzx1k1QBaVX91Xmaz7l410EXqqKiZeZVgsiH4TtuDnqMG71NP8Otl2T98ywR3uTBE8zTT83y2i34J0l/6LdBGjYQfoNPgM/TOmKeahY1cYw4DseqYMnuneB7mbgHfFM93TY4Kr3Xq751qavtmd30+upgm6V7S3IfEHsbSR9bnhsxqlG7dfO/ZrOQvGeyQjaT2LnT3uw70e5J7LTLfTOxKmmOyX8zhfymfKtUj2zaT/De7Oz5Xu+Q3C1ONsUu2esCf5/mPcBzMxgG4sNYmjEz2zlNpS7b8S5pk0II5OLEcKPoXOG+L554lo1PQZI+LVYRmZXvURtTOwrdM+Uzmp/81K1IyOjaSQ5GuW7Qn5R68HLm6mZzNaknyT0+WyJ8CTZSZTegsCF+O2qvv0ZuJTuJqh/Lyrnm9I9/dp7IhkE7zst6Qv90vfJWmj+SLkqcaQS/fi4TvfYF6lLV5noj2ex7uddaW2qGEh6BFm2ETyDa+cAHqBefdcXiTsSzOadI8rhQQmvc6th6R7AfYO3pNtx49XqEwt+84RtkWJsZHp1EyZYF2JI35pgIY55Wfn1w027Qx6nm8jHKNf15HimU52L7LsvjGYyqiPo6WipZOUx672dD/o2tIPYW/8KTqaNWnfBX/pM+pmnr43ugvia8S58X2mEJ/uebsnKk/5PsAMN2XcR+VFuJvjj6h5LNp8KfTN/S+MezPsO4hmcWNUd9J6LBP4+E7y6m8+1clXnmbTzXey71qqavssMa9yAY7R8Jhn3kaz7KJh/khJ1ZJ2HPppGm2b4HuZY/fiFerfJVTMwmFE66f8xubvI1+gun+5DylVF+4cM0jXx95TVq6h9rVZ52IvSezIz8mnJ1Li6W5N9Hx4BkHsbqN8uFrDwO9kW1zoLvxbNewrfFyb+tF95tSUamuPB/Duo/QhrPe5gygltDIE8Wpn5PJebLEGxWlXeRrDYFYmlKo9U59U3BauJnn5ow9jAfoaLVZ5fHXBKFdy7hDLpz5tEeCH7yHeWt2Q1W6paG/HxDWfvt0tVZvzLC0Y0K3SHf/nhVuZ3lH0udrPuXcdqFz/TOdw7FfsknsaZ7uOrmxqhe5suuk1E+KlNKu/1pifBv0XMt7FubeO4nZXduuZzV4MZZe2a3xPkCfEl5k9g3m104mV8tJTvyOes7gPw/bjQJkZK5/7IO2glELX/PWddMyFrz5Ia3Ehs9WC2e1tB9c1Cjwcw7w/AehI72XfW+gOkkYHucArZx606Gg5pxo3nMs22kRUejS/mu6F4ITs0A0MTfOM5jXfV0DD37h+B81m9KhIn684lq1wwIsVj9h6cDR7XyRTfs9qZ8EJ7EXyLwtZnAIx91Hibw/1SSt1GteK9Rye/lkbu/+wPNc2w/vEwktJJ8DN6Bj8T8M5wz7L3OylZ0a+fjfAF3aFCzfYBtlo1szP3sBFHwHvlyQzEkA/eKpY23bgXvJPgFe/brZkaimfYvA/biPcAeitUR1vrMVM+UX3ElIbE/bQpQ/dNzN0bcy7oWZoFujcZ3SWOVK2/BbybjVHvLl852DsRexS8e/ZQr15B8u3EfGfB0zcNUfFhEMx9XtGi1b9cTdwXdfDyC1oKTOy9FKwS0fQl4X1S9UQmXkvWk73IRg0Nxu/HZQevrxi286+J/dGKVfrEYKbsmVlsmYFOAjMyVQn2gvOf2EHDDQVD+M10V7j7VpEDrN7jzJ3RTsXqSITXtkgejlSzjvb+7AZaxQzu0DKzWZhqKuj+Unr3ku6u9NzEawzppaoGM91H91Wc6QmYisnVRbpftWIVK0NSJ7Cnb/q0rZSwwd2opY/6b6OzD/XrxbTumK9jJhnKVvIyrPU6Yzy7eGkM/qOrtk8HszKppeB4lAyShib4Y+gY+xcQf4cx5Hk+/hrfQwCft4nlU0yrGxPk+4p9490/Wfa4kG8gW8PFqmjdrcxgO29Y7q6zS+Oojn3L3+RunszYSN+YdsEL3+OWYivpjLkZ7JBc8O6K9yD3N5tVzfGeJTPdl41I4KB19u8daN3Yjrbmit9tFPwkQk81K/2IdHfti6FHf9/3mb93l3NBJwM2vuZh7fVqna56D5JX5Sdt1yfKY5LyT3vbEN75zhH8Et2tcrVq9Y6Erjvogba5SD2bnSmce/HeGlzB92xuxpNIV/pNvX/ilFNw74p36SQYOHZPMuf4fbQdZ8bQAcwFK9v2xHIpTUe2MlSqNlufWvVVq0+yqkmxvmkWp5xKvC9795ec7twhJoLPKtYoeNc6Sbzr+K6an9Jl5elt926Cj3o31fdK+qkPsHfa65EXtz3OVqGvJ8wnrl9qd+4qeGb8LO1a61WDfK1ZTE0xJDv3k7r3U7DvieoHJvuCpeHjX6hT3dKYxr1czVuA4+YzN+D+HHuB44bvq8dnbBITvtsi1kGbZx60ZvX3TuKkqu41Q6l7Ivx23Drcbb3H6H0z2izZaJsY4b2JLcDLRWt08YV3F93/yOHu3j0LZ0zngvT/KDuf3kaRIIrPN+Eei1xwskFWROZgDb6akQ+WHEXiAPIKLqP9/kt3/XvVDc4uxoAz1988vXpV3XTxAdRdyI+wh0+3fDB33yxXUwcf8SZjoz/gr5MSb6Dbz+R/AtketThXse/e01x8xcrgm5Fp0MzcLJm5kaFfkD8csnzmtdZKFRXeyXsoWUuxM6XTd6fuAfY2eeGkTA0k2v7zQTjj5iQrP0Izq7brBhzxZ29uBnlXddf+ak/qPjw9uZZTSN0Hymaigy9Y7qmnSmJvK/o+qLNa8Kgkp++FazgV257m5ItTP0JzysyMuPeEd4jdhXo273emXmEP59R1U+ftu69aHfIjB5Gm7izsSvwFvhZVTvrk9D3X/2Qm4XI24K8p5U3DcSTYmUaJb7hevcUPmXeSd3UzoPDvUeTV06x4+JIWa5c6QVBKNNNySqMS37qh343lqibqPytopmpndb+6VDvT9tluvfWX9ubhdZKAXM2T+BofQDLlC/EcRA7MOov7SYzOB48GM91R2mVkzIaBC/MzRTZSIBYeF/T5ZGZF3ZX4+0oamRgZNjCSwwvsAfSO/HvncvdpVeYD5qN78l6GqL/on6j9StxfPeyJ2GdRDqb11qq6+k5rg59GaHfl6q3RzWdumscv0Kt9j8TX4fuq+TtCXwvqlr6Hd5OV5GlaF0KisVlZwYTvaarajeh97/fisOI12ZFgTiLJPqp9H+/ezfQKOw3NsMAP0nAabLuZgVLHYRBTo9VqkPoTTc0M7s1kUrNqW7WARU0rM2OZulsymXv3z5VSNfczAXgD/e6EXQ6x70Hdo7yHK0E/bQY08RgD6PE88200R0M6fiF9936H5w7Ax2TuxuU3ZupB3CWWbHxEE4F3vBv3C/EHzmdqGSwA4rVk9f2m+j2bgS/VzpC+lzs27xi507PvNGUtplYvuEJ77/ed0QTeL/pIgefbXzYWORPpM0m7tpt6Q53H3hV1sTIxjBzoouWpbbIUwxrcbOYk61R1mYeOE7iGU+HHZ062vul08iMzD5IZzd/vebfJJ+9C+92SGatag38nS2NG5gHrhnyE/azknxfsR+flmWAZrdF6VktZr/J41VwHRtDYy59xhsaGChrxNLnIN9Rzal51mCbSfjjcwpV0PTacOJT0HyK+hN1SS9L30GxSy+6UXdxM5WaAt0rVnxt7EuzRu6+wns4RUDYzR9KFeWXd8hm6DD3PESDt3D4dorA/USg58Og7s/6Eq7bFt3+cQN1PuH1kGkr+TqbGsunfjdwdncyXjr2buHfd/d4h6l1orfpjkj8I7FSwblI/graDyC/IR+AjzuN51AuUreFyFX2np/XDab33NRDVmNijnbGhYCla5Xdw70HZbzw0Fmkngbdy9Z2RfxfssXpV+76jzfQW1P+8e97tVjH5EED6yH1tM7F86L1KYvhqXdhny997/ldoNfX9XjpNKu8DzbsL7FSkhi4TC3sAe7BR4IGA59nIsClBAYtYycLz6Exx2p4Ezpn/vco5qvvnarV6x7VNiYNnx56YGRZ3S2o88kcC/JjBnqo7iDup+xQ5jwaHJXrCSlZRns6Pjqtxf4HxA4tqsGbVUDLWrqztENQ0MY4MOQ3q+zMFNIdaKtaaMa/r2hma+r0UeReNp/w9wl5KtRor1VbZr3YQwutrmXZrjl3e1LTP2HfQJ33V2VR+9vCzlYExAmVdBZ7zdhwTo2SmYGGXj87A02xkoVsUFJbKnGAk0qv7Nvfqa/LxgY1kRhy8hTNpsdqpiTEb3zHc5NU7fpCfAXZHvEMeCJdH+RDqUdjHSPxoqWRSpk7++XJer2JV4M+W2kTWzzA+1qCZEdjZzDTPmE1Sa7U53Fjf2dK8Rupr2ggeI8m6TtTdJD7ODbCbIeJ1JrJVL9PCDGSymVLw7btHCaS1mPKd3+dwnR3l9MjJZD/jFIEib3nk0NNVuk02HsYFq3ma2GIdoM1KI5KnN/cqvpO8etK8O8SQWTrzO3l0S7etAfUj03abnlHr/rWu7jGN1OMO8q7IA+0T344M+zHX94D4qK6GfozhosCHi8GfOJtVF5MYmsv5iszr6CRMCjduJrhpKJtsNKZRnV/s+41y+FcVdyaeI8mQz3BCwzpvA2OLvvO1ZOJLMvAcwIOf0ZZTeFDa2yqZmKk2VzOhyO+rNJrJAsnZd1d7pr/XbTmI8z2oO8P+FIHvTdpDCklFKlWrHL1rOvOh3VZJY/TixJ25P32zfhVyGr9TgVP3NeLv5me2mk0aSDLbHcj7RLCjwBP0dhwzA69uxngntqfoaSLw7OKJ/UTap4fEm6m5+jZsuF91sOaS1Koq8M0zdp4C6M0rDdE0NBtMLt4aTrFWPSjtKvBu8QeEkjuxM6G3Wmo+01r6TgmN2/nXqlQEfvcwjLSBYGV9NmU3B2NCTwYeRN3SSAZ+6HseiNR31hDhfCvY1BQFOHjKaWLlesKEBjNIsO6avZ+28kiYhHeJ+4PcPcvfk1HgrsML5pFWpoq6g8J3LPFR3o+q8qDvVq2OLO30NJGmj6TtJvTM+2PH7kEX0q+Bb+1LRZ131WuDeSQfzyDwEtTctGilR5L3V22ySkgjdqZO7ExdhlPlXTfiKHlPgtaJfNvi6MBuh23VXc68W6A9P3qXTZVZ9hkK11kTeNl/A4DXNDKKfDA1vSWQA9t38i8DCDtZmg9Z7VEA5YVLH820QxRZFKsTNCvbcmj96rz755q4bwAvGc0/zsODzLOop/LepfLugRfsR/UxArsgr67GxH00iT9/x74OlF3pkeFPlwbqNDwaeLMzLqhpHOvq4NnAB/NeL1dpOpHG11k4I+eOoJdyVZRdBZ7imXbHPt1tuNFW1bdNpnmvs8C470yFNqYSz56c0mbC2F2sezyGaGLo7kcINHQfzMjovLui7nZJBeC1oWrAnx7BnrdaIXj/se5lvjazd6hY0c7cVdunxLunDh78+zEn3ll3Ne8o7vEEN39m+P+HyEc7Q7BfmPhktuxKnScsV0neVeJJ4V/p4bXhmOYgn4MqvCTwCey12ZpSRoJLfaWBIA/VKlNfcVSDQWTlI8hdOh+WvMbGr+cTZZfT5TEzjIzN2mslvvdO1zmdEXXXUIaYp24qq7w6+GJ4S1argrpb+Kg9JngNZfG9nbFGq01KWqm6ou9ungBYNw9jrHt9T7w7835czk6cjMj7iMKukKOf4Wc+HPfI/PifDY1qPT1fL5bkZGtftWCVHqsG7zey76zvtNYpqry0WJ+Z+RjRMPYSS/pl26UucgqfNrSb/pQyMwaOJl6qlrxLy1mMW7iXb74BpM/2Y310ZnbJzH6eTelnWtG0d03VJxP3APoQC9YnkfrB5F2BV9iLt3jGr/wXAEdzUuSN+RO6m60tCh7z/8i7u3mCrLnq5mfukLxP5mfsIWDesbBjPpM2mySSHPkq2UwC+mhCD54mBf5XivoLEB/dO8s86fzyZZujvSdUeDtA4TmgZD9zO9ACv2jgReAX0tXLoMRzSFNTAF/isr6g7SUVrn+Q9eVbqcoL9rtqo7+088mM7zbtca32fvE5yx9mC941gpQkUhf2ufkBtO7maALqvbL+pMIO6s6OJsA+fPCSVUG+yEAH2IsHe+l9Z+MV98+tQnV9nyVU93veZuqcukdJN+A75pyAH134rqivqfsZ5d2ru5Wuo3fzv1LS1/z8hYGPKv/CYY01n5x/v4ilkTDy9qz3QHscpLkx77dnSuCJ+VdFHrtO0nsqvcKTnyk5fmfrLkaekIedNtpqK4isUNv59NsU2Iq+2TifXe4+9zQcOTPsMy/ysAYTkc6hTLiuqTvk7m9UqRLwbwx6bKwOuOcGJpG4mg9Dye9pB3Pj1P1zA/h8c4IE9vtqtSrAB9QZ+MXPHLtJc5mjGppsiACwHwF+gf4MAg9DBjnqvxKVf2F1v/J5tV9X5v9KxSwlkwH2qPMg8M+awstJ6s5JjUQ0z4db/ESRjxqvzL97H19y/l4q8azuGMEz7FSsRnXn6F224Ggrq1mrtf2v3dKmdGXTvKLqULLGnursxf3JHga9k7Qb6xzPpPIeQH8j2AfaZ6nQKeAi9fDm3v2o2PcFa7LpmHr3z/Xm6he+c3V9Ejh18P94eV/4jsAH5I9R2z3wLo1MuqqcyUwZ3xN4G/kzzNaMaWJD0L8o8C+pnb9YIH/l9IbcDnsa7LA2zsM3YuFj1+mZC9ZoZsjEH25csR7A0YChqUudK9CNCiLoNFFQxlPUneKaig1N0mYCnd/lzt0v8agqvw12FVOZ2Ym6JZML67MJe7jNCfFsZIKw9+RneuEcvbsDfjExb5pDpqijnTkV6wcvdvpPliZefnw9imaS1R5f2eYEmaVRO3M0VSfWA/fL5zgJ7Ar8CGMzOfBq3gPS4m/OTDqaGstrzvgdva15SapWCuCvcFf+YxrPlqa5hpV+DYSSAr2Mjd2I+kD8a/hDHKAheV/Omh3NwUKa99oNS5qySwqftFddPtNyNBO1HHZETdTdhzFzsDLJyIykkXMFPmZOF67GGYJZhmZmCWZgyeqg5eogDp5E3vGuuL/F7xvVrWLbh2Jb3Nf+G/yPYpUTmh/OynyuhjOPosi7H5xZ7TKpvB9jNjNROnOc8DP6CTHPu/MyTHb8YcFkOmGA1mZUiWdn8yJnUr9e0ztvYsACb7AvmF+e0dDw90aD8DcZk6R45sYhfHQyh1i2vtfWcGJ9r215E2m77kGz4F2GrQnAzZDEU5epRd+y27bv+0q7TXssV0Oh6hwNXWYakzGTA7Y9K1FZ3A12r+6FnfqJkcybJjRPGew46P7dsfWmj/T48fX319e3ndWHC7XRzdx9HDmxsIfLUX7GmjXIOjAvVetoyYwYd4ghJy1Wz+MvdPFjRvqIY8OR8V8g8i8+lbRmqzz+S9u587atLVE4/yKlClc3AtNQNCgIhtIQ5E1nG3BBQEYAFXocmP+/PNrzXLO5afvcc01RJOUEqT6trFkze3t0g6Pb1MRlThbQ+AyNUn/QppMOjCUPr8TvtsHRwGRBJea98kV9Cfqbulv6npD3OFJNfG2jY1izrudh5JRFNLD9DMn7BNEMvcKN/MwkRubGfLr9OOpmwCfwMwq+Av8DalVxMq1VrFCqeh7ZLpH/LvGf8PEfmBnrrOJw5LNHkTnxz/kIjes66LsA7wJ/TvLeGepvhTkxE3dvuPbMuoDfy9cgQx46sD0re8/AN5mLHxuvX+lP043CmrTuaRRHs1eVfwljY+zgk6HZp9tO1jodOKDhSHLLBetOSL9H6Ct+PWSGptKGU5VeBHyi/XGtAbznM/F37w2L4Uxcshq2KNAoEg28Re86Erko7wS5ehoCPHiZX3wBcZdCtRXXfvpAvT+mfRU36Fgt4m7MLxesubrrzpHPcYYmEt8929kh92RmopcRF5+5GZf3yLxw76j3Z++23n6YyE7PvdesUqn2T4Z8XrE2Cw1YHQ7mnGaMEc1PTCW9cN3/1K2CLaJJ6k4CbyXrQ4hoKu45sbRXFREvv59MOfemk5SrgzabBszeh3px3Sp1mqa8Wg3NVegsTUHbed3qxBFNhvwpiDvH7nrNDby3m9zLnOD9vx3+e5xmy/vmuL/++cDTlAx8oVa9ziW+m7+oZKUTqD/zJctkYksVDtF2QZ0+9+RoVN8Z+V5U3eS9t5iGyUeZH3G+YISGFHua8ca6Am9rt+NU8EGK1h1HklqratXKM2M7nwqGxlNS822FeaRE73JLMwVsZ0zdmfaBe05aqQ7vbo2aJTNesnpLKbFuoEP4LgORivoGQxmw7qdjNO4/IHm/XVpCXRJIci2nVv3MacHJ/DPqVws7dAjuf30G9KV2UxihCbB3dqGrsv7MtPPZSdF6E3ZDPgtlfFwsJ7+XtyDvlsaYV/KJ7LOizkLvsAdZb+CTpzSjlazk4cc9jMFnY5IHJl8d/E+NaKKf2WG/yd4PRDwxr06epgqoXq0GGBjTfCaJPMC+duTL2s7ZTJ3tgc3Mw3zYhHbGsnhuNUn6Ht3M6ZgRn+WQUd1bySHFzWjT6V/D/t/Zgqesgp0lM++Pi2VJZJiemQk75O5gZujudWpnz2ey8J7GBBOTH09z4s99T+YmeZl0M3UPbSYOZnowL42//SeN+ncTfLIzxPlICq8m/qcib57moKs+KIknWbdM8mCGJrPw5N9N3gV4ySNV3BPxN84fzNEw2IOYFz0HyCTXReAxkgR1ryfP2kXbw9gM+RjP3APxzPoPV/cjSPvKDDwrO1v31a+T8f7ro1L1c7TDO/qZleI+7zK9ln0MyvtzNjvjuxIUDtf0manpwNSY0mc91bdl6FXZSd17+NAneU8XVXnx8/2TnQ2LfYPUlxx8AyaeDA0Bjys/XiCjsU4rR++7n7otB/O+3e12Ku/3mtLwDnuVZPFJ3sMMTRp9t3kxj2lqbbRqCF/bvgRi3oe6fqdi3UBOQ18CU/dM1xX5IzdWN6TvxyNAf8qDGWb9iMXqL7m35GbA0fiomEL+79zM4nchU/ePj0zewxKPwrYz89QdXIw8vLm6v7G8k5vJkS/6916V/RxAZ4kn4AXxsweReSQ59zQm7U3w7mmuIJ3JzuwNepseCx6e5f2wp1MyeBD4neczB2yzSjyzfVBdr9i/6zhBSt/J0TzSi3NIc/AO+aCPa1nDOuTiLrORUzYaOW0ogEfe4ZmXZgvs+ZTYKdapiPpKZwhsjKCVE92Mjkm2X4U8KTwEka9Lo2JXGyRYsDRxPd+Cus+1/U2gZ3E/s9In5on3TkH2KDJ37qrnyLrIOvl3Zp41XeH3aKaHqjWblnQbb4HlaCUrAb8PYzS4QYdvTEMtJ+4+6fzMvROvBv4ey1aOJDmnsRy+wiZrgp5IfzT7zpHkenBpX4O5WYojJ5f2jb03jPxUqFUpdueCdbLlqkHcM+hP8HQybSdlp1u6Kt+3H92OLxX4T7WZCuQX9tGD+RkAvnsuZ++k7qjz6mbOxHyn4t5hMvOOnYnYC/yCejIxPZ2WyvRiYlDjmwbxzgIbCORHLVgT4KMHNL7+Q0ingbGDok4LnLhiTe59q2PBuzhDU6mlqRzyhzV9WCvvovKi8I+avtOlNhMvWc0AEfwEtwD8xgQ+oV7XaNbNzzDrk3ZV8ygycn7MjIx591UCniS+PbmLIdCVcRf7LzUzr3+WIskrLua7zh1NedlqxjyyjnaG1dxuzLr+mBQ+Ds6USDdP4xLvlSu4eH+RvItvh0gSshmsW+Ur4Pr+YhpP0STIO7ZZue1kJj6JugAfbfy9uvfQcnpQT1OhuGseWeXzBCGB14LVbUxg3mpVsTabDcDPzVXsMU0+AjyZdS8ZmiNa9x+xz/RL1V3se3tqjW327wD7FwF/O74tz//OJgmuhYWr2ShBsVZ9szgSKlS+KfmawJ87Q54k3i3NYvjuTiZc6H2TdXnLEyDPEMeIpnFB50vTBDs/QtE6vjjrL/s4WODAS4vVq9V74l07TqjvDLoB7yMFOkRDdzXwIvFcrOoEvMt7PbvMnM2UTRQkdaeKtbb+Et82aGxU1ie4orh77n6ch5A32lvfQg/ZNiPTrr6MdcH9r/e0fb6zWHkw0tqq16Kd6fJytXPwWd2VdVL3NzPwWrReytD3i9zjLR1PqPCNOfcg5hF2MDMQ21AkSeKezMy4HzWUfMFJSRiTZPB1YMwN/FYNzQ57TpLNVObf3ddUtuJDDM3gdkZNDcaRa3QzA3Ie40hutMrYmExG1lPGvKDuYzOlNU3Buc/mCFppM/FrlQS+lZNvKO3tl6v7IvHXxfHIfG3TdalUDfmMiXuHdWrHTVXFfy7wF2L9UgwiE9XnyDdfVdHPrvMs7s1sfV+Dw/CNcf+kUzSWxJO8U9WKEj+rWt3H7zyeMY0XMwMBzT1GNMT61ibG7EW16jDIfa0KX5PGW081sP7eAM1k8u4WR6bFJjigeAXMpyLpx5BB5qUqS7zATv3UVi8yUtB+oZ95bwD4nV2Bi8AX5wjyJmuHzHfAvHh3hF0cPft41vVLBnwPt7mk47OZmtvZ+LRY05CvoetTLFgbeMmlgZ0MqGAdVd/31nnSDQtE3A97LFrFvx+igTfY7yGVZHnfVpjRsK8ZyNRoOqOxJBn4IO9zEz9M6OAtcp9ghdM0EfWTmXgBX4dl6HmTNZtOM0eT25lWchmm3TQe1F0l3ibHvoD4b6UAcnFQTIPI0m+hhPH3a16pSlNVeAfTblXrW9dBvdoF1s9atV4Q+iDvocHUm3f3m7r4koFv3MEY5ki6Snz6VpCBt4pV1H20DB6BB3Xf25QkTwO7n3H/fojanlqs1XaGOoFuFt78+/oRBmg8kxlQ3dNtGmLJaq6m3sjwGGfvzHgN4m76HkPIbNodJwhKhwBPCzvMu5i6a1DzdXbm2ye8TPAz5XzmORuguZabq+zYnyGYMStztvaqZTWB+LNyfpnZGWw49e5qUNyt1dqLtCf/bg6+yanPFD58B9KFZwsslTR1H+OGknsXd0towM/cZ12n+23U9i3WrCF9l3lg9+8aSEooqcSvXeWXV2pPNkojHybV9mlCS0PKfuSH2RxBjGVmSSQIfAvxTDpZ2Nu2dfRXX5bNfPugyVRcxscHbj2T7z8zNzJaq8bAPRxnCGcyJ2Mir9RfSh4eU5kzSDsKvkp8Y/LeNNG2FLQdHLz84U3Y0/t27E3hsw2Yboes1t6LlTkA7el12GYJDe/AVCnoM9Ylgk9mpqpA3fUdgTd1v6tjz2lSSb8dd7V1mvghMY/A+yABFasG+39m4h5gL6CuV/UxhPYJxL1tZ0Hk/5n7b5/S9tJ05LW4cHUJeJiKDPnMG3h3vlxu5/l2PXddjjwRH0D/rdKOyXuWS6K6m8STuJvQ5yYdP2giKTqviWSwNGzgx/0+243GLI2pu3p4cjM7lPfQciJ9t7ECSWfA1VSDGhoKJR95tGAYTOEN7/U76l6LTb+LUfxGFT7BP6G8622TsC8doO/HBTfT5tb9pKC3eTT5j5FvP4n766caqovD78+y1OMdI5PH7pnAv7mpUXW/aLVqtHeZp9G6FaaA3b7ntBvqDZ1s4hty8o3wnuxNHr4/BV/j/xeMTvuL6vsYxmiy1X3aaD1AOiMJzQHcjGWSlS9xigLPiSQNE2hGo0MFQ4xohPt1nXdYS33WaVOjvVHrXkfgj1ynzqci8wGCWSgjNerp+8mIVy9zUuS1Yl0F+APO7eeQXxi9+Yakv/75JPU6RbO0McEceitZAfpnLFMd9qTgKvQXhh6Avwjsxn2Pk8BC+28vWTGkAaF/UlvTUAqvwUzzlGcx+orq3tB5470RT0OWZj/O5F3XbPNmNLp9KmxCo+qeLgez7/dbmSjQoTEUdxsJjmnko03BhzhGLc1dIZ0xSZ9A8FXz6ykUrOJpGPVpnkMefdmeRTOz4zsGMwo8Hac2QI4N1jm67T8T+HZuZl4/3jxvHr3/ieq+7NxDo+l5Lu7BwCfYk6URzi/COGt7hwKPIU0Wz2CT9ZxXq/wVeJLKteGitWlAwJ3qPJP0x9EDSQKezhfXePTwPhWs6i7jBPcyBc8TNAeckWTgdUSyqkTZKwa+EkfDpib5Gd8sOCMeY8kaxgqm+g47TirtGwHcPE30M9Joki2AwxiwLco+FRx8m4Sdb9/dzbChCcXqygeDI/EB+PZdtuNXxP6Zb5+S9evsURqs1+XdlsrYg3u3MYIu+ndlPjmZi0DfiWkX/x5h/60S/xuDGhL5MFKA+i7Um7Mp4MyCTvg3TcHWp7+SaCd5h1CyZOFlQPIgW6bCSPAOhwryhEa9u+1E455G1vWReV/rjOSj7McxqKNxdb+L3dXJlmmLnN/B5JhKfjw2bmh0R7GSd59Nukd1/34C0FvQdkfeQ3hDFiJ55L6Q4fzN2tm8ts1sYbz/hZZZaBNT/G4SgUKpszJ2BV4oTksRqAS88EfBUO7/D1cz5+s5M6PEb++VbElOoavHj3/nmTMz7btM8+nj/oF045pio1gyeXU/O89jvYcWgmSEVePH4O/i7lHx8gzAjoI/B6kHGQeKCervFGi6TW7zgjqNnRTHe1ZJzLxp3FPMI5uheZHxVa5Vg9HbkBMsOsYOrzjzZfT+TnofMYB/sgge3f0/+pkqVoxo+u0WuyRhtOkxq1jrK2cztRKMRDbXa8o0Yu6PgjPXrCvykLh7IZ5pxd2Dwiu0dvP4VkJ41X1b6B2zESn/K2Bxfgt5Dx+f3m4w9oumkG/vVatu66ZSO4GG7m5YFXrErJ/gzEijRBOEviZ/P3MU2Z3o1bGtB8V3fI1q74Lsg+I7P+YETQYn8ndN4mO12qC7N+FvjfsaNPg04bs5PIldWQbXLBCxM8KPNuZEs7cndC/FM9Q29kRb9UkuYx1jS1U7xTPaAo9KD++aM8d4rR98B02089q5PbNM6u6PBzX4FN9Z7EfX8G62LrfqWOL21teq6ahTuW7FkF5+DVq54RCW3j7dErlnLTNu1sel3B9ZApk91qmZ7lXronhy+DOHNGeLIfOBpqh4iiW74PEduTzJfmMmj7mkHtHfDdkto+HugtTmnfUPIPgBceZHWrM+/2P9BPEkres1FK2E72M6x2nJFv91CcdWqlatWXtYdekBilU3y6m48gwmkmb1GbwfuFh9nHd3aHr3Yq+YZSq298nc24RpEndn2apb3yWYn5+JyP1Pxi3u7nfig7WWcnovJjSlAae1N/c9ah3wnZKZKHSKaIjez5JDdnpG/XekdbZ8Ujp7vF4LYQ0TvMg+5jQWSzqweUlMnvm90YL1Byv++Rln91nJKhQvipcVJEeZyTp+efIR/FJ6JCPAW0eB9QMvLZ+JpwskQeV1OoX1upWBpis4O7L7A4SRj75YZbU7yR+LcaRXfaXnJPeq/fi4S/wZUaX4LcGfiOyw3P1nfJVXEUvmdzjBJ/Z+eYff137Wat4qhgR/pnRGND9dzkrv59TZhWtOUeACNFyudiLr8LASpFmhu8sDAU3C6Zne06/B0ESDV3sXfCetD0AzNMxKq3KERQr+UbGTw0djH7OARiz+69NSxlYN5o3fexlx0ngGJq5i8F4n+H5lfH8geLdaNYtmNIp8TFsJjmn/7+G4U4/3zj5pfcL2KmWaOQGbsd+177h7OytyOaoqlKo/324iGd8Y+ZbvueojybK9r/dp7j7fVCBSD5fg7qR4xvczGLyyTGcwH6w9XknzXRd5pgOkWW0A5M3dm0buL5HlWd+bJJ80a2ekkZJViEbbCpKcRgtWZfgRVgomoCHR5wHNEidt2/AqkQ2Hkb2gO0GNGXxdnsBaG7fX0lIAVSow/KPT+7W8HoFR+y4fbVJvn14BZipGmg/cHckk033B3WfVXpG7g+B/zvX+Mr1f0n1XZ9ojLx/lM+kcD6hWidtPa83fzxLQwClhJLs6VK0d2H2nSieeIXXnSgeI3yDGMNVsGuftms4M9jcy+JcBiMY1jlE286wLqLpqdeTr02h61yvb+1KWoUGE/ywt8Nwj2duuB1uBGmx8r03Ven/AoaYFSP6ap5EoeFb81fpnjmnXO2ldbV2eorVHzZPgq4q1/zHa3KZskreddLR3n77z8fv371/Tgaq/+GDGT+NzqxS4fGYmnVmnYrdKdZ+3iiHP8Hniq8H7+WQUk6p9QwYfb3KlkKYLaj+tiGZU9I3OBRHFx8FWrlk3avnm7ixyZpkQ0TQvSjSs+OHZV626U+VoMz/I1eEtUh8LPCNi15axpbWLUUtBT0Ajq9BoY7Cbx6c8wznNlcVfq+GT1OvrFXzeqT3NIhdHWA+VHX3Hj1Xq7kHsBDSscvX522R/i9Sd0iep3317ff30JzmC8n/9+lmYtqc7rTqIL9LM+/k7pjPrNTyVaYZZJpBMfLHiz5BGCtPEu77oTu7ebeQSZU/gvtoowZ9E8Q1YfANSb2QSiMaQTeMSScN3UfwzKh5xRjhecYbsXdYZY6mP2TI0yvB49DzGumV6V4ff+h6aiDM15JIQTEKpupCRVgc0BX+3OjWb1ASDqgcndNA7X9v/o8S91FXn4fmO99HO5G66/62ihy2FIZjJ1xYr9L4XEsmPi1UgmrUUrCf2eBA+ubvPaETlLP2Newflm+BXqPqVR5pQszY+ncFBKahjByxbYwvNi/j785DOc2LBj7KQJE3aHnllPVilgCPJp7RkjUOrT0m5ylqnK5Wr/VYWoZEuSYb2NHWv9V7jv7k8Mtf84erymQlmFpFoFn6ZSLL3SoNIQ/f4nmR4RBtuqwLJV7dKnOkcDnH39httmR127/jz7vH9u/CNx5jL3B7DBX6/zPMMzuXbF9BdsxnlmRNbPAywQrlakD0avJymczozelec0UHXRpDexpnkKjQzBKAhj5ceGmH3H+kulRLBQwIPLWOj9EiOT+mwU2buavBbVnvPJetnN9jkVxnz4rbnWmPJmhoLruFeF7uAjWUWvlYVS9/F+w66B6RK1VsLSn8f3/GbULXIPxVQEJl6W4G/t3e0gfDrB+6Omhe8wSGmt9LakSm/v7ds5LrQRlB2eCF4fSnVnLvo70HTDt5F6HKEx023UqyJMleDR9EHomlY8JzLSFpj8ncDr2TxQvJDQ0NOPyyYfLY4Mhl44hX1RpI803vsoCGPzwRva9AsDd5h1GnZ99Qv1vccwH9GxW+R0B3GqNgtkuQOMjX3OsMZDd+Z3rPYfcdAI0Wqc3cxd9S7SreV5KaarUFV6VXrLB0/3Imx88aqt8hdNR/r1wsQPGr9rcjvc83AkEXuC/R+UpaxPJLFHqW+PmNI09noknFMfFHNuuk24PBR7d1GOEbFvoIYPoqdmCY+vQjL8927e0O1KnUUJBl8EeDHZ9vyg8QeVwmmdIYq1litjvmUDxhidf7eG77308H1qsGMWzxy67ldvgPSPVNDH3AdxT4ndZvZtDjguqgSu4vYUepHRRmWeYUZigq9at0H/GcGFytF4f+yTy0Buwr+VnfHMjZI/pLYfHHu6sVI5lLunVnPzPTIc3dUe7xr1TpJnXy+O5PDe5DpwOM3hDUs9ujrqxXUqwm9b9jNG0kiublGyGbTQHPNIB1jlE46e8eVCpL8/Vk7xqLqx1EInmvW6RzH4rKpOb9/ZXsnnum1g2aLo6syvFobrLtsssaUMsY1Fkc+eNHn4fviYNOzdaTpIP0DrlCtoGBV8jB6B/k6TGlbH1xaKeoL0+r+vo2L5KHYb2H3oui5hE3b398uN9Sr67l1lvZzpSrDjLGMggxzfJT0GWTO9KKvWKaS4uNDUHtHLENQE98JxJvg7dYkbZSNNgc3kkY2POHjZUh6aIZE8KPtf8DpTLB2ayqQ1eAd0SxLAP8VWSbqPdp7z/7+Obd35Jl41uDx8ZSJHtRJQ/Yebov4cmK/irnL3kyQvO+OjmVY6nQBeQLMgN4RdBRZWifw1hWl/Pf76r4lXw8K//b37o6pza+3d+096RhLLX6tU5v8kOo+F7yj9zWTzJrNXSmeFJ8VqafO9L9hwa+oVpWqFYrWROwFrW8ay+QtihSPD9XqwFm8SyR1tGnw/q7bU8rw6giKV4d/KhWsNoPV0ftWkKbvNXr3Ds/d7+rutbN6+SJcoSk4xfdDkHwJ3Y9+QYLdUUtVxzLi7qZ7qDFF4vgVwODG/RZUlQ8do9ijsTOt82bZ/57dWefTGV5cv77psjP55tqXuU1sZsZWs06CM8SQa0wh2eMhpeni50zo3t1V8KvppGqVPH7FZesqenyi+AaUT3Wsq1rhiC0Fg5K8Grz1SJrgR7B4EXxg+C9GM9QwNuYDTszuT45kvpK1L5eK72Tv0/2zztbeYkOBMEyNzx5nhNtrNvc664y8So26OOxI8MfD4egXVjrkLEMyP1YJf/uKU4Xcora9wluQ+XTeVxVTDO4P/z+5+3e7BJbXNoI3txpH3kDz7nSPMsWf/TMq/mRYQ97enQv+rqmMXDeWSoaYBik+MXgEl8ankhtrq5FskrRO1j5IyToMKdF4fh8xkuQOSdcUTI9jmtDY/k0p0/TB3ft460Xt1kODencED7lkDdLXvQ+0LzLofsFI42Z57ET0hUaxKrF3V6hWWLBi2Yrg4gy9TTCdlR7V3t4lW2W/OsX/lbuzw9MFFP8Rz1xmxlbn4X2NdaoJHsrVmEWe6X0usjtoPZh6x4nkdJq7g8cXUvhGa9eNvhFy3EH+PjQ2adtHNM9udt9IPh8nfYycR0ZzN5oZZYKTr1h5waViDB/z9+W21xNbaGCBYKd1JHeBGXD3ByhTF1mpCvAu9n6kfsid7wxzhaoTfGt2nRu5awfATy07+yT1iWLKu8O/fvsLd2eZm+LlD7Hh5hdHlFkAnxB8Vq/Srk24+vU+oxkf1DDJ6KFAE5nG+TpL/WRYsyLNE8IHc19BCC+yT13ezB2gHn3eRp8GqVmj6JNQsjSTVedto8GPoPkvIyU0yegq4cyTVapfA8uQsdNdeKaPLzseqDG49gTzkFarmElywVqLu0+KPxDCC9AsgsHTsCqXrNT8e0/jS0drEBPFV2jsCcCnFWlSkCK93PNNKKYk99fXf8nu31Nrn0ROH8LBiv/1VuAZKFXLs7Wta2Y/P8qEnWI+pGFnD1KPLHPGjhkVPsh/Ja/IM1HwK9C77yjgMaeGB54S02+MdMDddYw1rVeHdHE9dXeJZ8bRGoLZ20M4owj/8fgqtYwFfGe5i+KxYrW+mdqF7nUS2RDRBGsXfpd0hgS/UHvfkbvvxN250f0+6/uFbKZFJ2/9xwqxvU3MHT4SyQSx383tD4/efru7s5PLCVL/I4KngajLZW75yLmV9Lzi93PjqsjvWq0y0HSEMmLuycFV6wqhhoBmuhLVJOa+KjQWNP8l7XxaG1eyKJ5v4WUW2kiLPAwhENMgr4IVgxeaPMMjoHRDFonaEMj334yq6v4591aVktfP9iTu7ln+5sy5554qAe8mujnkfobeUgv2LXifwO/lSazJ0kzMOsczPp+5wYBmh22CQfdOwdCMtHYaZe2UHHwzCOJNo+qOvga3TSmOZNhfO+4SCPHUmYny/ibMv9nQvaTuprWo/yO4z9WdsaehlIQ9fL2/rjwkm4iXmOY7uJOcA+sGdfoTEX+OxP/6Xb2To3Lcw1zD8ZS3xGLyjnmkCPw7pDRB4o9H7EUa+PsjxTKCfFo6SaVAs3j2M9igyU29lAtwv8rBpDRpnrUzlieSkzgaAv0vgzrEkVbhb1wFXoHngTUo/CAKr5Ekdt+b2jsi/6F/VOC7NKnGVthrnFlhz5Tk/UST6ml5twn29g0x91GMq6Xn/yD/yKzDt3tQ9utc3MHQfEPdz58Z7Z+KutF6xp/LBnljrGDf83rkU7ECbMN3EXl5BWkP7/dkbGoSfwR9j64mBvAwrNIrW7KKm+mxOPmFobkzA6sammdXKZjk/Aepu22LIfDF/D3dAw/Ex2H1ZpRplaR9xAh+ED0nkb9t9M+NLJ+McV/obnRcFWXv1L530dEE4E+B+G0gvcU2JJmZ+9y8bzCUuS95d81gxLdf61OxzfOxLfJJ279uRHp1P59V3hlvy/+ZZ9fyHTSVs9r54aZySGOIN8Nqon02I+p7QeDfQd8poZEBtTce3jh4UPf+YCIaWUNB/A7qbsbVYj4jCfzCPSt89DNm5VQAXo70uXokNWiiodE4cswXToj6LfKOOU1aszYfYt1F34O0d5hERn2PnEcvE0APn60V97eN2/5z/tgW1L1VztvsV4T9+vHRPxq+PK1+oe5ntTK5l1FBB/MO5oaNfHHFmucz7hmUBX038q42/l2hT7wz9gT++yyyzpwbS3PoBfpeaM9y+LvDAYfVHv/yDi/u0H0T+3d77KOEut5UwHemWuue8kh6VwfWnTvwMVB/ZoRAUvWdTn3kZEtiA9un5GNo2aTqnkinrnvHZuYUPgH2E2l7JL014m4LAJus82LUPXK9Qf+ShL29d0+IT6hXA5rvqbuNYT6NultxR9hz4p/qz5HHGnBV3+3NBM7NpNydIvjQGgssW7VXzt8T672kNLFBI+reH8o7J8u6W7xmI+uzUfc772dgbJ3ow090AnX/8QPimWk3ZUe20dCok0kKH5P3BfibwUeRdKKvoYm1sbCz2htvn2hvmuRmOrDwslh9xWyG8veAfEu0t5vNpmbeN232vcV3K6TL32z8c1PXgP+bRtarr3J2sTJWy8Wyi5t3qAvy/+AlY4WQ5qF0u1jBv+vcahJJID7RnQCfZVD1wKeJlVpjhHzIZ3oxNPDF6zsBj20DDeYt7U7h7yzs1sA/T6DycefEL27RUB6fZzS73Y20CpT4QTo042ij93Ew19A0fkRtjJvRzlgyNI3AHj9hRuWplazM6XUb7MxpG+27+BkiPql7W8a+1X9Jit4i9SjtOezX14/Xa5aG8sgvTzN9ujkUp9WvX5c4uiYjX8hmHjKBLz2oLEvga/ouGg/Au8OrGL6rukP63kNJ0nUkBXasx0M8U80k/5cdZM0S+DivTunYxyRHnLROQO3IYj6zuylV4Idk4qFCM4yDDeBjINmgvjPtIvDs3LU8IyWCmLxLQ6wTcT9RT6xNeybmnOQ903in7y3+QNbZwsTGY+mp2NeSzRQUnopiVysmBtoCNnr8tA7ms0L6BVyNJf536erIlfKMIl73Mwy7lfn3+Gt22m5/hIwm+nfMZdTWIOl3/Z38H0BvT7f6hOYZFd5MrDiy5h4+XskxsaOZwMdPvGAlhXcP+ADkR3Y1cbtKCj/abRMzvwBPNmZojLibX9HMoLqn90L88tJsJjbFXqO4R22neTWGM/FXwdPwpgjMi/ExaGLSf3X9YfCVgfVxVd0ZeHAuZkRdU/fLmVG/XBj7QPzvtcdr6x1La+V3W4+cfRh5NOpOIXy2eernGNGoxPOuSddMMreiV+ckUtavBywF8+0FxtFo/G4Efp97Gt6w7idsSJKFF/J3NqGBZx7cuEskR9L2IPOybhoG6+GbYRhMKEOfpjE2h2Enbe86GVa7j1eozUSJ3wbcYxgZgN8q6yjd1rC34tftPMp6jup+X+dcaK/499WbCDCLUct+XoddSGfOQeQv0cc/FU0NpjOF5SolkLm6PxjU5SvDPr8j+TPEkZpE6pIVUXdLpyDreqBbcpy8Hc/EP4uDLySS1YN9KYKfpj2XCoh3UvfUjyQPj47GBZKjySSHETarxtAEkTchJLt3/AuNIrlK0IG6J8ohlzlxOJOsewA+mpnAatT3zM/ohlT/ilVelL0tD6j/Qt0fK7ifbc5upF09/Kq0K/LEffp6ubz84pGVgH8oNuDzm/Tm7DKO0qpJs0gVee9mzIqV45pkZcDP9LhmZap7o+72RLepjRUTmuwY6z474URP69tLmcCtV6dc4MXTZOn7OKjKj0NuaIK4o38fRNrJ1GTAp3RGaGcjk35FJxOXTdsEfVyqLoAnWAl1cSq2CmAjdRVz/sPmGzZGaL+uBjRXtbTdOBi3X6rMpBdEHSDH9yUuoL4471Gozsx453uFdos9yzqvWLNQkiVe1k3HvoeDfJhJonU/6EjLdufgD/UV3Az9yDo0zsRP8si+aT9pQfKHKj2dX/V3YvudEws8lwlG0ndW91HUfbi1m1Xdr/LsCrEM+XdBnk0M+/fIPL3fTu0C/DYADzCjhTHuZZOFjcp5gv9bD+B7fFyx71dflNrtWulzJX/Bb4S5Iz3Ani7n+5XlkQ8Z8Ej8bKIZPK+NDl7EHafVuYi6WTZpFllTdzuvyt+6TZRtFdQyyQT8Hm/G9oc+wri638t+9Qd8oDJWvAbeeRqq0IClITczalssqTtPrAMkNPTtg6bVxHy3vFneYzoTtP21I+xPZN0X1k+Lsp+20cCQJ9lsLMxuKLUWhloCIvXfgz05+JqdKVyaV4hjzoXdkiP8omb9ckbUDe3EfJD4vCT58PRkH9z0VFo0IfjzqqVRI0OsSygPwQzunALt0Jw5GOSjsBvg8dyfE3g3s5YT+H3pmNOk93JMHNFoo4DEPtD+o1QI3mVtgvRJx7WtnwHgzaJJwpnGVGo+yOLEKLLpopX56MjRdGrgg5s5beM7IP/Wntpt225JtjlON+7FhS+q6Jizf/9pwo/X9XXTVbX9CNOpV/ZPnzZerHEX2CPbSdQT5vpagK+eb1p5tjZexFEKaGRiPWIeOTsLPzt574V3r+8Fdffdmj7LI526e3l3p7Z9Jjkx9Qq8LJv0l9mw3hj3vssbNOONehlTKhiiuA8q7hpINji8NuxiFm0XeY+MfyT7LlHkSczMgny7fCRT0f2/zqfm44gH2v/g0dlFhb+qBe7q3D/P53q2bqZT+RhpZ9Yz4P+pHPh4qsE++2VTMZE84tupe2lq7Y8O9qPCjgLeI+49Ng5KEXy9BY+Z5L50zmnSZNIMrAI+r1ezK+D9xDrKkpXzd6m+j5jAm3ZYeHni+R9ihyDwnpT9I4HeEe/JzXTbIO8L569tMDTLr7fNVuz7ZoNOHpN1teng1ysr1G/oe1Hgr9amVN98PHslVxVXqb+c0cEw5Z51Av5X7VE2q084WKkSyHb16OMZhX2uVmj6orqzgvfmmg5bkT8c7L0cBxfP+HzmrrBuet7bFWv6An5GF04pjbT5DBz22LkLxkY8zif9SCI+VmdI2odCf+ZWxT2+krY33TbaGQKdaI+ws3nfxj1Ti7Ju/Eum66DuAPzm+k+kvezer6ohpDmpVAllFHTj4cGml51Mgp2Azy38g7lSr3grMDI/m4GVgT9aF2+8u6vBY5/AJpJSDlamKZJ3y6jeJ5Lev3sPnxXG8pNOf8nG6Ycx7z9U4LM+8C4vA3OlYCRHQ/smON3UxEwySvoAwm7lPYIe59T0uwMb00X2o8qfgp0h706+fSF2S7puPxun65vWkf7vTHtx51TF3Y+oK0n7xXxgTFX3rmOpRzz9WH7G98vL7/r1kaXd6uyrYpWjHqYx5r67dCaW4I+5ddeTHiXzDnUy/J9DsVFgC5IYwSvoXtwnsu9703+XldPOFsZuqgdYk7Tz5ZHi4ZPA34p/Xz4/yby7mRXymYj6VnL3j+7VvLfhfYrZTFT3rQAfawK5wuc/3ev+D0Eve5m/r1YO6p3XCjFg1HF/Ss6FQK+oenrTt5c4ta5dyVG4RG82+6Y5t+/Ows/H9UjSWngn7g7nA5Bua8OHPKFZKQXjs8sEeF+kmdDPgLrvyv1INTQ7v2D18g77piYum5qk8Lc8uIK6N90t+Zj064ODmdeuw2XT8uXUnSiaCep+ajOvYoB3Nt0F7e2fKft31R02qb7bXgXezqbGzFRQV11/oZ+hFp+fb6oc95h9RpPl717htUMwV2bV3qaRR1ywglnp5QOYGxO/tmF9Loh89dD2JBXJ+HD5vQde9D3vv5euf49LVggj7bQ6DD8D5z8F9AGWqw079vBWJ6MRJEO/jfLeLV4mAL/IejIz29Y6dUxpNm1J0f+LaS/tV4H6q8oB7Jq4X3CL5EjnV1Hak5oz7RfSdXn988/v2sz6VH0eX+kkXybu0KCBSsFcdDVlQ8PuvdenfRzwXGsewJsSTbkydndXqoxlLcmk7vJx4cxUOsGaZTMYSJbC92je2dAMYt8LeWSX9D3EM8J6RFzUveNkZkvEt8HLrLiVOuz3+HDs/4A8epqaupeV/aL/uehCiWEvC7rQ/qKKDpwD8Plh7XrzHbLIfFgtMF8PInspFKi45+PqwZh4c6uk2bH2+Smn8olt8O8YQ6rKs32frKHBmZWBL5zW3mXz6mjDSNcVayR+HziCB5G/FXWPGWSaU9N02nQdGJpg3Rc7E1jfRtgXbT9V0K6CbmH/czdTON90Veg/Vg5wXKxrF3m/nM9rbv2FRf2l4GIc8fnE+uTimdkYmQdjZ/xxD2mL2drYbNV9RuzL4+oB4nV5+EFhoi20xjKJf65a+NIlBdIJTg3JPRdoVOFdm+DGP1be1AnYvDPxtG36mQzNAvpPYd4kNJ3Oq5H5D4a8YXnfdidS966LsEfrHt/fBLwwoaYHxf+ftGvXbRxbgv4LhQqUWIEBJwJoLEBFhjQcKBAE4xIGJN6Ai10usYGD+f8VeR79qiYpDyVbnldWU6iuru7+LXpXhuST2a4hZlIl4qX9whOPPQY7VaS5LPWgriSNPSYPNxNEdgeTfAnsot8kzJnObTVVgtvRfgLhzIiWlBbwplrFU6y0BV73m64xD6yeP/JPBvB4v9g5CfhjWrUkeqtNdiKJ1I9MzGyJ30NqZhus99fM7gOrE9bDN4H1xWiPon24nhqBXnyf37GYAdkBSO+9qlKna9PM6r6ISUgfXxHwYv07dN87ab4DQVMJc0YHabSu+Vuyu4wDA3bn1kzJ/cgSZmgmCtapCae0gYYiY3vZYX0z9epL3optj9nkMIHMR5KouZN7I/S7qlY3pGiYihmp/XU03QfQJ+k+EPvr6flhds86piiKrN5/x4/UpSq320UIEgXBtN3uFqeZ0PvI6BPUXsf3/ZU1vBLwuN+EN79Dc4bFxLQdSVC3yZkDz/qmbhI//eFGbFhGEvuRnztL8NqkuYYxJ9Lvem5b25Fw+YyoVs+823SMaqY5MpwfZak6PK8J6wHurxHxRO4J+K+DNRNcyCxlTs/LH3ETO0G9+E0Fr9j9w7C700R1zBhA6sldZ+Q+gfII9fCuuZoBLSceA57KRpKmkf1VRO9VyQa3S07ypdypR9r9gCS+dGj4mmCP33cTh4fzOJ9AvGyyIkNSy/czbzlx9S7q1Tvm76i/E/zI8Ruj3+PHNpuRnOIHMRPAPpSqHOyPPKt8An6d4Z4+IvYfJfvRjiS4i2i7l2ynUY3eZsBw5zQKd1/BJJAHTo9IJ8BfBLtf0KmDzij3qfR7VYlKtbNrgUuYi2RKJcXBWL4AVaxgD43bcvoEgkZsobkqS1KK97eryUeygT7B7lrPUDiyCQTP7ZmNlTPbRO8Q69uxpzoA/jmy+wD3BxGvT0qug3pnaC8eo/ofLrubladeREYObDjELvQ6BD2hPaNcMfzlMrEauNNrgfF8k81HMknjzXyUJe6tSoovgZo5yB2T7ICfu6Qgon6PJ7Z5zymAXdiS17xc7HrV25b8avV85uOrxPAD0BPoG4P3bXRm8ksAfoT8nde3kd1fT6dvUrth94Td7zs0it3FBjCxAU9IdTOcJAF/Y52km+84JlQbrIt3LFqZcr9MLH5/R+Jd8nuljMhOmzMxHMnZvZKA5zecOLlXht7tRlXXotE7aPii4BHsnyhQIN0ZO776giCvalWxS68Jr2TObIKqEWBn3rsEeib405gPeyYX8vQdsBPmI8ETrT/sStpSVS08xe2lXrB736vGUkZ6luyTep3rmCBhhHjnRev7u5xxgge1E8HbxTOdYnfRVpXjTbRuyeoZs09PdZrY38/WJbjh5wVoyKIRlylNZiwj/g+F8+sV2JGo38SGPXI0MlnvTeJ1C3YtabSYIfU+Qp6D/fQdsI+SPQv3dfGbDVaCO9fqX1PTqL1W7B+4PHXVSzYbbxzSdZ0pnlF7Ynh2y8YZ9xDnmzq7a6ky8fduQs7ErTMZwZWrZ4B6V86lXoy9M2s5qLuKrh58immPHH8XCl7Se9bvDr3noNgL5/d4VD4I+E1C/NGWqonbo5DZALQPYoaj/fRN0a71u4D8I5j/IZJiqc3EvfYvsEZDShlYn+YS9TZZmyoa57pG/soyvHuJ0o0C23VLXVXpsW1tSML2qpjW48sK4KNC8Ac88qFUvBA0YKPe1cF8ovcw8oHG+bB654omsnvwZppA7keP3DdAuBO9P2/vLxIypwUEv/KALn5kXdZvEn1m9w837ttL8xE3T0XM0YsIBH5nwFZanf92nZg/aHgnP9OpxWJotZhqNlXco9GDTWwlgZLvltjZ6J6MUIq5bmnQ7PxAgTTg0d3hPQXFALsnatcnWE1e7GzcmTjalMz3IGaylDlqZyZ6khDqp1HJbCW3n56/h3aF9dRl5abkowL+6cvE279gI5WN6iGj/SaaSpPOY82ki2R4/ts3AXhvBQ3fkUpod7LAYlJbIl8nIzOAK9VukmdYpZqpZPSA0TvS7587NxD8CfT7lURNRPteKpmM+utEx4ltjjTsHgE/6pgB7I3srW45vW9VuXrKteod5tsE9PEzQ/70MNjXSsyvC2HBP2y/R+3+4azC67Vqd6K9wV/ngr1HvI6r05u1ZIbvbQJ9eJxdHCr/DuidLUpVEkbH30u6dxAgb1qrec6jzI3VhPcKlazMoQHtpmhDmglWeVj+E6SBk5LRhqRZ/w6Pe5xFVCzvngnOTPDfM+AdIYPdmQD3CPbFpkwx/6zJmFxzK/5xen/SKUg7g93LoTwB9tRNui1XMqYyFcJF/syff0D+nZH6+5SAF7v0qgnTveroxIHcS3Dg1+RRuaoEDRuE4oIG7BmDW4Lz2iWwkGNvgwRXEu9+XOwsR5tMs+mcAB+YvYHmTFQzRroHfh/APg4xLU0PrIoHHybcFyP+B2d3vjrpyxtXwrGBW89Tvb3rs4e0I2NyailxgvexPjztBabgOzHGiqDeyXhYR+TeafHOtr5bQS6jMticKW13Cjo03sA2ODv8qXZIXk2D1QkDx+vaaPGMjAJnfg+O5OjLRLAfcVfVs97Jf1zG7quFENd9p0ejkprdFdh7bUAi0X6jHNhk2JHJdtRNmsQ4ZPjuArIEk+GZTheramgb91YrFIchAS+TkXbvHitv1d0y7dB4Q6x7vDWVNVgZ2LmO5+e1jXY/W0ETwR5bTVnKNK43A8AeAu+P+I/hdsfwrB4gdxmhWSjjYxT4ibmPmt3RIOoU1v0ylcpPYEDW9Ry1t/FrYHjTYe3UeBMc1K4M3lEwku2LrOyOpQPfOyMNydK138FWPQB2cMVpz3dii23YcSc2AHxuN7H9BKCzKq13WrWUAZ+Q3mi8Z34PcDfiPebCOMdPor2g69jpcE2xpHBdG5ZfxvCjmPEaqdp373127+eZncpTQe2zEsZIGrst1e7SQ/47H9Pu5LbUTmh3GvSoShyJIXoXesYm5dHVSnXJ6dMfcSI30kx8MMRrSePFI+Wcto6+k3YPY00R68cNtN9hYIb89oU6hiA+nNkbKX4a8TxZIEOSi9kdRn57eY8AWu0s3OtQe806S7I6JbQvgzoHfftLVqydWg4MrUgxvyfTkSJEUDptJpYO40NNbK+e+r9RwUjwjm59wEiBOEy5n7g5jPJidIvyqtqrYO/M2Uzy3XF+jo2mzO5gvCM1VIHxviUPcrZMTcfg6Sp8uAxfzPqS69xwerDH+mOdjMivycklJzTARzewKVOLQJjIhH0D6+3wbhPgndt8eDeBtN81qdt+E0uKVaXeKCa0u6pW7eJsye/eyIdwZ0x/FZg0LP++dwIFfj7yfDaTTcyP3JCciY5keJpkviPtftrGbup2QZm6EjqmiL9I14QXVq88L7l0GfbTVMB9okYlDdP7UTAhZFj4UfK7BX2bId5iEd+2v945vYuOU4fEDB1erQC9d/aohxMiUAfKSiFnKjdRoLfqTazk2OkNY6Jepf0Ee9RfjadXGeBfwJpU6M5ELUPyvUHsvqFxVYH256BltiI7MK3as4whvC9Duw6/P8LucMEvH+FIZvsHGt+YmECtbzeZB6vrRX4jlu0tkXti+HegZ95ne02E9a6S69/VBRuj3lUoUkz12d6q+MfmLPHk3eHd7tNeHVZb9VLVKhD/BundQv78otl9bKyez4OaaRjeg3BvjOsOMgSDJ7M9JaifZnRMoe5j84/VQsQX3xhwenIqVVWgfgC3/XbzQ+21nVZSWL8tLU4T1Uegh492+MqSplNyxrtlA0Y9ELlXpbfqXeC2lLvend6q7TjtdlSxQj9SXpZHeYJ8atu1Z9zl72jte+o1NUeJ9qZJ0cioZTYNJcSkeh+Y/S5jtgvq1CJbMQW7FF+QgC/IqlmSpGEEX8xVq096w68qUnXa99YzFUNRGY742tSqZlzpNsfvrZIvbUI9sfuAeQF4Ne7RdXhwlU9nd+hUWSnPk3lDTbQC2+be3fGQuS3Bj/gze9ZsclpOypx586a02ahHc6RyVep2Tu4w8E5gP83I9mJl2V0APqma1Xz7ac39mWKpdodLB9DMUq5P+9vkHGqt2X35o3Cd2L0lhm/ju20voFh9d7LAdgE23Cn2dwV9dxmCOQg30o42wY5TiQ4P25G+oGd2E/5MQPoeYD27729Xb3L1bOXMkJxpBkGTkjNJuzcsCdxsGypVDbePr7kWEwN75Pi/Vhz2hVQ1QdDPF6vFehG7r3lEzF68TqNLH9JqF4yutHtttEwidx3+dZEuqtSo2dsMcw72Ee8tOFnWvaP0DFgbKUeb+GWySqtvuelXHyc7KBVT4QC82MmBJpxymMAe6eOV61XmggHoLb0DwBPeGx6bcYtVtiYyA/6VQ34J2odvd5DfgV6QaBHfDclPCfhA78vcd8PudOUaL8Jj9alTqdY6EnarNb/fppDeyncm++DI1IR3ei56tmku+a52pHb45Cqe2SDf/efhoCI0it7VfDfcyLGbP2oDL3ywYe09SgOb9MxMsXoei9WA9BHsWb6Tntk2fHxvs9X8Hul9xo9hsj18/bUiY7LQPL8wNFYsc+CfkJDx4u23XvsxvQU6Y3dJ5rqXarR6q0V7gjmRO1cyHPQXZ74J87thd4pCMrDLXe8Hk3GE69614Dc9WT7iBCx4lZCU86tgQzAY2Obsfn17ubrxSJwEbqKgaTK/H20EGPiQid0nAzKsMI3wZrodqZpiNe++0+THcmfG0rtmdwo/+gnImmNdqvbbjP9IzaRWiHWqVLOAEdQen1/MoPEOUNqV79qKLOfYHTylrlbZrKtJBR/AFngnLmZvyqMTH9d9MmekIanSMyJKcHbZvRnVeyL4DbWbGp2cMXif8dtZMKZgXgwROmP2/NcWdp1isGAJu3/BY0vsWGSPytTJUrWOiGcjeXP9U4FvAPo2M3wEe6Z24vhf4qIN4ndzYRjGxBS7yxRBECQ/s5j5mYtWa7/jbQZo4kOOOLn+DCJ3sxCbA37KfT+bix5NfJGakeK9kcNMDPDPrKU6ze0Fj4OtpCtDNayuWKMlietWvJNmgt3RugGdlEkYh+GB6DgmoOd0+xKTvTXWY5s1O/di6oxzemr5+etd7tGbHtKuKuDQlHKpmFnzfhD7Y8IXv8XHcV4Zh8bOfIAAjcyLSUUjSP6a48B7k54xl7VfQBRYxWYywQ+CZlQzJN8D1Jst3ziTCtVnzu6TXdQg07mqYYqdmZH0Z0LQzPjw817kj6cveHIpHywwMRkk22vbR9XDSxDxrQQ4Y3Rls0vEY8gHwF+kI+nujTQDH2YdgeF2c0IVCPiDo9u1wzMx8oHz77y7ijemGnvmjQ1s6+zMOS8l4BeGm4B3cmYaZ9kMLFRDqTqp2guJ8wKBXXnxOTo2M/xRLBr3eMLLkyK7Z3rnuh3lBmpZrHJw5x//P91BbQXdtyw2YJwYo+L/1/7Z3t9/Dj//+z7lz/zH2dX0tJFtQf5Bll5mwaa9SJRZOGqCBFJE1CM/tRBIYxskbAvcMQ/Hq/ciETI//t3vW+fjXnvedWMcMrMrKnXq1jkHZ4pN1V1NfpaYtmM1LWhySmZSWqSdOL24qlVf01dEPNMz93wCzYPiv8vFq2eKluHsHrj9z0DupFhduTtVmKt0yrDuz7hWo3IBzy0Zxu4t/Z9qjSAhKdYeM3hDDpX5S8mFAbfvSN53QRQ7Gf6YUr7runLfgEonbL9QTRmJ/XiGKOLZtCUWFOOrPP6t7a8Rc5U6un2Jlav62JkpETidtCQLJWulwemeC/cYf1eGE9Q2HfBGD69m/sxoX2W0r+JNE7J72mZQ5/aWIX6U7ccRUTM0JklvnQ4WrXT60hHsTjdhS+VeHm+6oNdLiguzXNTEzILcn6IHL4RMwnfm93mAeXw3J5WshT6Pqbau5lA6LIH7X0zAo5jpkN+1gpX7MzkgeUi/w/RIkYHX0gRs1wFV74HdCcOvgN7BiEylarLbiZapO5Cj0mmJamG+O+h6FqAZVVKSR7G7GGktY7+kPBXTZBaA+QXrXXJQXxdrVCbbXxbRg9GRrjmQ/Awe9ftv39SpwHKfNhs2w5ZOqq7KBK5GKcuXOvmmShtgbWRqSc9QqD9gwcoMGoxHFpPv3HgP/G6LVUvuq6De81e6aBLkXtPtZdAT+AP225FISrbw3x4qWf8Juyv+ox8kU3YfDaRztUrI3WF9ua557YB0i/UFLVGDH7OgymVRBbyT8fuw30O2rk6lM8OM92zMFFwZi8+LEG3sBMFX8wRksmqtXM35SPAjL9mAAuxtUq5XPyitq2eo3RHxNkMQrfdVqlOp7x5U+ymV7n2V2tGPaYpUDy48iRW0bWb52s3TezoTvgr3HabblevUxOmyNRXcR7mfYH2M2f4CkUeBdF2rDzV2T6hPiP/Gg+9Mt8stTYmPeVrGKxmL9Yz2CSlYld4mRddo/H54hVNAvGzni/WqpHeY/I716g2fOLMKjzPevfPuUZ86tcf+NyBjPZG7yu0B6Ans2xLg2xG5aWK8TpB+LLu3VbjveJMqU+67AwnIdbIfl/xaSWP2jOuXXKoa0P/EPo5N+Qr1IM4jwwPFozUjpgHXx24waCY/xYP0goiai9qkVNH6WplAg4Dn9rto50uAvyzNJlDatEXLakD7yhvvkd5XSbqv5CaDoGLGRbA7dB8jZsidE6h2qmMOt7JWL5tO/hL0TsvUJboyimxfOKgvl5XALwN8ysd4Vl8ErGuXS/8A7Ijz+DmJGhQ0UzotUm9Uzc4MqUGZ126QfsEE/EUnR+mReOVUHVCgbrUp+jPUoMFuvks9+17Au7aezEI+Vqrova/i/RIPQxZku8F6AvrWI7+Jj65kWiUoBhdRLWl10uvW1OR0nO++05U7aeLYFbuX2E6xtYF5QbRDPOAlfG2EI8nuURdH1KcDsryDvvuL/Te252DKxs2UNtakJHvHZmfAUuzYmUQt+ByPnKrXTWqiQOlgxf3aEx4nuBfjxchl05kyWIwlZ2hsZgXmjKX401yprnI7Uy5UzVsJ7OE8iYtUFetUwLfso8LuoyN6WatiZlc0Ibl2V/s4CLlXqB2tRmJBksKVZGMO6ReEd34bKOT3+2/I7ly0p/kbF895BPBUHY3UdRM60Td/BIYXkmaqR2j4/Bl1HgfvYJU7WB/YeLHq4BkZFbvB2LuXMjdBu1MvcozrOyK5q9S+RaDbHcJbye1bYjOOxGUTWvFtgn0Gu5A27w9ZM4TdtdTvkjdziDkyKSIjZ56u60WqV+4vm+xHiiuleF6O43aQMwN7JcDHSlXp21OlO00OkGAXBX324GVa7GCcoLSj715NFGSDRk7SE3bk2QNLRtIYMDnRmQlmZLpeSoWq7GISgDeQ7AHnXL00hx1JYsFjUqzFm9a21cfSVMT7CSH3lA3TBsrsdC2zZjepyxgZWB9oW3pBAUPjA/rlaZnbE9jTp/zjQPDu2aeNTRnszxTwF3lBExXuApaC4CfksjXwO2vlm4p+QHbfVLtuAjuS933o4zjOYM3wg2rOED1jsX4TKtXwFfs7VrEtO3d2fCpwuwG7o/Y+8fc24r5RYmI1sKNF2bYsD1/Ee2X0zElp9oCS+JWNemuxDBhXFZTmmqJ4eVnosQFizLyU+B2wPiS8D+knhPAt3M3ZP9O+Jmc9TvkQMYPDaadxMAKcfOqInhENrKqcsX8/uSjGZ0QaWCw8EAOC1R5tEgVmwXfB7tGaybWqp/hPca7SGMEu8D5ySgagbuV7w7m90Tm+FZlg8jYSKr7A7nXfnc615h4kT4dp8QG+SM/LGCpl1v5tA9yeK9T4e0CqWLhdeqkxPEV6lvChUA1Id2i3b6BqItafGeTtW1epJyPUfxg4+q9Myxn0CfLTorQ5YuLSZILjOLSllJCMVNYNq8F3MN6JoklW5CqSe5YzK5mFlDrGPL0Fuyf3Pqqaxv0GNInZt4cvWBm5s9EFeeRewXrXJc0JrujQ9mAvIS+zU4MyCfDqPN+1VPByqsaipFxoufqi2uzoQA4bBPygsLvD/H7vSN6D/ZnuzjanM+w+pVefbOAdHX6X1xRgsiBNHVMCBXRAsPyHo5PuezJoAOpaxSoHi5FqVVjvijNjkH56E4pVz+7OkFnRDZOaKbNttoHYexTwPa1bo6ovy3g04MGdaWGOaoXey6vKTsQsSOV6SWP3BbleouvEDkR+12DDWAp+ff1lzps49qevwzCUCB4M9s1GQl1oGcC7I3mDeMfrjtsz8DtfqHZqkarMEAA7BdxJVPDdBSibqeJHXqDlo/RrK/2rZAcrTNPTJ7+zTg/kd16uJnY/jVbkSmP3T4LbDZV7bjeIbxKJo0PTp8K1qVxAtSIMTEPDLWSEC/Re7PM4YdHfnbKeY1lZ875URuNpWBcMP7xahN99SeexeO7+sMgffur3SsjuP0HIbATbU8x7IT9lWsby+nRK5uIdWL6RTpAyQcnTgvXgTspynIBv2J7gtCVB7w+lVQf6UALWoA2e+w347oHePyXl7oQ7Q/uTo/atlzJO12Qx04+IQ5O9m6bmxrciCgz5GRoeK3Rsq2ImZdyVQrXU0bGA5iXptyezXaD871fD5W9v775cm/Pl2iP9Onw98ie9EupfX4dCIowImIG6NYj0zTBz32f++/7ZH4v67rlz3I4d18qu9wDFHxzsHfL7ZMJTkl1pfCqLWqr9Hro7w7qbHtJksUuZAo4C/sNZrViNgD/NcXf7GudOVZg9gNS+7ft+lF+jbYB6FDV9VPAqwptRPUgjRTy5iuUkXxzEwSJiZPAABzyPydCNelHJWP9xLcG+MTh//f327hqPg3kEuwO2QTY8CeuZ+++syHmNV6g/45PxjhVqEjGxWg2YnwV2n0WSd3h/jrrdwP6ZXKTiDoIyvUfcUxO+02eN0eFiF9qAgu5gGhhH6T1gIljZrU2GRvLZ11zJAOhTKvKTnx6mOZBji/am77cO9VtfqEagb7OKj1Vqn6R7X+H4diSywCORjizO1tNL1V2+UVVdyJ3e1LEQUXfhPa7jD4w4//373burKwr1TO/XEfWP2ivRez5/WMxTxx01C0W/FO8bj/TZMB/MEzB/ayDvAGcQ36mpgU4VMLclYQOqpriur1MCNLzZo7KAVckSPMirVVhyoCQJuBcZZQxw+8rdMZ3ylr2EdQfy3gsZ+nJgjqH3bVA0zeFrJ6xTeSK4JbZkW2J39XoV2F1ukNwVDHfarMeWYC8JsRukW6CHc32tk3tQ7wW8I9jv8qe7t1/zeW7KpoZkvnJS6Z2eWWT74fbWY/5ZNk93lMA9Em9/3Dr82e8ax1OfRl3Ux/zO0obtiRDvyjJ5XER5KScDRzXDvZkPN4p2P2URgnEkd5+UyczeeKhvA+AD0i3BW5cmXDxRdDfRsCka8HxKcMtGqaIreaCB9Th2F4BnMUgxKIyz+9+vvwDoBuoc7R7wHvLxVUf8HYP8Y4B8LFR/bvYb8+yZBTkMGfGo22fhlT+5P81u7XEqWrEGLZ/f304gypLHsiu6ZtLdJl3z3OHqDxQ33YVcSanGxSi95/FipLlJuJHsqomRuwC8p/ebBHafHyC3qQnsT33/5NndrVN1gEeeD0XrCORN/CO6kpVIMLlaLRSxJYOmYEQqy2j8dmDIhe2UBqYYAAbMLx3SDalf8XOtwJ2x+xeQ7xV6vwPM37399/XjfD6gGTPIyAxl902CfJLwcyduzE/nAfczD/twPM7htpPrCxXwk2QuKi2tgPkOxhNM9G6PyvBIZTaBPiNVyc2AdIc0pKd3bFaNSUhqQFpqf+qDlCH0vu0zpQsF08PVKhavra7dW608Hf1f7J630rBRv5COKd8wLenCd0/qRqhfff16dfWVod1zPJPvSdIE4D9mvV6WNI8U8wbx3z9/Rszv0XUHrA8E4UDo+VvE+sFzP7ucxUEYM/dyJ5Iw/mvgf1EUL55u9BPjOJTuJjmb4P5SCUci4MNQgsIGG03N3GCj6ukpcvsYuH1soP6UpUzTO2rPwr3PfN5HOzLCuzm26YPFJcWADqhbRfC9GBEj7J5bOtgOJoS66+pYox9pi1Kj1L+aY+H+FYHuuV0jeOD362TBK4DnUKcfDOLPvn+3kEeIp0fR7pzdDb9brM8dv2fIz+3bx/CYl3bOzXP+MbzsmzkGcrPwj8LEfCM6noyV7MTGsolu8d+X7Rm+6EDr8fhQUDM8ARwCBKc3ab47nRqWmX3ssB4Q7yC/DWIm493fnzZMvTRw7+SfpurQtLKbFVLBWcyMtIXymnbfaeS+W+70WRtrZPc4EdJA/Ws4gdkJ4B3aqYJP7B7J3cqZ68fj6tU7Lmzu3lY2y332eZ6mcBgRvx9+goI5wO7p4xxpfO7fPkbUO9C7r/MIdwtzfz67r8/n6RjkRymUqlbaxQ1k3/FxHF1pGDa7XWWTCfgi+TM6lEDNEUBzxynr3luBKROkjFukmrAeBI1fI2yhjlWrD9IEeDdR22SW74/o/WhlMph6kvyyqcbucmkBXKfuyvs5ItKNVs9Q9y8uZWK9qqr3dN107d2Zg4AX5B4pfrX6j0W8FTaZzPebIdF8gPomm+8C/LP4IYPeAd0gPj/mZZ/zAPf5uX086D9G2OOvwPlHx/ZlVUNmlGEOR1vPd897+dTJBLyFT69VaXt27MdOhepqjBZkkjF2R/bY4dxBPjL7NtarVr4HCQOlaQPaHei8GZVdmlLVOhJpYET8e53eTzAq8xe/X8K9NLKB6X+UXT1vI0cSXRi4+EKGGygZwuBAPEMChwQtnED4LvCQWAaUqQ8PIEHewFg6cGLs6sffdH11VXU15RsNh6M14GSfn1+9elWNOga0OiOd7w0CvlDvHvBLdmeyJXnOnVnG0l1R/tevCfAzhjyZNK9A84bhD9qOEdWuLRoFdXrgS0v8DtcI+wR2UjEoaYTd9ZO5/uYGQE9e54/Kq4l2E5QHlgX87lcDB8FIZnfVZ+qClNhgylV9Vryh9oR0pvYpgT5fn9mZIXZvWNg0OvUuLN+U+eAzWF9oJ3KxqLN7XKzmAHA4wRSw+y96lfsbi/V8IbsX9L6rsDuRe7Ykn5fn3EhH8XOEuTYov379Y0T8+LfVAeRfkd2/wHQHof3gbPdXI2QI6L5gJZzfCdoPSrsnbgfUa3Zfr/CD6F/DO/4T1Dfm6G2UNdEYSS08E+yOPHPCgQ2JudWoUKwOmd0xHQZl6uUI9XwgDWr28XpJaJ8iuYuagYqVNIzUqn3PzkwzEQ++sTLmvAG/MMGwhTv7YzERb6Zk948Bu5eGuwlCVkPubwT1rYE6sTtrmlLQbILe6s6w++75jPu+DFpOSs+jiAe8D90ALM9RgVek+EN61UyuAE9aBvTM4ZAB32ZJQz8gaNKdcI/0zvXq9SpL+YRuhj1ifr0a8Zbeb9DcN7KmMkcSHb6azfcb2S52L6l3H3uvindvRObsr9iQzO1I7T2APd0A9ikXq5/FjkReV9qdOZ7wroPw2ql5f4J7YVfA+/8ays0E4XhH5LjnxQOhdh9pHRG+tYAnyAdI31X0+xLvLGiEx/+WHzmHu+g+JcD/NAy/jZgfId8qPv+inqap6ttNBbvfMeBbxe8HIfg7JPmE9WuEfGsEDfI93CyhGfI//sc8qFiNh1evvPsuvH6vjhiOcu8zbc2UtvsnvWImd1OHSyVkEsxfEO0J6dMXJ2QY9o0DuwoUSN8pOzKs7n0GvplUTriJXhdRvVpldyH4X8tkmJczb6TWt+nearCLeq9wu8f7clewu+H28/SeET5XOv6IqZpH/Gv7Ld0J8ahrFNaVIePbrIeK857pHRme5Ds4kWLQtOt2ZapW4nV+6QDw4zcifpVKWI4tRAlMx++ROcPFqp7VfnLeu94nZrajfvL0zi7kkOf1UMnIFFNP7A72zFTZ73Q3vQN7g8oGPMnG+I6N9Sabd1KSizPRsUXRcgrgHq77NYD/3dH6t39u03V7a6HOMMevze0mdmfCatXECajFes6fCdPxcytsvg58dSPRd8Moa9qD8PoXfNtnKX8wpeohbDcpvBO9H7T5LpbkHfP6WtWqJOeR4EfEI+DX3RqEjd9AGbK7jYvFmwmeogWpT26dmAx4eLDrmDuB/VLA3k9P03S/oHxPgEeDJqv3vrfdVWZ2HRdrTJKgKb/VHoPzO5jUzqWA3SsB4DIrUyy3/p2x/t0WsT7+COC3DvCi3suu6qbWbDLtpjq7+4Dk0eXGdAdKNHwC+/DTTJT8F6Nl9vSx1aoUrEq9txnxGumJ5oXf75jTieKvmdsZ7EDuwO6rThAPLL93W7Tt8NS5ZtONWw5cnKqtk+/RiIfSMhdKuaeBbIm3J5z34ECm+wUBP+2R20XSTNiWwZSY7bE2JlGgszPOfG/e2xPsd0kG2v1jMKX9oVga5k/pEMj/8te37ZbB7mDu5QxrmduyTI3UuzLeJUzwf7jvWsET5vG35MMnCY+ipkMhz0r+iwB9L3LG4P31vJwBIZPtmTvD7/qjnMiORA0CP4t4ujLir2wWM9ylZztNORz5FLK7233tXUji9gvyIOUoVQF7VjIvgPwp1az430BfingheDWlnbW7ljONeJKTZhK3nRYVxya3nSrsvgiMSBsg0LEBBvsbYf12a9ndCpqNtmeCenUXqZmS3cGOfP778ffCmKT3uSia70XID0DyLZWne03yRrlbZ8ZSfJt/QMSv0tuqbVWO4I6N+JVS79ca8km/d4nkScTjS5I1wO372snadnRVsXuW8KE50/mYmCL3wS7dkHUbqGQuFdZPRPLA7y/w1YOeET/yc6hmEPYN6ZnGBMVKPm9iel8Exx0UuciJG+ErI2LhgWN5S14qTb/bbjO135bsvnVqBuEemTNlFHiZe6tC7rvlsl6xVuzIYyHiwYYfET6Wreth+CMDPiH+jhGfgE4kr6XMa7VYteo9hQkS4hXYlZy5zlqGZTuxe4I9QV0gnxpkyZW/KpaV1XeKhWsJop0zgZL5NMycKaPPH7u0Z6ee+OZyFTBP+kbR+2fD8MqIJHZ3xWrvvhuzgKyphsXcKngVkKxHCT74Y5iwTlUpmbdv3ymsZ24XyHtVc4bdg1Sk5nbVYH12gC+bq0uHeVuowq9HYPuv/0gIT3gfPMezQbkXW2aE/p599xLzrQE8sTtindid42L5s/Isn1gdNXzHPwz5NSIRhDzhfB+OaqvNM4reNbsXwZkKu0upSqYMzexhNoyvC0H5KeMe7Uh6eC0zkcw7GTOUJ2C8i2ppnEPTy6qOSaBryqPK8sT2IooDf7QFa8Du+iCmEesP47V9SCB/UDIGnJltqd6zE1my+6426LEUgtcyPofF/q6EFwUvBeycPZpkS67pZ7z+lQD/J5D8q3C8CJqE+Erqt2XM53IV8I7srlORq1VrMO+w3mHBKsTeZUkzA5LvWkT8/krPyO7jajXa+l7prNrNGyYrk00ZLlEvFdg14LlgRT2DTN/3vbPhcziSthLwtEfjMpC9y8EryHtd48z2d9jd65kPZikkTzBhAPjtrxHriHMCvKlUt8p330ZmZOG9Q5laV+/Lpe02VZLAkiWoSfij+PAJ7fPxAoJ/FHpHop/BI4kH5vgDqBrfanqNQZ/lDKp3/INsv6uaNfearsmW4S+GfhY063yezGyF+RqKEWNo/r66dSYj/snMNEXkTtw+zFR64BNPMF2YnQNG0PQnIXdSMlMQ7zo58znid+J4IncCfNP03FX1ZnzlUCd3PpnbmrqIIa/q1Q/ljCph/ds34vWHrcd61jORObPhmvV2EyUjd5GcWe5Es++0F6nWE5xPz2QHcq5L1fSnRwD8AAz/OIJ+nb4A8r8lyCcmbbF03QPiAfD7COYrrlJtsdoKw2d+zzKm9VoGhQw6M+K+r5SIn2nEQ7xGO5H7q6sauxcn8rmZptlTEXbnIlVtyUtC5pKZ/MTsflJKJv/C5M7y3Qj3iRbv0GJqaKcew31SJiPdWJ9fUVOuBLZ74OsrUiXvXuA9YZ1EDD0c4G9FzRSoz2Avzfd32H2ngmJkzgi7O01TY/a5f50j0yPBD8O/0z2CHcTN90LxAyH+gBS/z8q91l1VwchDljM5ELzSNat8XXORSpomSxu99CiLjaRqZh0I+fCYsnCp2P2No/eC3X1exmzaQG5nhDuGP1GFqlEubmSZKJgw5HHHGPG57ANu+He1pqPJQsbOsS4igl+YYz90ZqzC7mVgJtWmD3yNzP6wNfR+uzUSvmK+h2JGZyPj9qrdxcFqprRmznnwUKHOhd7nIGeI4PmagbZBfdMNRtUcEPD7pOAPh6habXUQOFszNMdk6d1XrTpS0HXYXe1WXWcd+JkK6MLVtfdqCjBvR73SBxzE2v0mcGZIycw+6Rwkbse7vLi8TPg+wXTqiaB+mrrrRK2mF9YyzO7iRn7O7J7le3okiIugsfNNPk7QFPXqohqQXEzClWIfHbu7jb9/ZaijlBHh/mD53cv3UtEg1G9jsEdYlx1LOfm+fFYW/Dvy/Ri4kWC+z8fnUeF9hDmBHUUNcnxCPIoaofeM+ZLdnfO+kuzYSv8EYqZTJStbM8p9B35Xff41Q351A2OAZiEB0fuNmVu9zwuBdSTSGDOqUh1kTR66jyPS+RQmnNk7KYxnrHOrKVM9zfLxVBNMNulmE7A8eTMTdaqN6jJNfH0aj/Ut7FllE3vKh8X8R8vuarKDjRgD9QDrrlytcfsmZPfdGTfSCRotYZ49y0eC5qhbTXOm9yPy+xEEzaPwO7E76fjZjFXNAbh9j0CP69RDkY0kObPK6ZnsveuiNTRp1o7cZRWMYXj4/889a5n9lZ/RrrC76TPpNCRN60lQhndB8oFjp2kuWC8Mv/fanIFsJOj4vrxwU+oEI5IN7ExFtPdNMe1RujVNMN46KTU7jXmo88sKhtelKmD91zeN9YjdHeSVai9Ar2eZwlzkrmJHal7P/abnWM1E5G7rVPwAuz9nQfOYJDxdpOMB+DPqQK1asiIR8vsI6yYbKd5Me8jpyGxHtt5775KKz/YMyBqLeNxrB8A0J4dhF+r+am9TYjfWi3xS6whuasp9oPVhMIdNx6cCm/9gDmFSdemFljLoz2CQoBfn3cx6TJDek6JpyHsHbu9pXFuI3udo8rhHVvSLGOz+vG2E/sKye+b3D7iF4NcK1pndPdIV2iPtLvb7e9bMJhI0xn/Pyzgc1yvtfnzWryxqQMc8H48M9SMImp8z0jPPPyqfUhD/CsxeAN4kxZQfqbwZrd5b+1DTfFnOOLCvpVwFaP5pzoVkyMMOs8CIrNvuM3eYgWF3QvgPamEYVKwn3VuyKr7nAI1JzthqlQe1KSCGG7EzyzeNS89Yo71wIxtTuC7c8mtN8ZrftXZPXdUA6xnzCHjrzTi0b8O26uY2D63GG5Y2ZatJ9VZVmqAej4z1zBGMySOg/ZjQ/kz8DoIG7Bl1jQw/G6QNlfCOMh5E/Lluk2j3pNhzrwmwriBvPBqR70q6m+aqVjNWz3yfOR6q1xsTiVQM/yR91VLKCLerQWyDcz6B6YcpiZmTDRFM87NnWfNCjSZVrzLaUdIA0+uuaqPMyLBk1V2mPvLf9QmV/gDWGrmP2t0WpwW5P3h2zwxfJ3cdjDybJNhUwgR2udgzKZdd5EUec6DgSLd6JN1+PJI3c4QPO5Ka4h+F3R9nLOxnieJZwxfAd9FIb0auTLOpBLzQ+5pBv/bmuwxhOAX/afZf1CEA+Rs73lGZVpUN7/gvG2a5kZqPkUQZk5CPzK7lzMmYMjo5Q8qdSlaN9wkBvmmY5ZOUTwSvjEidivQrC5ozi7EX0RmsFfdddVXrxG4wvw3wbth9W4C9wu47M9O0cdLdxsR21HEyE321WOTR7uE4UhD4f5RdPW8bSxLUBfcbGF6wySwOXCzBA8QPGIQIBRt4KfACASvZIMwXOCNefL/+tDP9UT3TQ8mUvKTktFSorq7unmaCn6k9PY0j+eNiXt8S2H8sL+LUdCXWu1cIEsDXnv2ZV2tIdtaRFH7f4ntO7wL2DOuDnFSiAMAsbX52hwPYMrpGjMg9A/tSNuM1xatd8348fW/aXMdwh3VsjXpvWxuLFLQnhyZq+QR4WgrPH4LpOAXjwENQLNwbYTVXDxZZMpL5/eFzpLMz814BfB6KLGLvx2O5kaDuzNg9HC+CbjHgr9BpRf0u/M5gn1KHaUooT4DPBXyO+JQwmN2axPJUt1b8GVTvmp7Zv1rr3atWjajZij9TCJpldghVID/gJFLM2Mzgtlc8lOGX6slcZsn+QelDU3uti4vBGplpcgGf5pmY3a2Y+Q30Hvuq9Ik/sCsZvBgBGu6hPvaBibGNpfcF5IC5VL3H7DV6P2bsXmgaZPdnNwn84sp3zAJLs4lgjREapPZE+srn+mEiyX5NtnsSMyvGe395vFReS2mqL4Xi/+tBnR4dZCPVkbT07mUJ9qzctbda6a/m538HpfghfjHqI+73eTSMoT7r9cFH+loPYxPD35ThCeU51sWR/EvtdyxVQ9oKzHomafdRbvQp2IHeC8QHvv4RquvGNlbTZDfKvsrulR5Thd1PNe2er897EfPdjc7saEmqVKoYJ4CCNZ1zMv9Dcj2WqUm3i2znSnVKFB8FvJSsj6zmf1z0kcT8OZauP1nFi443c3yvxpsBvHeG3rsiHLnPgsB7V8xsM+l+puAuX5oZ4j/6Si97oSD9eob5QFCvYJ4MGZExt1bWujctHjNoW80RYG4mH2sSwCcDnuW7dFVD0PBMQEdy9Ek93Llahi2nmvN+n92r5eoR3JlP2L2MErxUdiypEakVa1Lu1RM2u6sy/ixnJjZmCO3RdaeUGAGdHv/kerXK8R9Q/0YzD6nfWnFniN1fxZ7Zv2r43fgzTsGq8RkC+/4bAp6bq7ZiPdNediR4gr1B/ZrA/0HdBHbBuTzWSuwfrL5m+b5u1ZC0iffSjhyh75T0O7ZWqb+aek0R9cTwCfmE/VD2lAJ8L0K+ssBdDrwpL1D+q2T3f9TVjNdjyivV47GEfMbuxTrgin4vfRnYKQZoz9k+Psh4TI/E7XOZSqUqaHfJSEas9/cwv5SEwXavmuYN3ZnSnsHwu/VnPHtG2kzE70rxrNxNuwks+AE2+EbIM9LPjPX1B8aHteB8sARfCBklealSY39VequaCx4R73+BMdNaJ1IOHYyM8ZHcGSpaddlScECNqRlv09gmu2Wz8TcsfYHdDbkXYgYmtF12h9WoR3/T+525Jm01vbB410RBBnbcCc8lKmE+ue7TlPCd8J7q1kkMmj6R/NMH4p+Y8LF8Te3Ws0PxHdjv1p3BatWO9DlBAmD30p4R831rdTsBXRya5dnQ+5lFTSJ3Abzye/phXcr3VmpUAjpp91sWgB8byb8D0mXSowXAs55hayYkfk80TznJkt1l3g+Pltk0sNkBnM05bZDeJSf2cLdQrbP7/aaq9lQlBHz08P7pGN8un1vFAIEGxXa4/HoicmfLfZqkSmXcT8rvT4T59OnRkzTC8x/g2ltfMud3xDu3m7JwZOd2m5a+Fwn7jwpHMjk0Qu//jnCPzH5WEc+AH5Db143RMxUJ3zZiwLttJmu3k6QZM3vmN2uZ+L0g/RIoGSl8z90mb0tqblD6/aaNs22pzAA/fJ3c3/2J1SPsEytHmqptVcX7s7uGQ9n9Sn7ktcjMqNSJmn0SUifQk+ke1cxEhmTEfvrFbND0omb4U4L8I5K85KhmxO+7zIH/+HrLxXtMExwwLVaJidlspMPwSxy22xpnZpmzOxWtVsAr2InSVdEA4NfYaGrQdW8bcy3bfY24gUYHm35juRooI0mcTjJ+5KmmUE560J/AWMA/ZOQuWIfb8l5v9VMxU3FmjhKdEZCf6qGZSmtVU2JVwO9MEPiKXru0WpNDM02T1Kis3Um6Jy5nayb+PJFjkwzJD3A/MeKjPdn7hWuagTiDin+znVU23zkwpmlgs2nJ0e6SJdiWUbEC69JbZft9KQhHAT8o4NeDaPe1oFzBvrbU/p/cpFEjEkHfjCYbSbTeGvUesGQNYSFUPjKtsy1vnBlnG8eoRatrQZYL9Uyjibuq77/u2pCaA1bEH8vVSicLedg3U2X359rOGUiIadXqqplr8iLjn4ACHCEvSmYCa0bQTg2nvy8iaNLHGfJP8RdPnqxhwFPRirN8Ce2HLlL7695mxSoCnrU7B4KNJbk0hyG3eVhMitWleI5J0gjm1/G7SSxPX2sxZQZPz7SR5lv1Z5Tcb20ZjRQJ07Yg4kcj3uVBqn0UC5LfRg2MMfZH4884YC+P1yy02VScFN78Ebu/A9g1M1NpqrJw111iR7dYrdwmQ+ddDhxcd7AYWGNjqY6dyIKEF8GaAX9doZhhazLqmcjqkd379AHeM4Y/x7r1TIGaN53SfjUb33kTB+l3WMZRsWeiJbMv2B22l3q91TN9mPk9AVzeDbsnOcPUnqkZdGduaM60ps/U2Bhwo61UVTNjW3gzht0J1Qtm9aDiJlTZPZhVNKjfi9tkZqjPWxf5cL/LZGPAXp/phGuvT0DuMrVaj4m50cgM80rvBuwi3q+J2rFExY/gPTLPTxPQ+2r1PQl1KVIB5GRRPpa6ZpbL2w7zM28R4m8djLAeYDXwnUUckJ/Z5gXr0mxj31biYgnvSzBnzka8D4OKGWg2DbZcXWdZsRaLVp3zsC1W0O4W8YU1o9wuqE/EzipeWquh2JpauVdZbCYA+Z7vi/yDNpOTeT+WIeA/zQBX90UW5gzqGVipBPGCadpdEehK76rewXPnWpWXcvSK7Mj0f3/8e6L3UtSQkD/HeEH3mg16RB2TkN69dmaTnrMHO3MjBet7LwxcIl1oXgieHlCszsJ9nZpNaEQOKGVK513BLt0mbaw2RO5ZFrLFcjWTM2q9B0A8s3sYnTM2MMmXzTw5uXfsMzHRm1pVS9Vf94RMjd0N2k9G0TybqzXelab67Rq7dcayezGbLVnJaadIvwLcVxO77mq+G/FO+v174nJ2Z+Df48VRNWcr4mdvBsEu+2dwt5jpOO0rzSYn+o7ue87vgzRYDb0PomiU4BsoV0HOrH0fkpQNw9w6M2i8G8SjH+noGWJ4idBImco5mozdczofXe2eLVfCUe1y2fvD+72O6juOMynmZfPGSZj9lJ/wgE3vz/7JGrfVxAvFdnZDKh5cxZmm2YOcMT9FLxLIfSXszoifavSu/D4/HntGOFN7L7DPVLwFfM7uhxnjr2bREtiRncvu22KTXooR+Pr9rE2ncwK8MWesFWnLVGyt+tFIy++Ym4nCvUGoI9gLducZbcL7grMDFAReUJPVBN5zORNgwqM48pGd4cOZVZ/d70YI3t9dbnfH907ZrplnW7I+u0FgNz2zy45p89Aqq3XIiUUZs4NO6hUqVdUzKt5XMPEB+v07UXh/geqVUM/Va8Hxs4rYJ2/mLXI8vQ7yPCRi77LhJn+yCdi9mo0E0A8SnpH8O8uZM6oZ7qximACq1bVkZ9ZUr5LZflP3PSH9BongMi6GvdXRqBkKz2RaRvx3LlxDGQgLOMMX8kXBdg/BxvabnOV5D58ZM84qAtiICmg/VVIEdXp3+X1n7pOZ8wZE6CLZWbhH6T5lr6tWpBAQk6IVyJ39956dGSFzkjei4B/5g+H4CHhOisWK9dCBqCn2RlYIPkJ+uffCkTXvXeJi7L4Pc28VMJ+ZMzZEMEiMwOP3m/SXGtnAkTeamhzsptXEkA866DGOWKxyFFhdSe0o8d7UsMjkvOYJgpf/NXf5/oDdT8aUef8sA3yqsHsV9C9yN/65jnVTs14Ns2sIfjdZ7Z5bkYbdUdasDN77XvFMBN8jq/8NPdeibN3u1YE8RMCLqkmw35NBszeFq2/Ap5aTAr6wZ/JydTDX3lnRWHdmzdnI3IosAmON7aXaRwwSNMXuyDaLzYzZpIe0mwKAnRYUgIoP7obIUG7Uq1xuyrfoudr9V322wwK+pHfAen6SzJaqzgTfy53kjJ6PBx2vCuZ6VeTPaE/GO1D8SrC+wk7TlBH7ZPAeES/83kvvSUZBHtnA6R1Js53BfhDv/WDONlH03cC8y/uqFJ4ha7LYKiYyZuv47+clqPeivWqaTEbUNK4TqVi/QXrG43Wj32GGz201SVZME5Ecm1nQL8fccjd/AKG2LnVjbmg7XuQXtDs6kZU8ZMWH1D2RsnujdsijtiCV/UisWK+aCN7pZ0b51Sf3XLfrDwW/my+m9R4sm54QfykQT0b87Lyz8X7oxH6nH+D2atZu2hbtVTcvtgRVc0Yzko0ZGyew8t1LzpSYLxHfoiEpQYLGwzzuRzW5SN2yxABHf4aTkaOkZwKmH8dF1l61q2kq68SKmNjmywHgDPVHWPIO2v3kHfEAtB/Lu2TQV322JiTdj7f91R36j8z1qUxNr91kK9UVkDzyuoP5/33v+77AO1SvF/jYXzyKT0a8lqoHUfCYfk/fP2srxbaQE9uXzVWX3Yc0mAdn9ApzhjkeVbttPplZjxtZM6LdbUSMvcjRDYm1bRadYet9VNWCmXf5Cwjpng1ajsH6kpCLvHuI0tn0PqciH+4i/d0RMpic+Yzd7+y9xk5Trt+Z3XFhJNC7hiFZu6dadeeQu/UhPdmOeL/0CfK9ATwoG3pv0gZRehjAR/fxDaCe3Bm83LS/H42s0bsbnuG9BGy/D5gmsIoGgpGDaa02991ItCTVk0H4j547A/I9GIcmQDqMEsELzQaPxpkpNqXaWwfetbKNNSRtY/Xha1s33ktrxiwTI8DbjBjK9qMbIjA+5HPeW33ZwcLIF173LjomEvsM9dKZUVIHlV4AvtQzCeY9Q511PFiTwPdO7ynZkqreD4bqleI7uzhStm9EjC+3pfVeCYphncrmexEWK+S7rVa9+aYbtJvaZEy2Gp1pMCFZRiN14Uybr1gKwO9qwGsyMti5JmH5EWzI4J+h3DinyjZ6io8GPB4+H8yuNlWrYM9jwNVVkRB5f7bsbo6TCcSv9tRBqlKZ2DPQr8R1R2vGzKsW/N4zuzOvp/IVfnG5mHeLeJQ0B203dRQqKBZhO80m7DtV26uwNxLT72f13k2S4FytVmF4teD3WyPzTDLp0UCV+n/erp7HbSwJbuL8MiWXvYQ8QAMKDjSiYAgQGDChBIWEQQj7B4SJ/et3xPfR1V+kxr47eTwzu3G5UK+6ujp4wl0VYDN+H8RaRxTvaXe7Ghiaq40GeGVFZwS5A/oxBbzgzHBbxlxnWtpoorj72esBVuwumq/lvVV4qdIy3xjB3o7+ZzdaL1Ub8r+ykiGWZ+/WRrL8/CNYgJ9HTtyAPz3RfoqQn+zgDCysmk/VQuwHZbz3OSjGVj0y2oMg+N4IzrA9bYq7J+UODRzeqgdMV4faSUbSU5W+Nrl8hqzI3JbHJqwDrK76gAdzhtcrrYcILksEz313we85RrAoaK6dO2qi6zXlZ3mrAuTbqGgMbt9lgtdgJxdeQv7J73uQ7wX590bhnzxLIz12xKEqkTufML1NR69pCeX7VtH7D3vklMQ77mlHtN8kvasBqy3gRZ9YTTebHmpPm9vuyXonP7LCbKSarQLXR/3OCJ4PU6vlq9rsTplsz3uhZ8bd2ru471TKzHSdf6HJvMJHs6as39NZYS5pxozzWc4oOmcipsh1NU3Vn38VrNOjFdUN0/b5+RoEx9uAp/rIE3gzb0fxPGU/1lv0nsyerPf8A3b4mJp5Mvz3wuYvJWcwOMPEu8nsCPbBj4lhaCZ1iQ0iGrwRX2VDu1Ke5ELN0ruaNK2z+8WuABbnyC5max6j9mVy7ySzY2WkNCMR9G1xIOWLdQccv5PK3QP9twYgbjD8Pf9LuBdnsvwebIY/Edif6D69LVwpmxa99wN57wa3gwFfgM6GqwGzYhbRl2nTI6QiMdkWCaZ74Pn3WqZmCrNLfwYIPT1gN9mcie67w+6Va0DydQ+sFDPY/e/VVqWLf0f4guFf4cws2pBXjngpZaCAo+Xjpkjs8ZEaOd4S7DtiesyGrZB7xntTCL5AXYGe/QnRnnQAP38/lRRwZPdPaE/GoQP03lnyXWbeD0jvfaF3vubR96Y5M/N5H4QbKQerNQXGcIMvWLPVoVY3ymTtTIWFM1SfB+Qea/UqpmAwHTlQk16l4P/Ob/P9gXZfqwG2jffE7ibgr7KAozO2PChGwJs4RpLuROtGTiznIVHSkC/j2+/7pkGoZ+jfUdQzh74BYzLgq3WbkI5SJkn46SjFDJbOJJ7XegbaljSz0562mKzeHMTr1SbuRWYx84DUe6ihd4ZFgWt5rcl6rrKN7MTtTMkAu1f5zmSlewgsrlfH4+VZg9/S7hB45/mwizq9d7aLlTLesRC4k657KtCzAJ/9dgC8lxArq0xmdsDGe3yv7jWoybJBaVP+K6Sz08DwB9DwZdrE2J2HZ5KOmSwzcntA4/0Hn6vm4HvGOz1Yi5RBvAcRKQjQoheY7Q6Z92S6O14ko/V0R1vlgNlLFZrzYi1w6RSrNKz93jwT7V9m958/SbQvo15q9470e7c8VWXs3l1123vLDZpM7gntkdZbzBCoOOQoHqrjbkXUxDjBHgVNw16wXO0IgROYoslpSYoDP53ITzUz/0U/EtOQR2+vibIEXpEe2/TI9C6zBDI841WkwnAV+69xxESoH+RZg/xerYdBz5vIjmRvVcbvlu++kUe2K5UTw51t5ru/vxQRuxiNqMyaca7vdUs9M3iEz1DveKdJEHvyZIDbLSGDhUrSch9f4ff82TMZD6R+52/aJkv4OyJ+XuM+UEgsW5In+xRf/DHF3yeB+C1b4uM9elg7g647LPKRkGGjVfHFCP4BJF8axcia4SurbMgEdWK1jM4wE7KQexq05vZ3WQNcgWA3C4FFywz0cMCc6a8XWgjMsLsoEhOw79iKtndusoPq6844Gk85Al2TmrVM6woZ2N9bSELunPHq/gnf+RsTNYzbxUgqSZ2QEU+ov0200/ecNJ0wBfwGcbEDJYGfv01HdWKYXbA5OOod2L2nxmtG7r1YXF34PAJfWgVjRoka0cKh56sIeEbu0ZOhzlQVjORdS9ZJj3fWnSeSYi+yu+oRO6uSSKtspqTdneaNUquUc8B60UNHgEnE5N+Kcvc1PAybxlXfXdozSdLsI/YL198J3Y1U9fP3AD7NLXbt4XITJQomu3bmYHekMu/9oLz32BqJc1UrGhmxntebRA5Y52bqkpsJoeYxggj+wZDvlHnXx8mqahD7e5sBMjOxbkzd0B4Q4dXGrBTDZtRs0HxlvWOF3YWkuahAJBs1uaGZzirOu7bXq+D1qyVnWqXa0YIc8RDZuHuV3j/x/tF8fj2h+6Hl+51L9/gjwD+CkER8IvgC+BMG37M9M7E0MBQCH21zBqWMPVqdEwXgveNctbC7tNyhnOD78nBV1M0EnQIeMAZsZIHBfgRLktaaBrtpo+L538qqnHlXZydXnZmLCLtbiUgcq66od9OHvMqqd0+9tzwGPF5BxQgpYzmRxYMcd1+RM98A4R/5K0J/33BH8o7/DJKsD2HWNYXjccPv+CbSwHzOJAqWjOyMvtp0Y9b7Frx3g96tJLBpRgrdzhBvL/DpkqVB+DOVyrwnOif0b1J0ht/QrlR0zBHvWEeAT9WVROTaNpOeNl3UNtMau9PJms685HE1VPsI3xH1rfNUpROTr6M9p4Gf+L4j7OFlilhXhuXzd6J4BDwr4pjhPSmw56cquZH8ogdMVW16n6ME257oXVrvPcsCw29m0VLN+8Qo9i5VfLJn5GS1ViurlCYgF35T+L1Y75U0aNi2R+WTO5iRX/DdjQTBWSh325khKXPWBzygi8CverebZkjJjHzE5C9m79RwaXwV7+YblQ+gGpYWphjZM0zTNEnQRMjPgM/sHv3ISYPeKuJg7G44M2DO9HjQg8dm9OKq8t/1m/UBc9WaFQJnMTPoDg655qH2mgDm5MiAgC8jqGqzUc1h1UqggFdHsgTwkjPD2P3nkjGjQV/mTN1a/0ZOvFvivYXYu0PuqN1bPVHVXRsvC/hfDQmYLOTvnz+ehL/PD1nTrWlmHU/CBjl++3Tc306sfuMNqD0DfsLgu1HDUQ7yGdZ7yRL0NxmbScQudLvy3nVB6kP2owoNL+ZMtKptrawOHNsc56X0Pf4X7mPLfrHKnTXxovcXdlUXagjEWNXhd2gi4N77lYUiUbnzfdVWH/KY/+fIp6nuVJX2VOWi6muC5heKmIY/Wp8C/kMug6AnH5IpGZ5oR8TfDjPAT/Of5M1MzIsszvu0dD5eRt9vpWSJWmfKWFXOmnTsXR9v4m1iYsmDwD4YXmRZ3tNwr6hWTOB8Aw5Nfq9uqpIo4A2SixlgrCNgL9XlbSZ/e08EIi9mIpIvaXvGjBl5L915VLyhbXdg93Z0cF9uF6wsqi7bkaBdEsXbCgffqxnxd1Q0CfBv855HiQFP5oWDCbuw7U6Cg6T1niojt3TMg7Vg80Zg13n/jnWRNbNn4JC2ve0xKNgbB8owR8DyM0XF55CwhnhllKMqcqcz2mvsfgHIW0i3asQujjPjaRnaZ7rKs8LtVfdEai0ztkzC2C9V2Zj3tc+3xOn38vNDa5c91/ho1zzJPWqbwPI025KdOWXd/qb3OzLJJ5Qf2b0mQ870dOGAgsAxFQmTpmAsrfITZX7m/QFbTaGujV2+gXe9G/2o9ErFhSbUNZtyaDuGJGGsahYRVPbxSX2i6aVdVU+7n4V2V8tM4vyep907q40Awu7YEskiwPkvbO+1vqDhTcCv2zNax3zI/4FxmuLjhCJyQgR8/Hzi/QaKRpszJUgQPfk5LTaZe3xOCfateDPOuVXHnsmrHr3uBX5wcudgD6INuOZFkVYmkpKRNFrNdQQ0ay33DjY68e5rmnfeibrRIYK/3Qqxnxf/gvBl+fhex5IEbg0wJcQMNQNXazi/l78F6a3P77tR1Yd9He/+5y4UD30PTf5GU6fyZj2kEMHpqIKRB35CXqmZEo1kDallQXvbw1uVZ4Bv2DfT60oCoWYega16BAwBh4UNbW3QqNQ7a4pEp2ZDjk1x4DeyecPwKa0tbVmN+ifsrgZNF6NnpsNjk/Z5JjcjBgdWFdhHyv+2zqRpRwGCgvg/x/sH4Hvv5WmyiEEd3+R3a4b8dppNGvFWnTA8M7FxE5+sJm7/odb4gN77280owA7Yktr714V1KJLXiRUHnu3zoV7HwpnaMCMpF4nHtBPJk5y3rHd3hY+xOx2Nj/y+PFX1IgQL4yUi9mXpjqEZfn+vpdo8JWMM0Nt5GbWt+lL017Nn/tN8/XNvGiL4KGlC/JPfrEnRmJVi+V9ASkVOB5PdD+bBVbw+2S8579xuR/v9u3HdoIYDB2x7z429Y7uSO2mii3ybxO2F5OHEgWB0jL5X/t14UYzqwZ0yM2vsns8zXVTiXal3b33vqus3WnWE72o476Oi91a3EZAx81XhbqbF1K9Ls6i72u6O3mRS8c+kZApETgLxhwz5g0fuRiHwLTsz9FalU019uchnnhZ2dpp44B2v1uhNVZTtsvy6VkGCAQpRqVypEoo+NwRzcFfGkVVF7nDTgwTNXz9X8mGWdl+dqnbcefeeqteuJCLN+G+L63s6756ke9v6iXeu28ffgfwr8l1BPgG7iVGCmdTvhdyjpgnRo5kgKUalYsdJ3TeYvH4l4Ube0kFtPG0QUS+CYnq0SkjnBF/r3hlonXHZHd+q/DaZiEZWyOhQOjOIdb7BudBUucXXPDXz59qd2P2sC1GhAfjsDFQXmoA99X4dgdx5LpJhHiLvO36JbPc/w7sdNQA3PhC/30NWNMqamYr7Ph2PVqPYlheKHbZ0t4b6IqHvvV/cWe39LjGqE2POjO4BDsqLhC6OQUdn+PISnSRjxmQW9RWvW+K7Tc4xPqP5elm7O/Hfs63djSHTmnqnO/FdZ3XNoA95tSIEI+xnCxueETymZsb/F97v5d0afUnUM0XSJEUDj9QJKwky2I3U+8HIAPdZu/fMeFfVqHhrVS7x8QYOQPwj5d6ZnFFjJohDprFqPTB6h7EqRgnQihkoK1lsGuiaYcCvFndX33lKbCURyXZVF28zqV3VrhTnnc+2cE8ZsU4akS2m3XUAGAJitNFkzpp2WMDxle4N+fn3b3N7TEYWsNcZ/bNRMyua2aOZUf5m3GtK/nsW70eT3X+IglSS7nCuiZZWDfUOd5oyyX9f2ldFQg+OH4k3hrU5g0ECDvmcjhyKAb8p29qgYirrkjw/vveuu6+XtbvF7prcCecX/3zHwmp26VXqDCuytXIzSPIj1zHtQk0kL3f/vTTBH3ySA1+TK1kI/iBbsA+lkcB2Irfukkef1Ey/ZfV5abZqyRmZeO9FkqB4MwXzcks7438ILByWZUytllahkSBDnZKRkH7flGSB6NoQ9dfW8Xgov15h94u4q/oKuxt3JkVKzE4BWzeaULy3VHstd1RhrckSMjsk+N/03f87eI9D1vlbzeNjmeG3mICfmIZP7D7ZZcAG2HtS7ltsWBI9SzIX+UIhATxXA9a8B0vQDMTyznQVRc2G3fQgW6a4NOyFiu575RvvtLe6xO6qQ+wf4q5Yt40lCSp5+QEX7AdsMhvwIEHJcp0YBIMNvFwwJATBwCUv4wfc198juTNd1V2z1BOJO1m2LDltF2qqq6s+6pNeWasSnVHSzEyjPgfp3akys7rdu434slqtg7u1Sn574B95riKyL4zm9tkixF8A/l8cnrctNU3xsSptYkWdWQrKfI+25b23Y7jeI4hHaYaIexbd7940TZ2rNYjWmZQQ4v2xqrH5BisOYrOHG3m88ejJ8N6vH+991KXIwyEaxLirZs8XfPXQvEqOGIC794oRrmOuUu2VGqTI/+W8/+5e8451QfrbsBcT2bJovTJ4HwqcFcrPq2HMg7uqWj3axB+PG5Tej67foB05TMwNvPSJYVgksPZz2DZNd8oNGNpLmFjj9MlsFjPTe4W7J8HdRWvNy323+4euMVgFd0D3Au67ap3Bfl4deHLNnMSqiTdMg/P+ipD378gzjzL37sba29f8av3ru44A/vcWhvwTLTM1E7Dq4hsXm9hC3jFMzJN35wL+Kp2huPeWzpqQwXDnZHyspslCIhnggb/bUWsTEiNd86ovWc1k5mvo/kFP1Y/DGp8Rnpl74F7wveT/hrIa0GWUheCEnvcy8tWA1G8uVZ817xngO/uzezUjzW3vtFHAXr3i810e4BNbTjyWI74NRXCwGtm2MUSvtSbts111dGQjIDxvxW4VPcATlZMl6o4nOZLxvcQC02q1iflKaeV6jzxiL6u1THrDtFvoTAR2ETOjA69nGPZ9rSZ+MQ/Mcc5RcIc+A33e8fb2nIn/4xnSDMz6ldO0C+Rnb/A2dJPZUZMIJNhEOpOvmnKiWHmhHvVNU+iNXwH4rlWlk61q0rZGg6zB86IJjART3C8hf2+KS3KZ9MllAie9WO1Rork37ncuVXexIv6wq5KamjBjw76fZUZk2amqO4+Ts4pVogiy6g4k5nvP1e/Pe+eHvmB899oawl+frMZmPsup06eIe5fgzmkExt4hEpjSUWt32WHkz47LBBuwy5uhZuF6HDAeaKdU5+83+V1uUqu2d+zgu6e7V3eqhu5rKQQhJNIzmmXIs21mXwkiIJMYae2G9ieiM/qEzxj7I3TmAXnmCuYX/l5mvlt+2t3wvXB4D/C3Yf+MVas6TyzzGMh614umFlyRntSotHeLmTnjs5WITBuFmc7YezexcQa5TOJvHH9PpYHS+vgUca8liq2NuzOIee6+c1Z3pbuDXwYnfVdtVg3Yjo5IuWM6cS7qAAEcqn/PYq+/tWd6Cn0vhJ1/d3nss5FmU0Z9oe5GZ5RvZhuLVktFGdxoZ/c73zT5g9WxKs2w+M7orgtsqLGpFvYOs16umQjfy5XTBMnAKdbIr5XW3EP3A3cZRG3mIAyRBxVDwLlKu1jP5NtqwDEzWx6qmHoMeR9OIfzaXasufOah1+p13n8+LNG4wc/4fkX4rMF/2j7188cPmUhgecAe3UcqWj1S5Az43ttgi0QfwXsbwt6xdNItVdvoBMYXq4zgCKQlZ84Yvjd85ZTIESmP+WIaAdpm6ui+UjN5zyBG4J4dwPv9F5tVB5r58jn70z0c9mGoJxFYWiSERZ7+T8/Vjoa+yyTn9isbJReA/0Qa/8P4jBr4IM1A0epoeTNH3DWhT2wUu9VRVmiHoyZ1yIdpMyS+i7hIFynm+HuDacHJ9QmzbSyI75BLcB/dD1p53wl0P6iBL1tVTWZmfKoSex/4fG+WOWKI7vCrulg1WeYReJfz/uc3Rp1IfZ76K6lvC4OH+hqpvsOwu03TCOR9A8Eb7qLJ+2bIK6YDljD9mjOvW59I0GHYjI8US94mRhIM4PtExaup1iasvQShKv6lorm7HrKPevCvbmXa3UkimLGeyfd3DJQSKSd+PpEX+EQ574MsJlupD37Cc7X/8sR3LEYuE29jTwx+u2D78litRRLIoqZNib8ej1QtPNJTNaC7uNNm6dGnpGYGP7UxO880mrBcdVrklOjcoynY3kA+Bx+uVi9We9g09V/l7lKEVBYCec+0Xzvcc5smFZqXFZlZPlSDSczaaxSZobDIt6fOe//lYVeT39HQA6nJEs22WjuJz9QtNsePxUawoROPwt6Ptd4aViDfv/JY7fyVh+jyqPXWUFhkIijndu2SsERFTav9k9AW33zBInaoye4xUynkKu297q67yObiFPMxwNhmAAax5feJbQTDUN2nRgPNwyNPzXwC4avTn66f/FbtPKO5DPsVMxeAt5T3z4txZu2kaRPVSDzxQKuY5u5jRYs8l/QNEt5bJ0SqKGCm8ewDZtKenB7ZpILtCapXuVnYCm18JjDaCPo1dF+gvUZkHLrX4H0PKWKr71RLdw/BSniUTY7ImcVI7GmKgcBvoaPpQfr+nwpp77+rx3f8cr1NfNk5LXSmoPtntopRuNJWWAmO2SdmB3yjR3d2Aa8FcHQrSmQ1Ng+0mW6apqnWpI3X2ZZG4P7FKptIcNfv1N5N/F0TgUD3nbL/ymFXkahxm1qgfa8sBHThoUVIL0cO1dTr00OKjH+u/klT3t+f9Qzt6fKle43gDgPf3gb+KtFsC5/5VCXatX7VctcEaWJWxXdD+FbfNGG58ChvVs+A7gDvhdFMbQhWMjeBCFjC09QGmptYiW+MziTf2KTRHR3va0IkXneso7tqZSIewz3x6rWqM1HhgI9NBHDEN5tPDFwEMnLm7eQSCR5/rv6UZKaP85/WXQVdpDPLxLcgSSJ5/0EeYGrjQ1dkSQIGC8Hoe8ly2AyvmYIyk4H9DBdNXYdF2ipUbCJDwTTJCz5X10StHo3FihXTGL5TJ+r3sP8KPUaJfeG84+DKau7oMgfZY4A71d1Ky+QsYwjMQAAzP6sQ4NMA9x1SnXlDPvM4xMNztf8ymUmE82n5ikBfhr27KTW3qTpuS8oSl8ZDlUdVm+EsYLtnimqkM4v5qRfvVA4TW0zvGBc50ZGHhc54cHc3HhNpMVarfRMry0xPYHoviRxTo3v48nP1ZWXQ5cFeUGY0nxEGgl08ZpoLpVH9HbeV6qyjgIG8n/jEY5A5wMXofnp7XH3P894jqtsPevhhY6OeJNC/Ru5uA58B/nrFdyXtrrpGl06OC28fqadpDIkErXmAQ4+HiL7uWs4C7gSVacnwPrl8pRA3k++aIAS4wZ80KMnntyoV2MQCSnHnkV+rd6vIBMCvn+1RxMzKOxUbhPfuNHuw5I1h7UI7eCTNNYNwny0Ep8csM/DxT0DzvqbP5I9G0Pjlj4XSJ1Pfy9/a68hfJyzvWJnLuGZhVCKxhG/jmUwMex9RiMTG+BJIcKZYJTaItXCr2oo0AjMSxI5VzpzhQu3GUF7kb/BZU2pcvUfDKWJNbdwPjrsL66+qDz5ULDPYnF2j7vow22KVQsfkEHeqa2vVN5k38/Bz1eF5v6rAJ3ywJiA3Cch93jd1Gd0zTz5uLV0pDnxE97xXzTkceKAdPv6e3z0ffJSiJgfvbXioKiIDnncnvRdpBvIj4fEadJjkgD1VXMB9s4bulXZ47/89rCRdr1N3G/a9bN2brVgVjGJl9E9Sqxlq+Rv+ufr4zN/m/ee6AN/fHX8e+oXJlKlfYP5KaIQFeIMn2uKDa8nGEH/tYt71Y/Xdx7y7mtXKlikERepmMs5Ygr80RXE3aSZfeDSxoCyFYXdd8RrdDxz/e6ccHgKVDqtm9wqTwdSNfXyozgNP/OCfqojug7vT9knAKMo8QY6052rv90uezST4kliSxL8gyCPKX0fsFr2kXMBgmvH0PecRbEiGLNPeZlOkv1Qdaw/Vos/4K4+ui3RmCvMeDZGumGwy8m54D4mR9hRNtGQCbWYSrfGmzbzc8f+6kd+p0I3DWiDqavovhSoFUjP4zSrO/Bwb+KA2vvpepQyOh+dd6TL9OplxE55w9rP3nT6XUboRmk914yGw/WicpvB3HxWJToKY866yxDrU29kRSejeykSCSSYSJLxpSjEfkmR5ovBkJkg6kMDHAL8oWebjI9903GHuwj+AlN04OyL8TJbIWTveBxz2eYAvs1JnikXM0lEHHTfzvHXTDd/719rI31C/4YlPgrSnTOgvnybRAJ+5ztjvyvnedhM8kctG9ZYoBgN/FLaZNh81oQT/XjlpAiPwufXpSvLCw5U1catBch5gsEI2vH6ajNCnVCmrqXL3Jem95ohcO8wOmRsH75bZkwFYRxHMRmcqoRuFysQcMdXAl794UQbOOwqB/3t1k19wE1wG+1fvtUnWZvBJWrT3VxJnyPtuA188tr83IZFgU8V3ShMrw17MM76lybesiifrOWrvljlTPVmNAC8SODy6T66xKdsjJ2PwaHa34KWkEb4cebzUF6oK3dFFcMD+4IMfeIoh2N+pZsKQSOgPxgjgeajNekkUIxfBoIPen+gleHv7h4R3x2aaQGrSK3MaWjzxQZ9N/e/LLB2D7k7wvglpBDfXzBHDgMfinHEtHiM7f8068+6XTGd/4xFi88j7S2/VOOhTDAO2fEjMJwBXTczeMO5efuYjZ1bRXXRMQqLSoWJ338e9qjrsmCFETHfEG20vw656J4d/x1NtbQKmitUnzfsf3kBw/fjV13SZ5MGdQN70GVw7Ib4vVx8igWMrOrSPOR7Vepp40aSyrznuPUK7O2siLTLo7lM0Aou8yFw5SV6CpuC7fWt4D64BkN7tP0Dv36rLxL/Uo391DCqBu/JDYjHTvt7cgbcdzkcwULISxqLWL7WLlYDCxNzYB+fMwx+/Xt1UK+mxgf0qewkSL51u4J6CA96G/uoZMzpjyXnbQGRGRPeNqzUYgxLp7jtUszBrkWcXBNyqwEi74FtMkV283qNcAkLxEvQOV6xTNootkz01Ij0vqRK+y2b1Zc0L6TZNOi6vnkFwJ+rajvb2umeyzH1t2PFUFXPFQjdZDlc6nZ6jyng58uerIDB9JPEM6M4+szAZMNC8OgX+KkputpQGjHEz29iyWrLEIAe4ZplRh0yqtQYbmoIaeTHNtCpPrJQbYKDYMugI8BO3TzbFNAOVfI043XPD3sek9zju0ED2ofX2w71kd3qqCvI+49Ue7lVFGIG11fCWaRbXTSbKDMNprWH1ediO8nsvnqfCSuCNYh7dL8pMto45ZDdC4y88VNA7xLxvuEF79BWrvFodyQIsW8m4vwayIs9ChIwugmo2KviAJwqaMV2GL1ZvsrsxmUnY3svXy9S/VK3unrvvDlwdDOawig5Zv9yDsuwKeR/wpgmkmeolXwkkGCpUJnvf377b4fGVYz7B2JONfeL3KlB4GPkryCcwwXcE8n8N1FhrFN56M6SZ3m3VFGs82ljBt+ICpia+GBZZkyIpgMPXrKaQOIOXqxM0aaO5hr3vYCuY7LEK0K64+5rz162ZdvXw3x2SGZWUZw4CM0O6cPc88kWOtImf1dnqCSM5RBjwG6L7s/mMXzKRRNNoZSYBhU9+65rPQKIg+ftC4HW2UuDwR06KXER3lyWWF6sQnQe+yPfYz4RhM64wXiYsTaE2PmS90xUfHWlzo0cDocG+Qvv2Xi3f9D4s8vLlReX+omcm9NR4O+R/2buansaRLepNBIssWESONZLVUQW1jF4jTas3DNLbIBa0wI0isUG9eBJr1EsGza9/sV0f97OqYtKQMFQChCR0uuxTx6dO3br3hwj2UHMvuqYKq9VI9O6DCHit+HMlaMzv0E4l4Hh5NMHwr/wjRryfDUA/AziHK04NXFRt/OMQBm/JHeoaj/tlL+AZv9MSq1fOeg/p82gFD7lKEw4i+Ma38HUw/4WL8C3hJo92qdqRLZuwNi0uG+/zidk1VerKz/0LKO630WrXnAXAfyrURNfiPiYxrfsPsWR2HO2B3WlVJsjuoNAkyr5xq6fQi1VY/QrKTm6R4wsM9TMe8xt+n2NyBzj/E3zvX2sD7sOWDycaTlmyGeDPrBDqYd48VC9+haaqyIbUpPsJDAYGJbSxnOkqNC2hmMGb+FoePQMtd+c9CiGSoNqqq9fUkjkrqewBtcyn73eFWBq+VzJSDgIB7bLvnki6cRsyzXgjUsx4fXsO8gDfJugdZBS7v1eScHzd7lT1nuZaOtN2MQmCpkHhYXyR1e51anuW9yb8YNGseAzwf7nr7mvwrUICDmLNADmDrBm+w4MW0A7pCPwGviUqpd3CFBwgYyROr9SQ2SrY6YFWVOdU67Q03Qyas9Lk12uw390VkXx5csTMRUK9o5JMMuBvScVslhLVOZEkO+StRO/3IIleCAIm6v0ry7+xNdR3//aEeDPDOtOcy3YIfrzmhIMK7G9t//Ckx3rjA2gGFr065SFirE7TFSwoDEPEVlC6L7WqNVdarplfS1CBD62odkU8li0rGk+K8QmbtElwmCdzHFsQ8okFQ1IsGg8h31F7B/Y7hd3FkkzJAjVUysRTKt2iDMCXNMvMeZDv57igsB46A6p5CKmAwXx1S1rGDxhmz1Apg2Hf4J0eYVNfgxDf+q19vUHZU/wa9I2V8P87xW7kX+JC0wrEzaxAVoIrQb2jJDPfhGXVX9yVQfR+AnXNEqSaaaPLqjByBgXMwAVWkE8ssD2UMC0w30mJsh7s3+++3xW5AQQ0HFKqHkxyoV4i1/2CGO8gDlIM+0VrqiC5Eof8wxBK8ABTb4gz1a9hsvpCUXOPSvnd082rbqIKVDskbUnWDFD3NN/Yh61bZW3X8D9xLG89Go/3U8ruKxAkdnq18nEzK1DbAIcSMON9yYtnS0GRVLwvxQhgGCgmQL5p2aR0SMAxR4kJgM5pSZkytqoKnjz71INdZne0zvQzssb0Q82nFMkNKRQRvqU5xM5RNtRbINtF6f4gFWxyiD/nK02+zuoLKR5ufL2PljqYM3yjLXyNtN46kDuUOCeNZfnGQX55ygKB/2La/YpV8VjR3KhLvKcJrKt+E9yZX3hpFVgzS2rAtySLmFzIowGVJ3md1XmDS/P5+BkveejWJmRMQrBr7M6dmQuu3S+EtBuXqOaeZ/cLrYyBmFIJpniHCAeAv/VQfzjHwr17UnNnENQDs78A8GFzVJzf52iHx/xPHiDWEBUPxkFrSX5N7x3Fd4i3gO8nrKfyflVUZhUW8bgKGYFB3Rqpwiq1Z35RmIvafUk2ebRkranldVYbKmVCFgJgtoNLwDx8DbBu0SbWsO3Dg/373XfO7rHg30ztjk13h/QLcVHVZ4e8JIkICMUDdvdD4AHQ+8MA9Af7vJyPAC05ebCPkjPgyuCDEtBuPtGBhFk4GrRPlYXShB+tGwqtfdgAel/j/fQvMc37qa9Y4+mdgt22b1IhDz3HO9qgDeJlljwG+IRV34MRkut7c0KSX7NkeS69e4iXwbhviX6nM9cAdondf6LcYT8xveMoArkC2SXdtadGEdxGqsODjKiosCphel57Eu5u0rX7/VfK7+PVDNj7+g/m9jMAdLalCe/im5MFJ7ylz1J7r29OOjXTSxoHeYd3GkdAgmcsu//H5yTAE9VvKP5XDAGWgwiWS5d9Ayw18bqTgN1btM2jZRtWSbbIFgZDIl+m8ZmWUFqCJtiSn+7uLMwl7e5yoWrxYbiaQbJdxhssYaDEuztjJppg5kGz4WPJgMOmpi22F1caxk5lI+xy9dLnBE9YTxNtRRtPv4ErxGe2Ex8kmWqwvrBza4T0qC0MIPCZIhtYzgYXH27EqkyO2Z2I8c5MRVpdpVud9a7dbibdNnrz2FYOt65F3zO8qfthn+t+K+1ffrTMBuFegyY/Xb2fZtK38FB5/RVa6QeEcVj3j/2tNIlb8g3qH747uNfw5u9ZT/vbNlrt7q8E8eQdkrvyZ/BSMBb/JbhTzgfUbtk9jWANtvYKEvtuyujlIvwH3gm7+3stP/0GLFxXWxxSGPqJO+Py8Bx4ClD9SO4vwXdJxRjE7qXE7hiUyhCAg0F+zIeLAPj3w+5BtNTi07+T3HeQ3b2UofReCfw+kt0DgZOv0g2AEgI9S5+o7O6uEOrjgGgTo/h3we4I4JX4fPVW9L5FxA9fVQ7a4SiBQ8A9dkA3jt3x7xKJj2H3Esv3kgMfw1Fn9/CAPua0rosWs7+wL2S6rhVKl5/en+kpALyR78pElTA5VC/kW5WhXDi9k9eQdvfKHmKMCX0mcTZkd4Oo3ZCfJdI3Zl+5XnNmFN0CX/4dJM6ovN7AH936FYCwe8XoPdg27rsE98qMtnFKMI0txQHBb0bgdvYbvaPLAHnRQM/TkDGxX2Yod2Yw6hHyq/R4yL5FYJ9l8tcvHAMRcqfeYwXkiyLv1UlqxR5kTlyDeg/fIXgFWz68wUBFApibQxnqGWUYlGjMJP2b/WR3gcdrzZnfogMjg5+94sGer6nMJsMAvd9UQL4YhH00KNw4ySP3LM4PbA1nq5TOo+xeChYm/YIuDb8jLWSYdblPsqZQlPmbsXua7jdcAsaqPUnvhORVdjdAwxjs+kj0njDpS127g9fwmpOmaxQhgyezpUFEbSLMT0aJ4Wb9/ljxO8PuUUDX40dEBrEbItoD5gVnBjk0kpbJZfcsekfTVbrCiu14eJenqughImxTRu6ymN9PQVNoFrvM7tVbsHsdh3SdiOIxMu49hXsRAsGOGLsiHoyFKfgH09rdGPX5kjwuNXZHYiY2a6XcDgk+ULaRJYrBrM8NS9mGNx/sviVy34YxYzJfIewe3BboPo5g94qCfZRfUxqR3PX1Jqw1mCihb2MsblB4gaFinmLdfLD7i52a+oUKX5TuhMmhYqekz5ZTg56pkqFjmzkyWdGThjkzyQAxQu8WsITTuVeDBwcLvSGgB5rpg91fQu45iK/ztHmK7Tm7G78G6xdTg57JYHeRyKtR9F6K3ows4aXIF8Osx6ghL3K9YaRu9knM7Da7147ef8Pw6nD8/Pjly+Mz0OqyUQN9yEDycD4LQ8+iSB8+cfPAGt2aiQfPlOXwiUydM+rW7BlxkVVE+c5DvqhTDQItxu51bsuPpK83vwxsJtufrh//XrfH6yegeIQIAzRPBfwubf2IM3b4RPdWYKdH44KDFWkMC5TU9MwageETxYiZBKULprtA6aZEAn+X4Z5hvGfCeOOb8skk9thHJEcNnTHs//n6b9uuP48aL/KyqhaCuW7wEzdR9qpFSU17Ju/r8IkV8x4NjaUvy5imIfIcafn9YPmifvWWuCDAUQBcRlny1EDubI7450cHhV7P6DoeT3ZNwLIUW8nXXoPih5+YifUyreUNWUuFdiX8RG600Kh3v/okBBIQSwat1+6LeH91uNNNUrHxACBe04CBWoolq9k9GmzjkbDGQnbYMEF6ZcTIYTtSDBRA6wY/MWuXUx67l4DdCb3DTyT6W4gqcJyvhYgZSdBj62bHxczusTuZvuoT2pqBPalx0Kz3S4DCl61ti0JbumkIAfzE37jXGzT4iSz6nQS4AzEuGZKGzVgNjxczH+w+kt0FjFPiroXF1TpB7+HvAPNdP79Ku37LT3xkNgtbfcXo5+JdYndTMtx/aPcR2j3B7jUFe9bUFQ6ClHYfmcEj8hrS7q/SkHbHez3oChTl8pg5GYueMR/sPoLdRYi7v3GDgjv0dYgrq2PB8hs4M5t6NsKOKMWZYSbmC5N6lMyaYc4MRCkxGFnooyGyRjHsWWiO2dUdfjus3WV2r+GkVONyXcfgV5DvPnKLiH4jup777ptZ9jkg56utxHfHWC+FpVdM3rGwYDkqeKenrG/L7rHxICmYGjs2eFAEzya136mGXqRdVR2VeQlufGVxlIJpk1pVBX8ppp/JTloDkzAZt6pKd10btuJEpQ7kdxQlb4TQSSENzc4tOu2udpdSIWBrso75LyrYmYnzAtkO4w6MwPYVZfckf4+Mk6Q7mcD+1n6I0UmovMWJ4RZu6yOT1Wjg2M7K97eAu7g5avN/AkFesdtzVp7Gwx0GHOA4SpHdJSbnm5w2B3wpJiUowa6QZ77FqeThBgjRblg4SqdLUIZvD5ECjj/gvtULxBbac/XbGggre4MWwPwsbQtkuuNf0GJwf7rR2vHNsdRmxzOtTWdTpR1ODxOtOCxgO1LbRG8H69vkSdQ4Hu7vr79O1DwbFkc5XAP0Lss9PtZ7HO1zshV5XZ5E+9x1OQH3z7V069of0mnXzv1MPRTrgzCbqWd+qp/z7s7OfezsH7FT3n91Z/5gaE842gDD/Y9NsL4n/bUkLrF7d3+S+6v2eSb2eRrD+tDnqTqw3Y/MAX6kjW3X56ex7K6ffXY0Zu5oML6begjQ49Edh6k9FtP4+YdH4+hIORqLSXcsFujsH5BjMZHSeTi462d+f/vrtDtOO+lTxN9EGO1GGeDHM9LpaazHHu3TBNQPC9/pI6XPix7sC47z4ZHt8lh2z+X2mb/MHUvjXua6w/h13R6LcN4PIwN/0Y369deiPxQLf0Ts+Z+4I+HhLrP7e+yvFS3PIGoe+vIKuQvcPvNfYp8Fbj8M2k0l+AHwhNxVXu9ufVeHjtvOTtD1LAX3Ddndc90NucoNTEcxMJ0qI38KRj49FgVAAOM66eQPZ/9oAsb+ASC7cCwOBK8+xu5731/L6Aq7myi333C8941x+3TAe6TH8vgubKfR+FYG+GLoM+pxYPe+x7bXY9j9M4e7znUzmeuGsy7rWHtlT5Ed1bEFPe/D12QyGbhuMYz8g/6Y+OscaHbHbZ+qvo6z+7vob1y7m0xun9lea+JNIvdwPRMgX+B5OWL3dQeLYoH6C7jds/tiwrVbBtw1bv9c53Ndf+71izsd+e4yJ+tYq2ELf5k7DGO/O+vdoVggpvO3Cbiu2znbBB8LaTUqqt33vL/BiBQzGGRzuzJJHbhd1u3xWWoRbmyaWhQHxQKO8sWR6+8RvZ75ET7Jg3smuye4jp99jesO0XUu7lEIJsViwMDCHoXu58KPd3cbVN0BOgpQzODoBBHu76S/YKoqLcFmc/vsOMLtom7XtRv3XAm3Hww9t70dHuEery9oi6BhcJ+3xu4xrpuxs69xnb2wx3SsJzzOdUeLheW6MP4nCzvq3ayNHouJwu4JZ+Yd9Nfa689GpHeTw+0z3W9XuR3OUqPMLnD7/7k7k93GeSUKaxENBrwQAiPIpgGxYXkVwA+S/1GyCrzI419xriKLgyTK6UvJQ9rozSGrPh6WKErAXfB9sjNzcEj3ZmYpXpYXoHsG664r6s/Ray1BH9ugmYvJfGNjZd4re+fmvA539z5YOtyr0Wu8O7lPx98k2y/Auhdie0Ow3c5Tl9GMR/uiC4xpozOa6RGN1FyI7gnW0bM2wscOuC2yfWwzUvM22RatKcqplujVjM1tD2pryeBUtQK9akHND9rKg6R7kO2XHN9+yWd7xLdL99aLeB8V3Sddb2/daO9NEarND/cMuqdqFJ6RPV/o+vOQvKoc9rHC1hGn8nWT4Jz8bCd/vk56dwl5L9wr0qtvaSLX0mC6h9h+pG8fXOPO6a7hDhSPZiSbkOb+KLqv9LHniI8dQI0i28fycc5lnWgLYpybnGpcsDIjIf+jKF+jXiLc38jKzJWuyVxAvb0I27FvJ+A+crj3QLPj3syJLzAUo/sGH3u+xHxsxMmGfWwDPKz+UH+gg7eEaIZpOTfRvSq9JN3tnDU6nl3MtdSjfLtjZgTbhXc3yo3mFmnmc3NxuJq7InRf52Mv5X2sHNpHW6VQZ0ufAdZ1uXSvRq8f7m9wFz53JZx/LfV5vl1InvqGLeHO0oqDGb6L7lmsu/oNUdjHwutsIPPdoxes62VLbKJ7ZXpDdFcxb5ObZvvleqxvxyE/iXkqa0xVRtHdHc9IpfvofrvdtrIutEJuh4/F8zY7ysNqnDqDPd/xtsiie0V66XAnvXt0ncwxvp1w7rzgDq6oTSTbe6t6wrGenqoG4G7DPVGjuB7vYyXslP4Y60DPT27PZ1dmatIbDXdL9xDbj/XtnmSjM6RYajZSmRvrXPgWut8s3f8BH6vbAp8TqE2hnNcxMLktkeXdq9KbFe7PYbvn24dk3ZW/WlB3VZp784XyWyrut6131+G+sv58iI81bQGd3Eixzh5Mf4LO7zLoXpfejHB/Dtsp3+4vEAr5dax5soKZZXwnpXe76B5n3fUpPhaM7Xh0B9Wpvse0A+2gxnbxTtK9Mr1Z3r0E24d9vh2OZxNiOwz1HtMdZLg4peo93j3Fuqf4WHHJRWf9SLCutw2CSMf4R8cs7ToqtX/A7Sy16XXD/Y0wM0XYft7n22UV0hnPInRn6sV0nqt477oE3W/UoemevrZ4fYKPVW1hW2N0UCcDAOQ9bwbTEiLtZXOkwr06vVlmpgjbhz2+Xbm3KTKaqUnq1BvFNsONd+OaN3h38bHu2uJxPhb2/hiarMM6BbOZzzpOO9Hz4oiHe3160+Fehu3wbo4tvl0sk8HD2BiqRDHj2ZXiRS8zipN0D8T77V/xsUtjgPlaqiqncp/pkU7mfqfeiXCvTm8q3LXc/b592OPbhX/zU1zUZKRQhjXrWNeJ3hnNOXS/mTdwM/+Ij116fwwWJ8ynyPoJtIJoBPWZR3dyr4n/c73JcPcDfYtvH2y0Z/n2wRXcQKnB/DaK7WgmNPdA8Tq6y5c0MyXu5SngY2Xmj8FqHBrn7KzNZL/J+5SZqVBv0sxc6Q1l1vv24bzZtyO4h+2bUQzmqR2z0d7nhXvoCGyddYSPbQZqDQXvedH7Yzzr1Tcm3dISnWLd8lce3evTm2Vmft23j5ju7sEg3/HZC9VI89Zw91hHN0MxH0s1xiiGujHS96Yt2MR66uzgkaJ7bXoT4S51/rfftwfZnuPbVYaPRB1SFWSYzu/J1h6FjzEZbt1MGbrDvbOuga11dvtYf1wXxi6e9OIvpl0doF2vMp5/s7V0r0NvMtz/e3q9ffDTOyjZUc9czWJM4wfrjOQ94U7vnXXcuhFi2mYH98C43k+29/3xHYzsGeFem94suu9hO9z5cpNvFwHfBjNcV2RgtPc4w6WTYSXpjvbOuh7kY0nStaHeZ7BNlpOJvGeIdyrrbQzk0r0WvfnhfknvFZbY43ejb5cpHh/OQpo7pqSCHC9nZi5XuveL+NiBbItm6f8mMcqps1dtgXufdWvoXpvedXTfxPZhV719bESCJ/ybpDyV4f6AVoju19j9DeXrz5J2bYh2kHVMvOGhW0INc6yblz/n5VxB9yr05ob7VrYP5/MO3w7OoJGZZJy7mgHbpexZvOci4X65wj1vn1N/loNc28SLVJPsfaotZMeLnl9L92r0rqL7ZTXbV+0DGWK7yPHEeEZFu2Z7V5bu4f3Mj/exvPfbkbRzcnxzOacPmfmsUzkvzlNeuNekF4b7m78kcs8+kOdV+0AOYd/eiqXu0fymFRu6z1Dzfrpfgqwr52MH2sfy3h/9ilS0LdQIJ3IesS6X7vXozaP7ZQvbzeXU3H0ghzDb3QxnLtt9zT2SXZzuxFNKnuBjW7nfiuPnGJyrhzJfuDmU+ZnevSa9Tri/UeF+sdsnlbqW2sT2CsO+vdU7v1rBuAYVUcxctpeZqh7vY5uQj21RW3gVilhbmHzn7XDaQPcK9IJwf4t498t6tkfXQA6xvcIctkvN0YprUHNnypCzGdd2hvvlcB87BOrPOvNHDDvTCknWzWx2cj8j3KvSmzYzF7Bd2DG+nVwDidmuJDMtNhbnSvHsjWTyPBWi+1E+tgnWnxXr+L6IzjX0dO8z7WPNB+fd6Q962FqU7lXoJcIdPq1717XUIdu3R2syLcpw5NzibJ/tgDYDzbvC/XJ4/XmI+1jdFsrTsWjPg9wHpJvlnJ2/k3SvTG8O3QtfS21SNRnPt4sn8AD7EldLa1bnvZv3T1V/08eKx8w5ZWcVBIEoEKM6T3aY8yd55tC9Jr1BukvCb623D+ueuzTEffvozFcQ2QOaZ3UxTb+W5D4JxbvNzKHrRpI+tuWPKjHODoxvAQbM/OV7upM8syozFelddVW1xLXUIVWTIXy7eMoYWOyZPrjobpYvV/O+cP9tHyueuYZrsJFpDK9NzdLWzWC2Lgb2JfMz6F6XXhvuEOqK8da7l7uW2qyoybRWc9v6a4JYZCyTxn22FRmd3/NOuv+uj9XP0wRXkqdY0psTuljQFmm616VXxfXPO4h2+TJ0f/L69pFku56dJ2Yprl5iPNtF99/2seMSCa3MfdkWgQDo9BfknP7mvk62BaC7PX/kj39q1KvpbndNAx5eX2Yqdy11zToZMFcRz15Szi1ch+qUYlWWQZoXrSrg99A99KSK5/hYYWPlY6iYszJqcq2czn0+W5dHpz4B65J0r06vobtrZtBV1UPuS02vk7Gi+QuKnEi7Lt9QsdJ8h5q3h7vaX+X6a/XnsVH9D2sTEz1bE38tn6gtwDjHXwm616cX0p3HuqC7dTNH7ieTXiejbbt6rl7Es8/gQ+Q4inab4fvofuj+Khk+dtRN0U6RKTpwddRh8v6+nHG616cX0f0d0f3d1t0P8O0562REsGvv3oZLMjbYE4qF5q3hTu+d9Twf28jOlwEQm7XJ2YvTFh1uC/Ult4zCO+touteol6S7DfmS11LXr5NRcDeSw5pnmeczmeEnpPm0I9yvv+hjZTPo54NPQdbNZr4+p2l3wzVIRPca9Tp0f7dG5l2G+zH3peatk1F1qKhkHetxxTNXKxVvpzux5+3zfGzTNq3t/XaKX3MIjXOz7Xv+jtO9Qr003Q3ej7ovNW+dTNsAwUHJM6w/BhSfNNvvO+h+3PND0+tGwCDXqqEu0g5zMPPnOz9P+ozSvUK9Ce9+Oea+1Nx1MnhAI+NdFWRIxR1QbRTvovsv+di2UfVne/TQ181oDhPu/dOsR/WTbIsU3WvTS9H9PUJ3OJrtuS81Z52MqrejDJ9cD6OC3WF7p2JdDmXKxSjNZej+C/XnMYY76OiCqNO8u6vMv+fTvQ69mu5/0dUls4iADPad69uz18mMmO1I8pzj2k++4kVyEbo/t/7ssQ4NdTN6CcH2swPNgNqCN8Wd0vmj9viuUa+/ZsZea3oP0P28777UvHUyyreP3ojmzlBMhquQdzWflGZN91Jm5lk+tqWaol9O5vW/0xJh1sncvyu6O+eP+rFGvYDu2saA77+hWN9+X+qKdTJurEPJM14RFFFrFN+l4o3h/npDDXE+0sfq1jD1Z6clUO7PwM8xPbLbVnFoh3tfhLt5PIn6Juh+sF6v3n6YXkx3EOrvPt3PF+NlLuet96WuWifjzVcmr+gKMpxZtuMBDWveEO6vmO7nAOtK7q8C6s9+7vdu7s9uW4RqFDrz1aFmqhryIup9uhfUm1NvP1Cvobu2L2qeqoLe9+1nyrsPRfaB9H27p7hlLtXZHClDUYr30110fBkfG9x5YhzROEewruVPILKWLlaROwXbQj6Qx0Q6TfeCenPr7b7oMnrD3v3dq8woydRotn//drMhoF9vRxGP4W4zHOk+kV5mR7i/Ot5d2roi+6tM31+fqePrQWQ+38Te83N+peKuWuGOev/k0F2bGZLuxfQmfbsazkdfbl9EL6S7x3ZI9zPlY9belxqYpMrhbAzW220PL5pnWI+B83Las4NYP+WE+yt5ALoX9rHfH1nHF3NzX+HOVuOCs5g7YN1sPN2Lrrvbp6390WYGTs2P8+3TA/iZpd8fjyDpVLzv1gvp7kxWicqMDPZ996WK4/EtjgkF/CJY/PoIsr0Vz5kCxfb4VTWT4bPSnOPdXwPnrZCPRc8PHXi0f30njq/Pj49Pl3bymVuEf2XUuC4PTLsXWIj8A82M+McRetHx9fHdCMipjbM+PnwPC9leQC9Fd/CnM5jRvv2cu75djWfsy0Dr89vWZR72569HiO1gRIuUZEBuI76/3JNXVV9DeL+BnC/0/NClKZYmYBm+fcmKb9MYLdn/RN7fcVvwpNdD3IsxMyjg/9w8uhfU64T9Jw93W4N6fHy0o198bkvqJegOizOOd/cEq4pM5joZIVcH+6f6ekjFj0/nZ19yqx95bypQNNvvs1F8UqJ1dvP3Hrqbkb3QvohLW0z4qVvNOILVz+ZY4p3pVjB97/R/JPU14VDqO3TXHh7SvbReN9xhbvNwJ+O8oF5MdzRdtXS3bN9Rb9c2RtJ7kpaGB/cX1/wtfxbZLTH/HdTMImy/yxSnZuU6x3fSveh+5hJwzvWHFi/1l8fHx8P3MvxAdVjKwmo/B1tEwe7F9e5/bGXmEL1waGeL+AeYnfBw/zKjPsn23XoR3R3EY7qf3StMm+rtwquC4ZsH/Oc0cpnfkyHaJP6bV4jqLd9hwDMq5LXik5mkvtxz6I6ADkozr69h1m33sUsQu7Fu142gGuQnz3/o6fTRhU3dfQa9j6brEnYvd8/L2MrM7Qi9cGYeC3fd+25u79Wr7seGt2bDm1YTNZm19faBy0M8ayYe71/cvZiLDPzg3uY7PKKF5qb/4+5qdiTFmSAHKArUB1Qarfqyoy4k+lRSPQivwgkhfRrNy3/4P9NOGxvs2dUyvdPsnjbscBAOp22p7mhsd/h7Fq/u3/jVWmPM4mM13e2lVLlP0xB+Vs3R4pHP9I5afngrK6vmMBPserDMZAUzjrpnxcvmKuvGnyf/tD039TTczMh/Wazez4XX0N09eAOquyeTScjb+ST1ZeRMXxDMR/T8Za2p7GNffL5bre2txfenL4MkZuYach2v7kbgDd0zn2cum2OoZAKtjLvc02Kru6t1au7u0TrL01laV1tTVeHeUTKTGe+yd7Tufebdzay8Qd59EXOV3Hg13Ueg7k7u7gvcU/P2RWv7YL7fwyzZLsJ21cWbDt/c8c0+ad48BucybzxZqZPU/Ru+eLXuwj1EavSvs8yo4D5NlFBAdbfaoiXGPW6HyZnAvO0gEpkZN3fPhnc13m0BdN/BTpDuTzhXyYfXr+5gVfUIcWzevmNYnNoB5tuVtjdWGLFqdXcf2rVTK2oCaZ2s7sq/G7pnz58l3fkHbsHHSFlxHKM7qXXsTnB369obfOUmYspeiyY5yN3L4B1k3z/FbE3N2IZtK44XefeRVPePi+dAaivDevVpxF2qu2T7Dt1OXedd3lvyi3Zj978faPvbBzpJ3b/1r0duH2voLidsT9X5VN2IVHdC63iDPOnvurv2oAd+Tai7m7sXwatTV3jcROMO7/x4sbp/ooIZ5d299e0J58lIsIuduiltZ6bORrzyD1pLantLEN4wfXLyx1ql7one3fzL40eB/BnRffPXjWjvTmmd+IPiOJlN0Vr3VlqH1f0b17t/l8OL19LoKrgyeLF3H7G6c7pfrG8Ho3sDE7MBazv7ms9Pq5Onlwzf7PEtALe3m6f60WF8Decriequ2P4ocX+oaJGnoPsE9vLQaufROtYcoDFUGPeeqGVl9dPvf9UH6l4A7xr5lMELzIySd1hJQJUOnL53adVLiLZvF3Hr/HS6eGm82n67ab6/8VLqRKwtCXXfMdf1eXXPXzci6C7wr77aZ/6F417Wr3WqNd6mJUhDZxaXWZPUzioTUvcSeOe4krhXGbzQzAh5B2zfvfvF+nY0tHe6o4iZrxtLts9fi8v33bwTsxUAmSF+Q9/uwSzUvb+o7gXqRtTUbVuWDZ6dNVBmJqh1sjWctZbJnbDXXOv21ujCq6pF8B5XO8unCF5b3eFGVW5mbK6fuHfJxJCzI+6a7Txqtfi+sLlqQNvVN+2N69onYmwr91YLdR9PqHuJuhFGd+RjiUxGrLGx7g9rnSCAGfU+tetlrRxri2/CzSh1/yN46b0rcnjnx2t791GeiWrU/ULe7i4go62pLHGfNdttvrdC3X2+3Rnj3pmKHONc2/cBXifVzHyr1dXvR24fi4I5fZo56//K2/2Nf+ib1vB2PPevvEW6jjUFUnf9/ELqXgYv2rYWoHtuvI66a4nnf31Y25fS8naL8ZLuldrOUbHCsHl+6VAG8L1VZqY9BiwwB5ybHOGc7J2g+xhbEflQMv/Iuy9VfOS42uG+r+iaQFftbtjWHbZGb2IK0feWutt0L4i3CpBdVnuXwWvVzIyf+LmUt9ugV6Nllazon0UBAVg61vq+g96dHgnZ/qLx63e8KZQY5F3XScyK7CPFeVfdv1XxDNEQ/jlM5L5Ulj4ataN1XbQF9XFXPhYNf3nHnIcBNXOwqi26BLrnxIuPAKX34ZbBS5WISYHndP9xpb7dQvz1AvX8ku/7zGVFbl3yvRVlBFtA2xHZ2T8E5F4KeycQSzMzJqm7kndPHns/6WMHqXag7+H5Ks9lRTWBdvcbpcNi10kKcAZM1odO9nrHle5Q3cvipY6JA/twy+B16f5pHI2j7vfTvl3W888mlaFXGIy+t+y9PfLtanzz3+zkU8K7d4rtWt39hD+h7nE+lj6DAXY/jmMWXTQiKECqHdn7Xad/xMN6XbUB/6fWbXFG3bPgnUQVZKNqIPFbMbzIu5sfYGZ+nM7bHcQrl3f7vgIf3yfXy3i0XQxvcWuqhizGtQIsvZvw7mPCbiag7qSnu3KeDKQ7n6UawvO6cFgT6Fc70Bid/OluqP/lI9sBtkaad8+IV4TrK+9l560cXo+6K9ZnyduRvH/ZezF1BeT6BHzn4/s1Ibx+bVeYbcQ1+KvG3t2j7/HqnuJjqeNfOQN091tJ+8bXYxZQE4i7/0b7WNgMN7frpQKIvue/E9Q9L95F79B03writelu6fulvN2FzHoRbcYE3TwrVZd8Xwhx92q7ge0QXtNcjfCQuCt1fxyo+z2sdgc+1mxLBeo+NF+bZjwb6qupofCpnR1SdNrH3pxRj/s/Ud0L4PU+JfH61P3Tr+6xvp24m4OVyCwDfVaYcTH8jWWUrnP3abvnY1Z3lm/vjpeZUKV70LtfyJ9VDayuC2N/Zr1fURj3WZbIOd2vWsJuCviJuwXbQo3+JO+eFa+X70Xxerz7aKm7nKZc8O3Svc2G7w26a8rm+wtbGQTYDl61b7/ZI1zbdiDvOoEcvauqB+pu1h5O5s+D2rskul9sTF30fvRN+JjpBVaVabW7EV85ZWVdU2dULk3dS+ClzxFqCuP1qvuI1T3lvlQf1dmvL813ePLlNEG+t8LFbZZ3O9B2v7hL36aQ/xVaZ6o0vyO8e6yPJXydXGeTasdaQWxa3sROHjHuOe3d7ocr6W2UoetMIgc5UCd691x4G9/Bl2CXZhm8Ud49+b5Uz+F4bHxrvoM9O5MM3TTfl5cTufOCXzqTubnjG7u3GgAW3n30cb5ydnfY6q7zuDM+1px5K8Ip0/1sWsPq3iedQbbize7+m2dh2ZNR2C0BvuxxdC+Dd9VHX4q3ybyVxBtIZj6xut9T7l26u9qu8nbBd+Tbpxfiu8t2ev0Yabst72p4Y9+u1X0EZB8jzpmB6o7WlVPPM8dn3vLuZ+0gdqJvctaygv3pE612AR97MIeBYz9K3Uvg1aHj03kriZeg+wh0HuL9SDwH0h7lDdJ3lLutiO8E29vW69tD2g7jdqjuowojR1hPwP6L70hUqe73A7ULn2funnmru1+eu7A3xCKMu8jbNx1Pqe4n82fsY7uAj+1waxzRvRhecRoo+5Sv1ttUEm9gVVWp+z3PvUtNpfLHLxEpQ8ZDvhO+/UjbbchA2y3zBtR91LUzQOLj1P30eeb2XRUM9SBgr2qWDsrk2nZVcofVzu9jO3fkIx+L2yJS3bPj9ZWGmacMXlLdQc0Mqpa4eO+SXkz9MksozTYvLt9TfXvQvXWkuo/G0ICkxqPuP7V31/lU+nnmxF0VgwS9mvbQ6aPse2XfRffTdSO+jCLsY6PoXgDvEDzzFNM9N96Y3P2e/d4lwHfV05zv7TnffvNqe+eQ3VF3PGuNVPccPtbQ3Rypw15XlFFMsgoaTN0CPpb8zHl8bIq658XbNMd8L4OXpPvoTlVz3ru0D27D9+eM+H7Gt3fhTMZCjNQdmPigd+d0P8goUn2s7v6nXlDmGaTV99K+Y7WLySiOfOwh3Uvhpe8raEPqngtvcKoK1T3mPJl73L1LiOWY70u6b3dAO9puEZ4U97hk5p6QP0fcMTc0YPVUWfepsU4JXHmTGLUL+Nhbl+BjI9S9DF7p2aR9VW8MIjCyZfDSZmZUf6tdLNHnyUTfhe3he+a8nRB3x7ujnwMzc8/oY4dBHGO9GravKnG3hO4F1C7kY7sUHxuXzOTHK8/vduLHiQgic+Ol6D5+wqlq+nkyB/elDk1D6buogTyTt/syGYrrve3dLZEP0v2e1cc2Uu02c5T9Rp57Os2zVrsrdSNEY4TpXgavWGrRte3ijePUb20pvBFB5EfqeTKBu7BhDaTD93N5u39mHqPucM0pTt0z+VhRN0JN3Vry9AXW/Qf5c6KP7ePUvSRec4fgH8Lr3bynk5mEOpl72n2pFt/P+PYunMl0zvDusXcfk9Q9r4/FRZD6Qh767KyJt82FuhGiLSh1/73s/0u/jXfPjJdMZsjxzdU9O15O7N/La15++4oIztfJ2L7droHEfD/l249SV0fbXXVHhK9Q2I7WVTPmz3rYr2pq6j3JvtXxe666EaV0lHf/tfxvf5ZfyszkxgvvIHLvmQIdz4d3fryM0wojkb3DQ6OO6mRifTuIoRTfWzFjye7bO0fbbe8+wpVVR93RHr7cPlYFj9ux1k1s1TVX3QhsDOuuZMEEyfcSeOUtBcfeje1TLoBXs53mO995/hFVJ3OP8e32kprmewnfTj59/Zcl7yNM3gPqni9/BhcvsSLIeTk8HpRl78F67y7Fx/biy97b6v5bMmHnwu5nCuAdWPqybocPQ7yWwMucjMFIqLsg+8k6Gb9vx3xv8/r2miqV6dUfFECG1d1aZsrlY+Gg3+LOCF3z1Y0ABvRI2781E3YuMHUvgHeLPBH1tRTB+/kJMTp0v5Nz1IQ6Ga9vV2aVnKVe9u1ecXfVHcxXcTITqe7J+bN15kCzrUfHhC7rO3ovT5SPlWKH6L4/s6HC7FX3dLxo4/lziRnf81YG7+cnxEjQnSL7qToZiuxspkLNUm85Mhla26W6A3kHpWJB757Jx5Kntwd9rFlbzFI3Ynq/7qG2Pxy6O4BP+fbKezjan8d7RPePe1jdDzKZBvSxC1rcRMPq2+d3Rt9OZDK9YX3vqDs8Pq96/GTCzv9YTxYfK+ZsnpFPZhTBmsD0uhGodX2PL0rGZiYTXol0SOF6MbwxZiZLnYyFuSVuS83j20PujWMm1V39rjjZpZux6W6N/XM+VpzySx8WR515e0PHe2eoG+lBWzzQnWv2VPWD+Kyn4hX3TA1Hd7/b+1IL4T2Yquark6HL4OgVNcP1E769qz1Mr+UID6j7mKju53x7k9j30ZlMmo/F6g5idxlE5sjbK+qaKf/6wq0tjPcgiMxUJ2PfR9F61Z04sT5DJqM53/vUfQTLTD/pZIaewpzw7YH9DU3EmbdX60aM1tnqjpeZMuA1ZxoPSd+yYngPlply1Mn45mbtgXs759spF6OD1/5A3VkyE6/u1WnfnqbtkXt5Un0soe6oiOA63kpOUoZ/DV5ZRDDPhJMh6X6iTqbxa7t9F/Y1bfdkMmh898fJjCH6T+jhHa0z925F+9iBDinC2t5GHxCY5GM53VH2JJ5fj1x4G8q7/aN4/xYPtXnPpfuZOhn57a7itf2Cb6czGTPCQ959dLy7epN/0za2SvKxdkhx3refqhuxtA6pu2b9L3mY1HW8g+Nj/mm8hu5/yz9eup+sk7FnqeV8+0Emc6Tu/D1O3Sv0cU/1sbl8+6275GNpdf+m1P003iFw5sA/gfesukfWyaT79lubs06mt7meru4PSt2reyij8PtY3P8XfWx3zcemqPtpvDnnKRnwJqj7qTqZP+bbvZlMj5wMpzvcyHSo7j8ddQc+tgrcVDHk0LrYvTyJPrZOUff/EN5odT9TJ/Nnfbsnk3FGuHUSwQl1r4Dkhc5FHK5qXeRennM+Nl7d/zt4I9X9XJ2MY2WK+XYykyF8u1R3E7X/n7tzWVIcV8KwF2DarBwQRZwFsGDBbPwmehWvFF7MvP2x7plSypbt5NJFV1NUdUzEpPXr069USnpcpuh+Irx78K/ZM29f72O31I0cl3n3bfG23xXvGroX1snk1lJf4tvJnAyhdevdaTuT0P1OZWZC18/eVfFSH7u1bmQp3X9TvEu9+5I6mfZtvp3eu0T2b5OZeVyS2Wop3T3rVvjYlsnHbqobgc+i0LuvjXf/bfEW0X1NnQxXTmZ9nUzo4buI7hTeH6Bm5h6b90D3KsCOWltk97EvqBtZRPdfFm8B3deeJ/PxOpkjHTMqk3mEbdlZulO0m7J0r84/b6obwc+jmO5r4m2/L14n95t/TdN92Xkyb/LtzQK2B7rD7Uxgr6rH+T0yNFH++c/H8s9MPjaud3eyh3T/bfEGuZN4X1sng+47f3+dzC7L9nOYql6QiwF0D0K/p3Q3Aqgy94e+3rdvqxvZRQ/jlOA9pvvqePffGG9Kd/QillIL62SoFfP31cmEnAxhZvwG1WSv6oPYmn13b9DYfSb/zFM3Anr+Md2pmND9V8U7Jff/abmHLFTuwsyE7dXE3qU31MkcJ9h+dstMF3joBsrM3MFXRHewtviZfPu2upFd8jgSuj9RReT6eNvvjHeW7i4L9Wfq3iVcJ1N2G8kL62Swb99N0x2fOUMcvHFPll2qP5/IP3PVjYCef07h/ozz7r8q3lK6Z9aXKN+e9O8P1smkIZ+P+CzU6GvinBmflfuYb+epGwmPI6X7E9W7r453/63xFtE9dx0ymW9vC28jeUOdDN3JEdzjJSdS7nc0dZu+P/Sl+Wc2H2thV0D33xVvGd0r8hrJrG9Hov9YnQzN9vMZXqiaXDWZofv9DgZ3MiP799TJgOdxnqb7ynjb7413PjPzZwrupG/ff0edDM12JXfs3VElQUVtUw10r35B3Yjr+eoFNu2RdP9t8ZbQfap/E3Uy1ZfUydBsH+WOdP4I0ifNTKgAnnoWf1OdDFTALN2Xx7v/5ngL6O4i/VP9bXUyO4LtkO74lkkteIru9hdr9mky1ns3rD72bF7T3v33xTtPd3pe/pfVyZxBzNi7R2cAV9EGVfDjR/dpMtaNQAVguD/TvPvSeNvvjrckM1OYb//mOpnA9vP5Ec1Rg+wf5oxI/wcXvX+q3pu5bgSwLqF7tKr6++Kdk3tF1wb9VXUyju1HJ3f4B5/zbuh+d2uq4aOi+8fq2znrRrACcBGBNzOG7h+rb39dvPN0zy4xlJ0D+R11MrCH4/kpsPAPsJvJlb2Dj2/xsfVr60Yw6yK6BzOj6f4b452le7Z7z+1dmor6EzmZY5A7cT7kw09V1QuaGP/t7zxfZTepgHm6f8C3vzDeGbnTRf3OvbWz58nsMz38zXUyNt5joDs07vB21eqOoR4kf3qpj2W8h6icdUV0Z4338NY6mTTeWbmvPAdy4pzXGvbvQrY3W3MyIOqY7uiCVUB37GeUmXlhvr1+U91I9Cym6F69It9eT/r25tXxzsk9WxoE2U5dRZNhu7mTRmbP+HUtjGIe4KC2OieDMjPwQib4rTJqN3/v/rtpfm4fm1G7bv9e9O5BdN1LfGwB3d8Y7/h36AUBdtZ4i+ieop3y7VHgohNE1J0YBT903ZB2cCEGw3Yhopj7zv5m13XZG8YK2e7p/sC79h6xd4fJyIyZ2ebb6Su5hG18oWI2nd7LncvHHgvpzu7bk5Bd26vb2NTPTQ/+8QXxLpV75bU+49vV/73YU7fDqneRsl2OfaBJmle/VNPL3vyTClEIuTgnE2Vmoop3X/kO6X7ydNfpGm4fOz6h5I49LXfd6YXp4jV6Hqw+dql33+7bM3KvncZFP/T+oYAxjS/ekqnqGt8+ttYw/k3jFfq9Twez0L6J3NXVs13X7xzdx46x0rendI80j+iO1ppytGvXss4+nlqK8DRELHeK7tt87Fa6txt8u7Cc89Fatmt563j9QG6i9nBnincx3cvWUpXa96nepb5QUqqbVP1LWsGPvySa13sZ9bYzch8/rsvJpHRP8F4BokPKR80ffOx61um2P6hGL5Q7ankO1pXTnSHe2oRcx3LH8UZyb5jjXSb3wny70vkwxmy+E3DHZrUxA5qKU8oQqAjyHz8NGula7qM+ltS3x2E/cG0Y3sMH6O4Jb3/MkG51vl0/DD2S2+HbyV07GJLu231s9Dzg6a/TdJ+ItzQHVZNyb1C8WO7MY9lCucN8e5u9C3sv1a3H+k49dQO6RHCX+l0be3cltJmVG7jrljXNK13g9gkIxXQldwnmq0t9O0H3h6mWgVPVE/IzLkmTo91a1pmRXbonoY0skjsw9OYlmVmXpXti3hjiVbfqqfAOCd3zcmeP93Z7jn9GuT+JP1ju+ftSY9tu2H6wehcRz1TMUTf3zl2/m0BN4LvGdISdkr+Ruwhe5ric7bZm5oH1TuTdsZ05pXTfmm/Xz0DN0vpgY9RjqO30PH31cHRnYB2m++l5n6T71jqZ+pCje6/7tOrUUWaGme3TdH+mdE/z7fF5MlIJfB/uS1U/yvDxoBpYYrk3hnFe4kbuwrauMM08WnZrZoaeiLmY7URmJikiSOh+gnRn8bG27VVwyvG5B2LlXiO6+5elOxfrrslUFRUA88XrV44zcvddWzQShOv6NmO8pXQn8+3JeTLKtSfpta4zDl6arLLwbyErowcBP6IZudvBTP1X/ch2M6/1k9ypE60n2X6+xluY0A7tCiwunWA68nRP8s/tpjoZI3ch1cPo3PMIjh14d2I9nYd15yuiu1X8f7bGvyjeZWvHqdz1WCZ1y4q+l02mFpIrXoruT/sXm5k03576mEFLO5qK6p/12pKiu9BLTJjuunsbuUvnaKx1H8wgvovHduzeC3MypocjueO9e4Hup9jKxHTfzjr1DAafdu7rQPeakPuONf9sHsU10P3+9Hin6c5R315HQ1bX+eIBO7wTZYGs8Xq6Q6iHt0XnySjfLvrRz/TwJdWyUq9hNn71pmEFXEXUQ3rgeq/frZfR/1WvVpbwrC1zM8c82xXd82r33h07Gorum1mnu/zQm/FQvUmYfqTozso61frX+PDXZ57u7faazzpdZnJLaepfRtRJ1B344yXo/gRvy86TOewH8/1AVMoIve4knUcFeUgFdZ9b13LvlfIHM3cdYN4RFhH4u9/LfftVfRXSHc5XI7rzsE51fmHWEpWds7J3pQMZujP62LH1r3CH4vOUozsT20m6+0IJrfcedYaGPd4iumfZHl2bmK341fUDZj4m4XKK9TJSGqUbL6N9/KD69mjdhNzRcj/u1rH9eo0VTtAdQh3T3U5gOFinF55FL4fOLKuOZJOQ7sgRsudkzLOI6P70iUgn96l4l9e3Y+8+xug2L/WdHsali71/UbyTdE/MTOji+bu/9338slkouMoQPtnubVeZTEcXHa6YydN9Oduv1/V0bxHttrLOPQNpJvPRWmoqd24fe70iujvzDujOGO8hoZyVuyl51eOar5pycuePl8jMhDdtZtqQgGyLzpNJ0sW2yhlGC+Ru5ipheUFqtw7yENN0X8r2a6F3P90purdgxr61vh20vRrDJZ6gdl1IU9iHw+xjrzHdnwbvkO4T8S7fq4UTco2nu9a3ityVwlq5vyDelO4Q7reI7W1bsHepiw2aDhmPZe5T3KImVr+gquNVck/mOMLSfVFOxsT8yOtd7WbKvuCqcsvAOvMMpHF3vcD5mAEWDul6IXYfG9HdnzWC6c4Xb+xhA91VfDpyqVecXEJC8sf7NC/g3SO6L78LO6oLEx3BszBn6RtMdz2i+dGs2eXlvo7tSu76dXlEL1AROb5+3NtPkDs0dRtzFGAdtVPJd7+WKuLu72rk2H0spnu4cg0WEWTjbVewPRrUGy93NZIJVyoCFpF37PE+tayf/wK4x949EfzMeTKE3A/xWCbiSZhvXhFSNLZ9M979uFvh2wPdH49QLgPWVysgdvD6sXS3LpaFdeZp2H0NosdyF2F26qpBuX1sRPc7RXfOePNyF8IHrJPYKmc1vob4vInt8Sqtx3S/Ybq3YTArOE+Gpns9RXco995MV0TgGS3341q2W7pfMN19RUEVpB7zvdpeE4hYF56GkbwAKh+Mdbfl3qrimd/HFtC95cm3H2K5+7HMjuhR4lXovQ30prVt8ZJ0f0Z0B1nXgvNkUrmnY5nQ+famib27LYxUlka6mXki96ONehXbtdwvUOP6J8f3CsEdQT7q+ZtZhwoppFlVcY0OGt+YGfcAGH3srHfniReXQEbTOrxjLc7FNezxUt7dT1dHusdwn7kLm5Q7MZZpudep3IVNuakPg401R/d1bNeZGZruwMwAoXu+VzxnZ0HvnuRs3ZDu4G7SU1ruDaePpbz7PaE7+9loyRRsWu788VqR/4vZ7nWf2PaCM37TzEyahzLBgROjejeWDyH8gab7cUWdDIx5lu4k2613Z2M70fZ+LjNA5w7pzupjSzIznPEW0F2k+QjeeB3d7ffR14DZqvfuhTkZJ3dy/20q95juqpZs8Pl2te6Qo/sGtpPePcxcq3uSmnF85/TtRNtbBZhBTvd6e7ROs7N0Z/Oxhd6dy7fjqSpodhHLvY+eBnu8ju5P+yHYmSekezt5ngyOGJsZXdR8IOUOTwO0qVcZ8u2D28ZB0n25bwfe/fKY9u4/sZnRLwbWIdj1pnYA93o7dR/CMtsoc2kantnHzmVmuOO1IYN44bkyvd+rmbUxDPEGut/sV7DwqmYGoJ04T4Y8v11AuavjY6IGbmp7aBBsZ6l+IQLbtc5NqPCYDSG2sn2e7j930r/fGVhHHShEHRQX7Utl9bGRmZmhO+OZxv6MuDoTMaznf1G8LjPzBHq/haWmaGq+4Pz23NmHYS2Vum1q6vx2WwO5Lt9+hnKn6X65wGWm1L8z+9hQQVE3E2c8e6yz+/Y5784db1MTx3/Gp382O66cDBkvpPst9u6K7qW+PTkHMqP1Jhx7OsmzVPHrayBTuieJGeTdfyLnbsw7XnrYeuYtPNy5njsXMen8HD52NjOTxrvfFK/+Iu/mcDFnz7zlitfVzJh5Kt66N361SO7pztT9xEmv1LmnLuLcWZ8e7bmzIDflZHBmJuzPfoQjZyqUl/mxYv8xdOe9q6KeuIdoh0b15iU+NqH7KaY7Z7zgmFfylN9I581r4o29e/A06uMtWUvdb7h3CbKdaGN8xi91CCQH233NTGJodB+oYicTpq0bWXcgXUzBPUQNLfh1PjaeqvqLSpDc9W83jmWE2jP2dYfeZ8b1bfFap/5vYDucs96QlVl0N4cNGMRtz7POn+KNfHuTO/d0k2+/Xv+5evtyeUS31jxsRWSQ+A9YZuK9Y67OOVmsc54cBeljx0dxRRevWeEjuvPE22DnXidj2bvivYW8+80ZGqf2IPeZtdR9JmJ6npqfqmS96nHtvlQi4n+iasgL+EJ0D07mB9Cd564KwPaZ+0NZWEf6WPU4gshzdGfx7eSQTru3/3N3Lctt41hUC1kaZmbhIEMVS2VhoeqiN9n0d7g/JcuUp5L8/EgiCdwnHiRISoLebKVZ1z48Pjg4AOatt5Po2Hf3yD+9TtwvdSf3zKrwnnrVVqb36dzu2B1mIvtN9xy710jOQHZfRLeD9cxn85+vP4fL7Z1tq4nZvVS9lbIti+DJzFuvMyI9twNZc5q6X+o+QbizPfVCu4xN0+23mrkf48zIgd1rqNshu8+j23ch3T6bjr3+LAwT7xaxe/G9vxUJu1S9zIiEiG/bUvul9jvRKLsIkh0aKnXHgomezPv1gcTMAfkzN3avSWcVsPtN05Xw2+Euc6vo9o7rLuzuRpeswO6l6g3p9lC92+L1OrgPOgZg/fI0VrdT4QbnYXNbhuypN6Nuv9YMFPsZe5GCdkfOzKYbVH6dtqde5T2KVXX79WeBdpE1rqvas3uZeoO6PVLvtnC9xIg8Icxf2b3X7Zsp3K5brsKeeiqzldDt7wPcOdQ9u9ce41DOSDvyjNLt1X3o9muzXM14di9UbxXQ7aF6A+tmja4Xszscaro9CZGwfL+9Ipur7cJ7YW9n1O0d3A9AzxyQfO/hjqTM8PF25RfcG3pt3Q7FDOytOnYvXm+ubt8Wr5exOzIj21eJ2PP3wq52I/fCLsftnW7H7E5HmQ4d3HuCryG5X174736M316t7rd7rruKGeMDYv3LwO7l693RYoO6fQS3R+sleffBfh/evtI1frN1ez/EMHYv7KK6/c3BHTjt2H3fXJA9oL1299uHV3UvzQJ7Q6+g29977Q43B7fImSlab6Ws7hvi9m3pentg/2rl9iKOpubqdlm6J+2FXciTARW/n0Ntg3EOcF+rqi5bx96Hbh/Y3QfeXURMZPdH1+2pcC+g2+VU9za8F/aIfZdCuv0tBveDZ3eM9O7+XLr9zbG7NXiX8IHdV9XtX0Zwe0K9UbgrNWd5MjshA7mN5tu7325Z3Z7A7tdmhVtd1n9eX7djuPs3gN3n89u3kXq389Qbg/urzO3Jur3yy57uquBYasXGUieuJyPp9gR27+AOGH54epmYk7kn3e61uwu72+GtZ/di9Wbrdph/LVlvnN2neTIB6Rb2ZL5MWU9G1e0huB96drc1EDL+SWb3B9bttKuaxO6FdPuSOZlx7D5Gt4PMbxUbS62kmRzl/Pa3FDFzYGIGPOFf/uPr9t5392Anzky5epV5SyvUO4bdM7h9l8LtVfgKL5GTyWF3Wc3YOmuGruI/awPLa+j2YZgJ6vYIu5fx21esNx3uY3Q75PZVPJk+J5MkZgZ2xyBHRiT4UYzVseoc7MV1e8x3L1Nvfk5mznqT4b4fwe1V0lhqtQ2lwsrq9lR2l8R7/K9cio4NjiovqmPfcUTMGhPR7gv47XPXmwj3/ctE3Z7ryZTU7YlixjszFjnvlooZdf2FBB0r2VMr6XbvzACsS+w+pd6V8+203ix2H63bd9meTKF5qW/CFZ7guw/6HTXSa8v2n5UZuqvp2Fsi0m+a3L9j7D663lF++8z1psJ9Ht0ezcGV1u0O7k3/UOBuezvSK/e6jvwsknTs7o50ewd3M2y25iwajd2X8dvnrTcN7vuZdHu1jer2bVHd3sG9gYBvNHYfCN4idp/kt9+Vbu/y7p7dO9hTdl8uJ7NEvdnsPrMnM7NuH9jdYbzR2N0TfA2Hmfbj/WcxMrSijmXsbl0A2Dq47x93XqpUbwrcBx+quG6von57ad3utXvjoN5I7G5Fdt9P8Z/vyW9H2t1tpmkNybvvXxbLty9Tbwa7l9Xt83oymm7v4e4R3qhdVQR457vvHz8nI7L7sHssFTNPpNvT4L7v2b243z6nJ/MWuMIBuce0O3Zm9n0f5sFzMky7w03CL+1X79KMr/e+cjJjuqrZun3E3KXt/LoddFWjRmQtGZGTcjL3pdtFdodwf5KcTBbc99kZyN3qnoyu20FXFd4T4b4f77ffoW4n2p2z+2LrySxXb2JXNVe3R7h9Vk8mpNuVYabGYT6B3R89J5PL7o+ek8ln90VyMkvodidmNHqPsfsT5GQU7e7GVhG7P4nfntlVLanbRU9mId2eEyIQ2P0pcjI8RGBBiACx+9P47RliZpmcTKkMZFi3E3bPhPvIfHt1n7pdgjth96fx28nKCyrcy+v2WecuxXT7temmexM1Ip8hJ5MM9yfy2z3c28uNwN0M9/ZloZxMqblLbwlXeHPG5H5IZPdnyclwuNdoUfsB7s+m2xW4G8Tu+7J++0o5GQz3RpnbERtmeo6cTNd+X9u7FTZM9uz+TLq9q1cUM7dL4IZ7seAHzMnAkpszoXeH9SaL3VP85zv023/37effP72YqQUx8wz5dlpvhN33D+TJhHQ7LJmEww7pIYL9M+Rkfv/8fb07dgdre3N2fwLdjupV2L2jd0HMzJCTmXNeqlBz31VtJC3TpMN9ck6mWkXHut/89Qfy/hvzegjuk3Myd1EvZXfjnw2F+117MiHd3tf8d1eyy4U1Ql81APd/F87J8D/xC+jY/jffX/mfSMsQ7f5ZOCdzD/UK7G6AojmWzslUy60nw2r+ecX7+2cjupCHKNzt58uL8Jdd3lNPbdvuyg+0L3L79k1TskJ7T2nfPiUt4+D+hPUapt0NejKsZLni3S5Yb6XvNeVWtP6iKpnEit/SSm4aDPYD1DIhuD9cs7mtxnA3uf/e3F1ryafehvlFpDvqr4bayTf5aF5rijY8hgQON+dz/qjqfUDYL+enrlXsdx9Jxjh03n/ZsU2GnGU3renfaUfe2P8EiJnhS4JDkwb93Nv80D/7Gx9BzRxVfT7Od1vy+B2o/vz4+PjxJw/k7iYeFGHtV6U03RkN/Wroskhndgb+68ufH99vZ+y+5Uz3FMB3m253d7+lUyKXd/8OY9zf4NtMjPu7gPse/Y288Maxjt3qY6FbIboPM3yQ/eH2gh2z//jfpf0YR/CQnS3eJ0Fld3dGyu/pmFaZvX+i7O7P6MjdYJMmzOn8fkqldwHwJdmdAxyjvQnMVV1Qn/i1bMZ82dZZiAfaBTB7d6RDQibeBW6Pyni/zZ87IyF0m07g4A14tPRq6I/DM/Z6HoyujgB7XKd0zO4eCtpz2N0jGXI6lDINkzHDcXhbkd1t5jVSk7njyXe4pyDaTPNPj4QLFv5MZHfK52RR7aHBM45id9NaxOT+Fb4F7I7PmC3dT3gr1v41mdk1tDeF2b3xF8NZF/QraXc76cs5+qV2PVOE9P7FIeGCBTutJYIVnnEZr4aeMbd7ikjdvRD+bhmfDzKmELvrGsbh2pP5uUH8fgbjrCuwu82BPPuyJcvRR4m9lpDesfuHh8L3X4u05c/43Z/xw5h8P4bjn5o0jsf9Kz64BLt7rPvpHTBO0DyOM2MTrw6Z3q12R3D/WIbdPxD4lmj0jG2Bdmpxt9UROaT9oHIfr93P2KHB/VTWVaUW/JzsXsaesfpRSx4Kx6vafaKYMRrcdWeGSIuAPS/2CEYY8fiMbRG4IyWPwQ4vgIB6n8buWK937E6nYzdIywxHN/dP7ArkFU2Pd5nC+oWqmnFdVeDMqN1UzXfHHUer2DfFhlhb3jkuxO5eyGP54pHfBsl9mu/OnRmV0pvFfPei5ruVP7h1umu2FbJ7YrLd0fsoIzLG7jZA25bYgiq72zCKU8dYqRFZiN17ch+6rS1n94g3U1a7N4DMPbsDc8ZdBZsjagMqj4HDa7j0geMW8zszZhzQJT0zaZiJDDRB4FsAe+MY36JhJjtqJLUN2PHSAw4z9XZlIbATTxLReXuK0nvWgBNW7r37fsbaZgA+dmyQO3OFew3uHt/i4f7D+mOrGX8EyD4NFg9djQgRJF8D7iJAGygMIQKm0YlhHxuwIiOtfky1NfBzC85IcjXyDKd8M354c4J63bO7wvBezIwfaiWjTqJPiSC/OWa0ugS7i3KnINQBs7MtkgXnpkvVZIXMEvIzKEoAj1oAW4neyfBUWtwMjzThsVc46kS0kOETWE1amAZ58bTTeqLOTEaCsjmNVDUgRiNFCwC7JwK9ZtLm/ujd4tFXvh84futFP1ueYBq7e6721wSgbzVJlqBtIoAHqCdRGpAvCLK7yREziN1JR5WI+fkSwmeF8HH/9fbYANoe2Js814Tf64L0PsMlgEQ9VjIM+sC8qUeBPZSONGjhVZQdw/QN1YuN3jjgYaCgJeFfEKhpWWyyNdLyBAmAp6ECz+6O09HbmdjdqXnC7r4He0brEjS9dtexzq+G+6V3JGIszNdYhnVk4YhJA2LipLs0CruzLE05dm8hpFuco0GHSLKGMbrJst3hk48FtyeE+AXYPR6U9CsAp+l1DHX2nbH0PtMVILC7uHMsDBlkQFshd2P9usKSdqddUVGLW6Hvip6CWgbyOI6M4ejYYNFwEcMOJwKejDjBYM282v3seP1MbRk8yorFTB3TMZTv8f2OzJlwukBP13QevTR5uwi7g0sA9jttOe3eGvjcDvlJqnYEdh9mr5p2Ar2zmUwLsPs5FqVB1kwH9xqbjEdBrx9xV3Uau6ePThXrvkoMLzj0kOLZVJAgwyc5M8CN0RQN0ehp/N5aKNhbegFgseNVD9Hu8kRWv6BkArszyM+t3ZkxQ2x3JGYSjMg41sdo+eXJXWB42ayRuT2g6I0wwuohy4x4Qyc9QW9SShWQp+BAK+uaijLeHxWEDAO7JOlPCuA5uS+g3c8RdofrX2+OTM3UzHqUMA+FzGhzZgl2l9icKXmfn5RmctdReoeQZ965rN317qoSGYsJHtpH9UY7ugxa/7ltjcTuRNJzsyakZTzosT2zmO9OgpLImEFi5ihSODNu6gekd7RPsgJ7kDiAbk2aageIRxwe0e4ps7NtEtShhiFSHgsZZMIL2t0QHZPD7kTIoGkgM7C7MJ0vjd2pdg8oFw3sctom/A9n5PQ8C8djnqTO2NRuJubrJOa32L0RhD5md2OEw1jV0L8QN7jCvxxYu5O522RFmiFNkypnorFgbkXmD7FO67GCgSan4TcDYdN+KsvQAG6niZoLRL/WLF6TAncgb4JGZamOrYWhYlvXcmaYrV5QTxlwRYsVDBtDCVFKPRwJ2d2yYVkbWYgDmpHEhSc3iurhChD7qm5qkxiVZANNQOMkze2Ga3SclLDwOSUhjLYU3gR7qBD1IShf0H65f81mdwjVBdmdpCl5nxUJHJyRx2K+Zh1Zjdw91AnarTDWGhI0gN3hlwdY25YsvNHiXAHvzBoobRQ7vk0B/AnHCpAD36pLzxRISipypuEzPjasJ1ofg1JeMuM7tF8f987uLCuvuJN4xDXYXVWljWHkLmGe5IMFD8YdA/8RZ81YxExjdz7USj9yDxKsj02nrCqz+roR1hbm3fFEpyR6T2D3pMsB5cQ2EtQVNYOYHoaD64Hdc+G+NLtbQu+WRybFrmtN6T1x1AlLdypmTM/uGKgxdreQ3ZF0J8vmcXTTzqwAdszuml0jQx4kJEmUoE2c4jS633qW3tMpfILvXkeoXYtLfu0hPxbvx3SjchK7WyxhcLBGXLcjwu61TYnXGNBXNUo63iizoKgzY8MmzfCfW4pthd8Zuxu0nqQRwH4CSxLIAufE1xJr8YynAux+bth0bb5qKp7atzmWaEM/NZfeJ4zMzmHQWG2OoJ2vGQTs8ssBQyPSaXVLFmCiA1U8Ijx1/tOS6wXjOX1oXDUC989/5PbXP38p7b9q+4/a/vV/7q5tR3Fdifphh4CERqFFSyMkUNIi89QSH9LzKTwhtL//xPeyXeXcbNjHTrj0zNMqai0vlx17tDG3NXSryMZPGqv+tcVGbO61PLwfhHuXf5WH11N/bzUBW5rteDyO/CKigcdjOwRD3FhQmLjUJ4wGmxUMeRC63Lj/38heHhcK7993422W4/XNO/zrlXhJwOvxVhBvWHcHS2ei6f6JhUHH4q8bBn6rWFz9MAwXj8XRDwSPxR7/4UUMPO5vR6JR8buqWv+Hr8StWhWrTeJ4r2nwKrivxus+u+1Muf55Id49hlfn+lK8tbksXqQyY9/i6h7R9r9hQCT3r9O5L4KBax2zWseYy340EK28VCxaEwyP+zrdL9geTZfPv9HebB3ercmA1+INvbv1Na/Du0XxAm1fhFe9OXidJTRfXm1mXrpfqX7uqLs6JAyK+5i677cRrWPTjV0reN+oULTmXVMfHkAU24CP1rqVeOFv/2K84bJgu5jgdXj3FF7mw12LF1s99qWrNFS6H8QV0/agr+PBIMi/P5K5rrVuH/brntZtbTRYCwIhXpWKh2V/bdROWlmb7p+T050aqczHqzr2pXib5XiD2jxI+Bfi3RJ4t6nxRlcTMJXY/oWpO6HtRzNmv8a4j/RzkTG7FbuQ+yrZWxEH/tZy3jeS8vIa7hqYu7peku6E1s3HC4dty/DqawFeU4/3lgeHZuYteFlqvPjK4BHvTqm70fa//nhdsZ/i/jHkfsTHMm3vMO5r1rverjLD9rYCIxgdj2qpuqfAu7XXQrzNYrzodjTK4ZSIl1hJY9bMHOh7mrYfU3PfjmEwH9syyXhwDaFo3UvHImxT053WuuOSvixWf47ibRXqpXi9CSzSzJSCl3zyI7oTwQEfqqLc16ZuKfdDH8u2qK9jjrK39jsyiGl1NKp6oZkhtW4mXgB2Cd5W9eoL8doZ2z/B0x4l4iV21FPqfhhMC/bi74fJ2o5EYzH3aV/HhLT73OfREIxv1Xvb6rEMRv9p6T6iddPxTujNYnibdi3ecOtUTN3LwfubMu9K3Q/SqXufIuOna7s/+7Cfzv3Jvk73cvAlBzJtcMGZh+XqngLvch/LWOsW4xbhxfcbowqR//94nb1n/HU07HA4kddhhrajzm4B92lfJ8Rd4tfMb82nZH2rud9iY/bp6T5B66bhXeNjNV5wLcHrVmZwdS8JL7FLsD6KjMj0QN1HtB3r6NL6dhYqu55pw666XqvuKfCu8LEMKh1g+Uy8+E7BmLqXgTdwMWAt8CR1H6vJBMZur18pfbtydh77W/Xucl+Yuna4/LaZku5jNYrJeFf5WMZcB6uBzsVLLAgG6l4WXqIyg6m7/3Wxb9+n9+0M+rm4ttc09+cUItfjXeNj4Zh8DV7CugfqXgpeb3sxZy/J38yzMG6LrAeN+ToZj7S+HXV2YasF92vJ/TYk/6aOPfqUFO86H5sMr0zyy8flT2QRQSF4EXV3PQ3zxN3eMN3n+fZjBt8u+zokIhWsTsloYJHgPzy/jbqf4kPVFHjX+Nh0ePE6pKvuJeElt5HkL0/dT6i6j3H/6jN/n9y3iyoV6dct90EkWvWqVRzkx8ZX9xNYBZwQ70ofmw7vh9xt6RKpuxeFlxL3r1Dd9QTTyUn3mdzP4dsV+ZE6FRzD1O4lW2fYv4FD1RO2RUFKvKt8bEK8sZ31SsSLqrs+sY/BGSZc3UfG7NdX+HZO/iACDc7+2sShk7HoJPtlREh1N+meAu9aH5sQL1D34MyDEvGS23J8Yd7dSfv/jG+HVcgW9Hp6bhlGA5C/0+xX1B+uzZh3/0/42IR4qW0KLkrdS8P7OyLvQWXm5Kv7zHpsJt8uxu2K8dSQXcWjhdwX/Nex2IiXp+6O0ifCu97HJsRLbh58Ed69OLxBsn8BeQ+8u1OaGeP+9UW+3UQDBqQCM8u1x/4O9Had7O5UNDbkLn2f/FH0NHjX+tiUeGM70ZSIN7rNGAunUoHAj3I/qW9n2JOLKhpMhaIhmW/G7R1g/0b5O9nPieaqu/2DvyfBO9nHvgYvvTX8oO4F4qUrM6i6m+W/J6Pukbm2a2rfrm4/GoD8DREQFYuuliHpTERUKFQ8InuwfqbBO8vHZsc7Qd2LwkuW3R11DyT+JNSdeCY9JH8+3z7EgrFoPVazv1Px6DT7N8Olerpug6q7593X413vYxPjDU7+ALvllYiXnlRV00xS18NJ1dMh5L55Jj2fb9+iEVGx8IYysn8z383opetqeG1A804OcdQ9Bd7ZPjYzXmr3SZ7yJeId8e5Gy6FtVxpPPZP+Mt/eKPY31DybaJ3+cGKguL+R3O80/709WB11X413rY/NgBec93Fxls7wdC8QL/U0kzEz2qmDFZGqJOnvnQYmHq4Z6u0Y9RsZD7Kvs+z3o6FjUhtbN67uq/HO9bH58cb2Fi4R75DUZ30HDVN3+w/kM+mv8+38VVHs7+wX/lXg5w1EQ7bOervJ6j4fbwofmxyvd2K9s2ymRLx+mjv6jqq7mXBCOjtyPWieervD/khnZ6JRu9EAvZz6HFH3VXjX15/T4x1R9+LwuurunXTATuEglVb3a2z+IZ9vJ8LhcH+4YAPRsM6uh+qOnaSwCm86H5sUr3u208XZSKxEvL9jC97ZIdawfQKvOX37NmR+xXhn147QX8WjRqLRwXH7bhM7M2cd3gU+9gV4Y9NMJeIV6m6s+1fg3aekO71PYH7fTlg7yH2s1TISPCK9ugT/YwflrMCbzscmxhuoO5D3EvHa3D5j3n2iuh9J7qfz7eioveKvxg9DBwPDWxtGwzDf8L8nzAyi7rPxLvCxL8E70bsXg/c3WZaZmu7OPoHXTPX2LebrKjVub6Z6Ot2knxNv/aYH/N94x387p/4txrvAx74KL1aZ0fpeIt6YuIt0PxEvne5HOGbP5NsZUY+V3Lfh6Fzea+4T8bCt1yOZjXsc+Cei7kvwzl438jK8gbqDMzxKxDtB3U9mMhV8+rOqWX37lqjHSu6bcHQu7ynuq2j0/IWpuxmfeo95LMS7wMe+Dm/g3cFx8yXidbz712zvLi3de3w7j0YFw2Ho3+mYRKJh+W+5D9T9E/gZoO5L8KbysTnwIpUZQ4AS8Q5pLg4hRs+Unz5UJZ/TzefbK819EY4OxCISCcD93uM+v3aud3fXRy7Cm87HZsHrJPkFar07VC0FrxL2Mzq7Opbux9iYPbNvb5Svk1sewxk2GQ15I3GRAxgxcFe873eiJruzdXeR5Qd+rP0nVPcleFP52Dx44+peHl7g288LKjPEmD2/bwfcb0Clqovy3kRkCEfvMX8nLuPdD+qRPU/dZ+JN52Mz4cXV3Xr30vAabT8vL0S+xbcb7vNzqJwybLSz24hodJL3vbZ2m10v7p0pyyh1P3wGs6pv8rF58BLqftHevTS8K9X97b5dHpZs5tfaMfb3/AJzbYL3mvtW3cEBg6b9J3xsYrxj6l4a3rXq/n7fzo/msfWpeEgG7vfi5VSnNiogw+2fQcXl3Un39/vYpHjHKjOl4V2r7u+ot0Puq/OSWzNuUaFoae4Ptq6Xzk5/7oC6qxkmpL2t/pwR72hlpjC869T9Lb6dmXrsEA+mzpDtzHgdDUWvPwXjubVT8dhIU6fjERwvCOZY3+Vjc+IdUffi8K6uzORbJ8OIdRSN4n7VqPOSHfYTnFefYYPc392wAzWhur9j3UhOvOOVmbLwrlH3rM+lUk+2VJz9uqtjOh6G9S3BexESMe9g4+D0dTwYu50j6HpuVad71uc06ZnFnHhtJQapzBSI93z+PU3df4Fbp/sbnkvlIakC8lcVaeaUnyO43zvcD9TdNTNZn9PcvgWvSXVM3QvEez5H1f2XuZyEF/+Q8blURq9/Nr6O6VhY+kcLVCPRuInXKdIyP6f5Frwfev0v5t0LxDtf3Y28X5M/lzq054NqrVgj1zBTnlJvlTJ3CP8N93uK+7zddCyEupuCO1z2rrx7vuc0sZ3i4JrAXHhxddeVmRc9l/pCvNPVHQq8+AckFmt9e3P/JtudwXosq2BXx3s7ivSRaOwU/2+Bdw/czNCm413rYxtVoqiy4/1Quyo5a39VymfFK0E/7z/f96fBnP/3HVN3LeeOm5EtQ719yPY7Iuw/3z/8f8Ah4ZUiv201Svw47w39b7ubVXch759Opqt0f4GPfT70rw+0Lh9eysjwj9x4ea4rJRu6bma77ox4R9Rd5zmq7qnr7dvn9/cT6+ke34/hZfNdODzr6wL692bELr65Idn4EiAjsePvt1DTraN5Qf35yRPg5+lrXT68H+6eeeDZpkHdM+JtH7If/7k/ZM7/PDqQ7NnwxtXd5LnO8gNw8Ed0KcWaevvj+4cR6d4wo+9myO6yv0V6uSnsH7jPm4jGDV8tg6r7Mf05RK2Su05bmex4zR6RNu9N4mfD25kUf8o/deo/s+MdVXeY8E6J5uAGYp+g3o6neyPUXeT7Q/V0zGO+Q//ednWC+8bbdXaw7kVDKgBViETSnca75hyioQeT3RiT2wmZNYHZ8H4gJXc9ds2C11iY+6MDPH+qQdv92WbFO+LdfwH/oly7cfDeKCZBvZ2nO7Yt5kPm+Y/M94oFxq6q+eUP2MfG7DfL/Zvg/s1693i67xf3ZdH5hbug+/Bu+3XcyCbDa4aoF3fQ6ql7Krwgq/1VYY3lQUa8k9Td8zOBuotArK+3o2am0ereNK3I96CbMxGBvZwdxXSK9p03YseiMVHdabxzfOzze3p7ZMIL1R2mvavuafAqxD/3Z/gLy4zvpcu5V1Wu33eCd4fq/ovy7iIaa89LRdJdzLYpdZf5XoUJL7gvB+8mGjoCNPdvNxsN3cKVMoR3x/DOqT9vuYpPbz9VHrxglHqBGh9491V47e/7DS2MPDCVMdiXtbwMV2X7fc+w4ZUZrypjsj+tb0fVvTHqLoPxxIVORkR1d7ar6/reH7ZD7nvREPw/RNxMah/biiIrH7HRTVdmewRxCrzKsav74sh8et/u/76dYPy9c0qQD4/bSX/fM9VcdQ/E3ZqZRL7dUfeH6sJVT2fSXeT7k+A+P5PHn2XriLG6jIPX08l0l8kenDlo0j2xbxcovb7dtqeAi0h7nQavTPaLyne7PAyoe0K8XrobN/eE4xSe7tl+XyrZz1jdHVf3JL7dZf8dTqQCdW8qle8o91U8OjCMwXyd8XQ9DMg/t39209Q9jY/VY/Ig3Z18f2JodQokwCt0XAq7EXdf3dPhddO9E7VIYde7xtZcMXVP9vvG1d0tt3vN7enW+naH/e1TtNZX94qT//ub4L7Hf2Ks3sM+budwX6q7lnf/juJdXG+36f4/5q5mx3FWiUZqO06iVstpTTYtTZQsPKtI/SB+Fa8sv7+u+SkooMBgKvouSfe0Zneg6nDqB+iNrdudPTB3zO0MeJW5G3I3dSbD7qx4XXOfRFFxxbq4BRXP3HnXd4vdIfloiqn24/ZSVOr2SKiqVN2M9e3omrvRsXg+jN87vq/d3vj+4Dr/+jHsfk1qd558+2Px2X0Z1TB7GbD7QnN7PV7D7vprMzVYuzPVF7z1Vcglm73QWT2S3bnwbrL7+rE9wD677/d9Usfi6TBPN7SHfvDyFCHb2eHVHCgCMLrO932k3X9I7b5/LwvxPka53GDugtuhh+Rl9jJl7pPNzTHj1ez+bcW7U1XlxOub+woNdJtU73Au1TV3Zrxpdv9Sxi6+4fBrbvXvLvnsbvpGlmm0A5l753OdGAM9IdrvtaBDum4dDXzgsbWtvDuDbh9VgxAWM+NLA4T7VYy5Qz6qY8YL7G7IHdWdmPGeAnMfgdRGGazqPhls7tzru8nuxt7DD0wEj273vF+Tu71KygTrS8ju7kh4v9nhwpgd2F1TeUS7f7L1yaheAbSlr79GGaOIvb3VN04oc3+OStN07HghEWml+91Eq7x43fVd0T5er4fOtYu/TDGFYHcuvM0Wu18T/F7g+5l9Iy67E/eNeOaO4rbA/wfa9wfj9wOaBeP++pk1MjlTsJdt412XeHRD1V4QPpg7XDihtfsAhSZuvIjd787JvSDvztEX5K7vuPq7XNr1v/X6eqEq9/pu5t2/EvzOl28PvX8hxuCZO+x04XhGNF1YZfOc/xdeFsS5GfjFmm+foNfZVhcwu3vmLvJRCyDmxGvLTJrdbYfkN39fkFnfHjIyD4V3MYCRubOvLwe7c76X6ufdyQg1ZPcunBMygNHzMbjCDnFdg8RMjN2Z8u1ayuBQVWp3lXoye5lJRI4qWuXGa9kdtULqwavbid1bt/yJAH22haWQ3RnxbrF7nN6//rDqdjsdfcTcJ9fcO0rXiXEUnyfl+7+/7i7nMp1id/tKyRW9ViI4n7O/3R5kecnmZpVrN5kZQ3XG3CeBumu58d7d4TzVxN/Pr81d7WXiKMsoQlTZGDYF7M67vsrqa9mdT7cTiUgbpeKiss/uhO+L+TiGvu/H68j3f13tjkzeKJorp45dN3A/+7ziBS+fzDlNY+4LBKu8eH1zxy1jf97Qz29D1UUbO1TTouzOgrfRf2VnZih2575PZja5Kb/fOzD3mO8f4WPm49ftBHX8v0F/XCAR6dG7Sbz/YdSxk1l4rN1DvLaqKnOR7Hgj7C6/f9j7+cX66q6/BZ/FbPth8cydd33FvxJvDbt/cup27P3O6retS+8oVI34vpoNOSG/uGeI9H/r+79Ncw7Z3aj5K4V3r44dA3NH1t7HzJ0fb8DuqEuMV7e77P601u4f5ZhBtfKtr/694q3T7oy63Xp/j/tGPFt32T3l+91RE8BvKmhv4J/V98UIyP0Hszufjh0hUj3IcE1gXsbZ1FKFrJ0Dc38D3ntI70a98+p2d/ceo9auOyZ41rexFt9IwFtVVTNCeufV7ThUDfLtpHZP+X5nntT8HWzETgg7k5EVHXOruUfZ/frDqWNddtcW8BpULXW2obnH7ux442LmfufV7bq0pnbvdaEfrrWvHj4obp+deloVXhOhKu8+R839b2Du2uLVj2R39nsgtfc70p1wfmD3uO93R/yG7JCO19WUyMk4N2DfFLtz6tgJclAHOG8ubHyU5P6QBzblwS0boT4JdmfAe7+H/A6/eXU7tMnoroEZbtjoW+hzHdXirhFsJAdViveCo5SzAJzP7uH49Fy/Trc77P7cLjMldR32f/l6A112uEAEcz6f1XxoW/9x5Yyy90+a6nbp2HV5HypKeelzuOqcg+qRkiYuD7E5mZmu67jxhuSuS6yC3RnxGsW+6KyMfXcJygo6LbX6+cy1vgoxxpvP7tcvV8V/8ep2dcHGCD1D0TJTp9k9oesc5xdPDK4/50DcXYDuzFxo7X7NYfdKHbvoCPXQa3YXVVbdKTArpPKfBaqp63bwDrwhsX+D2d95dbtEq317lsq9Ra9zrCv/lN1x0/B6PVnW12QhBVyFdie7XzW7fxLsvlfX4VC1n7fKTFm6DibjfF6/Z2JGGrXuav2lARjjprR7IN4q4pQRKi7K3GVeblaNj7NacIfdRSYjxu01eNPszojXaDhHyxidOpjEu0rMMKyv0G0arfbvHdod8Typ3ffe762PYI/xfDuEp8Lcc3WdnAz5hKx8RdaM37PyefOPlrIoM4M73VVXwSeVqdgbp8x6X+9NIf3RrxYuDF0WYJ6zo91X8h/egZckd/27Di/5NseizqWGV4qIHonnPE2LMPylcn21lRvIDXB7MbtfHe0ek+677vcGdqdrqU6oWqTr0GQgA9A+rxffzAiZmdEeEGG7nTp2Je+HYffZ2cKguPo0Ymahyb0ebximGnK/V+INL1BRXUF979zzvKg1HZ+Lxr/+zbm+DeL2BLuLkS4zBba+935v8P3esnsb43a59Nm67mx935kM8P0GeKBptJgJNbuR8iHT7dexUr1L3ybMXdn7OEAishOnuX7fgveeGOV4o/e391BJW172lL25DG9aNfv8lOe0BVxx3/NSt74Y8dly+6a5pzMzvv/n3u99og0ei5mWSEFads/XdTAZx8D1YXNXiw/sjmJVaA2D3GRiLyvWsaoNTsRtav3NSdynkrLLjBIywvyX9+DNNveid7VOh9iV9b296LO3ZVRx18ysE5GTKjt01XjB2hvgdpWI/Gc+pLlf6RqTa+42Q1WuY3vbNWDM3eRjiUP4Ibt7uq5zhB05Fw7b2cX32B2M/Rqw+ynNdlk6drX3Bdi9p3Vb24mwtVt/z2/Cm2nuhXgjti6Opj3gok+/a0DVl1q1uO4Sl+L14pRCdr9msvtuHWveSgZzjxG7TFAtpOsTuu7shO0h1zU4ktGzYtkdfwkx81nxPmyPu4L06tN4nyI903Xvw0uVmODvCrzE9g0vDQl7n5wVliWm56yryGOE3cvxojjlDB6+ye7RHoKvYJ/br9vtBRv6NqERj+mJ+599c4/oOjdmR/5PxewBu4fGjsw9vZdl6Fh0C2gvrsONDVlazYxT9uGlq6rfLrvX4LXvpcK5Y2Hv4wOrU3m+Q5SNh0WJeC8wL8MLvo3DFH7tXqDrTvR7mobdRV6KvP82GqpS1Qez0VHurw0A7e++dt9i91odC2/MbdyFOsW5nQNvXMp83znX13lnagpugpuB1Fe869+DC7UQr820W7wA+V+K3nPM3eSn6t5LFR84o9u33vt7T9z/HGd3Kow5hvOBchRm2c/Z7F6F13JdC41BY/Li38w+md14t7U75/rimw+dm22fMgM5jSveJdzQSvA6VSWX2bW517L7qUy3R5Vsq8VMTLdre3fN/UjqOhTEEIuPcxTenOSw+6k6TsFcp+8HlLUlM0T+QnYJZer23XiFWd/0T4zdq9fXfUNQ0NkgBPzToXfo+5tCIVOE1/J6yO3vZvf0+6GY69oDuoGhb+mkTBdld8r56Zjdy1G4UraW3fN0u8d1uqyI93d10UZB38hevNjAb+Xsnru+vffQlCwtjIuTnREOv0r3OWgOKsB7jmg2NnZ3a22F74eiHIX0fWHuyta9G49xvz82d+P7YRRjNrkjlX1uInNyTdh7Od4T3Svhc51it9kVs+uW3mbq9gq8ysodfv922J1hfT289koRBHl8wauTC26XOOoVzsbb+Dkoh9sr2f1k5mNXn0zAdepq7z40dny2hWb3ozMlTsxObO0RrjM9Mz9XYpTjPWRyXT/473NItu8y6wsVeNPanXt9cT2lN4JGdTsLtp/V203LzvVt3FiFGluZmQ/6Kz5cuv2gcxSY3T0pg+0dmTs+yUXqOpLpUvvdNTGq8ca5blRaHQ+Riy7W7cV4V1K/GSFzC8UMr26Hi/F63Twge+EmQfKiI05YuSg0LAG35+I1yccIt2/l3Uljlz/A7gX59piu642O1Xcu+I+uuWeXTOf3Ma3ryJg9pWO3zb0Cb5Lr5khepki378JrtEyM3RnWF/C2yOBRgUlpmm5QEmZYcnU7nYNK6PZ9eXeP3Wt1e3s44Lcq5mhWxpL7lIhSN2L2c0LX5bH7bryEbrd3J9FjKdTt5XiB3cHkbwG7c+p2ecdvH1SY6LOYGbr9eC7R7TnsHn6A3L9YdB0Ssrq8NCaHtYJI/jkZszdJ37/UsHtWn4zLdUjKUDXVl1tveQteZOCG5uEPXt3e9oGxS0EzLZGzS45uz8tBpXW7wFvP7lW6vTW6Xa7/Y8x4dHHJzD9TMfs56ftZ7M6q272sDCRcW38fy6kv7MGr2P1GpiM/efPthLE7b3O0BLsX4N3W7Tk9MwS7o0Qkfz52mbfGEO+j2IrZ07rusn42zH0fXlK3Gx27BFkZG6VgOfMWvKSKsebOtr4Ka08/mErXF7oCvDm6/ZLB7hCZfiBy/zDsXq/bw3xsSre7e11Sxx7pjsA0122LGTbdbrd2cb8M/c6YONUxbHVJ1eE12h2JGCxm2HT7gZAy3cY9kAV4c3R7Lrtb/eKy+75zi5breiofm+H7urYUzcdGYvakrpPOv7I7+QqVNve6c5qebkdx6hy7zxz6R47p/HMF3iAFiVi+en2tbj+ECTfy3Z28+gLdJ5OFN4/dPxztrs2+vk8GdLuYjj5VS23JGSntG9nQdTZUpe2dU7dbrluDtbh/T9PwXrx+ZgYPzj4ZwNvT9ZS2ri9oW7dfTKiao9098a5+Tix9MprriKnYvCewqm+E8v3mco2T+5U33x5s7NG97J14cd7dFzNs+XYCrnoslWV9t3X7xUj3S15m5oNIzXyhS8Mq+mSM7x+itdSWv2+E5LqLDlUj9r4Tb1hbPMDi93TPZ9tt93sz4Q15/YbZfff6buTb8QpXr2+Gbpe2LvDm5d2/qMw7Zz623PdT+dh9Onadjh3svlu391ncfoz1e/Pgva3jfrPDETNcur1v8/ey0vXd1u0X/RXuffmHRpTdPyyro8j1VN3fnszHdu0+XZfRNxLjOmHuCXbn0+09TXaR/PMb8d7u9mOI/Qbmzqbb++y9rHh9M/LtYO2NNPe/0c/Ble5u58wXi24/6HxsX+b7dX0jMa4rZve9ur0t4LrunXgVuSt7138Zg+fT7e271jdLt1tuB3b/q77pqmrI7rX97UbXxc8uFeu60r6RC+K6LXavz7eDe/f5eIv6RkrxupbuyvgTV58MWVDhWd8s3W643bC7+gbsHnbLJNl9v67rd+i6rr5vBMXslx3sXpNv///Aawxd/8LBKtv6vgtvoW4HdjfWjsc/j90/cMlJ/gT73Km0v30vtzP2jZiYHcw9ye5leKnaYk8j/q/w3pB4dwusvrlnrm/Pwe2MfTIOt2t2VwTvUjuwu/iKIf/6+oD/WX9o38/vb4eQrS/kdsa+kYvn/P+j7mqaG0ehoLdiyyMfXEqlfNlK5uiT/wl/hRPF/68V7/HxgIcEEkqyzmbszMxOVYumaR4N3OBw4wLhm/CW1hbTSdsP4yVW5pHGxba2715t75aTybTdenfP9Vjcv04kN5BnxdK+H84BXcm3H+XbW3MjtzBxuxEzU6PuFXhLa4u/Ci9xMn8fSQV+S/vy2j4dgrfVtyfqnok7ybvHb/jF2rrTer4dtrWEtbapSz22PTdyy9oe1B35fl9T92W8C1o3bZqnHIU3qstYwrOrqrXt28m3D/tzMoy2O++eVWaeX1TdaYogvKW+7hSfebuaby+stXXKUVTUn295+xelPaJ7Bd5uNYpj8UZGpqjule07fSfedt8e1D0Xd1T3O7ed6S1X99Of1hrFxrW2brkRtu8D3WvUfRlvR607Gi+dp6K6s959a/sehXeTb0/UnXr3Z3nzXmZmiK9bOfN2/1pbx9wI7fvniO4r3r0CbzetOxovJgcS7/6I6V7bvof69i05GQZvZN3T9Eyi7rZA42o1TI1q+eys3Wtt+85XWe/7SHc88HhB3ZfxdtS64/Emy0zO0sCvze17+Sa8G317vMxEzXs2VY2cTKzuJ+fnFs/OivLt3X1de26E7fuRut+Tr/dqvN207ni8NhhGAwSe8U3te6xv35WTib37Vy7uT6rupNju6+9B3U/U4a2ceXuMr2vPjRT7foW6r+E93rd3xfug60wkSfBwZqa+fadvwrvZt0dT1a9nrO7mu0rdXd9fv6vim3IUW31spbqv4f0G394P74OYd6fqbrmppX2P9e27cjLnmO5E3RNxf54Y556sqvoYRcPaYs967KbcSKnvV6n7Et7uvv1ovI7stBjp5P1Xtu8O306mqol3R2fzdaJe5h7/8BapO/q5hUsGj/OxW3Ijhb5/u92tlsdXyaLkV+E93rd3xftISjOW+Y9HVJlZad/fnJM5c2ZmybvfU6qj0oOZIfXY6nz7kTmK9dzIYt//uHmKM1+reL+p3t4N7wcpRMa1GVeZqW3fX52ToXjD8lLq3bPKDKvudsGtfF/qwb69/XyVhb4/qzsj7u6rAu/xvr0z3gfle5IFrm3fX5yTOfNTVca7P78SM1NQ9x+sx27KjSxpe426/2C9/QC8oQ4ZSTtR91/Uvvt8+4dT98y7P9lV1bK6L9fbT0y9ffoNuZH8mXzUqfuP1du7403q7tGUtap9f3NOJsP78fFkCu/e0Jx8Feb+xqn7KcrInary7b8vNxI6/8dHyvH3iO4LeP9HORmKNxd3qu517fvbczIU7/OZnkUQbd4rvO5vSWVmKSdz+uW5EfpEOB/jLlFewfu/yclQvI/4RSIFf//WtO//ISdD8cZsf9KApJmqvlE5p2QndfeWfPul9hzI/ufJVPT9XN0d44mZOTgT+L14M7LHlZmfy7d3zMlQvIm6k8AYqvudyHkIEBB1b8q3T9k27OLZeKyvoxOYbrkR+kRYdX+n6t5N664/lZOheB+ZvAcD/z1j2UK9vatvR7ypupN9TVbdeSuD6r7P112az4Ech6F/biT0favu7+TbfwR13+fbL+vnQLbs5emBl/MyUd19V/si3H5j2X68z2dmZ768q6Fm5p6QHdV96W5oLt+ulSqejae4vk9eGh5Hac4+7vaxN6D7e1hGvQd5d+pewNuudby6x937oJwMxfsoy/vftfatGsuuFyUXtF2rmOu0Y8vOvv2W0v2LlmlQ3e+xqt+pup9qz2+/TORilvhxKGEvZNEivh3cj3SD1Pgw5EvgIwmNrwTD+e19H+l+jyuRnvw7fXt6N8d1pXcTreM69vacDMVbmqqCuu/z7U7b03alZxoLaFJ27DZX9fCY9+DN1Z3s5TvFpZjktebbab7dC90M3l+7JvGm5PhqFnrvGHT9+e8IaT6Yd//CJ2Au5jSkJ689fd9PVbnMzH2nb5f5vWqOB9yNVBKbXrI3UGaatxUvo+4+N9PBtxsnI16qOJbNnI67N+ncM3ImGrQTbzZT/QoC7+h+z4uQsMxUm2+3dFf26jx4u9gmnjl99Y1uLhJNm3yAywgF0J688CFoc+tsTIk9fR/p/s4T/l7r2/09U9k92KWLU8Urv2BQgtgV6d5F20tmBr/2+nZ8Sy85N8JGcZLODx2c/7Mevv2DNTNE30+xZb/HzF/27VN2xxy9LNfQfQYoqaeLbpqDkU7aTi+FHiSix0fg9Q34Pg8T8zgB0m/ozhx5W9n3F9R9/q727Sf22q1FdZeJkxFB3cU4jofMUzi601Nndvp2WbwZuXC9ogATw/9ZL7xP3rx/RXV3Tt9nujfeDW38C/p17VwN6fDS/KKojw10B+P+UqbvvxSMc4EDlvoCnN7Zqfu4qe+zdPduvvYcyMKZxiXfPgDdhza69/CxrLo7rs/fte078dqu/EW4aQcX1JW6l/B0l8zL9fC9eHnvbgW+uKoa1L0m3z6F8Vz5N0P3oO0ivRE9prvSaqYzDO0KuK18w2sxerqfR6vuG/s+Q/f3RN1r75jjLxC88Nfl5u0vwMwkPTsmewet49Q9vNfflzqxp6ggZGamGk9QfQcXA07HbLvGwDvhzVdVSWlmhe4Vvt1p+2THN4F3zV3SCbuhezTjFJTuan4Uem5+Y+OFmhkusuY3dJ+Ro7pv1fZAdxohiNW98o65qbL+DCMZP1Ut072Pj+XVPbyqfDs3lrnBDCCmV90PSPdUvjO6R8C74X1mLzJfXaP7er49ma8D0SUUZ0DdI7rHZo/QXdrGV0YFs/oUdvz5L5vnwUxVa/r+LaF7tsgE6r54Yn18DuRU0nb2bg43I7HD/gurUr7VM8+vxp1ad6uj+5/tY5lbT5H5TBXG7rR3+3r7THcZnoK1QN3wPjm+R5mZberubB25H1haDNCqFwLHmxlQfFA7YmYUlClmIyNergwjNRqYMGkHult1367txMy8eydTUvfiXq2JlfalertFat/C+sJg6Z4p/9hH6zap+9pYhniV4Kw7dGN0qkn1xa8vzHQXfCWqB94ltq+bmZq1Rb4SR3+K6Q41mdD6s/WZJ6lQjURdV/gI1YiPRbgZq6f79r5PzQwNQzp1X69BFbXuVXhJUoMidPf1Z0N3FWZz+EF30rpVuv/ZOJYV6jII2Nt105LCrTBpm/id6a4oVvNS3fA+l9xMg7qzvj2+MBVbzcIw1MYpmZSE7q7P09YXen4cBr5zL8r8DfvZ0F06mZAx3Zv7/mZ1n1bPNF5sffMUqJl54ag18EWosZvWNah721jmPZvOrbuLhOAao3LMF9qrO0xUTTVC2WG8H16e7fEyU52Z4XwdU32G2er8PFDJxYtWZgRx7nSqanx77Ne1InT3/5tI1b2i7/Pqzr3q74ZeyMlkXtYiFYWVU57uO7SuSd333asFcEXu24HdBqJSc29wMq8o3RGq8PO0XnifS3xvVnfo+fGcfUoHOYE+lqe7tEWpiO75wBhmq4m6i9eevl9N9/IZC2tnGscVV6t14qVSM+NyQSKj+7mf1m1U96n+fP6kDOnxmkCIhpYVKPO+RYHuphtQunfD+yzNVRvNDHdf6pSmwcJILRvoPspkuuMfzhnpbtrfenfx2tP3G9S9eF/qcr49EvfBat1gkyOB7iOn6OFzL61rVPf2sUzHLed9O3DdTshi+dKG7jpaO+yJt0j2mkLkgm+HxxBfhy2jxWSG7gPr3cPKonMw4Skg3ZHnlu4qu62ivu83qjsdyyrPNPZqN3vVkPe2K4l2embf1FhU915aV0n3PWNZEhMgL3QwBiysGg7EvKl0MO+G91l2Mw3qntfbS/VYY+YuV0/0de9OFtLduw0MwPf8W+dI3WVyXW5L3/9sVPepNd8exB37t1tFK8ceBVE+S/1+WvdZq+4T4XzDWHaNc0KG7lcfg8IIoMk90uEMPydlSnXuhbfHVJWrtzNri6Y2o2Y4GpITr5Tuof4cmRlCdxFT4IxmBsFndG/v+5/zf1V0tz17WrwKm9N2F4Ib8KPbzSFfYV0ljP7SYlWpuvfSdoO3Qd25fHvd+fwh4B0VZaSdlmkAOeTmzSZDeuJ9PhdKkQ3qPnE1mTwDawqRM7f13NwiVfeB0l2rIcuNOKWz+Rg3VT0rSndx1rG6V/d9p+5vFepuAXu+1+1dovNUEhzBj/CrT7zFdTns2oIkfztoHar7v9Xqvu8sOOmLjriFQXnzLqm8Z3S3QDdkXDm8z6VXtbqnPpYLDV0hQyAhLSBchYqqO7S4LUAbn5fSXbtie6LuUgS6S/Mz+He8VbHB132aL39V8pq6c759bQ/+bFqUyw0MhO/Yy5HuA4ATLyvq0tp1T4V+vh3wVqr75jMHtA4uPuzTU34jgzHvkpJ8/lHRlKT9pHetlQe8Heg+ndi1ton17eZbg8JndKfzGhP2B7oTzy7ICqrPyL1M5wh0n/9pb2hafd389Vmj7lM4ZaHpzIEkzx8GdzdVEaZzqxdAUrHYOXXv6dsNXqPu/67QfQq705q1XeD+HR2x3c9UkemS7tTjMgT5ZHUz3v10L6y15Q8CVpZA1WevhkLn6A7S5jyrJN4d1F1LDLm/lHq5fJSNwZ5hZY6Y9vmfnr2SvR66zdfNT+PzXhb3e+Tc27WdWhm3iEr24Dq6Q1nCWZnxRaw70L2jjzV4K9R94urtlefJaDtSG0TRLntw7/PvOe1SdmpulE0y+5lUJ7w76T7xfZ+bp5pC5AXpDlmCq6f7kEagPd1DU0PZasQ5jmf8GUry6hzRXbjae6uv+wS6F8X9TvBOp/p7pnzLh4yAf9HVJUN301WB7zJaUz271KfYulerhHdN3Se6z37TWWFuXqoTYTe/gx1a252pIrXuo+BKkLvw7qH7FDvZZW23sQHv2SWl+5DRXUsX9TU7uEkYDHVBorYbdmtamTlr2K+6ydcB3e2NyUV1d5O2Zq3TkVUzg5hC0HYh3a25KBeCk8AFZ9sULq/t26uV411Ud9e+F1uJaj8rDHevaCtSXtvxBwh8ipCWkC4q449QYui+E+8+dZ+ci13XdhMAhki7gEmbuAa6ZycwSAG1aExJCcsQ7RfeIAqM6y3aDe/+yZhhsVXb/dP4dOJuLc0bVXvq3TZonXVq6krr7cp7GViEczE4u66uwjIq/nGnGkXAu6Lu0/47E3EtDQB5vissMAvXv7FZwdOIcELe2ar72BHvGt3/Kf9Hxrmpcq3NaBTM1ZVfXMSVRSmy3ZqO4LO2S5Xs5pDzn8UPwtu7m5b6vMm3WzMTijOe7G+O7vvOgczOk0HQUmGdIkKpIMivpLcypj7BN/1WH1ul7n3ONMZUWHKEjtmVRlTMShk9YyHy7F3wrqt7ie1vxftSL7XnIg4hIzdkp0mNI3tWWLRPs+Dszrctvs6aGafmb07k3yLvftpXf4aczJVDPJZOHFjKwO7xsVXq3uVerWuxfXm0Z9q+Y0+8y3T/B3i94N2nqT03Eu1b+4+7c+tR1GnCuPzb0TAkRNhwQzZe6vX73TZ7sZ/+HRW669gHaEABPM1MJil9ePxVddEtzBRYnqLWmBvsnb4b357FG/xcN7r7sHyDK9IMip+5zpQ2D6SbBVKeCtR63Xifi2Mj3H2ROY1LMFfYMnOj6fHGuLu8m/lep82Jqc0Bi9aYOyp+l+jtw7vxC7o7pBgDUtXLHK87yXMag5DZJKBk3aUs3o7j9bt7nnW15GBP2nc3nE+mzB1vBLt73H1C3wg/99ksoL5Jnt27UErfdKneDrkOuDuiGGPZ/eLSlPR4z/JaFc7XTxHzyZQZOTbK3Wd/vsJqBWq8fE5jmWSmxxuQe6G7e3HIc+6zaW/tm3GSZ80qy6Pu7t+TuJ2wu8tTDcAZHG5yvKezMoM3WqviRHKUY5nV62i8L3d3O3X3PGtzSJ9vyefwPtK5wsSPd1a8bXwhsrBpqq3MXC6zvZ29Fydl7n70qZfi7EnzuN1VZkbRQ5s3L3e/TObYs7DGXAlPb996qeUCHCu5OxT+M9j5n+9J/nxj1sIu4z7ehHgfcm+HXXT3YpR3Qas0h0xrYYted9IU76nJJHv7b3LuK+xuoLtfpsZ7OgtrkThuD6yXOmlutHC8IXe/XC751ubAn6+QqXjnCjvmiDfO3Qucs76O+d7Ov9nLFWsylOt0dx9S1aXiFeoUeN2lchFuj3D3y2GpeNPW5pjk7VK81tklez9YcQOVj5I388/9M/9m96y5Zt+To1qDnsDtBGaAuxvi7pniFb09sF5qFm+X4vW5e+56eyhe7xy/E3pcpXhHjbe+YaahPuNGmJ4P9rPPwnUlOft1js1Tk+FcR9wdqP3107lep8QbXC+1zNwnE+vuC32+kdx+zM7tg9xbRexDZUZxdyf3LGtDn0JrJeeuyXCuw+5ec3dfLN7AeqkLcbvf3fsuL7f74w1z+zFLvO1g7UqqCtwdDTE9blk51j+Wijk2Q01G4rrfd5+7j3LPHO9JTMqPub1dizfs7qvEuwq3P+LVrZ26O7Z35+7LrA190jn2qCTtU7iOpapY5pK7Z4/3pIwrLsHtPFUNunv2tbDX5Haeqg6VSMXdC+DuRPALrJUscjvl2HKBevvz3P/ZUW8YY/e58Z7F9UPLYL19EW5/xhty93XiXYXbn/GOOm91dy+UpshsHJuyfqg0tJiJ2x/viFiGhO6ePV5alFun3j7G20vbWJlZZi1sId51uP0RrzV3dZipGO7oUSjr8kzgOr2PIlx/Pubi9p/9fh/WW3N34NKm7PEqHLtGvX2MV5a7dfdV4l2J25/xts/tNjxIDcDq7tbluazG7WKWeszD7Y/34yVztEN3zx7vmvV2Kd6Au68Sr4/bvzNy+yPe9jnK1MpdBCG5f/G3YjrXRXE78bpv3ezSue6xAZ1DwQ/uPifeUxTHHlfk9nvQ3ZePN7SG4DFzvIO53yRzBz0z0n4RV1xbk9vz9FG4c9/CDFK8dffs8dKg16u3j/F63X2FeINrCH4fs8brtN5yfw+6++HLu3bDbG731Z+zcx1yd4wzo7vni/cNuD3C3RePN/e1S6F4LclAsbdA7rrexWkgc3O77nXf0/ufZa4b3R0rvrY/yB3v1tyuyn0QvWdFvXXq7QvEO+apg+oVmAHVGfd4Ca7dkMZ1p8T6c8567LgRax+WDH8+NdPjPb8lt3vl/uPvX5dl48239nd8vCPFYLG3YZj5cfevjPXY0zb93vjcf8IMr80MP8oa7xtwe4S7Lxrv/LW/0+N1zk7c/TH+dADezvfg2g0pXKd9ta/IsZTdKcNni1cA2RX7ZFC8CTCTO97VuV1191ZIVQV2/1q2j2JVjkXsLht8xnhP5YZ9MjBeL8zkq7crHZ8rcnuI3R+vDkzn8PXeONaxe01M/vU0U55y4tckr9sncyfu3kkHdffs8a7P7WplxrH7q13APhj7+mfLzHXlhhzr2P21weK7q8wsOL5w3CheD8v0y8a7Krf/hjAD2B1fpQ0KkZK7C2f/J3MskLtAMy+YyRNv+RZ5SoDd+yXj3YLb77Bn5ob3F8wUsP5Ie8TwQjSfz7F32CKGSMaxe4Z4/dfhrhyvtXIGM8jds8e7BbcDdx+aCNylfC1w90HrtCMyas7TD+JY7O48WU2P9xw1vnDcMN6+SXH3PPFuxe2A3YGpg0s9vO5u8Eo0n8+xiN2FZoIs8Z7K8l3yFB/MdFDumePdituZuyOWSXb3T+fYUe6kQ0yCma+M4wub5SnI3Ttyo6lqxvGUrbgddES20NzbNHcHNaqP5lieqmLR54j39EZ5SmyqmjverbhdcHfMMzHufg6e+5/CsTZVNYLWLbvHxnt6u+tSpa3n8N5hueeOdztuZ+xOK5FJ7v7xHGvdneWpuO5+zji+cNw4Xp3cmbtninc7bnejqrcWsPtYmWlj3H0HfTJqqkqQZoHxhc3jZe7eEZjZQZ8MdXdYdZ/K7h/cJ0PkXsPSjFSIzDq+sHG8MZWZT++ToewOOmbaG5x45mBYA4Ez9yLm3H/n6zS97g5bCYau9/h4z1HjC+8Qr4dl+tzxbs3tpDJjccZeqH0ofNte+mSkyswgeLStfB3uKvE+YaaRaWYvfTIEZmDLTGvh5rEhuaPGSOjun94nwyoz0NvdCzMv3vLtuH1w96fYm+eONZ873q253V3eAQEevDggtavu/uF9MqK7g62m7r6D8QU0zGR13gh198/vkxHcHZZnsLsbEd6fcs/KddtzLIWZGlH8j9wzXod7fJN4+5FmRqbpALtnve54e25PcneUs1p330OfDK/M1Bzgh8rMXsYXQi1iY2VmD30ybJjJubuTOmV346rvTu674lgNZkbVT4r3Dftk4PZD7M3L2S27w1HVXfTJ3Pm1qvCSVVekkSszzt33xbFCZaaGDv+1kz4ZJPefzXk6Zfd99MlwmIGX8D0Pyd3hwOqL3ffFsdTda/L8E+dvD23O24HWhws8Pnk+maC7E6Rx7m6Qq4MCzd44NlSZ2UufjOruhOP30ifDL94Dze6gQ5IXIlGuupc+mfu/14blXoOH1/O99MncXbiD3EeDx+y+lz4Z+PnC1BS2Agvsbgqcq+6lT+b+78+/f3/+9+fxjhjPtpc+GRgv9PWG2Pte+mRgvC0aUh0WNRh7CgJNBPvok3m8Gfb898n9K8N1uO8W78vZH/WZpqFy/8py3fHm3I7ipe6OnibJ/VP7ZB7vw5/h+JUg90/tk0HxPj29afqGthHIqeon9smgeGFzGKD410/9cv9PPPs/q0/mH9ru//nkXu1gfIHE+7dvlP3nPPibtU+m3ITbabwp7k7bZv7y81/4nuPvg+R4nk18P74933XCFlGjut9/edVuzOx4j28W79+hBNmMB3L3puLjTCdh+6B4WzaSCjPWgzrIVBVvuJn32+oltmb+ZlNU5uoN7wlWrwGZv12DWztnu7bwH5GR1DC7I3+PlryROypThJxjhwsi21sWTU/b+TL0SNNzdlXlYOdPmziVT5P7Vd/j5f4j3+E+tAub0Cdzo+w+38at2M08yYP/EqFr8VhG8DHKFjav2Jew+DErpbonMMNzVl3ufG15qnF4TNI7E/E10tcVvaMuyNjKTDVJ8HPNPcXHZ4i90O4yu3tdo/skc5/u7kJiinNUaYQVDkB14wTwXR9j6lb2144f15C5X6GZZ3F3JHbM7tVD2JWq+CpN7AZY9KRbvLtHokyRi2b8R63YuwEPid4+x90FyY8H65/RtD7ATMDerwPFqGp3/g5vzN2HI5e7I3O/3oC7VxkyU+P6yszMf+FbK4pLGxw+scd5uC7u6e5uVHtf1N2p1sPu3skLfMSDu0gxMfbuxJ7H3W/q01smmJmH6hj/g18izt0xychiLzwkE+/9tdG1/zwC5m4muHuMurnaNXeHlRkN3u2yHuSqJ2/SOujal7WOmh9unQ7v8e4u/9GNVmfwhU0HhywV2kfFV0sofPIXAZwEh80ToiCOo5/hdSLhoAu47VOqfZHzIccoove6u/fPwFZz0UPND8mr+5XlmphsNdnoqeNDwWv+Pt5aR/Bz3J3lqjdcd68sq1ec5St8sNt02cuDWxrbg6b8+EpkwQw9DulrcumHwZNLsmmZBnU7Sbvnk+y9qQP2jn5bK2pnr2HmGkxaOzh5cLhKo6odIA28d2JvX3fgER9ayV3SPhd8y9mdAUyCjjN8C5g0d4/PYRG2YHePZnk8O0fNJg+G6xHjojtUukksvie4Oz0dwu4+thF4BE+Uj2Ted6GyDUheCcO4B5u3tk70bUtQvr3GaJw0xwju/jwOsAQzujuwd6U4U4nnRBWvWILuyutkvfOMlVp8tLsTS2eXgugpLDB3QjJmprvX6CZovxfcHOWq+M6vdWTwfZds70LCKng7dvX2KqgdnQMY368M4yWx23LNQZQxLdZI9FLNT2mN+ooCPpkbRFa8USuUVORFQmWGIbw0uaSkfZanmnqmu7+E7uAFqL/W3B0kr2D0qcHVyCYA7oLM+0iYkdkdGH2H2T3E6YG8VnB3aO8Hy+tA5VWYXQT0qeawu4ljHFSZF1aEVSqR7r5Idnfk7Shf1QqVgr1ncPca67yGyq8bPVcdzJ0jjqWZxqt0UIIf7f2l9abzVuOvsDpp9Q4ZvkP2Pji8Yu4qvLcC1sjuDlLVivh4Rd3c2n4Fz4gK/O00rWtZakJ/jbgOcoy7R6esDN+l33Hx0zGmOe7uRp5qhDQNE3zPzd0qHtH8IPOmj2oX67r04syVGj3fOqB35/LoHkte83wweoqRHf3gYIkd12d0xMFax39azdO6r3JjkvvJQDl+prsLFl9DmdMcldq7yeDuCNMhv8e6u31A401NVCGyo/b+sPYkxcPWmY4yfMuqM+6lVnNsW2ft7g+uN9YqhmbQOxCBV/76TEWAp2Inw6wGs9h6pcDuZOQVlmlospoq9lqdNLg22ro3kqnPd/emIRQjs3uv0IxNWYc72yEchvexDgm3JsjtoEaj1GdsZQYe4BloMWD23rKOsltLZpehI00H7t+u9K44NyKa5BYEE6g+wm4zE9EzqZo7LsQb3m0AhlkL9QwQR5fY5JIkf4XAbhZyd5HdeyVXJVwDm8aie4F76O6JNGMJnnCMJPaWPVXGUkWyF4dT7eOBsEvlFS8ecJ1ccQdTN/GeMtgswE4MA1hGWt5eqEgWWNBFKrvLM8FDlKG2LuSsurvr5u5jd5K1+tm9VzokXVkmVHbvxjpk2oDqqHNXn2FZ6vMldfZR6mOZUXV3SzTI3kmzDHw8jJKFw6rwAG0FlfvbCj0s3GdjvAV8A74LiOejrNXozZQpXTO6/qUM1ji8x4X41J4ZhzdCeabxNdX0tJmmwZVJq/3GSb9RG8dc6b3vvENNV3hnq+9gtFUowPO+4NY1Flwlp78S36flSe7uOAdlgtdaCaDWK8j/cq2mmnguGBmCoLvrZRr6hLn+hKQVTJNdG6lxkhZnjFSH918WYlFGOgNoBbJuXJmy9rQFo6s+Xuqn/WJND2o1jahzWHaHfQUC4lzhUBMYYYX9wO6uUy76QHdAzFf7yFrlPTXJQwXcveJ8wrvGKthUFlGl94+7Tr2IhPCQ8aWvBg9BUY8HaO/Xfu39Sc07ykTKSWF3iW8kqXsbgslFHzB/5T00sLegwW2S/+fu2nYc1ZUoEYIkIopIlH7pBwRS5zwdqT9kz6fsp9Fovv8EfKHKrrJNKEPrQDpJj7a2tKprLS+XywaLe6yRoEOzVKotGK84EYutTldwd7/zPh7/k11rdVecCuTDG/TWeD0CzeHgO5lmZQNxgvCXXGu8+5WavbrNwt6vC2o1/jl7V1fpYQ8N2US2QN1vpLrfcL0dynso6z9v3lorUYLn1lmxgn8S8k71EGAnA34PJfoddMEj6e5cq94F6zREQ0EBkhflMS3vcPkV/KeNuyLVvL81KmXVic720G4Qel8IKM6jbviE3SBXviBPrLYKqTv085TAX4PJ/hmaxgLrjkryH2zWh2evnZP1jrh/ODbmg+ikwf0z3T1QgneT3bgdtx5ZYO2GCUvJuyfrTeJC04qeMnI3LDYzwcax0mkucHz84R3Ljv8RuPTAVqhF3n3OeKeIc8X9BPTKqudmPtEnznR3yemG37SbIe75jfHugU19CRfSdMrMpGzpdjatFp4zd/LcVXfIhAZPa93/i5yZSesVLjmFL8n1VrwTqlzcJnmldm/TWz8C3r10fkKVSt/g3HB15spad1Ld0ZLTDcxQUxZcI2XJjhd3W4LHE1bKuzvSHhP3zi3VsOqODA2usbuZj/pmnLaZUJo3bzr8MrUnHtYgAycXoE+uEBmyMld+S1+Jn0sMFlxZdY8nPFZ7t2/s5jTRhNyMv9r6Cc/j+EzLdajujLh3oE2so44nANmNfyN3NmGRp+Wd65CErwJJMVZtUu+bA6pA4pZgXt1XbnoqmV9TTmaijudwll1L/HHw8j48aS3dHjG/RZhR9zIh273N2rS6X9/Odnuunl1xokqRH8721fiiU0dWI9EC60f09JlQtsf2r3bEVNVJ9IMr3+6SKl5/cvkRNjGN4CZwdFIH3ShJqbsn7ou7xa5MNzAsxzhdNEreCXVPS3inGO9v2gvNVD+D+Q77Z3h1/yC3N0XU3SQ8WZ/pfGn/IJeZEq07XZnxSjOFo9xw6ZQ087g7mFR3xo43b2u70xVf8t00Xq4fnPqj62bWHUZz9fZjl34HTUTdrwvU3WscW+jdubqMu5vPq0tOCb3UvOPSuyvuuC/yI0Heu0jzu1+64dSdbAxouIaZTc/mEDlG9QC9CUGBZf0EyR02fttYtpNTYwtNN2+ZCexg/STOUnVPiqQM/Lsnp3YppZm7s2S04MQlNuULt+iOJf3vL/r6+vXlXI/p9Xrzr4v+YK9T9Crw1fJXxV7jk1mqv9wBTooS6Xgtbvb6GXjDNv7/D69HCGNx7DITkvamAQ49EA06Ho/xJpP99UlGQt3qzY/CdOtPGI1iUTDUo9DVSeZ/uVbh8V6G90HifQTxarAb4g1NWCX+vj8N7507qmBSd7LzsdH/SgXCcP8Xoe0qFn7CXybuP6hc57mvIgG4f4pwvxpfVdW7gTBPQp+uit/VXR4k8F44vCcN+HTJjvc4P6WgYg7Vm36y4rV/XxbvKQde7qQC2ERApfzrDnD/lx8QxX0yGA8qFnqgI7lfzBlQFJj9ZCB6detY9DYW+gvId6+5Brj49XiDWnfaDO/8RL2K7AXWSZ8T72kevRm8RRa8MXX3knyuOPLc98d1S37XyVyMr3uQsbikinsgHP3E+1aHorfvHvfHdKe3QE36vhov0DpK3TfBe6wQXro3Uv2eDS/M9RhcYbxcMf4/d3hG5Phq3HwPcZ90sU5ELtq6X3z2q4Fu5v7F4X5hJMBy/zRHo+hBIKafSsdjZr+JBOK+SXdmo99avCgJ6FzPj1dbWS/diXaxfHijf19/LBPCSx1WYM9lKoKbl5K4/7Bzdor8lvvMNIb1dYX59Livg9FPcRjf+pH3raK8ul+v48x+9Kit0MkFa/FCrSPG9cseeLnHHfjqLoY3/vcNjmXr8AarkoVz8C/2NQHu/3Ln65r9lJPx2H+ab87HFtDfYe4b1mNvV9lpe2/DAOJR8eo+LzWtw4uTwNe6ffCG1llz4Y3+fYNj2Tq899AhkkVDa7sqwadx/0Fz//IIaV2wHmu5XxC+ri8U48H9CkWP7yOen3rqjpvlKXVfjFdC6zLg9R7IB/x7Frzxv29wLFuLN6LuqBfG2cqRyH1j6njf/mCK7Qt9bIGY38/fiUlMb6LhxCTg3cs1eBdo3aZ4mScekOougzf692XHMgm83sZWrO7NfOovunEhMsJ9Khph3x6sxzLcLybqG19n7jEaE+N7/d73Zi5D0Z/pnyyxui/Hm0HrRPByLQU3pO5ieBNGM3YsE8Eb8+4m1/UX+Ern/mMD367HOvSjJjK9dzvVRz/dS7dLfvyyDm+i1m2MN/Romxx43/ftMnjJZx6YM68Lk9tG0dFrAfe/svv2ifwKv2F+bz8V63vD/Z6as2N1J84rOLyN9/HIoHUyeEPdY+J4V41lMnidvdvEVDVJ3SPcf2T37YXPfLPSRt3HI6/u5YHY0u2o+zK8l9SxbHO8qeoug3eFbxfCG1Z3IOycusfm7KSxE/ft01DX47uf+I+vad4+8r5/3d5VH7nHmpU23RfjRWvHYlonhDeu7mJ4141lEnhrk+5dUN2ZfP9Jvr2Afi7M/SPPfejd/YPI3sZ7kfftUnjT1F0G7xrfLoU3Wd0b1rv/AN9unJ3Dffc6Ttw/Ku73PvlT1H2xj313LNsEb4p3F8G7ciyTwksdO0N594C67+/bx3D01GhXweqUigYViTEQ48tXd1iNfBNvBt8uhzdF3WXwrvHtcni5p1FCdTfaTqt7jPsb+PbXFfBzM/dBJHr9c9RxUB+1f8ykp+5L8F6y1CgE8SaouwTetWOZGN7go7ULkOOHxtX4rFp3WsR9f2W5deJieY+jMlj2K/77Vma271nHsp3wxtVdBu8q3y6Il1F3c6ySN0911T0yZ//awreP5Pci0NLsP9o4DCoWg2K/ikgdsO6HxXhz+XZBvFF1l8C7fiwTw5ug7niZ6YDU/Uf4dlil6sGoZ9aWYTQA+QfDfk39110Tx0zanP8xvl0Qb0zdf4RvF8Trb+7o7rO6gyVVr52g+Rn1djNv14znpuw6Hj3k/sR/E4t6+gmd0bG8/pzJtwvidQ7ocNNdAq/AWCaHFxwX6feKFYSm69yf1D3M/a+NfLuNBgxIBVaWjw77BzDaDWq409GoQ6dNLsabybdL4r0SD5uf010G71rfLon3Tj5ZuHNaxGD53Yp8lPsb+faiLXQoWpb5dt4+APbX2t+pca6uY+q+BG9G3y6JN6juEniTx7LpIztesKLqPf4AqTtuJmgmMxNba/vawre/ogHI3zIB0bEYjiokg42IDsURpzt1rvBCvLl8uyjeBHVfiXeRb9evfHjRUmrnHKZXoGwHRRmt7syedMm1RY/7/t++KIL1WMP+QcdjMOyvX7ce6YaaUHf3QWcL8K727VvhDav7arzrxzJhvFjdicoMmqYCc9M0Pvfnk7Oy+HZmsJvY3xJTGTW+2e929jIMR3jX4AqZmUV4JXz7BnhD6i6Bd7FvP+XF6z1vEp6kWrheprHz1DHdmT3pOX07XnvQ7G+5dbbpGswHioHmfq24Pxj++wfEz78k4xX07bnxho5OXY13rW/PgBdVZtzKe4HtOkx7le6//DMCV/UExn2sF5B2nsnQ68p0NExMjtbWxdU9Ha+cb8+M11N38H093qW+/ZQdL6Hurnf3Jd6mO70nPZtvJ9lfcewf5i/j1wn/eIFoqGugvHvpPRYkEa+gb8+PN1ndl+OV8O3ieOPenWh3J9IdnBP4yOTb6eHOsj8w2NloHHE0wCinPyPqnoZXyLdvgZd6nJMR+rV419fb5fE6lZmO8O5+th9Idf+i1h+y9bdbX8eEA3H/dcMLRAM6u6ddZiop856EN1t/uzje56zu9lk2QXVfhFfOt8v9faG6swdvNMTmDi/dH1/sWWHZ+mTUSDcOdn2E/joeRyIaQ13X6d49BW+2Phl5vOf66j6oD3v3FXjf8O2Z8T5feJG6owOA1UkEgUvgHMj1vp2xdpD71HVUkRgj8rT3KxxJ6c7jze/b5fBO+g6ebOM9wWkFXjnfLoZ3Gsxq/hgCpe5NA2en9jpgdc97DmRBFqE1+18/rRuGAQZmvHo/Gpb5Q1zdS1fdH6vHsh+A9zmZmfkplXPCe959Md43fHuRH++57gJPaULqfuDUHZ0TuEl/u/F1lZ63t6mezlzKz01vzxreKerO483t26Xx1lbd8fP5rkjdl+Ndu3acEW+HHtyBnmYwe/f53a/MPOCcfeN6u+L+HI4B895wn4kHdHV65paQ7kG8mevt8nhpdYfe/R28i/tkNsB7dsxMRN09L+NUZnL69hNTj1Xct+EYMO857utoPMcfl/3Jhcisvn07vKS6a3l/E+/ateOseIOPouS9u0l3Zeny+vYiwP4KhsPSfzAxCURj5v+sdUy6l3O6B/Hm65PJhtd5tLxNduPd38Er5dtz4O3456uadG+Ak4Hpn0nr0vpGquk2hx/rxYYh4ukQ958O98f7nKjukmPZrni9h29bK4Onqsl45Xx7FryBx2p3rncHX1Rl5iFRo3jTx7ba16kjj+EKm4qGehFxUROYaeKuef88T97uHC1EPiRqUD8Kr6vudqY6efd38Er59jx4k9WdMzPCNYpUHwu434JK1RDkvY3IKxxPh/nn6Y6pu3gName8jrhf4erqG3jlfHsmvDF19737wStE7uLbLffH51ChMmxwsKunaAyK909j7erzc3qdE+ruO/n2PHgJcbee5h28cr49D96V6r67b1cPS7bra32M/c/xRmupL84b7sfVfXffLozXFXeiRWxf3y6Ml15OReoeTPf9ffv4aJ65PhUOyYv7z+kHVadqHZDX66AfPcWm+/6+XRTvFYq7/nbTJZrleLP4dlG8qmFGvea9TLqHJiXdd6i3Q+7r5yX3dt6iQ9Hz3H/Zuqdydubz7Kh7E0j3HertGfHisswVvF1vu9XbM+IFZ8vM+7OT1X0X317YeuwrHoV+huxg5+tkKJ7mc2L8aO10PGpl6kw8AuJ+2Mu358Trqbv+Vav7Lr49J9754LDuDtX9nlqZydcnQ53AMPFec79q9fOSEfsZzutP/4LcP3/H1D1nnwzXN5ITr6/uVyPxt0V4BftkcuJFz4jvnKNRI+m+7b5U0+9fgAJVYeJhWd8zvJ9CMq07zHFAY90YjHPYu++yL7Ua1S4bXlrd1Wfefan74AXHQnboBOAEdc+wLzV0LqKdtbce+auKNXPazzHcfyLua3VvuHTfYV/qCLrKh5dSd53vt7z7Uk+74EXZ/pa6Z/Dt/NVaaR+Zr2Ix0z9YoIpE43v64Z27Vfc8vv0U6xvJg/eKLlLdN+5vz4v3jp3MInXPsS/1z+9/Ite/v3uz+tDO7CfX2yz3nxz3x+vbxGJS94a1M19b7Ust3H7vVkOVxxtU94z7UsP97fnwopN/l6n7irOzOB/b/vPflOtPawpUJhqv0Y4jfSAaZ83/b+Dd+WvF2Whvz1PaWeswXCG8IXVPxyvd354P7x0V2hepu3S9XWX7v38i1+/Xf/S7RdQfryNJ/DDvLf2/z99xdZeut8/zlCGM+Pk/4q5mx1GdidIaCKHpREzUs0WwYIeUB+FVWCHeXx/+r7LLxgFzP9Lqzty7Ovap4+OqwpYuFsJNhDek7v+//vbr8GpZ/zwzkz7fPo3TGuHbZ6bvOPZx+A96x86/4SG52RIgRqJiv99Bdb/mvtRs3V3SBkEAr9wdx/sk5F293ITTMv9lf7vMyVyA9wX4Tqj7I/BJ3iezbDSmN23ivBHA96loMNmLsiNWuZjo32KfPXw0aHWX/+GXXM5Oa92GemR7EvHb/FUPM29i4pv0eK1jlQDhn3+j8Ka4i8TKQeiV+wK8r1dLZCAjvXtS337P5nHOwllIORzDJniF86B1ztQeBu3terNZt0ZDKAAzM7XIQ9bmp6bMjMCZwLczti/dhnAdJ45U/VXzv/3/uXCsWyq8T6+8YzPjx/vhvUv7S9k4dwLqFXiBj2l1/4ypqkar++/5PpmMifvdJ+2w/7mYuODB2Gcfe8O+t2d/m9h/89jnZqb+2lf3n2Ra129sRzTnf43Wddv/t21sQrxPv7z/jcD78Vq2xKUiHMSp8L5e+Fam1umIfNT07/qQ1oV87Dh2wZycKS9NGwc88j6g+Bcxzwekt3bs1GhodVcSD4tOVmCnuXdJr2hY3RvF+IX5NkLqGAMS4H0G5D0G74e+fWWpiLCX6Tb9n4jJTYMXJCH1N0vda8/vBFqHY38cd/PPstZm073U4a9HQ42AP/bfbzMa6rENTA3k3s3KJci3T+Pq0B362IkSdwE3BV6/uluZGQrv52sZbVeRb2+KQSxol+DFyo5PRFXq/tCSDr/XB7Qu7GMpussOOav/GdO9RMudWer6YbC37TD2rdGosJmpkZuBdE/m2+8wxKG6N4YB2ra5jE+BN0bdk/l2YVd9OzMjZzOxdifCi6qqtqXJHtq+PADXH7Xt3Y9pnR37Lt3lOEDfPrBMNKnu7E4eu8rWe/bqYhyslW77WyPrXn9Bc5Pct2ceukOt02kZV+vO4w0lIp/P1L6dmOGOFdHnZW0auHYv2M2kxNu+UAuwW2Z6WLbdyHtS306q+5pZ/c/bxMud/YJGA/G9B9sYytdpTzfAAcm3j0pEInmvbXVP5tt9Zgas7e6mHGjdWbxVUN2fe3gP5NvxDHd64zqtDXifYyHMeyK8lpeh1V0LOnA0Ut1/Dvu63dhf+TBwdQexP4tctKPu8umDPRRvmIlVca9jPxdbVSzvJjmDoztRn8wsEzM6I4PUfYPL05C01p3FS5kZW919eE+uZXJ+x03aF1YmH+dOvpba2Opeai1LgLfFtxjg9EwG2Q3Vnf/Gi12C/naL7pNIwmao/CCmHpiZkhoPHfco9mXY69gfHHHP9T5V67spO+H6caLz27c5731mphD7NkLeyyR487c/7w7UPYlvd+3qMvIaOtOyft6+d42aXUj3EnrV83itDjHUHKkzMzoZg5z8ryqkpupvx3Tvx7GbRT8Yfm8R0r3E2s6GA9ccKAHQvs6K/dyTdzfePa3WSXkXjROEunOEM+Y7ju1zeENb1b9c3VOvZWCGV67oSsvYSq7ljFD3VHhpK9Pa6q5+to/etH6kdfcPY5+Ph+gnmTvw3mLhUXfwDPSAyLiXhg74Ok70XPxReUh+RqD6Jv28XWc46dslDzqGcFnXRebbN7rjBrER8L0k5v8oXv55km5GPCG8B+9dAjM8qfqC5vuiTBuge5lufvmnfVlVVWRmkLhrU2PUXTqZROe3g8FoBN1FEZ01QDaosKzo7o6FjP/Qnn0g9+yC8nqrWtt7VeHdL7irolNldZFvX8kqo0/rTuCV6v7HJftfre7Jej6dGd6mlWn7OrMeCtks0cn51XR31+6zeKGLcVIzGbTuD5iOhInIZPcuOeou5p81TQ16pZutzIycfyf+Bzr2Bx33AzQx+Vuru+G7+Qf/1wda98m9S7pFjOfb+bJOtYhZWncar/jQXgarexLfbq/fEys4Nb2czA5Vyl11T4a3dfKQZGYGuhlF/LN9MoHYb/iqPja6S4oNhVD20dCd1HYR/7Snc6tsb1vdQWMYre6pewJBi1izTHMnvbuWc94iFtC6w3jfYqv6h7IzQN2TrmVyhpusYzt03trK319gAT0rnJruaef3bbaqPjODvfsDE/+wr9uPfaXuythNes6LHpWZqNgX8U9sYOR4DNjY6djn6g7JXmN5T+/brRYxrvOC7uaVZLvEkA6vVPc/BNOBuie9LxUU1UamaRP3qRvhp6bY/pNH3RPitWqpdGZGJx/hT/2b+t4lNRiNpe4NqzyMMBE3GXV3nxv79FTsv994lcORz4ajxm4GyDtT9wveS11kF4nw7FzpJtjKb6a+TI2Xqzsh7srCX7CW8RluTLpV0J01dHcO3S/B24YS71ld490p+iS/LxVtVRtA94L1wXYO3dXaXlAjcnNj396vA5rL3zk2M+YOZZV3T35fqqiqip35Nvds3zqBjCtOuZaJ8Wp1J0mf2LcjMyNrx4buBaXu6fG2bUuYd+jdH7A/DMr7b+rzZGTsy/eWDN2Lxm4KZSSgY/+mPno83rgTFMV/jhKR36zMZLPdfPm94l0ehplD7kQCarAKxrKJoCyS4mVfvnki0kt2kXdPvJYJC5Pp6oIxMwWt7qnxtozvdhcwfHkPdxBAyrNeimS+HZsZpO4F36uq7MS68LLzEtB2MRp8QN6wZ4iMfxX7fDQq5GUg55m6/yT27Ujvmn6V/d6o4VcD9/v2z/HKVFSeV0F1/0nq2xHabUvSi25+vlWdVkbymVD3xHjbFndEog5gpu6PB+4gMNx3gv/sfala6TJZeDAb1Wkw828yM6HYL29SAN6BTXuOGJ/nORb3L1RqCojd8fNkmJmx+r0LR91VF9xpvErueHSzJ8D254H5jV7LpK53cjJ7VDpkdC+vweuqu11mMqJuZWaS+nasdEDduwX1PwJ1D8V+qa/UfA9mx04MiQx8PhpVniOqo6Lq11dy365bxHC/N3qbYzZpyPN4jYflf6ucV1V9hE/s27Fd5WWmzbvN47R0MuHaY3W/Am+r5N0qNEG6PyxPI/U++TmQMvaRd+c5yN5ukeLe3R/7Jbz3fRh8+/Vv6OoqNhr5l6Pt5if5OZByh9rDHjj7JT3RIrajdZF4ldqxEOfBXQXV/YK1TM0wt+2ovrACTZPe/Qq82sy0xCurmZWLgV8ejx869H/O+Vh95gCju+gRczsCN7oHfR2Mf357g6/y8C3jvqoE32vXvOuKk403wTmQG9LZNHvDnk8g72qzeh7v91vFtsLLmM5/xMei+4fzu7+WgWTEKpt+NdsnnHy9Bm9LPK8WeneL6eaT1Lerfbs5c6ATaWhX2iXd/b4OBb+4HryqBp+TydlQVLl46trNyNS0up/WOpGjUC1i3kcEfHka77eCrOeee3dB8z976p5mLZN9IWpvNklBH1gDcK8Trty7X4PX4jlQek53sVd9GMYD5ruL+0kfq2O/kMsdJe2qqhrh69RgVNX2U9kjwtY5Pg6VGg+g7jWWd6nuP4S6R+P1nZ7VTREHUUT52DBeBlni5Hg5AaSX0QIfMDN78xuxlqlEZKFTEKN+vaNHpbWr8FqqDlyNoPvj4T1o5ofKQp+PfXMEwzzNHSHsYjMf5ev4YPArZPktsvKRLBc/JvKRutsnK/m8e/Q9Uxl15i0Dq1rEfA+je6yPpfEKxBKs+COtbP5UJP8T4d3vZ9buRs4weODLe7BrgNH9IryujRGMB4lI17yLH0/0H/axMvZNQo46W0V3RJZlpK8DgwEGRGo6GwSj7XluJ2Rq0C1Ginsk3ruP8KJFzJyx4DysRewjH7uDl0++jvCntu6Ud/9gfuPWMtHTDeZ3XWb2ajZ+eUnQ/RK8Dtkddbftu9+731PEfubLUcjSIt+z297d5+sqE/vWYCh1l7GvHt41QKRl2Mfh+lGtg9rei2Jq05BcFy1i8T7Wh9egletankszA9j+DJmZ8PzGrmXw3bSmoCe4ZMnXq/BCIwPUXTzGzFBuJqB1P6djPyuIo+JkQq4oJw8H3KVODcaNDv1cxb70dl819u0wT+Mu7of3Keb+0GWcldZRR+N97GP9eNXiLiZfqbsh+o66f+LbybWMoZ0lWioFpSd4CKzdZ/F61Z3TvVZ7VcvP2Op+D0Z/fOyjE2CJo7PUO/h+db+BIanwUuescWA0sLo7zb/8F5WTO3HvkshATeJuhoY8B3IvBxWJ11I7M/m2unvpHp7fvbW7yUAf1LwG1jKWpWGvbF+Gl7TuL0fdlV+HrPdq3f1g7JulLvOeiyh0DpPgRvu6Cm3bq5Cvq9SIfHnl/aumMpCReO8u4kLEuAhxeZ45QfiJ71OjfOwe3hzuzCUPlIOJ8e4n8u2NonzUkajTWl6FdyP1Pzs3oy1N5oo7cDaRWhcf+5Ogu7w6tqFOgZTzPlnJCsLX4T27o+95BW0dUvev2pJ127sH0Ub69iIT5QVGd+ljqeNkCjct4/GxXrxUDsqj7h7vfm4tE1wvZL59nXfJvgzX4SXzMkrflboDBy/+yqoqqXU/h2N/lmdOFODMAfJsvG1NHNBwUNUHvdARK11VwdivzHgIK0PXVg/jDd1DJC6aygqfk52oLORneMFaBtb3A9491rffPffhFvC6AuJQCd+7iQnxOolIc8q7oHttKF/DL4ruOj91JvaFjx3kpUuNc1kF1vZhsrfuTj5Wb2Nu1nigqhJWdp5359KuXupQv6C6f4p35x6imUP2bMo3vHaWwpN/9uKtUI5C46y86m5UPgpvVM4NX4jbFEXhoXt0feEoXmxmWpyoyQC7a5ij4f+0c1QHfawaCv6mLstBezbtOvZZNW7Aw2H7OrCJobKxYM+OtJ2VmSDBsZs5gnf3HiK2UJF3c0jGD1SR6fYB3hznKKwYBx2RDumj8EbeIQjP58c5qAm+ZR9bXziMt/U9L21mkKbXD/3ERH9s/llrnTw20P/MbpmRXulu3vxj5dN2oe6a7QfUPXjHnPHtQOpmUFKkzoGcMVpP34gHb47VztY60rvrLxF4Y+9LLcx9qbaa4fcwY/tkjuKV5P7nUXfV/Wj6IPWXB1FrO+djxXtc+8/saru7i9GL3M2N/dyj7RHqngQvvGcqqkXMyUHF4jWI6Ri3vTtkfgTeqPtSYR+UuVPPNTPRvv0EXkP1fwF11xoPPbxa5g7GPnmfZiNe3wg+g8e3l2TsO75dRz/1IDl31D0R3gLdM9XN+y1irrrH4K1AfYHUOm9mRqr7Dt7Y+1Khtje8hT+Ql4mop5zA61D9Bf5kD5hwB4TXZiaFj0X3Lv2PuqtNbhSHgsQYO9hrl2tS/M0JuImuol+U7l+Lvt+TnkACOSGOJ3GyM1tp1DStVhulbHtHvx99xbdfqDQW+xlM+zu+/UCk7nV8O9pnSq6s8KWOGBMR1zPxnhcyCuzdo967Ufedvt1mkMC3d69FuvPV9ZRdeBece6DuKInUQeRnUU8m4evwvkuJGRvp65Z9Oz1nX/Dtzrt7Vb/Dr5XwdsE+U4mzOwE4H++qj5WPdn48zSf5jNR9awaVwJsUNBrupTbeYVb2YUjkMw1QdvgHqns93657MtHyUvp9mqu+/dKX+Hak7qGVcepe0bfTvSCwNwd5OcvGS/nYEG+L2u7gTU1O3ff6djy+yQt34vyujXcgiA5XVUE0c8dx5KOub0/0ZJbep0nm7Utz9mXffr6B3P0DkN086/p2Em+4N0dG/ryYQZ0Xr2U3pe5Prezg/R1tjrpn+Xawr5bB+1rci2T7+GbiVXQHnP+H1R0tLd0p714pf6a1Hd5PqCPP/oU8NnZ2y77dqrszMAHfa+BtIF66F7Q5f6YyqH5R66S6W7K3uPXu1X27b+8CbW8WtX3n+ObhtXSPBP6faURiFwNLYv/9Vy9/7ppUB3J7Hlvq22/zBw4iQ3XfjVcCfWX2gvbgPaOe1AJeZGJ8jcDm7vvy9hce30jOfgEvzXbUiESO5gGXmSr6WN2TaRKN/7y+9+qc/bxy7qvc3T0+InXfP09pMN6uVNtz8YL3Nizibdsn9WFWVXf69q4Jx/fX8X4HZgarexhEoihyd28Envuvjt4aOuP+KtesOfuKb1fn/u3smE7Ymd14JeU7j3exF7QHbyJ/pvA+bSTTwkmqfm7MoKh52WHwEur+L6HukPPyRc38edu5X9iTWfDtNztVXVD3/esLHcT7eh9eKn/u6alqaGYc2Z/PXb79oHitulvO/8PqHoo7tDSf9Xz7pnO/Vk/Gcn3+cjOK7sJISPha6wt+6N+CN5E/U1p3voXBTAvUfWfe7u4EeCS8+d49iuDBTbQq+PZXPV9X2JOxXD/fboG6Y77vw9thvK/yTGZPb4TUuhlvS0i7/ZLAm+XbCW0/BN7vxWQG0zyYtB7Bt1/292Ru5ikPx+2OHPsHsu+V1hea9MpxBbwFPlbiheIeeJnnzp7M64h4HduH9WQmeHzWyZ87E8rRSy7lvq64J+PYfrZ0x/7dqXud9QWnde/Bm+1jb/KJqR6o+w7f/iKuZUfAm1B3VxFbpHuV/DlebNnu68p7MkjbFd2xpAO1rzhP6d6Et8jH3qy6P7O9e0lPpjsi3m+XQg7l6l4pf37R78Lf5uuKezJA26G6fxDqXml9oaqPLe2N3IDWaXVvfRoZqPu2vP3IeFEwM+xT9635c/Fa21L/ud/s2yHdPwLKk+q+cZ7S1VpfKO+NgAxKP56pZIb07sX99sPh/Q7XmOC3JXTfkT+/rTdS5tst3QHJ0Zs8Kq0v1PSx5b0Rl0HdYjODvcyTwJvl25v3zVN24wXeHdWAVTRTpu7b8+e39CiKfXus7uA1oe6/7Nu39EZuIeAwiFzy7k1m3v46MF5bIRi+NyQzRef++/Pn8p5MoO1hMvMB/mC65+N9/Rje1d7IzU/cPN3bwMz4n4R4/V5Dy3l7c2C8g3x3x4A1ftii7s3v5s/lPRlC2w3dP2LSx+re/Khvv+zvjdyisUfq7lXeyjx5KWtWfHs8LzsUXsn1AfmZDereIDv7S/lzcU8m1nag7h8R4e9b8DY/hjcjfybwKjUPemKW+SHeBu+rlT0vOxLeYXDRzBAtq5aYmSZ97v+Qj+13+nZN949I1il1z8T7Vh9b1BtJ4G3j0kxLqHvzeYB5WQ28g3qAPKY8mQm07pfy5w09GX/uB979407YmXs53jf62PLeCIk3rBDAjIbw7X+pF0Titeo+BIlkkbovat0P5bH7fTu9zER590y8lXzsdX9vJIm3jZy7n7oS3m3pfvXV5mXvxDsYed/UmUHGbtXX/VyPotC3U949Smcc3bPxdkfqySTwtm0bZ5HYzDQW5/L96g/WC0rg9TNVFMw4dT+ln2i1ZX2nip/qjWz27ZGZCcL3Qryvw/RkFvBG81QQ0EBlz7hfffcX8AJxj8P3bO+Ote7zd3sUW307XlUN39OEvHsG3u5AvZE0XpfMxF7mCa1b86d6QWm8IJmBPYLQu5+iz07d8/LY7p19776Kb6e8O3wU4X39EN6s3kgaLzlRhVNVt3T8S+sLlfEOYTQzYHU/UVQHZiYzj/25HsV23057d38XjhK8r2P1RpJ4W2fe4yQS4W3+VC8oiRepe8rMWJKfoLg/qDy2+d0exS7ffrt9UXSH6p6L9zg9mRW89haRrXE1sDyD8X7+jV7QEt4vp+4DulPkkPTup9C7m0v7mo9tjtmTOafNzD1lZjLwHqgns4K3tY84jXwGeBN7Jv4tvC6ZGYj7vHszc/K25mRfoRbsEXoUO337V5a6/7WezDLe1kt7yPpnjLf583ihuA8rufsppe7l/fYdvg4diEtfz7fLI3KnzXug7r/nYy+re8yV4XVUfya8O8CbytsL5mXXH+3JEHitukMz41ZYkXc/PaCDV3TP641sPPdT+xD1l0vdnow/97803R805T8Le0Hk/dur9oK2588WL9T2J3pKdc9bX3jVHd9FvHvH1ycztLqfAONPnvJhMlOjRzGJnP007UbJ9Xoy8IjQZL8HnZncfZc6c/d+UaR113j3UIR34qLXX6cAdzle5N0TFbENvSCxGa/T9ljcz+DivRVv5N2HyMycHlEGiXL3pk6PggX78qB9l/jIMAVCslfw7V9fX6SZsW4mCy/ad4mbYZ9/e2Ls8e6wXMKPXSzAa+HO/858ZT3jfb8HL/TtCTOT2QtC1zIP2I1vMLxyf56RU3gl4ed/j4dXYoXqvhUv0HZQnDEvcRAZrDI9ms+FtcXy/FmYLbcY3JfKHgNDd7RpVUj5vb7dqPtyMrOCF/lYJnc879RO74y7h7uHt6S7wHSf8aa2aeJg6B3d52PGd+EFNuaJDY1V9/xeENoKm4W3cFd0nwwYOL5oayZzcnPP7ojuu/AO3rkP0aaTDWQ3sjPGzFTttxu1g3R3VDd0N8dKH7Pavt2pe9K75/fb9SaCck89rmgPHnKvCsG4xis3xZ7YpOmutC6106aCC3+gKDCN47QHb5uS9rZ9lvSClLaDk3MEr+21jClJM2jm83fS2h7QfR5XR/fJ//9G/3+cduC14k50CaISQWBnavbbhdQ9qYHCX+MVxa+W7mpbNnXuW3Wr7dtvmu6L3r3AxyqsnIn5yj56BsyyN+MVcuwlUDZO8vzmWt3l6E/uMsDgNUH79IjukhiiJ2+dlYUXJDNUEJnfC5JjmzhRY6+qhng+y52B0bJuXva9pTu9BSffMb6A7EN0843m9LAfQN2dd8/2sevazv1Gg+pYcH51fj2m+0QI+37fnvTulu5reLGPfTkfqzbK1dvlcjPobBSG7ho8v+LZiTdwcTwBvfv8mYl4j7lsvHBF1a4wWd4X9IL06a02NVen6wzIP65XQPdpNNc1+ckinQB2SHfauxNDnI3XRe5oyjpYdT8FH/7T6VGx3+5NnaH7rAlXHpuZiz+WU9W83R6Ru9mKh1b3Eh9rkE5ikn4Gkl6f3hqo5cDI7bUM093kE5c03UWvmL5J26GZAa7GcL6kF4Qv3EJaNrgfLnN7BAs5smrWAijuT/V+le5njXfj+ILc/Ru8NHQH9XZEeqPutd+X6o6FpPuFons4U63p2xXdH0vqnrs/rPdts26pVE7oaatg5oo+/1wCnYzYT4buF4LuPpXhDM1dnEGetuMFbZmI9bm9IIQ3+BWdtOsxE9KiaZumrJqxM9a2TRHdp8jYTQnblod3QG5mwMamgaoOiK+f1frP2NMZul8IusuD4Ya6um//st49QfmC9QVgZLhmwTxc8rXDa+iuZqnyRCfNjJZxJ+6pWSynT/AcvJGqA+4X9ILcbW3DX5F1fmwZ8Kwoi7j4b+X0BNI9hszivYEL8AKCxy6+OUHzAqmvgsjaPYpJirui+wXQHSU19jC443HGjN+n7drMpB556wvGt0sOTEyznUu1U1PWkdvkUfjcnU8ybw/o3iu6jwzOyrXUsWgqK7b5dk13UtsV7/Pev+DxaroD087x9NQFkaP6UOJv9cz8PKI7j6Ievnme8oWnqt9BoUCre2Tf3ZR1OW9/FfcohB7/UN0h3Xt5GOarNzJ3tXx7lrpnrC/YsZep26RsjNd4eXWaBZ37K/4kXf01XkhTdFcWCLtYj3x2QjNQft6u7V9wVTV80ebOy+CFm2mkPn7HdDc+bv5bDOQyZtKqkS15dzuw28d3QME7SCRRMhPbGaPuNfvP5oCE6o7WFhXd52s8B1OXWr7de/dHUt2zejIwhVRjbiig1M1cwUYYRcnhjtFKjErhBZR3r+m9vLALfXXfihcT3C01tV7dM327U3e0NkbQXeKcR1Awh9ci11PwBbpXGF8UzEDSe+9O6Pv8obx7zf4zGx3dLxHd1bStj+leybffoJlJ2ZksvPHe3xPKKK5iUkvoKmGSxBU6iERodU9GYVQXB94TTpafx3EW94DuhXgjSQePJqPfHu6qFXl3SHfOrvJsFXqI9Vl+uYjRzct6THeeNVcpwjsMcI4aJzOA7aG+L579xdqusMkLvaY7A3Sfr3uK7rORjdW9nm/3ufsjz7vHeF/BVtjxgHF0egvdC5r/GqR779VdLS06R8NB5sGmMxvF/IfvwUvmkMi7L+O1c9RXt+7d5a8+qrVjrpyMPDjios7n+Xs7pIDuE4OdA0YsqxbjjTJ3nMwgpgfxO+lj1WbJG/reChIb1SKjkTruJ+6CqwVzFtB9f/8Zn/vKzDwWpqpreMOtd/gYXNw93YVO5lRP5sInlD3rAiSMJ7xfn9mg1hxmoNITSIXfgReuqj6DFdbs8SW9u+vJaMOuSc2C48FUCKl+bJcTCDMzgxZTdBXbhDfw7lje6WTGfjRVffs4g5ZfRET3SQeR6nhE6n6u59utuj9y1J3ysZrqELNtBorpGpYgTT4hrtFSi+17g0mpm68qTlgfK1sXkAUb8Ka9TKDuSd+OHwnvzuwiE48KYRMTdlbe03TnqhfERiXqk1tE3oQ3YjtMIoNkJnAzqUbglvct6u7I/JWreTqDkzfD//lACEN3l8yc9/a9CXXPDSIjvIoJeO8dS3ffHeDOu8kFF8l3s44uFU4C7l1xIJqvqRmb6Rbx2cNM6nK4Cy/pZUyfIANvF66nJrw7Y8bY6DHVUQzTRRkh8Qp3BQvpLv/LzPZen9jTiFS+GO8wYBeDoplGTUmRgwHf1NxPkyvT7vrecui5K1TMDk8LmRY2dT1XClczk/laLRGs4H3FW387urOQ7mZV9X/urmW5UR0KBmzj8lAEUilvUq5svcnmfge/wspFzWK+/oKe50hHQgg5BmQy8Uzdu2hoNa3WkTTW/3Sdroj9gQs6SLrrNkD8gQ8/Cu/BYd6FmQnBa6h7xzOos10WNtbzE3SXJb8/PUX38XXAaz7HUUoLAEfhvV7xalXkZt58JTNV6nWao7qrF7umuyz8G2FfhIUH6p5S20GJWIUvl7qbZ38baAXdFc3l74cYpAxv94fUwaFD90UBygY6u1DiAaboGQPsgeo8vCTVRUlk0PMl6S6frR1Edj960kiWQY54exU/QbrzOYsf/nQfVioTgReQHSaRrhIxyPiE+40Mss7VXc07aLr3PHeW9X/sS/9o20Q1kGHqXkG6U3jVq/1k053XAkG6t6IAWNTwj7UjcKjKa2RsdReln0rhWvZNJBXqtIo5eA9k44PWMN/eeLy7EUTyDMpezFHAEjBAdz68VYPxzjIy8/Eisluzqrnl3Gkzk2C/keLMXm5nnlDJ952oCRz7uZhtGajz6GQJ8MJMxuz7t09PDllO5e0EWkb38wkM2QTd2zOqgAVDVb0GH88cqy2FhjvQcnV/MEsjJppQ/w7G62H7+3TebgP25u587lhNlbU/amFiK63MwPQO5O7jEJ2ru+jdD+t44Hl4sbqbNTOOTMYwM4vydr0iXXo5NuvCuTDwnt2OB7cygvfj3elSZzLjzfi8cWmvlJtRPy51x3l7gwGfBq9yYlMKjwevHpC5XH8+F3itJqC7OVRV9fxdC+jEhm3Dy30cw5HnEIXgdVT/4tw9IG8XeE94/a3s5oVQ94Lw7gPWXj1do1Ki53LPpN00b3HP1/DuRu5O8Fz/LUnebqq7nG1jd6Tnc6k9nGhhOtDpmcZ02i7VnRL3ylR3Km8nG4uc2XSimEaD9Z+OxRxG7q72u+34bMtYHd8ztvc8uJWnzB1n4/Wo+2E6bz+dKO9u0/0M6Y7UneM02Y5mEQe6s5vXcb7rIDLm+QJxt/YTM+lusB7djOhMRu+vwujeiUVLYjQz0J1h5U6mU7zv1JrkZL79Nn6knJuf8d88eO1EbkQ8Vne3eiqVA+lGrRN4Sbqrel/k3Zmb6Xne/iOUrmXRu/S2UXgPHvPuwus67LyDhe5ghWnHiiYk3bF3FxFkr4H2YjpWlv6J/0PYmE5+lccDz8R7hQ0WvVPeHcu7+a5buk9g+6PZXojA4sHm1EQZLLwzrYxm0vn24XPziHvpxWtDlUa2bdV2A32nR28FQXe1mRAyM0e95S3v3z+tDqBFNPdH+pmZeB3JDFJ3E2+obwf+vZNLL7sf2BmEb8cjcvXgOV6uEerJ9mCq4c98vFea79+0mUH0N/r+0j1gx3Hp8IcKZHjV30XMmQsr0yutG74m9u3D3bi5xL3S6m7PpTZW3n6Wctc9zAkGWScz4n0Auj/a1tju9tG29N5ZLITsxEN/dEfgY+biDVB3K4OiffsZ5O1W61sB9tHqLs72HBhg9oaRYWUxopuPpt1YrMUBRz5fk+64IjLP89w5rapMnaz4XrYv4sRmQun2RXT5uttId2cMydXdxivmUhtC3V17ZxVnag9Q9wbe1t5Z1FnocXinvDvxfN946EpJWjhe98aHVl33MSVeS9ytisicnFUd1b3Bzm7ZHrDkVnEFteGxuhL7dk73kpB3oe4UXr51VmPhPTnnFxy73lL73Zo7QR69VVIxeL3JDP18Bdpm3j6Qnufr3NP6eHRhjsZriztWd1BFYBa8686//BwiV99Pv+et29fduJmB8l7BHN6Jl5huUVp3cu4DaD57ufUlIoCUdc/c8XEJ3gl19+ANer4Fve8lfL7EPpCoqvtiP9+I+QWJ9+qTd1Uzk6Mv4ges02yeou1P2fPW7evGphSdX6V27kLdEd5G1r82QYALz47m3nOmnO8y9F6PwXvwNPfzbcK0vYDq7tD2gjyH5ujBGz1OsemuOQ/UPZfarr9odU9zDlGB92/Hfb8wnv8xcZ0MuBu3SnC91CzH6o7wmmt5prWdwIsPqph7zhR8t0fgdZP9/eB7voHv7oLen7/wGjf0fOlXWTRemu22uiuea+6zm9Esz9uNdx3Yzp44lyf5XCp403F1NxKZEnl3hJeqgZyPF+vdnH0vo7Qd43UVEEh1X/h8XTuWu8ZmR7g2zTEmPy7Be73S7l0nM9q5S54L0oPZ5WW+3d7g23cWdmJtF3fjE6q7qoQEpB/V3cDryijm4EXaPvt82Ahtx3i9Zmb582WZDMH2wjEmMxjv3iAvFu+UmbGkHal70/iWtsScVQH7ftIz9aZ9HfTuZsmMUHeMd05G4VF2+fhnng+72LcHePcEz/dsWjda248BmUwCvKa222aGEx41re7L8/azfTeSn4U96ess7264mUqqexObUdB47fNDi1/x7Z/TZub98IRzpjzabr27rW7+JwFeW9oB498gvc1LqHuT8My1y5POwg7zdSiZKUEsI9JICm8zU9sDM4pf8e1h6p7y3X0x1d2J9+JMZJbhvbrczBXk7j51X+7bz/RkS8KzsMN8HfLuiO+VqIhMjPfinl/4Dd+O6J7R3j3peameyTQLrw04Pm//dNH9G586+YYJjgeteeq+PzGV/nTfLqeZKsTyqtTqnh7vJe5dlsTH0uquo5nU7271fGnfDvBenvZ8CWmH6l6R+s6Z34BzWRb4dvI8zcuv+XbazJSVJe4lhXfZ2dBFtG+P97HhZmb583Wfl3rxn4dLAk7xfK+0mzHVHUYykv/qXqQ/K9nb95/l27m6G2WQqo6gKlPjjfbtiXysoHtGbkMw0r1J+y5b4ttTPV/XSNWkO9GWal342dC/49uVuus6As3+Ud0Ta90C357ExzK6ZyPf5cdQ98Tvsjm+/VnPl5R2aeLftG038hlN98R9/ylnYYf5uttdlYhZte5a3V/u25PixeqeEXRPlLcHv7svT8Xr8DJc4t+wX6fVPb1vL37Pt5u3pKL5zuQ9sW/X+fPcvD0hXsZwWtwPe/Dtk0NVyPg3aoiqpp6e1vcvL/Ht9/EDPEyFUhqh7qnwLvHtKfEimmc23Xfk2xneq2esen3DPoZS9x359vGOmLOqlrqvwbcnxHvQ5p327i/w7cu13Y336pP3N2xjQM2MoLtYzLML3z587ndEdIPz6fCuwrczvFrT7XmmeLyxmdvl6Xivbr5j727LuzyronG97yJ9e/Ei3z7eD0PYqwoUzaTDG5+3p8Yrxf1wOFj2PR7vEt/+XLxXT7ODyAp7d2IDhqV9/4W+/S7VHXh3HUOO6p4G71p8+x2oe0aqexzetfr2u1vdv5W6V3numFuV/b7ZiW9ndCfcjKR8Krxr8e2M7pnbzsTiXatvv9/96n59y53RDKO7tXht0759bI4cUuTuKfCux7dzdc9UFmnn7jF4V5m3K7yT6o6ZDptrX8RFeXvxOt9+N4eqqJigLNPgXUfeLvFKK0OpexzedebtEm+Id7czSO7d49ZprjJvl62SraywiR9aCrxr8u22uttmZi7eNfv2uz+ZuercndR45yL8jfp2QHdS40kbu2Hfbqs7pnwM3jXWyUC8gd69okrElq/TXJVvl0NVa55J6DuxV9imfTtUdyp3n493vXn7TLpjxvOvp8R5+0t9+41Ud1Qe2ZyW1gWtJ29H3l3Nqlrqvos6GYh3ysxgoiORT9T36f1kXuDbJd3Litb4PeXtWt2pZXuEuu/At4eoe0UNUvmvZL69uLzat9+QmaGszPDZkW+H3j1zFbyf9pO3h3j376t/eQeldlF9/0XrUu2+7xyqOtV9y759bNnQDrDgHRB/Ht515+1TdP8mp5lcdD8v6fvF5XX17bjvM7qXku/YziB1P286bwd4M2ze0UqPeXjXWycD8c6bVZ1Q99l9/2X7ydB9n00zqdTdHK0uwbtG3y7UHdcQeNV9277dT/fvYLqz7fuj+36xFt8Ohqol9VmCd42+Xah7dpDKbiz1mIN3C749sbrH5e3r8e16qFrZJe+Eum/dt3N1V8UycsLJqe5bztsTeneQUc3t+8VlRb5dDVVLWEpgm5n5eNeXt1tmBhLeUPdpvOvP22X7WprMnJf0/dXk7VYyIy4o9LF41+rbtbrjLFIOWkPxbsW3S7p/iU+kmTlvt07m5qA7KhQraXXfvG9X3j0zq94zSt23WCdzI+j+NTWr6qP7DupkSLqX2tNIqd9T3m6qOzTtGZxm2knenlrdN7afDN33TXXHGc3m69sJvELdQe6uI5q91MkEqXuQdz8vydvX5tsh3UtZ5A7MewzeNft2MFTNLHXnZua8l7x9St3JZKYmh6pbr5OZUHfV9lInE6LucKi6h7w9QN1Nutfsp1akXzTXtrK83U5moM4ruu/KtyN1P+gSYFPd95C3T3t3Pqtag0ure43UfeN1Mo6halnhKLKaj3e9ebuVzGRwxaqh7huvk4lUd8l4pe4L6tsvK/Tt2LsDskt1P+8nb7eSGTN3H9V9Z749zLvXgup1DiW+5uq+hzoZj7qDpXtc3ffk2011R7OqQt335NsDkpkaDlEV2Wvl3fdQJ+P27iWoJODJzJ58O66ZAaWQ4osf77bydlgz483dLfOuCH/aSZ2Mf5qpBMnMfvJ2tLxD10Qa6r6fvF3T/ctXEVkD86K9O/8S2fdXmbc7igiUhy+Zd99P3o7UPXOo+858e5C6E75d/N5LncxUEYFse/PtevEe3IhAF73vpU4mXN11zF6bwXud76VO5v6PNyp3h5uJ7ca3a7hM3e31Hfyvu8nbAd4Ada+1XdfqPnzbS53M/V//71//Xz/eksoj77vJ2wHeLMtQAQFM33fj2wHeSe9upzLy37a8n4xxM5S+V1QFMK3uW83bEd7McDNQ40/78O0I71eYutfayqh/I7r+FutkxvvQy6vytFC8K/ftEO8nV3dGdGNuNTu48G7MtyO8U7OqNawLq7G5SVon8xpf9w+1e02wXKl7ntS3rwJvngk3g/dV4mPWvy5135BvN/D+nVB34F9qHULK73b/J+5FQZo60P8vjne7PA+dvB9/PO86onnfdUrb84HdObvIFoC3WIj3+HS8oH1abAdZ5Mj3veH9+xVQM1PnVB1wna+3yZ3+qpAG/rfKJ+6llUzK/+KZLfuFZqg7XrEa195j28ei9jXdJtS9RvIOfLz6VqPCseczmbpmfvRlcr8Ka67zKOlPHNHHK+O/xLfgTyTbM+voGi/p3+d80EUSnf64qa0++mtg8+fuTq7TFQa1MQuLa4cXCHYV3g3UAbBkf1BXrn9p9ueedKZE65yIDSVL6mce9TPxI395CU+2cpnKw5LgjD7ZYxb/xzZFdpfEv7u5/sF+PjjfxV8En33Ev7Ift7ojFa+BktdEdfDzCD/dFxC7FcstQce0N9gdLu92f0ir7oLvk+quLtgH1D9PU9xSd8vKI4n3kP9dk17+gTn/LpkfLu8fTqFXug5+a6Z/RMj7m6Y4HqzWcMxaG1UGdW7/Q5zdqcwzLivHj63uWtPxL0Lnwfh00r6jujHLy1S2ttvqrk+dJ8yL0nOk6j51B8QuCZqHMn68MnvDGbzsY5a8Yx/zThF/Wt1ddkapu7o+FOG/pl2NQ90H2pJ+BgaStrjTwl6nGX6GeJmK8jD2lQt1lxqPqe/X9f9pu5btunEkZlJLHkpHi7tR/v8/ZxJbYj2AYvFed9qd2J70DsaAKBSqMTVD2P2Bfl65P1D/+9tUphtObwPqLUK5xPtWAMPb5veY3fdNc/rPFxLkFO/vsbuh9/OSHC8EjPpg2h1Q+6E2Vh25E2I/uOqpNdwAn5gv5P8JMg9Yxe7hq9SwewOVeuLosOB2caiyY1KX8HafKvnO2F18Mr6xoOIJu6v91S26N2wAr5C+/VD7vkDugN13I+M9u1+C3j9g9//z+wGcd72lbbCLEH18LODt/e4eKHfM7gTziuNrSrU30yQpwe5usgrEcy2jnqhauUfaHbD7oPf8G1Uxu+J4+1gtWwx2J2V+2H17yH1Ru3//Ydn9gh83uc+kOxbwQswYPaM/FX8e7u/qn4sP3MdY4CB25/6jkjSPrll4rrbokSodmQFuBfbwBTtkfLF+JMW+1+5NSRoK9GIVjfVl7FLfRM3Il6oSNJLdt7wzsyN/5sJ4F3IGQPz5uP0ZJGYchsknwo/0viVF/JKcIfeMteXI2H3C84rZa8/SvDMiJcMbwtfvVy7YrfV+8z4AuyB3JWVyL1Tu0WyqfSbJ7j/eDJAzkt+3JeOdsTtRMuSx+mIDJ+vMHBVytTIlj/AflSD2z9pV5d6xCU98d6BbqAXvHqpzadPsbRv7PpU8rlW80DdIsmuBo+dNTNTcAl7+25Kw30xUzMYkB8wLnz1ZRldfSXqfaHjH7li7U8CfU+kO1cw/MXMzfHVvVfSJs+nlVOp98Q7lTJf8Dj442J0DX1ftd1mZKu3IR7uo96m0Z8T/2hzTF4Pywe435Jvz2G9yf8RLe2foBGwZq2ccyHfwsbsHqzVnGNYn7H4mtPuD9ZOLGfGl4fev41DyHCHbYtxDv34I9fC9Sq3I0JDBI1XtvteceG9YzthXqoV/45qmeBGvQQ+cGc3uyoefcLoh+DFx0nrGsHsgZnaA9c15M9uSM2PVjLRl8Fs1EDMvNmz6Gi9Q9mYFL1j7kzH9z9as9+4pvyf+k4F3C3tH+mkxgyz4ESfTUygt2yeI924Nf7M6xd4Uybclk2bD+j2l3fdI3ezWkfSID3z3c0gaNHJSb9V/gKfA/wb7C7qRXxbtWZzDh6yW+kqtz4Hf9dP0G7fMmNGhGTxvcjq+69hMXQwT3EBvFOtQu0PEF/PvcGnMoxXPn4oCPsT7hgm+4DseJenMjFGTn7I+H9Kb2QzeCbs/iHcP1otJ95GeObWcMVECCfovDm2ncTD7u0er3Is63vIo+8yt6fqnow/3RrI78mlskqAmAd/Q1AnkZgTKe0uNWZUZKRS8MmmAA7mei3zA7hh+wu77wPgODPjnlSrwPrSNQTvMQ3IBL8IDEvD3YFXy+8uFxAC7UwZHn8m/WadMv0rvwFNXUkVwuQK6wTpA+BAx9R2sm0ErOLh9o9zOWmcZAillFNIJ2lVCbDxgG5g7beCLbbB70ZrdNOphZ2anVo0JAPMwwWnZfVcuJHLgzXD1iqx3i3vE7kjKxJoGhSi1qeNpn/061qIz9XHhK4qJIZAHgbHkc9USuz+5Pbi8K14fg6fIhC86Gqlfrj4tNtidJcU24rwXmCAo6USkic1sdqq6SXbfHL0/7G5TMkbPnKFJM6TMD+xPrmUMvSvt7h6tcLaKHRtg3bwr3h/1Pj5B4Umr4oNhkx+4vqVlunuluh8APXSacbty3e0HDABr532I9xYMmTYi3Q3BZxKRO+B5HYmUBE/ZfSBavlcR2C+YnREoP8mcSUBfsfs3zu/B6s+v6I0amjCPLXl8It4nPwk+RjAbsCI3si7H3xsVM2D/o60n4q0l04gl2QzIF+NiEuiA3LPLHrcHr6n++wsybArYfR/ifc7ud1TsvFg0Upk02ncXQDe5mFDZOP8dAd/Ru/t2PhfZBZM/eobZ8DYwo6wZB/hppKD5KHD0aPUI7xjbBO0mOabpvWmEEwN+IxI+zMyUbEps8LtPi8kJa57diZS5gHi/zLTpdLL9RcKRX0bHOHaPjEhrzBwiHUy8GW3erCGeaHg0X41oXsqZLLULeuc41wnh3EJfUZsectakmB3Ef9kTlcsZqmVwZqbA0Sq0JMEyH9QzMbtntbuld6pmbrJ37K7p3QuW2H+//2uHdU/vq6H3eKiq2Z2FwkheUiM+5PdG0mJwyVVPmQby2VzVBgs0t7dWClQz8o1qtfuGXqmbQ7yrBc5PmnaSkhTsDrPvkXbHUob47ufY4Ts9wnUM2Gr3itg9dONZ1MBGCwy9HyA6vzZn5ZlgPmgC89U3Jk5awCDB3vV4yc6agiiBDEdi5a7FjGb3dwsJ9I2yXCJy84yu9cwDdkDvP7S+Q2fmAft+JsLAit7PCyH+5ZMEXwPiUr1r8A+5I38WwtcqMWeseD+W6d348slqDhiasYQ+XXgy6RkHeoZ1rmfUvkcx89binHf9p84FT3PA2227j+9sLgNcUsUE+0jPcO2O2P2B+oP0+6udgF0YMxdo4vBv1VdUSvClzEcI/XpI68b9JbDuYUXRz1cPwm10eNW66VDj4PgMjMCbXMGCim/+2raU7O69KkKSCvIl9WwlTTRS8OS3mQbiteR54mKZoqUdCfp9c6UE1pP07O6+PTVn/OyJJIFfftZktDtGOvpC/3jIxT/xhytkYpbk8W6yAMgZGpQMDfnk09WSO6L2DlKRYK0vir8XstOHP4ozamYOpHVqwIZ2idl9l/rdr2pLOUM7Z7Se+ca7YPd9FhW77kaxKCkmlM3zz5fkYY/56iWM+aHw0YPAuqwwOnyQ0j6210TWV2XGYKJm4M62ebNWmCRwHXuezg32u4nSBLRe1O/Kc7+5HC6ytqXADLIkgYwp0/4N/TjVUWDG7j/4vkle+TUa8EG32Bg/IfnuiR6ze5XDpkrYXWcO+LvWPVyPCsn9YPA+kkzvumcou2O2l2Cvk4I9bMRYdpdA780yPOL2Ar0aOVzVGWCTolnB+oazkcaTLJkI8K6pHmn3RXbXmGfsfhp2R+673vMQ7I6Ee51LGv0DUmmEmJY0qb6D+cIfUTRL7A6SYyAAD/m9yS6OhrORDeBe+/DzgKRIiv1QetHjJl3EEU9TG2f3AsJiJVeSqkIzgt3Vrgfuz5PsvkN2D7XMyIvJx+qJamdIHwHT7kzG6FoCrH+4b8O8eH/k8qizB2w3ayCVD5wo8PV7tS4lgW2MwO45mceqUTfQkCx8xsrKZppd8mgJJUPkDGD3Msf9TvoJosJIEwQG7L4HMsY0pk5bODS7B7+qf6ICRwbgnRA8frY6wM8rybqdq+qKgqAQmK2wVpsnoHOnJg8PM3bv1pCk9F5Q5VJYPwO0TNNVNDnEs87ISL0HzgyqA86yu0pDBux+6djYJZMzUMy8ltm9UvFupI/X8U6+wyWnKqNlb0yibC44V8Oh5lD5FAFgd1fB4cg91TNW8MgJIB0Mn5B2aZ7KjT8DWlGLy4iVkNNRid5IAXN2nzgzcM9D6fb/gN3tqKnqb1K+n7xZPbnLMVSyjQyFIqeIR9VLgsrpBAp5ks6bga2ontf7PBbMl7RJYiwZivTsjvKR2epr3yn2uJCkcGbqzOwT7a7kjGF3j/lX2neXEXipWfQQSdmRyINH/owjd5Aim+mZjpf84tx7ULjUsUFTsS+DY2LaaDedBSwo6fxIPFTFMWBfFjlLjG3Rlra4dJBxZvaY37fAmqHODGX3YbdfqgqbsPtLRcTS7H7MpX3VOQOJ9aCm5iCupL8AONcvzoesde3Kh+ugmQUKcDE26hlD26vZdmATGgOKxkQKps2RW3HGe+y7l1V+F7UbQMrIRKSfqqoODuLJXOq3SybFaKFYit1n2gY8aasPD/O1KPR/A+4AoHzCvrMQ0qNoAZy3ToNjTa+tkg2n266xLfBrp2x8myRpBlZdHNkUzQZvlNlrZRl9I6ZM26aXm1gnMHZmyAaf2WgaNz3gXpPv4PiI3Sv+euTdZ101jOFdC7HxbGYNql2rmm4bJUN3snfQt1SD+we6g4auNvn56uKtD1qSKsIESXbnp2sKYPeFU2W7Gq/uEuso9X4y330/s6FInwOmhWJvs3sA+soWQ3iPB+rtIDlhKOW7TRRUFDLok9CkGT4tLPHpbmyAddsMvHzUpqAtJyThDbuHs9aNNyxl7Ujcp6fr87Y9Los8tS0ZanfY9f4omsnW6kfsXj3Wq9HtswYD/fegelfsfiRerX6XtU+qsTXQLaFbm4Z57w7xODm2TupFFMBH/N4Mu7e1BA06bzDYPevTGNirvpmdzFah7x4lIknkHR/zSGRm3iL4agRNDQo83CdM2RzmgoI/+5Qpg3fsHtvvQLnUcIePbjlZ7e47sZcQ3ybq/RYxDTdyYGtm4/yepXfSDLypeWqi/Nqx+0y7u4LUEyeAX5+ze4L2q3Pmo04+kiqw9B4cpuwkAZ85zYoAn1xnbbkLrIsYh5f5kCepiiLlgna2APsb13bUlKd33gls2H1LavddFxKk2oB15cz0CN/vPFUrHkBVJut5MV+FNfEpa2Z+38ac83PlqQbz2VFTeOVDF4vlL1QWGIycaZm20PquQmLuxrA0JMsCu7sQwfxwjcQ+Lka9JvXXJ20Se/0Ou1diRlYXrayHr/EARWTmvlOG3mNZY56olXbS/EpbQdRJ4MPu7Ola+GaTQ7zAeltpAw5eqrqTYGHEipqv91EcOdfuuA54esjjacC+QFvk6xfYvYbS/XCxSSvs5z1kFR23XMgUwOMHOhxs955c+0ydRQmkF+NPr7qcpFrd7mmjxlSk0nmTqpxpsXgvri0SeTIyE1mWjJl7yhp57pzd9Y72hN4jdndNBL+n3atp7JiweyzhUergyMUjezIIP2sfs2/W9ZoCsKzddcdSjwFf7GoTFu+gcWalnGDzrTPyjkc+P4Pu8Onjwml23/OnPC5dF4kXtF+/4MzU8BsO+di2cdngA5uOmQvFPZQyrpSGvFzlvkedZOAboPgGYmM68a6+DctnkJaBYWB8Zzi66WGLCAbM0WQ12aDnG2ZcRWqW3f95NEy8U34/zxc23l/WeP8H9z/wn19zayobxNKKplrxnbOPDm+7iRNz4O2rNXmjjzG96JXUz9aMnCnut+gYZUs7M75ZjHiRhUNedb6rOrENHqKMj9cI3IsOjnN2yuMSkbHZBZt/n3/9MsYrXgEUUcrDni1G8Xi/s/pBZUGXpZKI3XEsPpsZi4KSNjumxY3y5GdHti3YwZZ2A91LiacrRPsW1hLsOj4gHqvidyRtdrrcJEF/kqvx7nDNCAOzHb6XhvvxF+b3xwfIr1jjoKoaUslH6f3NIhrbjl2neQJwwUlSe030z0wPHqi8WI+FuznMR8ndTJyWL64699326BF6NzBXiH/4fQp2VUAz5XaLd3W8RgL+hTLBXxLt5tcf8+9HSYPD5uNp4gCGI9PlqZ020fRIuluoV61hqk0Y0AVWdOyg24iYWnvKjVfRCRucjmwzO3JD7C4PyN/LHiWGurlpIPUM8uAn7D5+C+nd3/IwpQS4FvVhd8HovyJrKuwhqzofH+oZe/4A7LUmfUl6gzgidS1mku57c9LdT1m9bo/UTHHaXd+ycQNWV4Y9GThtJAmsNvmKZveiI7+0cWZFyozYjIq+59ldJWdOXq30l92VlLlZ/M/nUyc0cUIPVSVm4ux7uomm2+PbfQr4/7F2Nd1x2zDQpI58FJ8OPuzq///PNlmvBAwGILhx7DZuesVOhsB8eLcmgu1TcBevVd/x5Bs+vNCZggVOTA0sl+8fdpNpH1/J1PBZ/6pC+N9E9wl3j9Migcy8Bh5o/L9Q+kqbcOw5iiooFZNfaSD20V5pbHqtoWxMUve6Qt0t0Hes046zgVExozPgfaNHIxk0K9ydCmhI86o79TshMwvo/nZ6xOT9ICrg17z/iGi8k9P38wun+fwE3DOQz1Mm3f0Mls+PJUtTN/Y+KQfugQNEUnf6i2gnG4A7xgWbfGDs1e6unoCs34OIAjvt5Om6zbrjtw2SCaY1Hm4CR2rgDzHpc3QnuQSpYmGK7gLifwHdlU7GxtLM2m/IFjLL3d1nK6pnAnpjhAQU4ptBdLeC1Zg9XKM2U0SqvNSJWTsRlLqhYZXHoybkwJa1OwLJ2WoGoq/DQALYu//w9iPUEwju/l7NKBYvmfxvnZ6GU0sfSWnyRm075SgUg0H3ljQw2GAACcGd7iSt5D0VwGGUYqyizObPLBYMk1kHdC+JKj7lVvXLtOfwLsQEa+g+m/cL3fXAi3/w3+s31Wqj9mrQi6BjsoNH6ViV0dS4ltKmSIYX1coRXq7aQR0pk2aM0am3sJcs8VIF86qvkNyEngCA/ednFRg5j9DbnSoP4/XIoft+ZNH90FdVP+/9EhH8P8R/vg1rucDdm/XzY55fCcJ77iaZlP1p6YFi6WG1DVxVLZ5XJwxbkfZuKw+g0WY1h0MT+OYOeytlIe6dVpb9bGYKmLNLkEDAIJ1t3RPcfRHdnxl0f8shXyKC17yP8/p+/SvB4xcovd8QQgNqcOJfrfSmrnLU5Q28Mm77FQe3XCzva2rUxtps1FiT79ZU6arNFHOGvcnn6TRZbIuYjRXAz4ViVvlOnHxhTiqcVfcsunvc/Zr197irUb+m/ZQILq6s8r+cY+yaqia4Oo3Q5jFCuWT3jk1hk42JxDZRHNWcVhskzqif1aw3Ei7m966GorHikhlcu7cCTqd5GaVawRsRQXGa+K72YJC+A7qzYReK4AvdfXh/zri7wPk3rgt0l5N+0Zr7vSo+ARTdc/Neg5BsHc3HVpRY/sEaEXII3298D2m71P/WnGm1kX0Nkb93JglOaAiwTd6H91YSgZEbpzM2KLUkEjj2qIpPofseofsdsQQpHPPNjM/dv4/v26X9VkQqZEdwv0dborw8xv7DMt6lMSYtm9cRT4e8280kScV2r6qVgLuZfSOawZcrBixNUrDDiCU/dMbJImiLLB7SZuRP/mZmJydVw923X0D3Y47u1/dfdD/+/xJkBvH9zzegu2Txw75pV56n2IrjxsLbZaTKCZ6gezewTvaSJo6AcHiieq/x5l1vIUUKh9SG6aNTzslXmh/77il+mz43tfjeRDs9lkLEDJcx6L4H6A6bmcO5sC5w9z+T/nfknz+LSMLeX5zmhM/AKTY1wxcO5yl9dQvOaNqYjlgakJU9kksaAHje2qc1YpUtIGuQAN8cRTA8VvMpesXoxnyNWKPd2iuvVXJhVUNfaBEfPlPpZoZaPQ5ZLpxDdzP9GtvvH7/VZ+DrvYa8JhZpDTD365l6ao5zCqJzfnh5krdX2v9h36XRoHcetYRqAuLSNjPPSE2mgtWpb+oonwknvti0yDAetVF8d/WQSGc2P3rGZ/A8DRi4ewjuVPC+H/ORf0737tbNxNYzCPaK0Cieo3bz+u+A5IJyOBnx6GIdPBfYTH2fLiS7TiiAdmHh78AljT/s1rOn8L2xLI4l0bsz8LY4HlRiLVjN3ByGt60mkq/RtgodfMDdtyhF7zfQXXB3lNDAZuYcBNkVo8cl5I3u5wglZjX5gOVPV/IuHQv4jnAuK+fNoHuJBH0J38Vm0tj4mjGvLmUB+/AOkTPTtHdv8DH02gB7sWwmu5nZw4xUs5lhiWIW3SPNzIHozsabLiAluKt95QlUZh3dUUlWA8u2SZNkI98zCrJuE7FNDkHtNPi99kmCJK4kcdZJHPYkhiPkMp+1rc6ixbLobsuzjR5y82oO1tH9af7AI++v9+qN7tczFLj7+7kqPwfX/8C/BvSmUhL5c3E9ad6pUAFC4lLzTtZOBGJm3hVxFzl6Netp0namDhrgbtJRe1o/UKTTo8T9BhigN2uh5IJgrSaIYyNZb80GiTMZ7i4kBHtwWNVfcsIPhez31L83M9cQ/5njh11Nvv/X/cMwaxv9hl03elcnOduJk8SDqst50o6Q7vbciFcruFfrZ3EcNidyGh1Z3Mx3+AhgqQcMe3IHv+l+MvA35UpXoaAsIO/Wor3vomL1hvkU3N8ZeofmMze6D/5klcAvPwTn/bsiPUphkNEZVHJ5mnd/SFUBScoeS1JhfKtWc27iLdvJZr5mTqwgf7/Hmz1dS9OK39vQZHi85e/YQNmiq9MGZfJGDDzvrtk3kzNj2ie9aVdRM7ZPmHEbhe7H7WZS6K7I/NeQg/tQSD407ouRN+A/TkD0VVVNJSr46tQ80SzJpNOvG6+TU0Xs9PPZUhv2nm3OR0AHccgqvnR0JAX3+wOBpR46OHLNwWqmvchIvS0u52PRSvMUDoXuEtz3425ussfVp7izHsfNYQ4c+S87uOquJOb+IR6x4jOCsjJBasZnLqjKeIyae5sUrB+sKXjvViOMA0/9q/lKmyZL+pz0d43uEMdRGvqX2u1sKrkieTbjoUQSubua9DKx88mfdjy4hkF616XpeqwqfN+D4+pTlQsjd79+/0YB8GnQXU31qVg80RJ8ju5jeF19vAukEuI+ppqx7rSxEl5Dw4G1XKxyAXxzjNomT9JydxodWWgdX4lLm2T75I3yWEqZySeQzlWI0mMov28bDc6TK/jwsWrR/Z5+D911PMEN6Wbx/iUHXa0fBXUZuJrUw6+cT6iRT3B3lk8QVDvJ7BkL7sPE1PjvUzPlWiHsm1enEA8yMe+JCujOqExhexmTs9SY0QNW8Fk5geDum5M/o38VC++7jVzSJQcJdFf0nfYcWHT/oTJuHoFF9zeBH4juktyPk+zjhw6rkXKajNtVxaS61U6jRg1mFt7HfBvfc54+VqZdnXZt6/roTva7FcLHiuDiPGEdbxPs46eDv+HuHR+pJdUt7GS/J4xNbDOjOlfdzJn3k1WuICVv/wZ016OsEB8W7hG6gxT+TOpo7F01cjhVXmBm4T2dCMwyl+T3bW7quJ+pQRllMy4+J5qA6sX0cUn5mNhPtp2M7GUyHcOKyEAOdpA5s29GDuz4VreVzQx0rrpZwO9tzfMpZz5Gd/P+NI9Siu5aSiCX8NOnqs9jbMs2mD0cyczwjq3dN2ynEsYccHcryjoz8ilBATFpJ+OW4LFKA1JxLzMx9G2exUM9V7WxSS9qdulvilIJFtHda49XRdoXdT9EgB5qZoC7w5b9VAt3NfIC3VE7ptD9XLoxjbjkg9FzEivpH1v7rJ6PPlTl/r3bbo/a3Rw97uPrHdaQzQlJ5YpfEoJtfR5k696yO8hyx+fB2j3bO7lvUTTqtsbdF9D9OKCoSQ381+n9Qsqizqn2y/J4H97PDI9XScJsMykvqKRtPp1e0HmTk2Y6MoujelnAUck2q/ZAeaTX6kHzCIqi79bngb3abXJo2hzN+2aTsMPQmd1J0dPqyMxmZom7U7GMvjJ9R+PufQQGbCzVmtISGZY5uWD6q77hyZi3LbyH097dHqdJwTzoZ2oQIdl4Bysh8jj0PeIvjpzGj9GzrZRxV9lmJl5wdjw0FT7xNoSGf6ugyAm6s4FHxVgUsLQ27vKIiugOmnj5aAWXa1JLU9H6Ubl2hi1gRi6Uo0qjtqqk1AXzXBycFgI35tXWdm3t80ikjBUeAO91DS9UHShKo7btBNvT1EZq3/WwbwvcnXRpy7XM88BgVNDOfJ2Pn6/8vA8C7m/QVwJgjeWntkHl42lM2iRl81xjkPBud8wFRjivUiZ5P1nrok7MW9LYNGyP0JQ7V8m4m0q4kASbUwuWkALgTdR7ibvJ5C1VLmPwyrTd8ne5k0xsZnxt2JPMvdG8C3R/5NkMI+6C66BplThAJmym0oJiHsjh7NenHWadSQq6toB4EkmbEFwD86p0NzXv3ES2knotWUwKtv0g+EWUGKY3iwUWgWKRaxVB3nKZzYrENpmwtLh3351Zh2phdVnVXtU17u5A+83dB9g/iCnkXHN/hBXzfBO/VD/clQ7etNt4rm0by5EBd6MDJtzdZ+8udedcBiKBW7o6HoQzNnmmZImM8fHpMVcXpyPk7m4oAZUTuNz9h8s8Fsg7I+6nMXZD8BIGFZxr63gvh8YRyqQaKnulSndWQGyzJHOpS5BL4D5Toc+m5yx8fqyY0+sxExVs2rpt76kW3ktMZtClDVljaXTnCmAmJ1BN2pq8r29mPOKu9vNCAW80Bgu6sWqN2075NmtjzfdTdpb83mXfTaAFzuE7E85gzpJ2saKhrzQO7r5WjAa+t5KU0WzFqmVw3kuwizTFHsK4t0l0V3DvamYcb9OTtWqLZg+C7udvoTuYuzVLP3Ex47f6Vb8Ygawg+eZ9Du40aYnXa7P+Vbwy0U08hs4QT5ONFwPRmNdgM/Vru+iejJ7ZiFAs3RtPqbv5yZr5GLprRkPR/Wkh/nmgfe+F7o81ePe5u9LfDHt4EtFkH1m3/YyxYev6anriyd6d/lGHe9OCd68Fwkidotd9PgPcvTQifXf37r7HKUR31UhWNpqfVyZkBnzaAs43tGrfdcIW3Wkjn4PuT/FiVej+WFrMOOg+TmvkNhqxRT5TabCYR96tDnKkEiRtLZ97ZuXZ7+rMVGPmbhxN9K3qXpkCUlPaJEpPy8ZmGdjU5+Gy94jLkMiZ+3eWs+Tq3fcgg+PJv59A5FfPTGeA7jabaZgWy8VUPSTvKARGSrMK7s5VNZSMqdEmcXo1jtJrQS6wQXdL30uQUeDkpCqX9odkBr8jgweLWXJVMwjvh87eEGcmPwwY5QRPv5Ts2syI/cxjbSlpMzqMq3vIvxxYtOS5ms5h1jTXH6fXMl5dmaMUxn6P2tfEM36th0Nt5umRejXT3BjsdL/BZCuJi0l/4ncV/L6z+EiHvB+84+A4jujYZLSRECh2KDLzePOZx8KrFR+wJqVAcHfswFmvQahxF6uJxl6NoPHdrFfwhp54E34dD33D/kky8SwSu/9jdKRdyyQNThtJjDToHlq1eajYBjRms9KZ+2u/X60QxGEEBUDcw737Be1L825isg26330IoicBDNwfHJ2sRvLl2MZQjoWwJbN6NMVltNjGcPYahxI0GoVNpj2bDTxh7koNnBfNbCUMSQXP6iSJA/Kv8b5KdGJ29NGpHdu0nywtUqH7Y3XYh0dtSHy22cGvtBbXcCNZSejYr4C7+iiYfGARmJq8rDb7WlXYrq3ZCXRn+Ru+kkAPe3LwVeRM0dEbs0nn2RtiR+NtZnx0J1EcxKWN6H5QdP+EzZhISRsh/DPgkrqb8KXUxDsOECoWqzqtwFcCh+S9Gysf66LsNkwyDtMLV5JQcJDsXiWeJimEhJSZtfjIrZhpL5uD7sVvGN7h6QroHijgLbrvXAkMd9VDRc38OrprUQ0Xk9nCvtWyyjqJGfsoPLLrf1itDW0uc6+siQA9dnDqzYbpLQUD8ztTKiXSiZyxdR6qftKq3otjaTIdNlIzszHifsM7orslNejQVjKCQ+ndH+Sbf+VfrWnunm+8qaR+GCi8gve6oCIIkZ8UsJp1TA3z82iWnlnBw2Imhe+6WdijMv8xd23LbeQ6UOQ8sjgsPUr8//88tRVbAzQaICgpqeN47XiTR6SrCfSlRZ6+5S7SArwc9eWx1dAZIO9BnbZB91BMQNAdCc2NDrs4PNmvGYWwRnfo/zCO7rm7oKmedGbIlrLPmTvRQpIE+JrbzajBdzLFxGfffaqWYA8JrXy7dAa5jBz1ldEjCH0XZXxHHt1pMjA6sy2P+TPuDxfc5bc30R3MTtDHDYX0aXRf5qVCAPzS58HuqrCwoYVlPQPwiPJ61lnTMJhYF3YmrY70K5vQvLevA8aQSKmBL8d6OwMRHPaduofuZ2Yzc9d0xiMzP9N9wf3O/UkPvDZv2xa/rRBJk0BjtZEK3b+0mQlylrC3bJV5zZYzplA7Z9LGGBriaSLBYhtrd/JSvVQERR+ZQAHPy5r0fZVYmnLo7r9V7eI9g+5mU/PYUNWwh+pkl6a9c5Pm7pWUstrOpk/G3Br38LKKDr6aaRmOdjLEuxovZYpi8UwjZiVibXlaPUjP6qvMw6J7ZiHJnqqLrPcQ3b3AGQHuWhOZQXcz+vs7G6UQ1kzermyywjFH+87vrYkHK2xmPHSnX3onK8nUu9VMv6EyPrqXbLcwk0O2XUZDfuFZ1Rn4k/4Cedg2uruZM7LKQ8cq3aOnqjP7730MVA+jkmyMTduHSKDRlGYMG6an1MG5ho+O0ZHYzCfere8Igv0oPSxfbX4VZdHrmfU+skV1lKvkGRv4vjisiooy0uWBAoJjm7ufptlAtsarEI6rmu82k/P+7sAPDCAbpM5vji05QdU7mipSJX0h/Ga9h4vuNPV9z9mkuY0tGVb7mZbpbyrxdVX1kzWajtqWk040BAXFYjTq/Qzb4w9QiGW5O9dGPlHwrmhNGt3fhncIiIdis4mOj0Q8tk4Z0/HAjtFJXp3iuCVNa9C458XpYe5MTSxqoIaVRAG7dybVxJdBd1zOpOmM0L0rWmMS9Mqi4cAU18gYDn/1TtGdGVc5upvr6u3vDjut+QBdmZn3ZJ6eYPFYUjkqKd1+B9whecMLfn/L3cSj9GjQEh38ouqFi39ssmEz1MfX4i4+GHOzhS9u8nUUGHnQzsn4quq1rT7RxaeH/f5nM5Of98dn044NZ695R/X7chFPDR8Vw8ZI3zDmi40UjwF077RR3oakJhsPGtVEJuMiYTETRhIYt8dOvzBXEmRa+M7D2vjUqB976H7y6hpA9yfA+w+6P8THFJ/0492H6iCOkIF1rVtv1Uo0NI56TMpnRi5Rz0YuEbJOS4f3iLvj7NDm1WT3alG1TYWGEmw1G7Bbk4V2al5lSQS4nuE0ZonuOkaPgrsZ9WtFc8Mx/x32yT83M/ZwM0MsIK+4vV3XR/Xsq9CsPRDes3zmiuPwE9+JeTUF7pgtxmx8cFntC6l7Km7Gr9VuiwA9c1lVJ9bizrhtrsFasn10P52r6lNGRt7vMhb4/joz7aF7/rxKNjPWAaIsfp8YPaonMahWD5yOSkXZDGv12MlHtWPfWJ4Ygfckm1lMvRTPWHRvi9U74LvOjEyiO3bHv8vdfequUyO19v32kMgdf/75sr+EH0wfj6M/3sB30/Yxhldio1YzScFkZ/SdLCIVvNdFBLZJjvRd2ssNTVOP1ZTNQzSv7li0nbVM8dB9RWfeRXdfRaCouycoMNwd4X0Cuj8+RvdhzU8ilCbpcXLlYkORmWGbVvfFwb3y+5Kfj9r3lO8yUcyEzrQWJmCXVLaSuS6RiXcq5O2o24Jhhu4n4zUnqgiMiCCF7m5rjWnQRiHw7WfG5+v777T//r+Lsz9+Z/2TEyuDe7Oa/OCjDsPeoXJ4ZOhMxyZKelrVyxkeQxP6O9QWkqN8z3GZyKHdeNbMGtwPVM7oJOBUcTzJWDKF8VEV3wXwcivjxnA8IRBYJyzdHpSpT/6TFL4/Vr6QLe/foEHaKU5f9Z3Ve8ayteTIJ9F06KRkl1UVUBBhPs9ZcrPFbNF22t4EquCQz7SM6F12HDCQXwXoHaR08jj9FTyZf9ek/TRZS6qxSZIZBHdF2X//ipK/f+EUNXg2DfH37S5rrJTAagpGbhGpxhvovJ11SOSoCRYv01G9HXzzV5LFshrXs43orqs9zMzTQAKjIVhFiwHB0YFixxkr35Hd3Em5MOHwT4h7F5uZi7QYPNdrSXVu+gK6w+6dZI/p+LFdRyt0aw94t9ZEsbZs+ECCYxXwksrURKwSRXe6g/fAvZgDa8jkN1+r6/1MBt1PfWIFxfvhMRof3X9m/AwixWTeu4fumqaT96qQA7vovvGUHSSrZpK2srlH27UCXvm1mZZgJI3bJlpvYWElyUseifdjUrvZvPeMVkxNu0F3f9IbdWcfTt6M6dNOo7tmMinVjKbwp4fuJgz4LtuabgrBGXefAudnTGTUnz820Z2FjyWriGuE7qCcGTpsbGzpIiE2EnUEWPDhFh00VVHWglhgCEv1s1KLI5BsFN3VqZW/Xw8WF0mKhTfIjBQC08/jQ3S/2LvK0Lu6yW4POexT/V59+fltTkqWpPGDJpGZTqdsaxnFd0xJtbjOQN4kcJBUYMfSp66rLqw3M/fYrq2X7nLil8cmrPQAdG/efqYtPE6HUs7o7Xs5qIfPGfZj0Tn5Hro/70Qk9vo3IMjM1Gt3NeHyJftt+SR20E8TJ7lB3mtE3rmKJllI2WmVkxbQkHCC6vWUNaUC1oYPXsfnCQkKNfNJGuMKJKF2NRMo5u0iyzo578rCPnUu6lfR/e6h+1OQmQkTPxWPmbiJ/J58cqTQfS5PTjR1aTgiYOQwuVkXhL066WKk16P3VbAYTD+t41sVUHrx74Uv4i8Cv/JpH5y7kyWk33HA0Z0P/Ne5u1hGUnSHEZ96SfN9cPe5O/Z+fNSwbdCd6IRJpFIPG7a5Y7tDSEGcoWcHnhaUBUSm2JgleLT6OaklCkw9CJVxHHxp8n4eJhj173N30eNxA3A3ZP1xbWr+BrgbPbB6m86RgXflXa1gYY1UNBrdR+61qgaem1ctba9RPEEjxQdNJ+dhUVnk1E4Epb5eq3ZR07bSlQ5bLlwin7bJWfoX3P03KvWF7lOvYB52V6MX71/D9yEjJYndQ6eN5V3bVdv6cC+pmz5qwsznorsV0hgPX12kLIktfIzufZ3DUbDjgCTpKbKejVo6jMEDB3937/5XuPuTcvcL3Sd7p2q8F/C++njf+zSMFl4enSYZ/+noI6n/g3TamB8Ms+mWv8MJyrE5pSOwGzXyGZOHAnc998VDeEdGQJ0fLZb/on7mwM1MspNPXFWFHPj4Hnd/JtAdBt7weKUxiEXCGE2zGatq07KByMBicgZBY5La6L4DNvQjd2zCh6tzZ+qdBI2tXNo0YezayKx3kGZdU1bBBNggn8F30z2pyuOTNZQem/kn6P4Ihn2q3eRcYbtNpsH/ttBdJAgP1cPNZx1dHyQ+1Uy6NfixEsog9r0ucjjcDU3D7Tt3NnVV1cRysEvQSBmUegTD3tYdTceh1zN+Nqp1NtE44P8TdJ/wr2GCkQ9kZfa2it9TW/ihMlSniQqebuJexemHWxOD9I02ec/hBEYPUMG7CfANg8WaY+NzbB60TRiSI6OSg+IpC1o07ZkkgriHUhq1nYF/d+8OS0iN7g9v2OeDDTtTCCsBJQTtpVP3BppXXw5WHSwZxcFXWMooRs/hHTeTgTSy69j30Liq7ks16J+0LJ4FAXcskG9tRzlTaBeloTSucOYgHu2oOj5fo/078D7A7+3dn6ReNdjMTEvbp/oDQ24maMiU24/AezKn42VxGrp9e4xVmCpBdx/eY3DvRA3cff+qUP/WjUyCxrKWYBVp/E2dZV+bUyu5MqHXwz+quviOx9QFvhObtkvf/z66TwT0gSt3j7vPB9nPO/qaNZnRh1UH3SGGZsbKGaYmqCZSTJP4UdeT30nikm2Qt/HA1efuzSTP4DJyZdcueGgq7lqGbeCX63cn7X1l4gsW73Qh+Sl330b3B3usWng3CpuHdfxtqMaGg+6Wu/trmYqn1Rd3/y2zccF97Dg9avRYvdhLqrKp4eHJKoB1lFj3LR5m+F0NAQSKJTbvyN3ldWmPzJy2lO973P255O6Sjgyjn1ksKJHESDL/DXTXialY/zFj3TvA+4jAnQ5959gufhOUHGCqWA327kQR7IqAeT8TPFsbymaC1ibHph2Rd6fhwGkT1mQmqo7/wmZmje5SQPAIB944+yCVRq01eTXCp+geNTpVD93JVXUN7h3ir2EZ2aOWMkrga9ByAN5VJ2Ap2echL6xByQFrKEttZgDf30N3roz8p+j+WKH7w9m+C22NcEPNjZeqw93JoBteszivuldVV1KwMGn3Wv1sMVqjXVeqd1o8iZuZKP+6BCNvwoBpBvZOfB6wdz3rJcXd5bAH8L6rmXmGjfE35OgSw110n14sDUSOfaqVlPXE2GKW6TCrjgyevVrX1B3qVnv1r0ymkW818VYt6UhmghKbwpk72cxAIHBJjjxbRGpV8EozIxOwiTISJ52j+wvcz7ub844GbfSq+tkblLtrHQ0+Xi/FALU6LfQEmrvDVvKnhFt1Vc6N8BmlGhOEfgSS4A76mW6KV6vj0wa0r4tYsYY/hgFjmRYbrZ+xkWINR73t5KSa4vjQtnr6/TWHiBPLpOjJtKXfoT/JzOOPt6XmK36scuoeoftjM3xs6Eqb1xctKUjESfqubRjxEa1meoUQjv5bRMlZjd5Grqqb9G1Va2eAxS/xvWiJZCHwrlczG31NBzVqlxybOQ83MHL9AbTmhfOnW+Zx9Xg83XGfvrhgPuyiXf9uRma/HXQXOK8UY0ocuVPKWnkkx9rvwaQEnVibbLJYsqys0dImkpWKIQULbaTHaMDFt5UZ6Uz7kVdGYvekjFbaQHedIMmDOJ4yfGZFZoKBh5vrf8Osxn6Gda0LlB+gntEbd7Gu2YH3Skx9bswYJ+0XZ5fYXsOVZF22NjXqWrX5SmTIe8uIaIDKNCIPM+fVYxPdw26DU2llGKW5xvzIovuVgn26rlW9qrntD7tIo5mc8azRPXy1DiN6F0R+TJj2NLwrRY17aR2V6SK5mKB7ByckNGspcMM7awtKylzqXpxjk5l2vXFvSfJ+Sd+V2UNJgQvWC0fk3Ryb8uh+v7aSp8dnbDpqhO5zIR/D1QxsLGemjDuN7mDjRh1NnB9ZWbNTVdkz4NYeUcFBh1CC8LyaNXuA1ckEA3fYzPRFgXyxYdhO3+rOI9UnMxtRM2eM7inufooOjyS6/1c0+R6641XK/rXponvi4mTR3Q485OplE8aYmEa22IxU4tIVSnAx+Ej5Xvt6PfPavOuBx+eqQvcOYjHaX7OonnRPTccihENDexGrmZKyZstv76D7/ZQNq8Fe8oqLDLn7TKD7w/1rM1PG/RG6p1ysFRbvY2A1H8mawaglnRapxGGB8l1y95SAhlc2SXTviWYDpZMsmCbmygdaGuOdGm0z5iVcz8DmfZO76wYbf9ZT6D592CZGbsvdcylM76I7CGkylR8U3ZHNWLxfn59iZ5NE9+XAN17IZ4l7JI20osjmR703P1vpCHJn/FkvqcRI42Z6k7uLgrKA0cjH6i1azEwrdmevVor7H4YVJLl7ftINm8edjOXuI+rx0L7sHe5e1/JI3nOg4b0vyEyBiW/O3n0drkTKaw5vO5MQvZsuj0+4uyY0b3P3+F8BwX8mGluWPS3bPZRrFductIVvZrwecu7NnQlzl2IlsFKPeVZt3EXWzBu1EXsTE75nPE1uzgywmWvkW4a7K/r+P+auLrnNG4iV/B45/Dh6VHiKHMcn8UxP304dSVws9oeyLTfWJE7St24wIBYLiJKmRLeBmnSfu99puoPu5sj/yiozDqE30J0cQVlu4dUd7yUVWBAPQcGZiz61WQVb8FDCjLd06uCU7Kz1gC1Zk32rEEHz8W8A8bw7xR3Qb2BXNpVU/IbZHb8capcoEtVxvAt0P87TajeQ6H761TX62GMX3a/WsN+VeHnjqq+hVh/a0n0jfw7QfQkfG5lE7LVgm2ViY32Td7bdUYuHej7Gd9aT7SiDQyfQKFVSFBv4nrESt622pYgMQ5csSnPwyyYc9hKA+2k0raqBV+h+Wb3AtIrvK9Ad9ZorQXf19/NqWIlFYoFVYUm4uwqR9NEdhHcjD9sspnRT9FTlsG0VSwsyHNzpVrX79Uz+DZ/IIGi5LZNJZtTAx8aZU3J5BexHzN1DeP8kd7cH20hRJdYx67jPGHamu09d85G0RbKuD1Zek/YHdy3CA5lB+0zijK/JtrKVzgRJ7yQX1YX3JuWZlsuMPNAWierMVhTB0kYmhv1IojvvnlTD/gS66+tVPfB//DPA56c+brUU+cmLKH10D8KWKo3hELaBYV/2UVzvpFAeJZsOMXo1T92hjs8w/3aLzhQzagYESRYw0wIqQ9E9c5mNCo2U3pdB30L304R3mQS8ie6TKfNTeQ+UPdgoO5t835pIg1/Vd3CLeaZgKxK7kvaakUH3+4wjqLO+gw0602Sanio3yHTIl4xC0/QxX7pwddmrKlukx99Rmbn/ehwQoHecO+geL1WfQvc9io8meN1sljvwk5M+Obp7kw6hHOt5x0pgkj6CbqW+s1r5mpHdmz5twqDU+F61IG0vbux1i/JlWlaI1OhejFnnHdra9c7pu4HuhhAJ4P7l4/6B44Nxdzz8U/0IsW3McM7MbNtHDasowQc8aHRkp8UHWn4U4J4H+SY/6xWrChLrtjRTtDSZ+iqJyEiHu3uemVNLM57r/Tg9dL+IK+3z8i1P1Q2hUgfGsxLuDW+B6xMLmEw128rMCY9zIzurlO/OOzWG9+baZ7DdwGcyQamBAe9xPOphK5FpS6T0iDni+9eg+yd0dz7E+pYP16vixnXukhnVOszC36Oyj6qFeMsHOdwDpw76I2HujM3k9UhAdzzi604gQWkqZ4biOI3gCMsNDoHuh4J3Z/KtFGARF8nA/Xl0/6TuzvdNOoFjol1SNyPICOHUS3XtpgRUD7ZN9dFnI5BdGgkyejuGLbFSbeYUA4z3SEyKu6+GMfexyvpVjTilkvO+H3jqQfzuxX+pKl0GZ/wIQvTOC4RwfNtW1TLSTBIiOcFSYEYIJ7NopBgPuRzxubZB3uXFdrLfwG8bvhMbQPh46ntn4E7v+YJ4MVq6qi49aJ9NsuLgtmDl8TO+8f2hzKykRhpnpIfmcrthOs9guWQFpP71lXwdMVspNBOSyGgufAzv2E45Rs78Xolphq5Xx96Ar/ceUprhduCUKxJ3TCRJL0J35DWUydt1BpvWd9WkTcD9ZFHvVhUfGuAvy8jvo/vTayY3kcb6C5vlozs+Dk6FMvkJp02ef6aO4eybRs2OfGcWSfPFqkHefbkKcOfTnrldVbOO046HfLpZ2yXvRh+fCJ3RI2/4f1lgpHZIPib+Z9HdPnWV9cST3kOlLlgHK7URYz+iTnnQ20Gk0db3kYV4KrwbIRx6yKuVSqCYjJr3AN01iS/U+07LDFrG/64erNoRHJ2s2j3a8rrpNubPofsXrpnm1aAoUMOtaI/4b9Kp2MQpOfLn2rxoOExOzbRQsqm34wlSZ000lkB6393FU2m6N54lzqi89/bElbY0h7GrplOxdyMM+NDU/YbuMi3yB9F9mlql8Q9i7TDLhQTLzerUV00zvN+rw0qbeeJ5yjwz67ADwmv6Uu0sMZawhH4Ct261kGoymHinqqb5HgJWYGOp8IW+Ug9vsyqeq4rJ6HjUhDLzlVvVqYua5PvUsN3Mxyn3RmQqcUtKD00a3q2UpQ3u3m1m0w3zTO2ZEz6ceeOCVW6h3BBsiHwX3aqa4LTkqQemKxUjlOCkQ79+C5YZZO6Xc/n8HLpj5JIc8nml0cGWe2a3fXhZsY7onVqtfFQ64yPH2lermB52duIRwHsjYWKrJVLGEqR2rEXlAhfLGCYut1MRejInsgScnT5ZaY+2AHdyzvcz3J2Nr7FmZVHy87l5H+JLbJl20B3bPUayPt7Pn7nJMzoIO71dbYaNwEB3wuCLrvRg0oyqOEg3C99Ud6JFak3SNwOLaRfKDPMP/DC600BUkY4tb5+mihR+DtxXEv/wh00/OM8jMGOLrqsXqoPuFUe+yzw94pxpJAoYS/kyNsk1coZVNW2h+7GKMiyYgB4zlYTpHQ49xH6VoDt4Zl6ozIj5Zld9yvU+lWV+f+AR3OcmunuqzEjmzJATPnLogcEEPaPONNQi5bQLQyRr9SiKsBvorti7M+2HJcOjcYabI8/QQCOs7hTekc38L3R3dtRnxDBNfMHuw/saAX+f+EyAJGs72Bv8TBiHjIDvNWkHFhl6vfNcMS9ZrNj32qRWWJ8ztZC3q5HXi1bjek/bIsVTVUgzUoVcaz0uj8amF6L79kn3ZAdRqwZ/DZsPxhoytiQTGGym6hmn3XzE+m4OfbeUGvNaVeVHVi5FNlbtoSvK5FVTt43AvMWGNBpAHEcxLZKHwWcotVHB19ArTNj7wT0zEt1XDf6kvOaF6G4cubKA7JXdz1QC/AQ/gQHuzuRLVySB9BS4m0EccLTKdk01DFmSHznv0NsUCDTCUhC6I5t7y+SJkbkCStMTuRyqUs/MCu+X/zm6X+1hlyJ9qtVmyJSlWIusJpdZsH2d+c1WPv1ytfuaAgW+qV4+slrlpx6dUPhM06ri761sRCwJB7y4YCXU/VTc/VgRXWK7Td4fUWKPYNTTOlV9JboTU8E0ompkFkcO3R/cfS7L1Rm4Z+BqlYQT4JiPinHBXYN8r06jB7v2qBkHfFv7+DS6UzZTzCy9yPy+xEaSZ+sBy1Wk7B55VxxGS+8HkJjj5Oi+OGiWcNSTo/uvy0vJDC+p1A7hHZFGqJAztWli5D1SJWN07/FWlXQNW3SmgWNGKTN9lWZE8Lt/ydcidFfGmRSVKUWxGMgm2DhtUjcex5lEd54ktvh/X83dSZ0NO2WFi77o0Xp/qa7kfQb0XZmAh7htGp+48uiZBpvULV8DIR5S3ldlZtHgO9cjvbum+51HkaOeLfRg3F0m6RGrGMkRozceh8XdFbpraXKJIXjpuOv1k5QipUNY71ivuZM+Q3efAcxXyd2BvcddZQDz3Yl9R0JTTYRvS7JSN9CdbFjjCkozhoMWTyplBjxiInNGVZMVy+1O0V1V1xy0N97i7gTdH53CL1ZmuORIwoN13cc1VeM0xFZ1JqT3tZzMENtBj0yOvM/dxawnczio4V0sl5LhkX4ENvCYpGmGphJkqIzD3cV7NY3uOO83AfLXa5+q8ok6je5KCu6Zow9Ed4B2V4gfoendS31/buBjQtPYB52/9IZPgXyBG+0oFLiVUvxAscPM4jDeqw535yEcIkQvj+5Wm/CPovu8mmWtbsnNDrqnCijNwEij1OOZwyZn4q2Bb1YMR1O9Bst7tWdSCUzdHftrXGXGiQReUvRWa2Th1x0A6tJMoDSay8ng/aG7Ezbz4O6/Xo7u3rCLd+z6Qs3efMgsvZmwvqtUgsGmnlkJxte8VWscoddw3aRcBL3LV2pIZtwqPmDxaQfBweWZCNtZjNghmcxp2MOg18MrrUnUCH8jleGFTxO7zHDeTZFGb5vmI4BjBkkccsm6PFtJIV+6p0yG6fFA4M2yVRV9rVoorawlCFoqWKnNYiPDsPeDM3iluBc35p2ZCGRxjdW6aqF7lPP+aiEyQnf0zKgMeER6he7KCT9SPyrUyD/GepAla8RlevXpDCozrmOsdTbg4qIPbpl6fNREM2dkEoHvmaHmyDRzF1ax01TfWbMBZInJhiYWKfZydGd8xuPufN6Nfg+C7nDDGrgK6lJAWSFeTBXyjW0jgdHK9xy6KzuB1VvTPSpjBCwt0szTRdpaiaTnTTThndx4qM3T42L18vjNuU6607D6yq1qatinTGZC9s6GfUF32VO2A+4yUk92C2/AuwoF7joSWNeTBa2rAt3JrOPjtZtH2oWgO23STiozh/z1IEerJayL11HvMvxac5mLBPcTrzzsdFRv3Mcb/vxl5P1q6O5TGsXUhpX32Uh0Ry4zMz1lA9v4RiUZ76Fi01nFR2cVB/qMr2bRHcgNC5zpfMHUsIbP6SXzlZnDblu1dfcSKe/gE8PfyrSZVXmP0R0zIt8Gzuj7f1Pw8c03GgrWNAKPu3OZBkD9bn9XkTMTxclKfhGv1YqmmZFC975WeviN2lVie6zBG1+gu8chS0UHBG/o7vnu+GQO9qk7PSBzxiiuWfMifXTXT1WN5uP3eP/4t/BSX7AhRBqa5BC2yKlKPURMQdRRBn53LUGOjE/M6Y83LlY3FqyczkSm90IutOXSSaqRMXdnlEYvVQvp9FA3q6BGnvpjlayKBm0X3QWZeR83BL9j+hjfA+q0xS/B3bPovpyxShpDhPhqnq6uJTbk5iMdAsyKVu11U432q2LMRcVBRncXp9lrTRmJWAqVGWAypWT8v36vME1G9Uon71ce2+j+B8cfmH6H9tfcN8XKTMDdVVIqQvzGwgnsYckNU7dUSYrvW7iO1L2RdDGz48BTaApymZRn5jC5TNHBG4fbyXfqrMjzTNKZp9H93x9/3/+ff3z/OsFG6e5ElrGmfRhVw0SZceoOVNqSvFfNoHunEqR+qpoJ2Jkrj8ZnPpGMWmQUcCGlq2llxs5XOkgCdtQ6KdBdFhs8g+5nmru///1+/f0B8/9+/0qFEns9IE1yXn14xw55yEedgfZeISL4/mSttn1g5P0zEb77M9+0hYCMfJMtlCHEF0FqGpQ1tZxnRhfHHzJSjJXGl30qs8Pdzc7J7TXT2/j6UVeemfuN9iQ9xMt+9WpnRlpURiN+dQML6rDKDkacoaf+rMv0jVuTx56bQFsIurjuyDSUFfKBQkq/ySYrzawHHiVH4GVBk1g3JdH9ZEdNv54zEYzx9m165FQDL2uISeUwqTlYgt+xmi9o96jQwApZehvHTR0CODrvNiDKDB99a82kApeC847SmGeG1RtE5dleGd/C3F0l8iQf4oc03WI2uvMl0wPd07D9Pr77wXplFWY6NfXKGA2uVAWsz0SptrSLGaerY2vou6G/sysPc9jN1klKZWIyQzBeKfAifKPtcneg7iVdQCnt7ofhe7fRnYeLIbq7qD3eXiFHOug+2ZGT37yqOoath2oleWK6xCkL7p0Giq0Tr0oNatDmscrtaqeKyB6z9sIJDaL7J6iMFfVuJ84QgBdO4B1lxrzg+0D3mxZj/fj9zRLNJIEcMPTXK3msXt2GYcXfl5OPx9DXKJTDYu4j5w2DigNCZlS7cHW7yazNaipTqYg4YJu+i9yNLXVmRfc16d2MzlsKydS0rzHv5yZ3P20D8Nt4H79dBvPNmK/jVAHeJ3rgY3THOZ9B7apwEbBXqne3GiZgO+vVrs74atpFoF1iCS6juYt5uLo59DR3g3H3YodGPnTITygzBN0dA/AfJu8T+i9VaaZm8Ffd1beIklyNHFyJnEBlcOarWTj84DPLWUfaBaz6DSAX1SyuqT53Jxif5zIYgI2uyKdIjC27F2xrivoN/igzasX0OWXGP+/4I8AMsVW9qTI3VP9vJN6+dOIXHqONwTjsV9ZR9k9z17LbMAzDauVY2EGPg7+sX1JgX78disSWSMnqsK3XnAWCoflA1D1i7wbaObonstmmDngeazp0yLrUFknMMmA9npkIyliIqgUaL6S95nzXq/EbW9NGt+6xmReUGdSc90T4C0LspwBzt6rMfWDyj88fCzWda/F0CeToKnA6IzWwq8B236nwLgrdp8dUyc4MV2YVQw5gqXEJNibver6jrqB7scoMQvdrQo7cYFzV9xAYTqNdBDllJoirXpK6+u/YaPoHKI08Dps9sNJT75a6j3e/uGQzFxWMUb7lxSaXu9PtGqHYbvX286EpNAAXssfn4XuGzjALwYzuBT8uGe4ehFUD7r5GZh5/Y5RhOqT2E3TAdfxqgp0bxcC4hyiqrkwFYynHXPq+S5rSWDYjaWxnLrGrKVoi7aiqS0x7JF/j7rAocgrw+cjeGLi31tLKTMNdM/+QVV1Ne5jo9qjZdP7Q1B1p8qgI5u1LZKtM+d9lyQbsipK6PE+ExJtgjd5kFdMV2Gq1qbKBgwJ8M2bSI5pwguZIUIk6rE6ioSbrjITeyADdx48OoXmjc0dNwf18YzKlS/7Fa25zxvoSy6vq5E9gDx6e0Jy2tUhOrGaxSw+3btiqpbok0RTjilQDHpnB+M3URcZT8fqXdW6bAf+sG04ztVub9zsamPP4vvcvccdJ5oO3NesAAAAASUVORK5CYII=;" vertex="1" parent="1">
          <mxGeometry x="9" y="419" width="857.95" height="1526" as="geometry" />
        </mxCell>
        <mxCell id="eE12ItCGI0aCU4_02zit-1" value="" style="shape=image;verticalLabelPosition=bottom;labelBackgroundColor=#ffffff;verticalAlign=top;aspect=fixed;imageAspect=0;image=data:image/svg+xml,PHN2ZyB4bWxucz0iaHR0cDovL3d3dy53My5vcmcvMjAwMC9zdmciIHdpZHRoPSIxMzIuMjEwMTEzNTI1MzkwNjIiIGhlaWdodD0iNDguNjcxOTk3MDcwMzEyNSIgdmlld0JveD0iMCAtMC4wMDAwMTUyNTg3ODkwNjI1IDEzMi4yMTAxMTM1MjUzOTA2MiA0OC42NzE5OTcwNzAzMTI1Ij4mI3hhOyAgPGRlZnM+JiN4YTsgICAgPHN0eWxlPiYjeGE7ICAgICAgLmNscy0xIHsmI3hhOyAgICAgICAgZmlsbDogIzAwY2NiMDsmI3hhOyAgICAgIH0mI3hhOyYjeGE7ICAgICAgLmNscy0yIHsmI3hhOyAgICAgICAgZmlsbDogI2ZmZjsmI3hhOyAgICAgIH0mI3hhOyYjeGE7ICAgICAgLmNscy0zIHsmI3hhOyAgICAgICAgZmlsbDogIzYwNjA2MDsmI3hhOyAgICAgIH0mI3hhOyAgICA8L3N0eWxlPiYjeGE7ICA8L2RlZnM+JiN4YTsgIDxnIGlkPSLnu4RfMjQyNCIgZGF0YS1uYW1lPSLnu4QgMjQyNCIgdHJhbnNmb3JtPSJ0cmFuc2xhdGUoLTQzLjY4MiAtMjQwLjA1NCkiPiYjeGE7ICAgIDxnIGlkPSLnu4RfMTIyNCIgZGF0YS1uYW1lPSLnu4QgMTIyNCIgdHJhbnNmb3JtPSJ0cmFuc2xhdGUoNDMuNjgyIDI0MC4wNTQpIj4mI3hhOyAgICAgIDxnIGlkPSLnu4RfMTIyMyIgZGF0YS1uYW1lPSLnu4QgMTIyMyI+JiN4YTsgICAgICAgIDxwYXRoIGlkPSLot6/lvoRfNTk4IiBkYXRhLW5hbWU9Iui3r+W+hCA1OTgiIGNsYXNzPSJjbHMtMSIgZD0iTTU2LjE1MywyODUuNjg0SDQ2LjcyMnYtOS40M2EyNS40NTksMjUuNDU5LDAsMCwxLTMuMDQtMTEuODY0LDI0LjMzNiwyNC4zMzYsMCwxLDEsMjQuMzM2LDI0LjMzNiwyNi40MzMsMjYuNDMzLDAsMCwxLTExLjg2NC0zLjA0MVptMTEuODY0LTMuMDQyIiB0cmFuc2Zvcm09InRyYW5zbGF0ZSgtNDMuNjgyIC0yNDAuMDU0KSIvPiYjeGE7ICAgICAgPC9nPiYjeGE7ICAgIDwvZz4mI3hhOyAgICA8cGF0aCBpZD0i6Lev5b6EXzU5OSIgZGF0YS1uYW1lPSLot6/lvoQgNTk5IiBjbGFzcz0iY2xzLTIiIGQ9Ik02MS45NTEsMjU4LjdBNy44NTYsNy44NTYsMCwwLDAsNzIuOSwyNjkuOTY4bC0yLjc4OS0yLjc4OGEzLjkxOCwzLjkxOCwwLDEsMSwuMTU2LTUuNjkybDEwLjkyMywxMC45MjNhMTUuMzgsMTUuMzgsMCwxLDEsMS42ODctMy44NzlMNzMuMDU0LDI1OC43QTcuODQzLDcuODQzLDAsMCwwLDYxLjk1MSwyNTguN1oiIHRyYW5zZm9ybT0idHJhbnNsYXRlKC0wLjAwNSAtMC4wMDUpIi8+JiN4YTsgICAgPGcgaWQ9Iue7hF8xMjI4IiBkYXRhLW5hbWU9Iue7hCAxMjI4IiB0cmFuc2Zvcm09InRyYW5zbGF0ZSgxMDAuNTI0IDI0Ni4yODIpIj4mI3hhOyAgICAgIDxnIGlkPSLnu4RfMTIyNiIgZGF0YS1uYW1lPSLnu4QgMTIyNiIgdHJhbnNmb3JtPSJ0cmFuc2xhdGUoMC43MjIgMjYuNzI4KSI+JiN4YTsgICAgICAgIDxnIGlkPSLnu4RfMTIyNSIgZGF0YS1uYW1lPSLnu4QgMTIyNSI+JiN4YTsgICAgICAgICAgPHJlY3QgaWQ9IuefqeW9ol8xMTM1IiBkYXRhLW5hbWU9IuefqeW9oiAxMTM1IiBjbGFzcz0iY2xzLTMiIHdpZHRoPSIxLjEyNyIgaGVpZ2h0PSI1Ljk0IiB0cmFuc2Zvcm09InRyYW5zbGF0ZSgxMC43NjYgMS44NjQpIi8+JiN4YTsgICAgICAgICAgPHBhdGggaWQ9Iui3r+W+hF82MDAiIGRhdGEtbmFtZT0i6Lev5b6EIDYwMCIgY2xhc3M9ImNscy0zIiBkPSJNMTIwLjg3OSwyODAuODMybC0zLjQ2Ni0zLjgyNXYzLjgyNWgtMS4xdi01LjkyNmguNjI1bDMuNDczLDMuODM4di0zLjgzOEgxMjEuNXY1LjkyNloiIHRyYW5zZm9ybT0idHJhbnNsYXRlKC0xMDEuMjg2IC0yNzMuMDI5KSIvPiYjeGE7ICAgICAgICAgIDxwYXRoIGlkPSLot6/lvoRfNjAxIiBkYXRhLW5hbWU9Iui3r+W+hCA2MDEiIGNsYXNzPSJjbHMtMyIgZD0iTTEyNy4yMDgsMjgxLjAxM2EzLjM2NywzLjM2NywwLDAsMS0yLjM5NC0uODc4LDMuMTU0LDMuMTU0LDAsMCwxLC4wMDYtNC41LDMuMzU2LDMuMzU2LDAsMCwxLDIuMzg4LS44ODUsMy42MzYsMy42MzYsMCwwLDEsMS42MjQuMzUxLDMuMTEzLDMuMTEzLDAsMCwxLDEuMTg3LDEuMDM1bC4wNjEuMDg5LS43ODEuNjIyLS4wNTgtLjA4NGEyLjEzNywyLjEzNywwLDAsMC0uODQ2LS43MTIsMi42OTQsMi42OTQsMCwwLDAtMS4xODgtLjI2MiwyLjM4MiwyLjM4MiwwLDAsMC0xLjY3LjYsMi4wNTMsMi4wNTMsMCwwLDAsMCwyLjk3NSwyLjM3OSwyLjM3OSwwLDAsMCwxLjY3My42LDIuNzUsMi43NSwwLDAsMCwxLjE4OS0uMjU5LDEuNTkzLDEuNTkzLDAsMCwwLC43MjgtLjYxM3YtLjQ3NmgtMS4zMDl2LTEuMDM5aDIuMzIxdjEuODY2bC0uMDE3LjAyOGEzLjEsMy4xLDAsMCwxLTEuMiwxLjE1M0EzLjYwOSwzLjYwOSwwLDAsMSwxMjcuMjA4LDI4MS4wMTNaIiB0cmFuc2Zvcm09InRyYW5zbGF0ZSgtMTAxLjI5IC0yNzMuMDI5KSIvPiYjeGE7ICAgICAgICAgIDxwYXRoIGlkPSLot6/lvoRfNjAyIiBkYXRhLW5hbWU9Iui3r+W+hCA2MDIiIGNsYXNzPSJjbHMtMyIgZD0iTTEzNC4zODIsMjgwLjgzMnYtNC45MTNoLTIuNDA3di0xLjAxM2g3LjQ4MnYxLjAxM2gtMy45Njl2NC45MTNaIiB0cmFuc2Zvcm09InRyYW5zbGF0ZSgtMTAxLjI5NSAtMjczLjAyOSkiLz4mI3hhOyAgICAgICAgICA8cGF0aCBpZD0i6Lev5b6EXzYwMyIgZGF0YS1uYW1lPSLot6/lvoQgNjAzIiBjbGFzcz0iY2xzLTMiIGQ9Ik0xNDEuODI2LDI4MC44MzJsLTIuNDctNC45MTYtLjQ4Nywwdi0xLjAxNGgxLjE3MmwyLjA3OCw0LjEzNywyLjA0Ni00LjEzN2gxLjIyNmwtMi45Nyw1LjkyNloiIHRyYW5zZm9ybT0idHJhbnNsYXRlKC0xMDEuMjk5IC0yNzMuMDI5KSIvPiYjeGE7ICAgICAgICAgIDxwYXRoIGlkPSLot6/lvoRfNjA0IiBkYXRhLW5hbWU9Iui3r+W+hCA2MDQiIGNsYXNzPSJjbHMtMyIgZD0iTTE0Ny42NDcsMjgxLjAyOWEuNzE4LjcxOCwwLDAsMS0uNTIxLS4yLjY4LjY4LDAsMCwxLS4yMDYtLjUwNi43MTguNzE4LDAsMCwxLC43MjctLjczMS42OTMuNjkzLDAsMCwxLC41MTMuMjEuNzE3LjcxNywwLDAsMSwuMi41MjEuNjg4LjY4OCwwLDAsMS0uMi41QS43LjcsMCwwLDEsMTQ3LjY0NywyODEuMDI5WiIgdHJhbnNmb3JtPSJ0cmFuc2xhdGUoLTEwMS4zMDMgLTI3My4wMzIpIi8+JiN4YTsgICAgICAgICAgPHBhdGggaWQ9Iui3r+W+hF82MDUiIGRhdGEtbmFtZT0i6Lev5b6EIDYwNSIgY2xhc3M9ImNscy0zIiBkPSJNMTUzLjgzOSwyODEuMDEzYTMuMjksMy4yOSwwLDAsMS0yLjM1MS0uODgsMy4xNzcsMy4xNzcsMCwwLDEsMC00LjQ5NCwzLjI3NywzLjI3NywwLDAsMSwyLjM1MS0uODg3LDMuNTczLDMuNTczLDAsMCwxLDEuNjA4LjM2MSwzLjAyNiwzLjAyNiwwLDAsMSwxLjE3NCwxLjAyN2wuMDYuMDktLjgxOS42MTktLjA1OC0uMDg2YTIuMDc4LDIuMDc4LDAsMCwwLS44MjEtLjcxNywyLjU1NCwyLjU1NCwwLDAsMC0xLjE0NS0uMjU1LDIuMjYyLDIuMjYyLDAsMCwwLTEuNjA4LjYsMi4wNjYsMi4wNjYsMCwwLDAsMCwyLjk3MSwyLjI2NSwyLjI2NSwwLDAsMCwxLjYwNS42LDIuNDE2LDIuNDE2LDAsMCwwLDEuMTkzLS4yODksMi42MzUsMi42MzUsMCwwLDAsLjkwNy0uOWwuMDU3LS4wODkuODIyLjYxNi0uMDUyLjA4OGEzLjIxMSwzLjIxMSwwLDAsMS0xLjIxOSwxLjIxMkEzLjQ5MSwzLjQ5MSwwLDAsMSwxNTMuODM5LDI4MS4wMTNaIiB0cmFuc2Zvcm09InRyYW5zbGF0ZSgtMTAxLjMwNSAtMjczLjAyOSkiLz4mI3hhOyAgICAgICAgICA8cGF0aCBpZD0i6Lev5b6EXzYwNiIgZGF0YS1uYW1lPSLot6/lvoQgNjA2IiBjbGFzcz0iY2xzLTMiIGQ9Ik0xNjIuODEyLDI4MS4wMTNhMy4wMjcsMy4wMjcsMCwwLDEtMi4yMzktLjg4OSwzLjI5NSwzLjI5NSwwLDAsMSwwLTQuNDkyLDMuMTI5LDMuMTI5LDAsMCwxLDUuMzc4LDIuMjQ0LDMuMDMsMy4wMywwLDAsMS0zLjEzNiwzLjEzN1ptMC01LjIyMWEyLjExNywyLjExNywwLDAsMC0xLjU0OS41OTMsMi4xNzYsMi4xNzYsMCwwLDAsMCwyLjk4MywyLjMzMywyLjMzMywwLDAsMCwzLjEwNywwLDIuMTYsMi4xNiwwLDAsMCwwLTIuOThBMi4xMjksMi4xMjksMCwwLDAsMTYyLjgxMiwyNzUuNzkxWiIgdHJhbnNmb3JtPSJ0cmFuc2xhdGUoLTEwMS4zMSAtMjczLjAyOSkiLz4mI3hhOyAgICAgICAgICA8cGF0aCBpZD0i6Lev5b6EXzYwNyIgZGF0YS1uYW1lPSLot6/lvoQgNjA3IiBjbGFzcz0iY2xzLTMiIGQ9Ik0xNzQuMzEsMjgwLjgzMnYtMy44NjVsLTIuMDg0LDMuMDE4LTIuMDc3LTMuMDE3djMuODY0aC0xLjExM3YtNS45MjZoLjkwN2wyLjI4MywzLjI2MiwyLjI4My0zLjI2MmguOTA3djUuOTI2WiIgdHJhbnNmb3JtPSJ0cmFuc2xhdGUoLTEwMS4zMTUgLTI3My4wMjkpIi8+JiN4YTsgICAgICAgICAgPHBhdGggaWQ9Iui3r+W+hF82MDgiIGRhdGEtbmFtZT0i6Lev5b6EIDYwOCIgY2xhc3M9ImNscy0zIiBkPSJNMTA1LjMzNCwyODEuMTQxYTQuMDYxLDQuMDYxLDAsMSwxLDMuMzY3LTEuOGwuOTQ3LjkxMy0uNzYyLjgtLjk1MS0uOTA3QTMuODYxLDMuODYxLDAsMCwxLDEwNS4zMzQsMjgxLjE0MVptMC02Ljk4YTIuOTI4LDIuOTI4LDAsMSwwLDIuOTMyLDIuOTIzQTIuOTI2LDIuOTI2LDAsMCwwLDEwNS4zMzQsMjc0LjE2WiIgdHJhbnNmb3JtPSJ0cmFuc2xhdGUoLTEwMS4yNzggLTI3My4wMjgpIi8+JiN4YTsgICAgICAgIDwvZz4mI3hhOyAgICAgIDwvZz4mI3hhOyAgICAgIDxnIGlkPSLnu4RfMTIyNyIgZGF0YS1uYW1lPSLnu4QgMTIyNyIgdHJhbnNmb3JtPSJ0cmFuc2xhdGUoMCAwKSI+JiN4YTsgICAgICAgIDxwYXRoIGlkPSLot6/lvoRfNjA5IiBkYXRhLW5hbWU9Iui3r+W+hCA2MDkiIGNsYXNzPSJjbHMtMyIgZD0iTTExMS4zMTUsMjY5Ljk3NnYtMS44NjloNC44OTV2LTYuMDU5SDExMS43VjI2MC4xOGgxMC45MnYxLjg2OWgtNC41Mzl2Ni4wNTloNC45djEuODY5Wm0tNS45MjMsMHYtNS4wNDJsLTQuMDg3LDEuMy0uNTc5LTEuNzYxLDQuNjY2LTEuNTE1di0zLjQ5aC0zLjk4N2wxLjEtNi43NThIMTAxdi0xLjg2OGgxLjgwOWwuNDU3LTIuODEzLDEuODY1LjMtLjQsMi41MTFoNi4zM3YxLjg2OGgtNi42MzJsLS44LDQuODloMS43NjN2LTMuOGgxLjg2OXYzLjhIMTEwLjd2MS44NjloLTMuNDM5djIuODg1bDMuNTE3LTEuMTMyLjU1LDEuNzg1LTQuMDY3LDEuMzIzdjUuNjQ2Wm0xMi4zNzEtMTQuM2ExOS4xODIsMTkuMTgyLDAsMCwxLTUuODcxLDMuOTczbC0uMTExLjA1LS43NjktMS43LjExMy0uMDVhMTYuMjE5LDE2LjIxOSwwLDAsMCw3Ljk4NC02Ljk3N2gtNy4yNDVWMjQ5LjFoMTAuMjQ4bC0uMDc5LjE3NGEyNC4yMDcsMjQuMjA3LDAsMCwxLTMuMDA3LDQuOThsNC4yMTcsNC4zMzQtMS4zNzMsMS4yOVoiIHRyYW5zZm9ybT0idHJhbnNsYXRlKC0xMDAuNzI2IC0yNDcuOTI4KSIvPiYjeGE7ICAgICAgICA8cGF0aCBpZD0i6Lev5b6EXzYxMSIgZGF0YS1uYW1lPSLot6/lvoQgNjExIiBjbGFzcz0iY2xzLTMiIGQ9Ik0xNDYuMDE2LDI3MC4wMzNhMi43LDIuNywwLDAsMS0yLjYwNS0yLjY4M3YtNC4xMjVhLjc4Ni43ODYsMCwwLDAtLjc0MS0uODM5aC0xLjk3N2EuODE3LjgxNywwLDAsMC0uNzY0Ljg2MWwtLjQwNiw2LjcxOC0xLjg3Ny0uMTEyLjQxOC02LjY4OWEyLjY3LDIuNjcsMCwwLDEsMi42MjktMi42NDNoMS45NzdhMi42NTksMi42NTksMCwwLDEsMi42MDYsMi43djQuMTI1YS43ODYuNzg2LDAsMCwwLC43NDQuODE4bC4xMiwwdjEuODYzWm0tMTEuNC0uMDIyVjI1OC41NTlsLTEuMjA2LDEuNzgtMS41NjQtMS4wNjcsNC42NDUtNi43ODl2MTcuNTNabTExLjY1NC0xLjA2NHYtLjFsLjAyMi0uMDg1YTI0Ljk0OCwyNC45NDgsMCwwLDAsMy4yNTYtNi44MTVsLTIuNjYzLTcuNzUxLDEuNzY2LS42MDksMS43MzQsNS4xMjFhNTYuMiw1Ni4yLDAsMCwwLC45MTctNS45ODdoLTQuNDlsMS4xMi00Ljc4MiwxLjgzOS4zODYtLjYxOSwyLjUzMWg0LjcxOHYxLjg2NUgxNTMuMmE1Mi41MTcsNTIuNTE3LDAsMCwxLTEuNyw5LjNsMi41LDcuMjI0LTEuNzUzLjYxLTEuNzI3LTUuMDE0YTI2LjQ2MiwyNi40NjIsMCwwLDEtMi43MSw1LjA0NmwtLjA2OS4xWm0tOC4yODQtOS44Nzd2LTEuODY1aDcuNnYxLjg2NVptMi4zOS0zLjFhMi42NTksMi42NTksMCwwLDEtMi42MjktMi42ODN2LTQuMTQxbC00LjQsNi4zNjQtMS41Mi0xLjA0Nyw0LjQ5My02LjQ3NiwxLjQzLjk5M3YtLjMwOGgxLjg2NXY0LjYxNWEuNzg3Ljc4NywwLDAsMCwuNzY0LjgwN2guNDgzVjI0Ny45NmgxLjg2NHY2LjEzNWguNDcyYS43NjcuNzY3LDAsMCwwLC43NDEtLjgwN3YtNC42MTVoMS44NjV2NC42MTVhMi42NDgsMi42NDgsMCwwLDEtMi42MDYsMi42ODNaIiB0cmFuc2Zvcm09InRyYW5zbGF0ZSgtMTA0Ljk1NSAtMjQ3LjkzNikiLz4mI3hhOyAgICAgICAgPHBhdGggaWQ9Iui3r+W+hF82MTIiIGRhdGEtbmFtZT0i6Lev5b6EIDYxMiIgY2xhc3M9ImNscy0zIiBkPSJNMTY4Ljc4MiwyNjkuOTZhMi42OCwyLjY4LDAsMCwxLTIuNjc4LTIuNjc4di03LjA2OWEyLjY4LDIuNjgsMCwwLDEsMi42NzgtMi42NzZoMS4wNzF2LTkuNmgxLjg3djMuMDA5SDE3OHYxLjg2OWgtNi4yOHY0LjcyM2gzLjgxOGEyLjY0OSwyLjY0OSwwLDAsMSwyLjY3NiwyLjY3NnY3LjA2OWEyLjY4LDIuNjgsMCwwLDEtMi42NzYsMi42NzhabTAtMTAuNTU2YS43OTIuNzkyLDAsMCwwLS44MDkuODA5djcuMDY5YS43OTEuNzkxLDAsMCwwLC44MDkuODA5aDYuNzU5YS43OTEuNzkxLDAsMCwwLC44MDktLjgwOXYtNy4wNjlhLjc5Mi43OTIsMCwwLDAtLjgwOS0uODA5Wm0tMTIuNTMxLDcuNzUsOC45MTEtMS4yMjcuMjQ3LDEuODY3LTguOTExLDEuMjI3Wm01Ljc0My0xLjgyNi4zNjYtMTEuNTQxaDEuODY5bC0uMzY3LDExLjU0MVptLTQuMzE4LS4wNDhWMjUzLjc4N2gxLjg2N1YyNjUuMjhaTTE1Ni41NTMsMjUzdi0xLjg2OWgzLjQ2MlYyNDguNmgxLjg2OXYyLjUzMmgzLjQzOVYyNTNaIiB0cmFuc2Zvcm09InRyYW5zbGF0ZSgtMTAyLjg0NiAtMjQ3LjkzNikiLz4mI3hhOyAgICAgIDwvZz4mI3hhOyAgICA8L2c+JiN4YTsgIDwvZz4mI3hhOzwvc3ZnPg==;" vertex="1" parent="1">
          <mxGeometry x="33" y="449" width="277.47" height="103" as="geometry" />
        </mxCell>
      </root>
    </mxGraphModel>
  </diagram>
  <diagram id="EmQhnxKgF4JXlnNUKROC" name="第 2 页">
    <mxGraphModel dx="1983" dy="1129" grid="1" gridSize="1" guides="1" tooltips="1" connect="1" arrows="1" fold="1" page="1" pageScale="1" pageWidth="291" pageHeight="413" math="0" shadow="0">
      <root>
        <mxCell id="Fm25UYjmxz62y9FrANOv-0" />
        <mxCell id="Fm25UYjmxz62y9FrANOv-1" parent="Fm25UYjmxz62y9FrANOv-0" />
      </root>
    </mxGraphModel>
  </diagram>
</mxfile>
